<svg id="visual" viewBox="0 0 900 600" width="900" height="600" xmlns="http://www.w3.org/2000/svg" xmlns:xlink="http://www.w3.org/1999/xlink" version="1.1"><rect x="0" y="0" width="900" height="600" fill="#fff"></rect><g fill="#e7dbd7"><path d="M0 -111.4L25 -34.4L105.9 -34.4L40.5 13.1L65.5 90.1L0 42.5L-65.5 90.1L-40.5 13.1L-105.9 -34.4L-25 -34.4Z" transform="translate(133 383)"></path><path d="M0 -49.1L11 -15.2L46.7 -15.2L17.8 5.8L28.8 39.7L0 18.7L-28.8 39.7L-17.8 5.8L-46.7 -15.2L-11 -15.2Z" transform="translate(491 578)"></path><path d="M0 -82.1L18.4 -25.4L78.1 -25.4L29.8 9.7L48.3 66.4L0 31.4L-48.3 66.4L-29.8 9.7L-78.1 -25.4L-18.4 -25.4Z" transform="translate(527 190)"></path><path d="M0 -94.4L21.2 -29.2L89.8 -29.2L34.3 11.1L55.5 76.4L0 36.1L-55.5 76.4L-34.3 11.1L-89.8 -29.2L-21.2 -29.2Z" transform="translate(898 313)"></path></g></svg>