<?xml version="1.0" encoding="utf-8"?>
<!-- Generator: Adobe Illustrator 27.5.0, SVG Export Plug-In . SVG Version: 6.00 Build 0)  -->
<svg version="1.1" xmlns="http://www.w3.org/2000/svg" xmlns:xlink="http://www.w3.org/1999/xlink" x="0px" y="0px"
	 viewBox="0 0 500 500" style="enable-background:new 0 0 500 500;" xml:space="preserve">
<g id="BACKGROUND">
	<rect style="fill:transparent;" width="500" height="500"/>
</g>
<g id="OBJECTS">
	<g>
		<path style="fill:#92400e;" d="M379.534,425.967c-3.938-0.485-6.232-6.924-5.317-11.391c0.915-4.467,3.93-7.897,6.907-10.925
			c2.978-3.027,6.17-6.095,7.67-10.344c2.768-7.838-0.889-17.791,3.239-24.779c4.565-7.729,16.233-7.334,19.244-16.026
			c1.437-4.148,0.05-9.132,1.649-13.199c5.835-14.842,24.948-12.748,27.767-25.728c2.462,6.01-0.059,13.13-3.153,18.734
			c-3.094,5.604-6.924,11.195-7.223,17.839c-0.427,9.484,6.533,18.747,3.784,27.694c-2.178,7.087-9.744,10.762-11.28,18.071
			c-1.057,5.031,1.102,10.114,2.049,15.175c0.947,5.06-0.562,10.547-4.911,11.725L379.534,425.967z"/>
		
			<path style="fill:none;stroke:#FFFFFF;stroke-width:1.0767;stroke-linecap:round;stroke-linejoin:round;stroke-miterlimit:10;" d="
			M434.509,327.847c-7.92,5.469-13.726,14.894-15.618,25.353c-1.398,7.726-0.782,16.01-3.51,23.242
			c-2.939,7.791-9.37,13.259-12.282,21.064c-2.791,7.481-1.979,16.023-1.115,24.112"/>
	</g>
	<g>
		<path style="fill:#92400e;" d="M102.421,422.569c-3.371-0.874-4.91-4.859-4.98-8.34c-0.07-3.481,0.789-7.027-0.046-10.408
			c-2.563-10.37-18.545-12.445-21.476-22.717c-2.849-9.985,8.885-19.8,6.173-29.824c-1.633-6.037-7.931-9.584-10.874-15.103
			c-3.549-6.653-1.652-14.732-0.414-22.171c1.238-7.438,1.202-16.299-4.675-21.024c9.208,2.354,16.851,10.024,19.174,19.24
			c1.328,5.27,1.319,11.472,5.416,15.043c2.914,2.54,7.155,2.959,10.32,5.18c4.179,2.933,5.689,8.379,6.359,13.441
			c0.669,5.062,0.858,10.401,3.435,14.808c5.328,9.113,18.15,10.343,25.935,17.472c7.899,7.233,8.912,20.756,2.178,29.085
			L102.421,422.569z"/>
		<path style="fill:none;stroke:#FFFFFF;stroke-linecap:round;stroke-linejoin:round;stroke-miterlimit:10;" d="M78.085,315.123
			c-1.719,7.047,1.389,14.359,5.194,20.534c3.805,6.176,8.457,12.04,10.321,19.051c1.552,5.839,1.058,12.135,3.098,17.822
			c2.409,6.714,7.988,11.683,12.544,17.172c4.555,5.489,8.357,12.727,6.222,19.533"/>
	</g>
	<g>
		<path style="fill:#92400e;" d="M119.215,430.981c3.715-1.371,4.577-7.318,2.746-10.83s-5.48-5.641-9.007-7.442
			c-3.527-1.802-7.27-3.585-9.623-6.77c-4.341-5.876-2.901-15.096-8.38-19.928c-6.061-5.344-17.288-2.154-22.046-8.685
			c-2.27-3.116-1.98-7.624-4.39-10.634c-8.795-10.982-26.882-4.545-32.361-14.708c-1.116,5.63,2.834,10.966,7.019,14.894
			c4.185,3.928,9.08,7.664,10.775,13.147c2.42,7.826-2.369,17.279,2.188,24.087c3.61,5.393,11.722,6.611,14.757,12.347
			c2.089,3.948,1.071,8.728,1.223,13.193s2.775,8.682,7.241,8.601L119.215,430.981z"/>
		<path style="fill:none;stroke:#FFFFFF;stroke-linecap:round;stroke-linejoin:round;stroke-miterlimit:10;" d="M45.167,362.404
			c8.834,2.632,16.457,9.09,20.503,17.373c2.989,6.118,4.144,13.197,8.318,18.576c4.497,5.795,11.888,8.791,16.361,14.604
			c4.288,5.572,5.307,12.914,6.18,19.89"/>
	</g>
	<g>
		<path style="fill:#92400e;" d="M383.037,417.3c-0.272-2.477,2.105-4.541,4.515-5.492c2.41-0.951,5.107-1.299,7.247-2.736
			c6.562-4.406,3.832-15.615,10.23-20.24c6.22-4.497,16.132,0.786,22.414-3.629c3.784-2.659,4.611-7.785,7.691-11.184
			c3.713-4.098,9.843-4.931,15.355-6.038c5.511-1.107,11.682-3.433,13.441-8.584c0.765,6.759-2.586,13.855-8.406,17.8
			c-3.328,2.256-7.656,3.862-9.076,7.525c-1.01,2.605-0.193,5.546-0.915,8.235c-0.953,3.552-4.357,5.976-7.713,7.738
			s-7.03,3.275-9.43,6.141c-4.963,5.925-2.469,14.804-5.406,21.854c-2.979,7.153-12.147,11.343-19.716,9.012L383.037,417.3z"/>
		
			<path style="fill:none;stroke:#FFFFFF;stroke-width:0.7304;stroke-linecap:round;stroke-linejoin:round;stroke-miterlimit:10;" d="
			M451.614,373.132c-5.365,0.683-9.651,4.659-12.964,8.804c-3.312,4.145-6.187,8.775-10.589,11.841
			c-3.667,2.553-8.187,3.86-11.62,6.7c-4.053,3.353-6.06,8.369-8.698,12.836c-2.638,4.468-6.692,8.886-11.997,9.23"/>
	</g>
	<g>
		<path style="fill:#d97706;" d="M417.472,216.57c0,52.51,0,216.24,0,216.24H168.387c0,0,0-163.73,0-216.24
			c0-38.871,29.495-47.96,29.495-47.96c6.626-88.526,72.457-69.134,94.47-117.805c0.199-0.437,0.391-0.875,0.582-1.323
			c0.183,0.448,0.374,0.886,0.574,1.323c22.013,48.671,87.853,29.279,94.47,117.805C387.977,168.611,417.472,177.699,417.472,216.57
			z"/>
		<path style="fill:#FFB641;" d="M311.703,167.801c4.615,9.568,14.4,16.167,25.726,16.167c15.763,0,28.536-12.774,28.536-28.536
			c0-9.813-4.953-18.469-12.492-23.602c1.814,3.732,2.82,7.924,2.82,12.36c0,15.763-12.783,28.546-28.545,28.546
			C321.807,172.736,316.28,170.912,311.703,167.801z"/>
		<g>
			<polygon style="fill:#FFB641;" points="225.751,204.143 222.576,205.044 225.751,205.945 226.652,209.119 227.552,205.945 
				230.727,205.044 227.552,204.143 226.652,200.969 			"/>
			<polygon style="fill:#FFB641;" points="376.419,329.307 373.244,330.207 376.419,331.108 377.319,334.283 378.22,331.108 
				381.395,330.207 378.22,329.307 377.319,326.132 			"/>
			<polygon style="fill:#FFB641;" points="313.799,237.702 312.536,238.06 313.799,238.418 314.157,239.681 314.516,238.418 
				315.778,238.06 314.516,237.702 314.157,236.439 			"/>
			<polygon style="fill:#FFB641;" points="292.571,357.419 291.309,357.777 292.571,358.135 292.93,359.398 293.288,358.135 
				294.55,357.777 293.288,357.419 292.93,356.156 			"/>
			<polygon style="fill:#FFB641;" points="186.003,351.946 184.74,352.304 186.003,352.662 186.361,353.925 186.719,352.662 
				187.982,352.304 186.719,351.946 186.361,350.683 			"/>
			<polygon style="fill:#FFB641;" points="388.666,213.018 387.403,213.376 388.666,213.735 389.024,214.997 389.382,213.735 
				390.645,213.376 389.382,213.018 389.024,211.756 			"/>
			<polygon style="fill:#FFB641;" points="187.624,232.234 186.361,232.592 187.624,232.95 187.982,234.213 188.34,232.95 
				189.603,232.592 188.34,232.234 187.982,230.971 			"/>
			<polygon style="fill:#FFB641;" points="279.699,185.231 278.436,185.589 279.699,185.947 280.057,187.21 280.415,185.947 
				281.678,185.589 280.415,185.231 280.057,183.968 			"/>
			<polygon style="fill:#FFB641;" points="381.037,270.703 379.774,271.061 381.037,271.419 381.395,272.682 381.753,271.419 
				383.016,271.061 381.753,270.703 381.395,269.44 			"/>
			<polygon style="fill:#FFB641;" points="226.294,126.591 225.031,126.95 226.294,127.308 226.652,128.57 227.01,127.308 
				228.273,126.95 227.01,126.591 226.652,125.329 			"/>
			<polygon style="fill:#FFB641;" points="281.32,85.948 280.057,86.306 281.32,86.664 281.678,87.927 282.036,86.664 
				283.299,86.306 282.036,85.948 281.678,84.685 			"/>
			<polygon style="fill:#FFB641;" points="372.178,394.761 370.915,395.12 372.178,395.478 372.536,396.74 372.894,395.478 
				374.157,395.12 372.894,394.761 372.536,393.499 			"/>
			<polygon style="fill:#FFB641;" points="304.989,135.328 301.814,136.229 304.989,137.13 305.889,140.304 306.79,137.13 
				309.965,136.229 306.79,135.328 305.889,132.154 			"/>
			<polygon style="fill:#FFB641;" points="314.878,296.044 311.703,296.945 314.878,297.845 315.778,301.02 316.679,297.845 
				319.854,296.945 316.679,296.044 315.778,292.869 			"/>
		</g>
		<path style="opacity:0.36;fill:#d97706;" d="M417.469,216.57c0,52.51,0,216.24,0,216.24h-9.62c0,0,0-163.73,0-216.24
			c0-38.87-28.35-47.96-28.35-47.96c-6.2-86.15-66.3-70.1-89.02-114.02c0.65-1.21,1.28-2.47,1.87-3.78c0.2-0.44,0.39-0.88,0.58-1.33
			c0.19,0.45,0.38,0.89,0.58,1.33c22.01,48.67,87.85,29.27,94.47,117.8C387.979,168.61,417.469,177.7,417.469,216.57z"/>
	</g>
	<g>
		<path style="fill:#92400e;" d="M179.478,425.489v2.129H84.583v-2.133c0-4.924,3.461-9.706,9.828-13.576l0.003-0.002h75.226l0,0
			C176.013,415.778,179.478,420.562,179.478,425.489z"/>
		<rect x="93.957" y="296.944" style="fill:#92400e;" width="75.692" height="114.167"/>
		<rect x="93.957" y="299.075" style="opacity:0.36;fill:#92400e;" width="13.882" height="110.774"/>
		<path style="fill:#FFB641;" d="M149.812,378.815c-1.871,6.522-15.812,10.088-17.792,16.304
			c-1.981-6.216-15.921-9.783-17.792-16.304c-1.878-6.522,3.578-8.969,3.578-8.969v-31.637c0,0-5.455-2.442-3.578-8.964
			c1.871-6.526,15.811-10.092,17.792-16.309c1.981,6.216,15.921,9.783,17.792,16.309c1.878,6.522-3.578,8.964-3.578,8.964v31.637
			C146.234,369.847,151.69,372.293,149.812,378.815z"/>
		<path style="fill:none;stroke:#F48021;stroke-width:3.2812;stroke-miterlimit:10;" d="M144.212,182.384
			c0,6.854-5.556,12.41-12.41,12.41c-6.854,0-12.41-5.556-12.41-12.41s5.556-12.41,12.41-12.41
			C138.657,169.975,144.212,175.53,144.212,182.384z"/>
		<path style="fill:#92400e;" d="M90.954,285.682c0,0-15.678-8.989-10.281-32.994c4.907-21.923,38.702-34.771,48.897-54.241
			c0.948-1.81,3.518-1.81,4.466,0c10.195,19.47,43.99,32.318,48.897,54.241c5.397,24.005-10.281,32.994-10.281,32.994H90.954z"/>
		<path style="fill:#FFB641;" d="M168.107,395.12c-1.318-6.216-10.595-9.783-11.84-16.304c-1.25-6.522,2.381-8.969,2.381-8.969
			v-31.637c0,0-3.631-2.442-2.381-8.964c1.245-6.526,10.522-10.092,11.84-16.309V395.12z"/>
		<path style="fill:#FFB641;" d="M95.498,312.936c1.318,6.216,10.595,9.783,11.84,16.304c1.25,6.522-2.381,8.969-2.381,8.969v31.637
			c0,0,3.631,2.442,2.381,8.964c-1.245,6.526-10.522,10.093-11.84,16.309V312.936z"/>
		<rect x="90.882" y="285.682" style="fill:#FFB641;" width="81.842" height="13.393"/>
		<rect x="90.882" y="285.682" style="opacity:0.36;fill:#FFB641;" width="12.726" height="13.393"/>
		<rect x="90.882" y="409.849" style="fill:#FFB641;" width="81.842" height="4.118"/>
		<rect x="90.882" y="409.849" style="opacity:0.36;fill:#FFB641;" width="18.636" height="4.118"/>
		<rect x="81.006" y="426.074" style="fill:#FFB641;" width="101.595" height="6.737"/>
		<rect x="81.006" y="426.074" style="opacity:0.36;fill:#FFB641;" width="21.518" height="6.737"/>
		<g>
			<path style="fill:#FFB641;" d="M93.957,307.243c1.695,0,3.07-1.374,3.07-3.07c0-1.695-1.374-3.07-3.07-3.07V307.243z"/>
			<path style="fill:#FFB641;" d="M107.839,304.173c0,1.695-1.374,3.07-3.07,3.07c-1.695,0-3.07-1.374-3.07-3.07
				c0-1.695,1.374-3.07,3.07-3.07C106.465,301.104,107.839,302.478,107.839,304.173z"/>
			<path style="fill:#FFB641;" d="M118.651,304.173c0,1.695-1.374,3.07-3.07,3.07c-1.695,0-3.07-1.374-3.07-3.07
				c0-1.695,1.374-3.07,3.07-3.07C117.277,301.104,118.651,302.478,118.651,304.173z"/>
			<path style="fill:#FFB641;" d="M129.463,304.173c0,1.695-1.374,3.07-3.07,3.07s-3.07-1.374-3.07-3.07
				c0-1.695,1.374-3.07,3.07-3.07S129.463,302.478,129.463,304.173z"/>
			<path style="fill:#FFB641;" d="M140.275,304.173c0,1.695-1.374,3.07-3.07,3.07c-1.695,0-3.07-1.374-3.07-3.07
				c0-1.695,1.374-3.07,3.07-3.07C138.901,301.104,140.275,302.478,140.275,304.173z"/>
			<path style="fill:#FFB641;" d="M151.087,304.173c0,1.695-1.374,3.07-3.07,3.07s-3.07-1.374-3.07-3.07
				c0-1.695,1.374-3.07,3.07-3.07S151.087,302.478,151.087,304.173z"/>
			<path style="fill:#FFB641;" d="M161.9,304.173c0,1.695-1.374,3.07-3.07,3.07c-1.695,0-3.07-1.374-3.07-3.07
				c0-1.695,1.374-3.07,3.07-3.07C160.525,301.104,161.9,302.478,161.9,304.173z"/>
			<path style="fill:#FFB641;" d="M169.642,307.243c-1.695,0-3.07-1.374-3.07-3.07c0-1.695,1.374-3.07,3.07-3.07V307.243z"/>
		</g>
		<g>
			<path style="fill:#FFB641;" d="M93.957,407.837c1.695,0,3.07-1.374,3.07-3.07c0-1.695-1.374-3.07-3.07-3.07V407.837z"/>
			<path style="fill:#FFB641;" d="M107.839,404.767c0,1.695-1.374,3.07-3.07,3.07c-1.695,0-3.07-1.374-3.07-3.07
				c0-1.695,1.374-3.07,3.07-3.07C106.465,401.698,107.839,403.072,107.839,404.767z"/>
			<path style="fill:#FFB641;" d="M118.651,404.767c0,1.695-1.374,3.07-3.07,3.07c-1.695,0-3.07-1.374-3.07-3.07
				c0-1.695,1.374-3.07,3.07-3.07C117.277,401.698,118.651,403.072,118.651,404.767z"/>
			<path style="fill:#FFB641;" d="M129.463,404.767c0,1.695-1.374,3.07-3.07,3.07s-3.07-1.374-3.07-3.07
				c0-1.695,1.374-3.07,3.07-3.07S129.463,403.072,129.463,404.767z"/>
			<path style="fill:#FFB641;" d="M140.275,404.767c0,1.695-1.374,3.07-3.07,3.07c-1.695,0-3.07-1.374-3.07-3.07
				c0-1.695,1.374-3.07,3.07-3.07C138.901,401.698,140.275,403.072,140.275,404.767z"/>
			<path style="fill:#FFB641;" d="M151.087,404.767c0,1.695-1.374,3.07-3.07,3.07s-3.07-1.374-3.07-3.07
				c0-1.695,1.374-3.07,3.07-3.07S151.087,403.072,151.087,404.767z"/>
			<path style="fill:#FFB641;" d="M161.9,404.767c0,1.695-1.374,3.07-3.07,3.07c-1.695,0-3.07-1.374-3.07-3.07
				c0-1.695,1.374-3.07,3.07-3.07C160.525,401.698,161.9,403.072,161.9,404.767z"/>
			<path style="fill:#FFB641;" d="M169.642,407.837c-1.695,0-3.07-1.374-3.07-3.07c0-1.695,1.374-3.07,3.07-3.07V407.837z"/>
		</g>
		<path style="fill:#92400e;" d="M172.724,288.405H90.882c-2.11,0-3.82,1.71-3.82,3.82l0,0c0,2.11,1.71,3.82,3.82,3.82h81.842
			c2.11,0,3.82-1.71,3.82-3.82l0,0C176.544,290.115,174.834,288.405,172.724,288.405z"/>
		<path style="opacity:0.36;fill:#92400e;" d="M100.897,294.929c0.701,0.689,1.654,1.114,2.71,1.114H90.884
			c-1.057,0-2.01-0.425-2.71-1.114c-0.689-0.701-1.114-1.654-1.114-2.71c0-2.102,1.711-3.813,3.824-3.813h12.724
			c-2.113,0-3.824,1.711-3.824,3.813C99.784,293.276,100.208,294.229,100.897,294.929z"/>
		<path style="opacity:0.36;fill:#92400e;" d="M107.592,413.967c0,0-7.108,3.973-7.326,12.104H84.579v-0.586
			c0-4.088,2.389-8.073,6.844-11.518H107.592z"/>
		<path style="opacity:0.36;fill:#92400e;" d="M129.572,198.445c0,0-2.059,11.392-10.174,20.314
			c-7.222,7.941-41.306,36.552-17.972,66.926H90.953c0,0-15.675-8.992-10.278-32.992
			C85.578,230.771,119.374,217.921,129.572,198.445z"/>
		<path style="fill:#92400e;" d="M134.036,198.448h-4.466v-5.574c0-1.233,1-2.233,2.233-2.233l0,0c1.233,0,2.233,1,2.233,2.233
			V198.448z"/>
	</g>
	<g>
		<path style="fill:#92400e;" d="M256.835,288.217c-9.366,5.493,1.21,61.433,3.569,65.54c1.597,2.781,5.04,3.206,6.852,2.501
			c6.129-2.382,11.96-17.24,12.65-19.857c0.865-3.282-2.048-11.53-6.97-8.279c-1.325,0.875-2.214,1.112-2.214,1.112
			s2.038-23.94,0.639-32.145C269.962,288.885,263.115,284.534,256.835,288.217z"/>
		<path style="opacity:0.36;fill:#92400e;" d="M257.245,341.092c1.28,6.661,2.527,11.55,3.161,12.665
			c1.597,2.778,5.042,3.205,6.847,2.505c6.136-2.384,11.965-17.237,12.654-19.862c0.361-1.367,0.066-3.609-0.766-5.512
			c-0.109,0.066-0.219,0.12-0.328,0.175c-2.866,1.52-5.534,3.412-8.498,4.725c-1.52,0.678-3.139,1.192-4.801,1.389
			c-1.378,0.164-2.953-0.339-4.277-0.022C259.433,337.581,258.022,339.32,257.245,341.092z"/>
		<path style="fill:#92400e;" d="M181.154,432.811c22.954,0,112.357,0,121.481,0c3.194-4.102,2.892-20.475,2.523-25.772
			c-0.325-4.677-3.099-10.707-6.828-13.223c-2.57-1.772-25.774-15.103-32.161-19.095c-7.459-4.659-1.608-51.427-4.539-64.453
			c-2.33-10.336-3.358-15.312-13.322-18.911c-14.207-5.14-33.105,0.21-46.842,5.274c-11.921,4.397,2.951,53.82,3.17,57.954
			c0.525,10.215-3.653,13.606-6.912,19.687c-0.153,0.273-0.295,0.547-0.438,0.831c-3.839,7.678-3.784,26.752-2.001,32.823
			c1.586,5.436-1.838,9.734-6.475,11.823C181.296,423.119,175.948,432.024,181.154,432.811z"/>
		<path style="opacity:0.36;fill:#92400e;" d="M204.155,361.499c0.252,0.175,0.514,0.361,0.788,0.536
			c3.915,2.505,8.848,3.347,13.365,2.275c8.914-2.1,15.564-10.992,24.707-11.32c6.858-0.241,12.753,4.43,18.714,7.853
			c0.241,0.142,0.492,0.273,0.733,0.405c-1.039-16.165,1.225-41.857-0.831-50.978c-2.33-10.336-3.358-15.312-13.322-18.911
			c-14.207-5.14-33.105,0.21-46.842,5.274c-11.921,4.397,2.951,53.82,3.17,57.954C204.778,357.32,204.581,359.563,204.155,361.499z"
			/>
		<path style="fill:#92400e;" d="M194.025,290.844c-5.207,4.073,0.924,57.509,2.818,61.213c1.508,2.949,16.419-21.512,16.419-21.512
			s-0.765-23.465-2.165-31.67C209.698,290.67,199.455,286.597,194.025,290.844z"/>
		<path style="fill:#FFFFFF;" d="M261.697,248.081c0.488-6.932-3.116-17.71-18.507-21.004c-14.048-3.007-28.087,4.91-28.945,33.192
			c-0.245,8.095,3.524,20.952,3.524,20.952s-17.847,5.211-23.744,9.624c13.34-4.648,17.304,8.516,26.772,26.316
			c9.469,17.801,19.671,18.563,22.707,17.426c3.037-1.136,30.199-38.979,23.535-45.737c-3.542-3.592-14.57-3.892-16.159-6.755
			C246.771,274.687,259.88,273.909,261.697,248.081z"/>
		<path style="opacity:0.63;fill:#E4EFF4;" d="M220.375,293.633c3.139,3.456,6.278,6.311,6.661,11.156
			c0.241,3.052-9.679-3.15-10.161-3.533c-3.566-2.822,6.201,10.806,16.351,14.032c6.475,2.056,15.564,1.433,20.103-7.383
			c4.539-8.804-3.576,2.067-9.362,2.341c-5.775,0.273-1.783,0.142,3.992-4.539c5.786-4.681,7.568-10.051,8.258-13.496
			c0.689-3.434-2.745,6.059-8.531,8.126c-5.786,2.067-3.85-0.82,1.236-7.984c2.166-3.051,3.095-6.3,3.434-9.023
			c-0.7-0.361-1.214-0.766-1.477-1.236c-1.083-1.947-0.973-3.434-0.186-5.042c-4.014,0.273-14.765,0.711-17.871-2.045
			c-3.861-3.412-10.325-13.092-10.325-13.092s0.755,10.598,7.175,18.035c-0.273-0.098-4.626-1.859-7.164-4.922
			c0.197,0.405,3.456,6.847,5.337,7.951c-0.426-0.142-7.295-2.494-8.783-3.97c0.241,0.339,4.123,5.72,10.62,8.52
			c0,0-1.816,1.794-14.623-1.783C202.252,282.171,215.573,288.34,220.375,293.633z"/>
		<path style="fill:#F7A38F;" d="M239.744,281.079c-7.751-1.266-14.925-13.973-14.052-22.864c0.766-7.798,7.02-16.733,15.925-15.465
			c8.905,1.269,15.881,2.835,18.367,4.401C263.437,249.328,255.13,283.593,239.744,281.079z"/>
		<path style="fill:#92400e;" d="M229.142,248.924c0,0,22.056-6.337,31.52,3.051c0,0,1.799-8.7-7.321-12.443
			C244.841,236.044,232.103,242.385,229.142,248.924z"/>
		<path style="fill:#92400e;" d="M196.843,352.057c1.508,2.949,9.124,6.969,12.045,5.347c1.495-0.83,13.378-10.929,14.465-13.3
			c5.643-1.637,3.329-21.726-1.572-18.444c-4.902,3.282-8.519,4.885-8.519,4.885S194.949,348.353,196.843,352.057z"/>
		<path style="opacity:0.36;fill:#92400e;" d="M269.447,389.96c5.355,2.349,10.998,5.013,12.457,10.777
			c-4.824-5.774-12.466-8.715-19.953-11.552c-13.249-5.019-27.15-10.098-44.077-7.463c7.105-3.154,13.813-2.588,20.006-1.829
			c3.389,0.415,6.795,0.854,10.442,0.709c2.721-0.108,7.461-2.035,8.977-0.502c1.794,1.814,2.538,4.342,4.733,5.937
			C264.248,387.647,266.848,388.82,269.447,389.96z"/>
		<path style="opacity:0.36;fill:#92400e;" d="M181.155,432.806h121.479c3.194-4.102,2.888-20.475,2.527-25.768
			c-0.219-3.084-1.498-6.759-3.434-9.625c2.942,11.944-3.161,25.549-17.325,13.661c3.117,5.687-2.537,9.581-8.947,10.434
			c-34.157,4.561-78.857,3.839-77.665-33.019c0.109-3.336,0.142-9.734,0.295-14.875c-0.12,0.219-0.241,0.438-0.361,0.656
			c-0.153,0.273-0.295,0.547-0.437,0.831c-3.839,7.678-3.784,26.753-2.002,32.823c1.586,5.436-1.837,9.734-6.475,11.823
			C181.297,423.116,175.949,432.018,181.155,432.806z"/>
		<path style="fill:#4689AA;" d="M221.781,325.66c-1.407,1.672-1.108,13.084-0.322,16.609c0.449,2.01,3.552,2.505,4.492-2.102
			C227.291,333.603,223.317,323.834,221.781,325.66z"/>
		<g>
			<g>
				<path style="fill:#E4EFF4;" d="M289.569,318.327l-2.457-3.769c0,0-12.791,1.277-19.619,9.109c0,0-7.624-13.527-20.833-16.552
					l-4.655,5.52l23.362,19.975L289.569,318.327z"/>
				<polygon style="opacity:0.36;fill:#E4EFF4;" points="246.66,307.115 244.882,311.533 242.791,311.703 				"/>
				<path style="fill:#92400e;" d="M265.219,328.271c0,0-9.002-14.303-23.004-18.933l-11.573,18.734l19.249,19.921l5.397,1.138
					c0,0,12.592-8.394,20.806-7.789l15.56-24.032c0,0-15.541,2.06-22.982,11.69L265.219,328.271z"/>
			</g>
			<path style="fill:#F7A38F;" d="M286.798,324.811c0,0-6.424,0.846-7.739,1.092c-1.18,0.221-1.449,2.56-0.537,2.56l5.042-0.169
				c0,0-3.851,0.383-5.499,0.45c-1.648,0.067-2.376,2.725-0.697,2.994c1.68,0.269,2.702,0.24,2.702,0.24s-1.023,0.059-2.232-0.009
				c-1.209-0.067-2.325,2.515-0.58,2.671c0.431,0.039,0.857,0.06,0.857,0.06s-1.029,2.136,0.403,2.217
				c1.432,0.081,2.29,0.167,3.029-0.169c0.739-0.336,1.411-1.344,1.277-2.016c0,0,2.553-1.545,1.948-2.486
				c0,0,2.773-1.881,2.025-3.359c0,0,2.543-2.217,2.006-3.762c-0.537-1.545-1.108-1.701-1.108-1.701L286.798,324.811z"/>
			<path style="fill:#F68B64;" d="M242.443,325.033c-1.038-0.706-1.787-1.199-1.787-1.199
				C240.512,323.941,241.267,324.404,242.443,325.033z"/>
			<g>
				<path style="fill:#F7A38F;" d="M221.459,342.269c0,0,7.749-7.59,9.015-8.83c0.171-0.162,0.604-0.014,0.854-0.113
					c0.693-0.275,1.185-0.173,2.589,0.458c1.253,0.553,4.858,2.226,6.949,3.063c1.347,0.543,1.994-1.3,1.109-1.943
					c-1.186-0.874-5.595-3.28-6.44-3.747c0.997,0.469,6.397,3.083,9.347,4.542c1.598,0.794,3.266-0.834,1.38-2.358
					c-1.107-0.888-4.17-2.964-6.168-4.314c2.516,1.352,6.925,3.469,9.068,4.636c0.709,0.393,3.219-1.482,1.185-3.022
					c-2.246-1.691-8.449-5.19-9.959-6.041c1.342,0.709,6.368,3.366,9.159,4.64c1.857,0.863,2.972-1.535,1.259-2.794
					c-2.267-1.665-7.744-4.996-10.635-7.386c-1.619-1.346-1.594-3.776-1.594-3.776c0.015-0.003-4.696,0.465-6.348,2.026
					l-10.417,8.261C221.813,325.571,217.992,329.834,221.459,342.269z M238.238,327.8c0,0,0.748,0.492,1.787,1.199
					C238.848,328.37,238.094,327.906,238.238,327.8z"/>
				<path style="opacity:0.36;fill:#F7A38F;" d="M221.459,342.269c0,0,7.749-7.59,9.015-8.83c0,0-2.704-1.757-2.956-4.535
					c0,0-0.93,2.391,0.692,4.514l-6.867,5.858c0,0-2.178-9.378,0.448-13.68l-0.021,0.026
					C221.378,326.118,218.198,330.592,221.459,342.269z"/>
			</g>
		</g>
		<path style="opacity:0.36;fill:#92400e;" d="M213.262,330.545c0,0-11.308-2.801-15.202,13.192c0,0,2.396-7.159,5.641-8.068
			c0,0-2.007,3.033-1.358,7.446C202.343,343.115,203.546,333.374,213.262,330.545z"/>
	</g>
	<g>
		<path style="fill:#92400e;" d="M344.198,370.65c0,0-5.644-30.35-4.539-36.828c1.105-6.478,10.029-10.352,14.315-6.999
			c4.111,3.216-4.032,71.015-4.032,71.015l-17.938-4.802L344.198,370.65z"/>
		<path style="fill:#92400e;" d="M411.228,432.811c-18.123,0-88.71,0-95.914,0c-2.522-3.238-2.283-16.166-1.992-20.348
			c0.257-3.692,2.447-8.454,5.391-10.44c2.029-1.399,20.504-11.689,25.392-15.076c10.157-7.037-0.224-31.817,3.584-44.888
			c2.339-8.031,2.651-12.089,10.518-14.931c11.217-4.059,26.138,3.166,36.983,7.164c9.412,3.471-2.33,33.493-2.503,36.757
			c-0.414,8.065,2.884,10.742,5.458,15.544c0.121,0.216,0.233,0.432,0.345,0.656c3.031,6.062,2.988,21.122,1.58,25.915
			c-1.252,4.292,1.451,7.685,5.112,9.335C411.115,425.159,415.338,432.189,411.228,432.811z"/>
		<path style="fill:#92400e;" d="M411.228,432.811c-18.123,0-88.71,0-95.914,0c-2.522-3.238-2.283-16.166-1.992-20.348
			c0.257-3.692,2.447-8.454,5.391-10.44c2.029-1.399,20.504-11.689,25.392-15.076c10.157-7.037-0.224-31.817,3.584-44.888
			c2.339-8.031,2.651-12.089,10.518-14.931c11.217-4.059,26.138,3.166,36.983,7.164c9.412,3.471-2.33,33.493-2.503,36.757
			c-0.414,8.065,2.884,10.742,5.458,15.544c0.121,0.216,0.233,0.432,0.345,0.656c3.031,6.062,2.988,21.122,1.58,25.915
			c-1.252,4.292,1.451,7.685,5.112,9.335C411.115,425.159,415.338,432.189,411.228,432.811z"/>
		<path style="opacity:0.36;fill:#92400e;" d="M411.23,432.81h-95.92c-2.52-3.24-2.28-16.16-1.99-20.35
			c0.12-1.75,0.68-3.76,1.56-5.59c-0.52,8.61,4.91,17.11,14.83,8.78c-2.46,4.49,2,7.56,7.06,8.24c26.97,3.6,63.74-11.62,56.68-27.15
			c-2.26-4.98-13.91-0.88-20.91,4.8c-6.65,5.4-16.02,14.26-22.6,7.47c-1.99-2.06,7.12-9.34,4.32-8.73
			c-10.31,2.23-15.21,5.52-23.96,11.43c2.13-4.18,5.86-7.33,9.78-9.91c3.92-2.58,8.478-7.163,8.88-17.19
			c1.798,8.377,13.257,8.889,21.74-1.68c9.1-11.337,15.12-25.56,13.71-40.03c-2.5,7.36-10.867,18.689-19.235,19.928
			c-4.404,0.652-13.855-10.918-16.245-14.678c0.63,8,0.4,16.77-0.24,24.77c0.23-2.86-0.21-6.32-0.79-9.7
			c-0.85-7.65,0.135-16.425-0.779-18.493c-1.23-2.784-8.274-13.515-2.675-17.368c9.822-6.758,39.894,2.931,50.744,6.931
			c9.41,3.47-2.33,33.5-2.5,36.76c-0.42,8.07,2.88,10.74,5.45,15.54c0.13,0.22,0.24,0.44,0.35,0.66c3.03,6.06,2.99,21.12,1.58,25.91
			c-1.25,4.3,1.45,7.69,5.11,9.34C411.12,425.16,415.34,432.19,411.23,432.81z"/>
		<path style="opacity:0.36;fill:#92400e;" d="M345.2,386.04c-0.52,3.06-1.52,5.99-3.53,8.32c-1.43,1.65-3.31,2.92-4.49,4.77
			c-0.73,1.15-1.16,2.49-1.98,3.6c-1.21,1.65-3.16,2.59-5.09,3.3c-2.22,0.82-4.53,1.42-6.86,1.79c-1.56,0.24-3.45,0.25-4.36-1.03
			c-0.9-1.27-0.33-3.81,0.43-5.09c0.02-0.04,0.05-0.08,0.08-0.12c3.95-2.42,20.18-11.5,24.71-14.63
			C344.5,386.68,344.87,386.38,345.2,386.04z"/>
		<g>
			<path style="fill:#F7A38F;" d="M363.738,393.79c0,0-2.323,3.305-3.421,4.047c-1.458,0.985-5.199,1.718-6.343,3.056
				c-0.943,1.102-2.333,4.49-3.991,7.042c-0.39,0.6,2.116,0.809,2.116,0.809s-0.052,0.217-0.484,1.029
				c-0.123,0.23,2.829,1.083,3.756-0.841c0,0,1.596,1.249,2.77,0.077c0.565-0.564,0.885-0.808,0.885-0.808s1.248,0.864,2.051-0.005
				c0.399-0.431,2.131-2.008,2.786-2.261c0.655-0.253,2.492-0.725,3.545-1.735c1.052-1.01,1.237-2.07,1.658-2.517
				c0.421-0.447,4.041-3.773,4.041-3.773L363.738,393.79z"/>
			<path style="opacity:0.36;fill:#F7A38F;" d="M351.499,408.672l4.893-6.697c0,0-0.783,1.962-1.417,2.857
				c-0.634,0.895-2.875,3.912-2.875,3.912L351.499,408.672z"/>
			<path style="opacity:0.36;fill:#F7A38F;" d="M355.372,408.931l3.406-5.926l-4.515,6.946
				C354.263,409.952,354.802,409.922,355.372,408.931z"/>
			<polygon style="opacity:0.36;fill:#F7A38F;" points="359.026,408.201 362.217,403.896 358.141,409.009 			"/>
		</g>
		<g>
			<path style="fill:#F7A38F;" d="M327.13,394.61c1.104-1.104,2.703-3.099,2.703-3.099l7.028,4.085c0,0-1.814,2.632-2.146,3.2
				c-0.412,0.704-0.854,2.998-2.311,4.277c-0.934,0.82-4.45,2.575-4.954,2.575c-0.504,0-0.618-1.46,0.756-2.182
				c0.76-0.399,0.943-0.945,0.943-0.945s-1.458,0.626-2.15,1.105c-0.692,0.479-3.438,3.63-4.609,3.896
				c-1.171,0.266-1.086-0.49-1.086-0.49s-0.585,0.937-1.756,0.841c-1.171-0.096-0.185-1.407-0.185-1.407s-0.933,0.299-1.146-0.286
				c-0.213-0.585,1.277-2.714,1.277-2.714s-1.046-0.164-0.639-0.798c0.407-0.634,2.137-3.638,2.989-4.383
				C322.696,397.538,326.297,395.443,327.13,394.61z"/>
			<path style="opacity:0.36;fill:#F7A38F;" d="M321.304,407.031l3.869-5.232c0,0-0.372-0.067-0.579,0.259
				C324.387,402.384,321.304,407.031,321.304,407.031z"/>
			<path style="opacity:0.36;fill:#F7A38F;" d="M319.363,406.465l4.219-5.685c0,0-0.947,0.718-1.035,0.828
				C322.458,401.719,319.363,406.465,319.363,406.465z"/>
			<path style="opacity:0.36;fill:#F7A38F;" d="M319.494,403.465l2.865-3.844c0,0-1.533,1.431-1.63,1.649
				S319.494,403.465,319.494,403.465z"/>
		</g>
		<path style="fill:#92400e;" d="M383.016,369.903c0,0,3.466-30.362,4.571-36.839c1.105-6.478,9.192-6.694,13.479-3.341
			c4.111,3.216-1.166,43.739-2.711,46.638c-2.88,5.404-26.728,23.915-26.728,23.915s-4.824-7.542-10.054-3.969L383.016,369.903z"/>
		<path style="fill:#FFFFFF;" d="M349.806,290.541c1.135-13.472,9.018-16.438,15.904-16.727c11.332-0.475,20.653,7.419,19.947,23.54
			c-0.28,6.388-3.339,21.771-3.339,21.771s14.091,7.114,18.747,10.599c-10.532-3.67-13.662,3.723-21.137,17.778
			c-7.476,14.054-14.362,13.611-16.921,13.667c-6.129,0.134-24.85-27.683-19.589-33.019c2.797-2.836,11.591-6.027,12.758-8.333
			C356.958,318.269,347.9,313.161,349.806,290.541z"/>
		<path style="opacity:0.63;fill:#E4EFF4;" d="M370.97,337.73c-0.48,2.41,7.94-2.48,8.35-2.79c3.08-2.22-5.91,8.54-14.23,11.08
			c-5.3,1.63-12.42,1.13-15.17-5.83c-2.76-6.95,2.63,1.64,7.17,1.85c4.53,0.22,1.39,0.11-2.73-3.58c-4.12-3.7-5.03-7.94-5.25-10.66
			c-0.22-2.71,1.6,4.79,5.97,6.42c4.38,1.63,3.12-0.65-0.22-6.3c-1.25-2.12-1.73-4.36-1.84-6.34c1.56-0.47,2.78-1,3.16-1.76
			c0.58-1.15-4.28-4.27-6.02-15.08c5.36,2.8,16.75,11.32,19.04,9.48c3.28-2.62,9.08-9.95,9.38-10.32c-0.09,0.5-1.77,8.53-7.36,14.22
			c0.23-0.07,3.8-1.46,6.09-3.84c-0.36,0.59-3.39,5.39-4.93,6.23c0.35-0.11,6-1.96,7.31-3.13c-0.22,0.27-3.79,4.52-9.19,6.73
			c0,0,1.27,1.41,11.72-1.41c10.44-2.82-0.65,2.05-4.94,6.23C374.47,331.65,371.73,333.91,370.97,337.73z"/>
		<path style="fill:#F7A38F;" d="M360.207,317.66c7.477,1.241,15.061-5.726,16.929-13.528c1.639-6.842,2.129-15.844-6.406-17.428
			c-8.535-1.583-15.393-2.339-18.139-1.753C348.776,285.766,345.364,315.196,360.207,317.66z"/>
		<path style="fill:#92400e;" d="M378.1,294.953c0,0-16.223-11.375-27.784-5.732c0,0,0.94-8.384,10.445-7.974
			C370.312,281.66,378.1,289.495,378.1,294.953z"/>
		<path style="fill:#92400e;" d="M342.59,370.521c-0.299,1.493-14.602,22.923-14.602,22.923l8.009,5.352
			c0,0,9.905-11.931,11.649-17.201c0.792-2.393-5.681-25.253-5.681-25.253S343.302,366.971,342.59,370.521z"/>
		<path style="opacity:0.36;fill:#92400e;" d="M345.127,386.445c0,0,1.932-5.528,1.541-9.539c-0.392-4.012-3.47-5.872-3.47-5.872
			s3.783,1.566,4.018,2.897c0,0-0.157-2.209-1.449-3.179c0,0,2.48,2.005,2.943,3.257c0.463,1.253,0,10.021,0,10.021
			s-0.656-1.722-0.997-0.94C347.373,383.874,345.127,386.445,345.127,386.445z"/>
	</g>
	<rect x="61.819" y="432.806" style="fill:#92400e;" width="376.363" height="7.468"/>
</g>
</svg>
