<?xml version="1.0" standalone="no"?>
<svg xmlns:xlink="http://www.w3.org/1999/xlink" id="wave" style="transform:rotate(0deg); transition: 0.3s" viewBox="0 0 1440 490" version="1.1" xmlns="http://www.w3.org/2000/svg"><defs><linearGradient id="sw-gradient-0" x1="0" x2="0" y1="1" y2="0"><stop stop-color="rgba(255, 255, 255, 1)" offset="0%"/><stop stop-color="rgba(255, 255, 255, 1)" offset="100%"/></linearGradient></defs><path style="transform:translate(0, 0px); opacity:1" fill="url(#sw-gradient-0)" d="M0,49L120,49C240,49,480,49,720,65.3C960,82,1200,114,1440,138.8C1680,163,1920,180,2160,196C2400,212,2640,229,2880,196C3120,163,3360,82,3600,40.8C3840,0,4080,0,4320,65.3C4560,131,4800,261,5040,277.7C5280,294,5520,196,5760,163.3C6000,131,6240,163,6480,179.7C6720,196,6960,196,7200,236.8C7440,278,7680,359,7920,383.8C8160,408,8400,376,8640,326.7C8880,278,9120,212,9360,228.7C9600,245,9840,343,10080,375.7C10320,408,10560,376,10800,343C11040,310,11280,278,11520,253.2C11760,229,12000,212,12240,220.5C12480,229,12720,261,12960,245C13200,229,13440,163,13680,187.8C13920,212,14160,327,14400,383.8C14640,441,14880,441,15120,424.7C15360,408,15600,376,15840,343C16080,310,16320,278,16560,220.5C16800,163,17040,82,17160,40.8L17280,0L17280,490L17160,490C17040,490,16800,490,16560,490C16320,490,16080,490,15840,490C15600,490,15360,490,15120,490C14880,490,14640,490,14400,490C14160,490,13920,490,13680,490C13440,490,13200,490,12960,490C12720,490,12480,490,12240,490C12000,490,11760,490,11520,490C11280,490,11040,490,10800,490C10560,490,10320,490,10080,490C9840,490,9600,490,9360,490C9120,490,8880,490,8640,490C8400,490,8160,490,7920,490C7680,490,7440,490,7200,490C6960,490,6720,490,6480,490C6240,490,6000,490,5760,490C5520,490,5280,490,5040,490C4800,490,4560,490,4320,490C4080,490,3840,490,3600,490C3360,490,3120,490,2880,490C2640,490,2400,490,2160,490C1920,490,1680,490,1440,490C1200,490,960,490,720,490C480,490,240,490,120,490L0,490Z"/></svg>