<svg xmlns="http://www.w3.org/2000/svg" xmlns:xlink="http://www.w3.org/1999/xlink" width="200" zoomAndPan="magnify" viewBox="0 0 150 37.5" height="50" preserveAspectRatio="xMidYMid meet" version="1.0"><defs><g/><clipPath id="c9f60bb502"><path d="M 1 0.609375 L 37.253906 0.609375 L 37.253906 36.875 L 1 36.875 Z M 1 0.609375 " clip-rule="nonzero"/></clipPath><clipPath id="42703f35d5"><path d="M 24.542969 5.867188 L 19.410156 0.734375 C 19.285156 0.609375 19.082031 0.609375 18.957031 0.734375 L 13.824219 5.867188 C 12.824219 5.867188 6.566406 5.867188 6.566406 5.867188 C 6.386719 5.867188 6.242188 6.011719 6.242188 6.1875 L 6.242188 13.445312 C 5.539062 14.152344 1.113281 18.578125 1.113281 18.578125 C 0.988281 18.703125 0.988281 18.910156 1.113281 19.035156 C 1.113281 19.035156 5.539062 23.460938 6.242188 24.164062 C 6.242188 24.164062 6.242188 31.421875 6.242188 31.421875 C 6.242188 31.601562 6.386719 31.746094 6.566406 31.746094 L 13.824219 31.746094 C 14.53125 32.453125 18.957031 36.878906 18.957031 36.878906 C 19.082031 37.003906 19.285156 37.003906 19.410156 36.878906 C 19.410156 36.878906 23.835938 32.453125 24.542969 31.746094 C 24.542969 31.746094 31.800781 31.746094 31.800781 31.746094 C 31.976562 31.746094 32.121094 31.601562 32.121094 31.421875 L 32.121094 24.164062 C 32.121094 24.164062 37.253906 19.035156 37.253906 19.035156 C 37.378906 18.910156 37.378906 18.703125 37.253906 18.578125 L 32.121094 13.445312 C 32.121094 13.445312 32.121094 6.1875 32.121094 6.1875 C 32.121094 6.011719 31.976562 5.867188 31.800781 5.867188 Z M 24.179688 6.417969 C 24.242188 6.476562 24.324219 6.511719 24.410156 6.511719 L 31.476562 6.511719 C 31.476562 7.933594 31.476562 13.582031 31.476562 13.582031 C 31.476562 13.664062 31.511719 13.746094 31.570312 13.808594 C 31.570312 13.808594 35.5625 17.800781 36.570312 18.804688 C 36.570312 18.804688 31.570312 23.804688 31.570312 23.804688 C 31.511719 23.863281 31.476562 23.945312 31.476562 24.03125 L 31.476562 31.101562 C 31.476562 31.101562 24.410156 31.101562 24.410156 31.101562 C 24.324219 31.101562 24.242188 31.132812 24.179688 31.195312 L 19.183594 36.191406 C 19.183594 36.191406 14.183594 31.195312 14.183594 31.195312 C 14.125 31.132812 14.042969 31.101562 13.957031 31.101562 L 6.886719 31.101562 C 6.886719 31.101562 6.886719 24.03125 6.886719 24.03125 C 6.886719 23.945312 6.855469 23.863281 6.792969 23.804688 L 1.796875 18.804688 C 1.796875 18.804688 6.792969 13.808594 6.792969 13.808594 C 6.855469 13.746094 6.886719 13.664062 6.886719 13.582031 L 6.886719 6.511719 C 6.886719 6.511719 13.957031 6.511719 13.957031 6.511719 C 14.042969 6.511719 14.125 6.476562 14.183594 6.417969 L 19.183594 1.417969 C 20.1875 2.425781 24.179688 6.417969 24.179688 6.417969 Z M 23.894531 7.367188 L 19.367188 2.839844 C 19.242188 2.714844 19.039062 2.714844 18.914062 2.839844 C 18.914062 2.839844 15.042969 6.710938 14.386719 7.367188 C 14.386719 7.367188 7.984375 7.367188 7.984375 7.367188 C 7.804688 7.367188 7.660156 7.511719 7.660156 7.691406 L 7.660156 14.09375 C 7.003906 14.75 3.132812 18.621094 3.132812 18.621094 C 3.007812 18.746094 3.007812 18.949219 3.132812 19.078125 L 7.660156 23.605469 C 7.660156 23.605469 7.660156 30.007812 7.660156 30.007812 C 7.660156 30.183594 7.804688 30.328125 7.984375 30.328125 L 14.386719 30.328125 C 15.042969 30.988281 18.914062 34.855469 18.914062 34.855469 C 19.039062 34.980469 19.242188 34.980469 19.367188 34.855469 L 23.894531 30.328125 C 24.824219 30.328125 30.296875 30.328125 30.296875 30.328125 C 30.476562 30.328125 30.621094 30.183594 30.621094 30.007812 L 30.621094 23.605469 C 31.277344 22.945312 35.148438 19.078125 35.148438 19.078125 C 35.273438 18.949219 35.273438 18.746094 35.148438 18.621094 L 30.621094 14.09375 C 30.621094 14.09375 30.621094 7.691406 30.621094 7.691406 C 30.621094 7.511719 30.476562 7.367188 30.296875 7.367188 Z M 23.535156 7.917969 C 23.59375 7.980469 23.675781 8.011719 23.761719 8.011719 L 29.976562 8.011719 C 29.976562 9.328125 29.976562 14.226562 29.976562 14.226562 C 29.976562 14.3125 30.011719 14.394531 30.070312 14.453125 L 34.464844 18.847656 C 34.464844 18.847656 30.070312 23.242188 30.070312 23.242188 C 30.011719 23.304688 29.976562 23.386719 29.976562 23.46875 L 29.976562 29.683594 C 28.660156 29.683594 23.761719 29.683594 23.761719 29.683594 C 23.675781 29.683594 23.59375 29.71875 23.535156 29.777344 C 23.535156 29.777344 20.070312 33.242188 19.140625 34.171875 C 18.210938 33.242188 14.746094 29.777344 14.746094 29.777344 C 14.6875 29.71875 14.605469 29.683594 14.519531 29.683594 L 8.304688 29.683594 C 8.304688 29.683594 8.304688 23.46875 8.304688 23.46875 C 8.304688 23.386719 8.269531 23.304688 8.210938 23.242188 L 3.816406 18.847656 C 3.816406 18.847656 8.210938 14.453125 8.210938 14.453125 C 8.269531 14.394531 8.304688 14.3125 8.304688 14.226562 L 8.304688 8.011719 C 8.304688 8.011719 14.519531 8.011719 14.519531 8.011719 C 14.605469 8.011719 14.6875 7.980469 14.746094 7.917969 L 19.140625 3.523438 C 19.140625 3.523438 23.535156 7.917969 23.535156 7.917969 Z M 23.046875 9.507812 L 19.433594 5.894531 C 19.308594 5.769531 19.105469 5.769531 18.976562 5.894531 L 15.363281 9.507812 C 15.363281 9.507812 10.253906 9.507812 10.253906 9.507812 C 10.078125 9.507812 9.933594 9.652344 9.933594 9.832031 L 9.933594 14.941406 C 9.933594 14.941406 6.320312 18.554688 6.320312 18.554688 C 6.191406 18.679688 6.191406 18.886719 6.320312 19.011719 C 6.320312 19.011719 9.355469 22.046875 9.933594 22.625 C 9.933594 22.625 9.933594 27.734375 9.933594 27.734375 C 9.933594 27.914062 10.078125 28.058594 10.253906 28.058594 L 15.363281 28.058594 C 15.363281 28.058594 18.976562 31.671875 18.976562 31.671875 C 19.105469 31.796875 19.308594 31.796875 19.433594 31.671875 C 19.433594 31.671875 22.46875 28.636719 23.046875 28.058594 C 23.046875 28.058594 28.15625 28.058594 28.15625 28.058594 C 28.335938 28.058594 28.480469 27.914062 28.480469 27.734375 L 28.480469 22.625 C 29.058594 22.046875 32.09375 19.011719 32.09375 19.011719 C 32.21875 18.886719 32.21875 18.679688 32.09375 18.554688 C 32.09375 18.554688 29.058594 15.519531 28.480469 14.941406 C 28.480469 14.941406 28.480469 9.832031 28.480469 9.832031 C 28.480469 9.652344 28.335938 9.507812 28.15625 9.507812 Z M 22.6875 10.058594 C 22.746094 10.121094 22.828125 10.152344 22.914062 10.152344 L 27.835938 10.152344 C 27.835938 11.296875 27.835938 15.074219 27.835938 15.074219 C 27.835938 15.160156 27.867188 15.242188 27.929688 15.304688 L 31.410156 18.785156 C 31.410156 18.785156 27.929688 22.261719 27.929688 22.261719 C 27.867188 22.324219 27.835938 22.40625 27.835938 22.492188 L 27.835938 27.414062 C 26.695312 27.414062 22.914062 27.414062 22.914062 27.414062 C 22.828125 27.414062 22.746094 27.445312 22.6875 27.507812 L 19.207031 30.988281 C 19.207031 30.988281 15.726562 27.507812 15.726562 27.507812 C 15.664062 27.445312 15.582031 27.414062 15.5 27.414062 L 10.578125 27.414062 C 10.578125 26.269531 10.578125 22.492188 10.578125 22.492188 C 10.578125 22.40625 10.542969 22.324219 10.484375 22.261719 L 7.003906 18.785156 C 7.003906 18.785156 10.484375 15.304688 10.484375 15.304688 C 10.542969 15.242188 10.578125 15.160156 10.578125 15.074219 L 10.578125 10.152344 C 11.71875 10.152344 15.5 10.152344 15.5 10.152344 C 15.582031 10.152344 15.664062 10.121094 15.726562 10.058594 C 15.726562 10.058594 18.398438 7.386719 19.207031 6.578125 C 19.207031 6.578125 22.6875 10.058594 22.6875 10.058594 Z M 22.429688 11.074219 L 19.488281 8.132812 C 19.363281 8.003906 19.15625 8.003906 19.03125 8.132812 C 19.03125 8.132812 16.601562 10.5625 16.089844 11.074219 C 15.363281 11.074219 11.925781 11.074219 11.925781 11.074219 C 11.75 11.074219 11.605469 11.21875 11.605469 11.398438 L 11.605469 15.558594 C 11.605469 15.558594 8.660156 18.5 8.660156 18.5 C 8.535156 18.628906 8.535156 18.832031 8.660156 18.957031 C 8.660156 18.957031 11.089844 21.386719 11.605469 21.902344 C 11.605469 21.902344 11.605469 26.0625 11.605469 26.0625 C 11.605469 26.242188 11.75 26.386719 11.925781 26.386719 L 16.089844 26.386719 C 16.089844 26.386719 19.03125 29.328125 19.03125 29.328125 C 19.15625 29.453125 19.363281 29.453125 19.488281 29.328125 L 22.429688 26.386719 C 22.429688 26.386719 26.59375 26.386719 26.59375 26.386719 C 26.769531 26.386719 26.914062 26.242188 26.914062 26.0625 L 26.914062 21.902344 C 26.914062 21.902344 29.859375 18.957031 29.859375 18.957031 C 29.984375 18.832031 29.984375 18.628906 29.859375 18.5 L 26.914062 15.558594 C 26.914062 15.558594 26.914062 11.398438 26.914062 11.398438 C 26.914062 11.21875 26.769531 11.074219 26.59375 11.074219 Z M 22.070312 11.625 C 22.128906 11.683594 22.210938 11.71875 22.296875 11.71875 L 26.269531 11.71875 C 26.269531 11.71875 26.269531 15.691406 26.269531 15.691406 C 26.269531 15.777344 26.304688 15.859375 26.363281 15.921875 L 29.175781 18.730469 C 29.175781 18.730469 26.363281 21.539062 26.363281 21.539062 C 26.304688 21.597656 26.269531 21.679688 26.269531 21.765625 L 26.269531 25.742188 C 25.273438 25.742188 22.296875 25.742188 22.296875 25.742188 C 22.210938 25.742188 22.128906 25.773438 22.070312 25.835938 L 19.257812 28.644531 C 19.257812 28.644531 16.449219 25.835938 16.449219 25.835938 C 16.390625 25.773438 16.308594 25.742188 16.222656 25.742188 L 12.25 25.742188 C 12.25 25.742188 12.25 21.765625 12.25 21.765625 C 12.25 21.679688 12.214844 21.597656 12.15625 21.539062 L 9.34375 18.730469 C 9.34375 18.730469 12.15625 15.921875 12.15625 15.921875 C 12.214844 15.859375 12.25 15.777344 12.25 15.691406 L 12.25 11.71875 C 12.25 11.71875 16.222656 11.71875 16.222656 11.71875 C 16.308594 11.71875 16.390625 11.683594 16.449219 11.625 L 19.257812 8.816406 C 19.257812 8.816406 22.070312 11.625 22.070312 11.625 Z M 22.070312 11.625 " clip-rule="evenodd"/></clipPath><linearGradient x1="-0.00990032" gradientTransform="matrix(35.685976, 0, 0, 35.685976, 1.340145, 18.806175)" y1="0" x2="1.006366" gradientUnits="userSpaceOnUse" y2="0" id="394375e207"><stop stop-opacity="1" stop-color="rgb(72.549438%, 10.978699%, 10.978699%)" offset="0"/><stop stop-opacity="1" stop-color="rgb(72.549438%, 10.978699%, 10.978699%)" offset="0.0078125"/><stop stop-opacity="1" stop-color="rgb(72.335815%, 10.954285%, 10.966492%)" offset="0.0117188"/><stop stop-opacity="1" stop-color="rgb(72.122192%, 10.929871%, 10.955811%)" offset="0.015625"/><stop stop-opacity="1" stop-color="rgb(71.838379%, 10.896301%, 10.940552%)" offset="0.0195312"/><stop stop-opacity="1" stop-color="rgb(71.556091%, 10.864258%, 10.925293%)" offset="0.0234375"/><stop stop-opacity="1" stop-color="rgb(71.272278%, 10.830688%, 10.908508%)" offset="0.0273438"/><stop stop-opacity="1" stop-color="rgb(70.98999%, 10.798645%, 10.89325%)" offset="0.03125"/><stop stop-opacity="1" stop-color="rgb(70.706177%, 10.766602%, 10.877991%)" offset="0.0351562"/><stop stop-opacity="1" stop-color="rgb(70.422363%, 10.734558%, 10.862732%)" offset="0.0390625"/><stop stop-opacity="1" stop-color="rgb(70.13855%, 10.700989%, 10.845947%)" offset="0.0429687"/><stop stop-opacity="1" stop-color="rgb(69.856262%, 10.668945%, 10.830688%)" offset="0.046875"/><stop stop-opacity="1" stop-color="rgb(69.572449%, 10.635376%, 10.81543%)" offset="0.0507812"/><stop stop-opacity="1" stop-color="rgb(69.288635%, 10.603333%, 10.800171%)" offset="0.0546875"/><stop stop-opacity="1" stop-color="rgb(69.004822%, 10.569763%, 10.784912%)" offset="0.0585937"/><stop stop-opacity="1" stop-color="rgb(68.722534%, 10.53772%, 10.769653%)" offset="0.0625"/><stop stop-opacity="1" stop-color="rgb(68.438721%, 10.50415%, 10.752869%)" offset="0.0664062"/><stop stop-opacity="1" stop-color="rgb(68.156433%, 10.472107%, 10.73761%)" offset="0.0703125"/><stop stop-opacity="1" stop-color="rgb(67.87262%, 10.440063%, 10.722351%)" offset="0.0742187"/><stop stop-opacity="1" stop-color="rgb(67.588806%, 10.40802%, 10.707092%)" offset="0.078125"/><stop stop-opacity="1" stop-color="rgb(67.304993%, 10.374451%, 10.690308%)" offset="0.0820312"/><stop stop-opacity="1" stop-color="rgb(67.022705%, 10.342407%, 10.675049%)" offset="0.0859375"/><stop stop-opacity="1" stop-color="rgb(66.738892%, 10.308838%, 10.65979%)" offset="0.0898437"/><stop stop-opacity="1" stop-color="rgb(66.456604%, 10.276794%, 10.644531%)" offset="0.09375"/><stop stop-opacity="1" stop-color="rgb(66.172791%, 10.243225%, 10.629272%)" offset="0.0976562"/><stop stop-opacity="1" stop-color="rgb(65.888977%, 10.211182%, 10.614014%)" offset="0.101562"/><stop stop-opacity="1" stop-color="rgb(65.605164%, 10.177612%, 10.597229%)" offset="0.105469"/><stop stop-opacity="1" stop-color="rgb(65.322876%, 10.145569%, 10.58197%)" offset="0.109375"/><stop stop-opacity="1" stop-color="rgb(65.039062%, 10.112%, 10.566711%)" offset="0.113281"/><stop stop-opacity="1" stop-color="rgb(64.756775%, 10.079956%, 10.551453%)" offset="0.117187"/><stop stop-opacity="1" stop-color="rgb(64.472961%, 10.047913%, 10.534668%)" offset="0.121094"/><stop stop-opacity="1" stop-color="rgb(64.189148%, 10.015869%, 10.519409%)" offset="0.125"/><stop stop-opacity="1" stop-color="rgb(63.905334%, 9.9823%, 10.50415%)" offset="0.128906"/><stop stop-opacity="1" stop-color="rgb(63.623047%, 9.950256%, 10.488892%)" offset="0.132812"/><stop stop-opacity="1" stop-color="rgb(63.339233%, 9.916687%, 10.473633%)" offset="0.136719"/><stop stop-opacity="1" stop-color="rgb(63.05542%, 9.884644%, 10.458374%)" offset="0.140625"/><stop stop-opacity="1" stop-color="rgb(62.771606%, 9.851074%, 10.441589%)" offset="0.144531"/><stop stop-opacity="1" stop-color="rgb(62.489319%, 9.819031%, 10.426331%)" offset="0.148437"/><stop stop-opacity="1" stop-color="rgb(62.205505%, 9.785461%, 10.411072%)" offset="0.152344"/><stop stop-opacity="1" stop-color="rgb(61.923218%, 9.753418%, 10.395813%)" offset="0.15625"/><stop stop-opacity="1" stop-color="rgb(61.639404%, 9.719849%, 10.379028%)" offset="0.160156"/><stop stop-opacity="1" stop-color="rgb(61.355591%, 9.687805%, 10.36377%)" offset="0.164062"/><stop stop-opacity="1" stop-color="rgb(61.071777%, 9.655762%, 10.348511%)" offset="0.167969"/><stop stop-opacity="1" stop-color="rgb(60.78949%, 9.623718%, 10.333252%)" offset="0.171875"/><stop stop-opacity="1" stop-color="rgb(60.505676%, 9.590149%, 10.317993%)" offset="0.175781"/><stop stop-opacity="1" stop-color="rgb(60.223389%, 9.558105%, 10.302734%)" offset="0.179687"/><stop stop-opacity="1" stop-color="rgb(59.939575%, 9.524536%, 10.28595%)" offset="0.183594"/><stop stop-opacity="1" stop-color="rgb(59.655762%, 9.492493%, 10.270691%)" offset="0.1875"/><stop stop-opacity="1" stop-color="rgb(59.371948%, 9.458923%, 10.255432%)" offset="0.191406"/><stop stop-opacity="1" stop-color="rgb(59.089661%, 9.42688%, 10.240173%)" offset="0.195312"/><stop stop-opacity="1" stop-color="rgb(58.805847%, 9.393311%, 10.223389%)" offset="0.199219"/><stop stop-opacity="1" stop-color="rgb(58.52356%, 9.361267%, 10.20813%)" offset="0.203125"/><stop stop-opacity="1" stop-color="rgb(58.239746%, 9.329224%, 10.192871%)" offset="0.207031"/><stop stop-opacity="1" stop-color="rgb(57.955933%, 9.29718%, 10.177612%)" offset="0.210937"/><stop stop-opacity="1" stop-color="rgb(57.672119%, 9.263611%, 10.162354%)" offset="0.214844"/><stop stop-opacity="1" stop-color="rgb(57.389832%, 9.231567%, 10.147095%)" offset="0.21875"/><stop stop-opacity="1" stop-color="rgb(57.106018%, 9.197998%, 10.13031%)" offset="0.222656"/><stop stop-opacity="1" stop-color="rgb(56.82373%, 9.165955%, 10.115051%)" offset="0.226562"/><stop stop-opacity="1" stop-color="rgb(56.539917%, 9.132385%, 10.099792%)" offset="0.230469"/><stop stop-opacity="1" stop-color="rgb(56.256104%, 9.100342%, 10.084534%)" offset="0.234375"/><stop stop-opacity="1" stop-color="rgb(55.97229%, 9.066772%, 10.067749%)" offset="0.238281"/><stop stop-opacity="1" stop-color="rgb(55.690002%, 9.034729%, 10.05249%)" offset="0.242187"/><stop stop-opacity="1" stop-color="rgb(55.406189%, 9.00116%, 10.037231%)" offset="0.246094"/><stop stop-opacity="1" stop-color="rgb(55.122375%, 8.969116%, 10.021973%)" offset="0.25"/><stop stop-opacity="1" stop-color="rgb(54.838562%, 8.937073%, 10.006714%)" offset="0.253906"/><stop stop-opacity="1" stop-color="rgb(54.556274%, 8.905029%, 9.991455%)" offset="0.257812"/><stop stop-opacity="1" stop-color="rgb(54.272461%, 8.87146%, 9.97467%)" offset="0.261719"/><stop stop-opacity="1" stop-color="rgb(53.990173%, 8.839417%, 9.959412%)" offset="0.265625"/><stop stop-opacity="1" stop-color="rgb(53.70636%, 8.805847%, 9.944153%)" offset="0.269531"/><stop stop-opacity="1" stop-color="rgb(53.422546%, 8.773804%, 9.928894%)" offset="0.273438"/><stop stop-opacity="1" stop-color="rgb(53.138733%, 8.740234%, 9.912109%)" offset="0.277344"/><stop stop-opacity="1" stop-color="rgb(52.856445%, 8.708191%, 9.896851%)" offset="0.28125"/><stop stop-opacity="1" stop-color="rgb(52.572632%, 8.674622%, 9.881592%)" offset="0.285156"/><stop stop-opacity="1" stop-color="rgb(52.290344%, 8.642578%, 9.866333%)" offset="0.289062"/><stop stop-opacity="1" stop-color="rgb(52.006531%, 8.609009%, 9.851074%)" offset="0.292969"/><stop stop-opacity="1" stop-color="rgb(51.722717%, 8.576965%, 9.835815%)" offset="0.296875"/><stop stop-opacity="1" stop-color="rgb(51.438904%, 8.544922%, 9.819031%)" offset="0.300781"/><stop stop-opacity="1" stop-color="rgb(51.156616%, 8.512878%, 9.803772%)" offset="0.304688"/><stop stop-opacity="1" stop-color="rgb(50.872803%, 8.479309%, 9.788513%)" offset="0.308594"/><stop stop-opacity="1" stop-color="rgb(50.590515%, 8.447266%, 9.773254%)" offset="0.3125"/><stop stop-opacity="1" stop-color="rgb(50.306702%, 8.413696%, 9.757996%)" offset="0.316406"/><stop stop-opacity="1" stop-color="rgb(50.022888%, 8.381653%, 9.742737%)" offset="0.320312"/><stop stop-opacity="1" stop-color="rgb(49.739075%, 8.348083%, 9.725952%)" offset="0.324219"/><stop stop-opacity="1" stop-color="rgb(49.456787%, 8.31604%, 9.710693%)" offset="0.328125"/><stop stop-opacity="1" stop-color="rgb(49.172974%, 8.282471%, 9.695435%)" offset="0.332031"/><stop stop-opacity="1" stop-color="rgb(48.890686%, 8.250427%, 9.680176%)" offset="0.335937"/><stop stop-opacity="1" stop-color="rgb(48.606873%, 8.218384%, 9.663391%)" offset="0.339844"/><stop stop-opacity="1" stop-color="rgb(48.323059%, 8.18634%, 9.648132%)" offset="0.34375"/><stop stop-opacity="1" stop-color="rgb(48.039246%, 8.152771%, 9.632874%)" offset="0.347656"/><stop stop-opacity="1" stop-color="rgb(47.756958%, 8.120728%, 9.617615%)" offset="0.351562"/><stop stop-opacity="1" stop-color="rgb(47.473145%, 8.087158%, 9.602356%)" offset="0.355469"/><stop stop-opacity="1" stop-color="rgb(47.189331%, 8.055115%, 9.587097%)" offset="0.359375"/><stop stop-opacity="1" stop-color="rgb(46.905518%, 8.021545%, 9.570312%)" offset="0.363281"/><stop stop-opacity="1" stop-color="rgb(46.62323%, 7.989502%, 9.555054%)" offset="0.367188"/><stop stop-opacity="1" stop-color="rgb(46.339417%, 7.955933%, 9.539795%)" offset="0.371094"/><stop stop-opacity="1" stop-color="rgb(46.057129%, 7.923889%, 9.524536%)" offset="0.375"/><stop stop-opacity="1" stop-color="rgb(45.773315%, 7.89032%, 9.507751%)" offset="0.378906"/><stop stop-opacity="1" stop-color="rgb(45.489502%, 7.858276%, 9.492493%)" offset="0.382812"/><stop stop-opacity="1" stop-color="rgb(45.205688%, 7.826233%, 9.477234%)" offset="0.386719"/><stop stop-opacity="1" stop-color="rgb(44.923401%, 7.794189%, 9.461975%)" offset="0.390625"/><stop stop-opacity="1" stop-color="rgb(44.639587%, 7.76062%, 9.446716%)" offset="0.394531"/><stop stop-opacity="1" stop-color="rgb(44.3573%, 7.728577%, 9.431458%)" offset="0.398437"/><stop stop-opacity="1" stop-color="rgb(44.073486%, 7.695007%, 9.414673%)" offset="0.402344"/><stop stop-opacity="1" stop-color="rgb(43.789673%, 7.662964%, 9.399414%)" offset="0.40625"/><stop stop-opacity="1" stop-color="rgb(43.505859%, 7.629395%, 9.384155%)" offset="0.410156"/><stop stop-opacity="1" stop-color="rgb(43.223572%, 7.597351%, 9.368896%)" offset="0.414062"/><stop stop-opacity="1" stop-color="rgb(42.939758%, 7.563782%, 9.352112%)" offset="0.417969"/><stop stop-opacity="1" stop-color="rgb(42.657471%, 7.531738%, 9.336853%)" offset="0.421875"/><stop stop-opacity="1" stop-color="rgb(42.373657%, 7.498169%, 9.321594%)" offset="0.425781"/><stop stop-opacity="1" stop-color="rgb(42.089844%, 7.466125%, 9.306335%)" offset="0.429687"/><stop stop-opacity="1" stop-color="rgb(41.80603%, 7.434082%, 9.291077%)" offset="0.433594"/><stop stop-opacity="1" stop-color="rgb(41.523743%, 7.402039%, 9.275818%)" offset="0.4375"/><stop stop-opacity="1" stop-color="rgb(41.239929%, 7.368469%, 9.259033%)" offset="0.441406"/><stop stop-opacity="1" stop-color="rgb(40.957642%, 7.336426%, 9.243774%)" offset="0.445312"/><stop stop-opacity="1" stop-color="rgb(40.673828%, 7.302856%, 9.228516%)" offset="0.449219"/><stop stop-opacity="1" stop-color="rgb(40.390015%, 7.270813%, 9.213257%)" offset="0.453125"/><stop stop-opacity="1" stop-color="rgb(40.106201%, 7.237244%, 9.196472%)" offset="0.457031"/><stop stop-opacity="1" stop-color="rgb(39.823914%, 7.2052%, 9.181213%)" offset="0.460938"/><stop stop-opacity="1" stop-color="rgb(39.5401%, 7.171631%, 9.165955%)" offset="0.464844"/><stop stop-opacity="1" stop-color="rgb(39.256287%, 7.139587%, 9.150696%)" offset="0.46875"/><stop stop-opacity="1" stop-color="rgb(38.972473%, 7.107544%, 9.135437%)" offset="0.472656"/><stop stop-opacity="1" stop-color="rgb(38.690186%, 7.0755%, 9.120178%)" offset="0.476562"/><stop stop-opacity="1" stop-color="rgb(38.406372%, 7.041931%, 9.103394%)" offset="0.480469"/><stop stop-opacity="1" stop-color="rgb(38.124084%, 7.009888%, 9.088135%)" offset="0.484375"/><stop stop-opacity="1" stop-color="rgb(37.840271%, 6.976318%, 9.072876%)" offset="0.488281"/><stop stop-opacity="1" stop-color="rgb(37.556458%, 6.944275%, 9.057617%)" offset="0.492187"/><stop stop-opacity="1" stop-color="rgb(37.272644%, 6.910706%, 9.040833%)" offset="0.496094"/><stop stop-opacity="1" stop-color="rgb(36.990356%, 6.878662%, 9.025574%)" offset="0.5"/><stop stop-opacity="1" stop-color="rgb(36.706543%, 6.845093%, 9.010315%)" offset="0.503906"/><stop stop-opacity="1" stop-color="rgb(36.424255%, 6.813049%, 8.995056%)" offset="0.507812"/><stop stop-opacity="1" stop-color="rgb(36.140442%, 6.77948%, 8.979797%)" offset="0.511719"/><stop stop-opacity="1" stop-color="rgb(35.856628%, 6.747437%, 8.964539%)" offset="0.515625"/><stop stop-opacity="1" stop-color="rgb(35.572815%, 6.715393%, 8.947754%)" offset="0.519531"/><stop stop-opacity="1" stop-color="rgb(35.290527%, 6.68335%, 8.932495%)" offset="0.523438"/><stop stop-opacity="1" stop-color="rgb(35.006714%, 6.64978%, 8.917236%)" offset="0.527344"/><stop stop-opacity="1" stop-color="rgb(34.724426%, 6.617737%, 8.901978%)" offset="0.53125"/><stop stop-opacity="1" stop-color="rgb(34.440613%, 6.584167%, 8.885193%)" offset="0.535156"/><stop stop-opacity="1" stop-color="rgb(34.156799%, 6.552124%, 8.869934%)" offset="0.539063"/><stop stop-opacity="1" stop-color="rgb(33.872986%, 6.518555%, 8.854675%)" offset="0.542969"/><stop stop-opacity="1" stop-color="rgb(33.590698%, 6.486511%, 8.839417%)" offset="0.546875"/><stop stop-opacity="1" stop-color="rgb(33.306885%, 6.452942%, 8.824158%)" offset="0.550781"/><stop stop-opacity="1" stop-color="rgb(33.024597%, 6.420898%, 8.808899%)" offset="0.554687"/><stop stop-opacity="1" stop-color="rgb(32.740784%, 6.387329%, 8.792114%)" offset="0.558594"/><stop stop-opacity="1" stop-color="rgb(32.45697%, 6.355286%, 8.776855%)" offset="0.5625"/><stop stop-opacity="1" stop-color="rgb(32.173157%, 6.323242%, 8.761597%)" offset="0.566406"/><stop stop-opacity="1" stop-color="rgb(31.890869%, 6.291199%, 8.746338%)" offset="0.570312"/><stop stop-opacity="1" stop-color="rgb(31.607056%, 6.257629%, 8.729553%)" offset="0.574219"/><stop stop-opacity="1" stop-color="rgb(31.323242%, 6.225586%, 8.714294%)" offset="0.578125"/><stop stop-opacity="1" stop-color="rgb(31.039429%, 6.192017%, 8.699036%)" offset="0.582031"/><stop stop-opacity="1" stop-color="rgb(30.757141%, 6.159973%, 8.683777%)" offset="0.585938"/><stop stop-opacity="1" stop-color="rgb(30.473328%, 6.126404%, 8.668518%)" offset="0.589844"/><stop stop-opacity="1" stop-color="rgb(30.19104%, 6.09436%, 8.653259%)" offset="0.59375"/><stop stop-opacity="1" stop-color="rgb(29.907227%, 6.060791%, 8.636475%)" offset="0.597656"/><stop stop-opacity="1" stop-color="rgb(29.623413%, 6.028748%, 8.621216%)" offset="0.601562"/><stop stop-opacity="1" stop-color="rgb(29.3396%, 5.996704%, 8.605957%)" offset="0.605469"/><stop stop-opacity="1" stop-color="rgb(29.057312%, 5.964661%, 8.590698%)" offset="0.609375"/><stop stop-opacity="1" stop-color="rgb(28.773499%, 5.931091%, 8.573914%)" offset="0.613281"/><stop stop-opacity="1" stop-color="rgb(28.491211%, 5.899048%, 8.558655%)" offset="0.617188"/><stop stop-opacity="1" stop-color="rgb(28.207397%, 5.865479%, 8.543396%)" offset="0.621094"/><stop stop-opacity="1" stop-color="rgb(27.923584%, 5.833435%, 8.528137%)" offset="0.625"/><stop stop-opacity="1" stop-color="rgb(27.639771%, 5.799866%, 8.512878%)" offset="0.628906"/><stop stop-opacity="1" stop-color="rgb(27.357483%, 5.767822%, 8.49762%)" offset="0.632813"/><stop stop-opacity="1" stop-color="rgb(27.073669%, 5.734253%, 8.480835%)" offset="0.636719"/><stop stop-opacity="1" stop-color="rgb(26.791382%, 5.702209%, 8.465576%)" offset="0.640625"/><stop stop-opacity="1" stop-color="rgb(26.507568%, 5.66864%, 8.450317%)" offset="0.644531"/><stop stop-opacity="1" stop-color="rgb(26.223755%, 5.636597%, 8.435059%)" offset="0.648437"/><stop stop-opacity="1" stop-color="rgb(25.939941%, 5.604553%, 8.418274%)" offset="0.652344"/><stop stop-opacity="1" stop-color="rgb(25.657654%, 5.57251%, 8.403015%)" offset="0.65625"/><stop stop-opacity="1" stop-color="rgb(25.37384%, 5.53894%, 8.387756%)" offset="0.660156"/><stop stop-opacity="1" stop-color="rgb(25.090027%, 5.506897%, 8.372498%)" offset="0.664062"/><stop stop-opacity="1" stop-color="rgb(24.806213%, 5.473328%, 8.357239%)" offset="0.667969"/><stop stop-opacity="1" stop-color="rgb(24.523926%, 5.441284%, 8.34198%)" offset="0.671875"/><stop stop-opacity="1" stop-color="rgb(24.240112%, 5.407715%, 8.325195%)" offset="0.675781"/><stop stop-opacity="1" stop-color="rgb(23.957825%, 5.375671%, 8.309937%)" offset="0.679688"/><stop stop-opacity="1" stop-color="rgb(23.674011%, 5.342102%, 8.294678%)" offset="0.683594"/><stop stop-opacity="1" stop-color="rgb(23.390198%, 5.310059%, 8.279419%)" offset="0.6875"/><stop stop-opacity="1" stop-color="rgb(23.106384%, 5.278015%, 8.262634%)" offset="0.691406"/><stop stop-opacity="1" stop-color="rgb(22.824097%, 5.245972%, 8.247375%)" offset="0.695312"/><stop stop-opacity="1" stop-color="rgb(22.540283%, 5.212402%, 8.232117%)" offset="0.699219"/><stop stop-opacity="1" stop-color="rgb(22.257996%, 5.180359%, 8.216858%)" offset="0.703125"/><stop stop-opacity="1" stop-color="rgb(21.974182%, 5.14679%, 8.201599%)" offset="0.707031"/><stop stop-opacity="1" stop-color="rgb(21.690369%, 5.114746%, 8.18634%)" offset="0.710938"/><stop stop-opacity="1" stop-color="rgb(21.406555%, 5.081177%, 8.169556%)" offset="0.714844"/><stop stop-opacity="1" stop-color="rgb(21.124268%, 5.049133%, 8.154297%)" offset="0.71875"/><stop stop-opacity="1" stop-color="rgb(20.840454%, 5.015564%, 8.139038%)" offset="0.722656"/><stop stop-opacity="1" stop-color="rgb(20.558167%, 4.983521%, 8.123779%)" offset="0.726563"/><stop stop-opacity="1" stop-color="rgb(20.274353%, 4.949951%, 8.106995%)" offset="0.730469"/><stop stop-opacity="1" stop-color="rgb(19.99054%, 4.917908%, 8.091736%)" offset="0.734375"/><stop stop-opacity="1" stop-color="rgb(19.706726%, 4.885864%, 8.076477%)" offset="0.738281"/><stop stop-opacity="1" stop-color="rgb(19.424438%, 4.853821%, 8.061218%)" offset="0.742187"/><stop stop-opacity="1" stop-color="rgb(19.140625%, 4.820251%, 8.045959%)" offset="0.746094"/><stop stop-opacity="1" stop-color="rgb(18.858337%, 4.788208%, 8.030701%)" offset="0.75"/><stop stop-opacity="1" stop-color="rgb(18.574524%, 4.754639%, 8.013916%)" offset="0.753906"/><stop stop-opacity="1" stop-color="rgb(18.29071%, 4.722595%, 7.998657%)" offset="0.757812"/><stop stop-opacity="1" stop-color="rgb(18.006897%, 4.689026%, 7.983398%)" offset="0.761719"/><stop stop-opacity="1" stop-color="rgb(17.724609%, 4.656982%, 7.96814%)" offset="0.765625"/><stop stop-opacity="1" stop-color="rgb(17.440796%, 4.623413%, 7.951355%)" offset="0.769531"/><stop stop-opacity="1" stop-color="rgb(17.156982%, 4.59137%, 7.936096%)" offset="0.773438"/><stop stop-opacity="1" stop-color="rgb(16.873169%, 4.5578%, 7.920837%)" offset="0.777344"/><stop stop-opacity="1" stop-color="rgb(16.590881%, 4.525757%, 7.905579%)" offset="0.78125"/><stop stop-opacity="1" stop-color="rgb(16.307068%, 4.493713%, 7.89032%)" offset="0.785156"/><stop stop-opacity="1" stop-color="rgb(16.02478%, 4.46167%, 7.875061%)" offset="0.789062"/><stop stop-opacity="1" stop-color="rgb(15.740967%, 4.428101%, 7.858276%)" offset="0.792969"/><stop stop-opacity="1" stop-color="rgb(15.457153%, 4.396057%, 7.843018%)" offset="0.796875"/><stop stop-opacity="1" stop-color="rgb(15.17334%, 4.362488%, 7.827759%)" offset="0.800781"/><stop stop-opacity="1" stop-color="rgb(14.891052%, 4.330444%, 7.8125%)" offset="0.804688"/><stop stop-opacity="1" stop-color="rgb(14.607239%, 4.296875%, 7.797241%)" offset="0.808594"/><stop stop-opacity="1" stop-color="rgb(14.324951%, 4.264832%, 7.781982%)" offset="0.8125"/><stop stop-opacity="1" stop-color="rgb(14.041138%, 4.231262%, 7.765198%)" offset="0.816406"/><stop stop-opacity="1" stop-color="rgb(13.757324%, 4.199219%, 7.749939%)" offset="0.820312"/><stop stop-opacity="1" stop-color="rgb(13.473511%, 4.167175%, 7.73468%)" offset="0.824219"/><stop stop-opacity="1" stop-color="rgb(13.191223%, 4.135132%, 7.719421%)" offset="0.828125"/><stop stop-opacity="1" stop-color="rgb(12.90741%, 4.101562%, 7.702637%)" offset="0.832031"/><stop stop-opacity="1" stop-color="rgb(12.625122%, 4.069519%, 7.687378%)" offset="0.835937"/><stop stop-opacity="1" stop-color="rgb(12.341309%, 4.03595%, 7.672119%)" offset="0.839844"/><stop stop-opacity="1" stop-color="rgb(12.057495%, 4.003906%, 7.65686%)" offset="0.84375"/><stop stop-opacity="1" stop-color="rgb(11.773682%, 3.970337%, 7.641602%)" offset="0.847656"/><stop stop-opacity="1" stop-color="rgb(11.491394%, 3.938293%, 7.626343%)" offset="0.851562"/><stop stop-opacity="1" stop-color="rgb(11.207581%, 3.904724%, 7.609558%)" offset="0.855469"/><stop stop-opacity="1" stop-color="rgb(10.925293%, 3.872681%, 7.594299%)" offset="0.859375"/><stop stop-opacity="1" stop-color="rgb(10.641479%, 3.839111%, 7.579041%)" offset="0.863281"/><stop stop-opacity="1" stop-color="rgb(10.357666%, 3.807068%, 7.563782%)" offset="0.867188"/><stop stop-opacity="1" stop-color="rgb(10.073853%, 3.775024%, 7.546997%)" offset="0.871094"/><stop stop-opacity="1" stop-color="rgb(9.791565%, 3.742981%, 7.531738%)" offset="0.875"/><stop stop-opacity="1" stop-color="rgb(9.507751%, 3.709412%, 7.516479%)" offset="0.878906"/><stop stop-opacity="1" stop-color="rgb(9.223938%, 3.677368%, 7.501221%)" offset="0.882812"/><stop stop-opacity="1" stop-color="rgb(8.940125%, 3.643799%, 7.485962%)" offset="0.886719"/><stop stop-opacity="1" stop-color="rgb(8.657837%, 3.611755%, 7.470703%)" offset="0.890625"/><stop stop-opacity="1" stop-color="rgb(8.374023%, 3.578186%, 7.453918%)" offset="0.894531"/><stop stop-opacity="1" stop-color="rgb(8.091736%, 3.546143%, 7.43866%)" offset="0.898438"/><stop stop-opacity="1" stop-color="rgb(7.807922%, 3.512573%, 7.423401%)" offset="0.902344"/><stop stop-opacity="1" stop-color="rgb(7.524109%, 3.48053%, 7.408142%)" offset="0.90625"/><stop stop-opacity="1" stop-color="rgb(7.240295%, 3.44696%, 7.391357%)" offset="0.910156"/><stop stop-opacity="1" stop-color="rgb(6.958008%, 3.414917%, 7.376099%)" offset="0.914062"/><stop stop-opacity="1" stop-color="rgb(6.674194%, 3.382874%, 7.36084%)" offset="0.917969"/><stop stop-opacity="1" stop-color="rgb(6.391907%, 3.35083%, 7.345581%)" offset="0.921875"/><stop stop-opacity="1" stop-color="rgb(6.108093%, 3.317261%, 7.330322%)" offset="0.925781"/><stop stop-opacity="1" stop-color="rgb(5.82428%, 3.285217%, 7.315063%)" offset="0.929687"/><stop stop-opacity="1" stop-color="rgb(5.540466%, 3.251648%, 7.298279%)" offset="0.933594"/><stop stop-opacity="1" stop-color="rgb(5.258179%, 3.219604%, 7.28302%)" offset="0.9375"/><stop stop-opacity="1" stop-color="rgb(4.974365%, 3.186035%, 7.267761%)" offset="0.941406"/><stop stop-opacity="1" stop-color="rgb(4.692078%, 3.153992%, 7.252502%)" offset="0.945312"/><stop stop-opacity="1" stop-color="rgb(4.408264%, 3.120422%, 7.235718%)" offset="0.949219"/><stop stop-opacity="1" stop-color="rgb(4.124451%, 3.088379%, 7.220459%)" offset="0.953125"/><stop stop-opacity="1" stop-color="rgb(3.840637%, 3.056335%, 7.2052%)" offset="0.957031"/><stop stop-opacity="1" stop-color="rgb(3.55835%, 3.024292%, 7.189941%)" offset="0.960938"/><stop stop-opacity="1" stop-color="rgb(3.274536%, 2.990723%, 7.174683%)" offset="0.964844"/><stop stop-opacity="1" stop-color="rgb(2.992249%, 2.958679%, 7.159424%)" offset="0.96875"/><stop stop-opacity="1" stop-color="rgb(2.708435%, 2.92511%, 7.142639%)" offset="0.972656"/><stop stop-opacity="1" stop-color="rgb(2.424622%, 2.893066%, 7.12738%)" offset="0.976562"/><stop stop-opacity="1" stop-color="rgb(2.140808%, 2.859497%, 7.112122%)" offset="0.980469"/><stop stop-opacity="1" stop-color="rgb(1.858521%, 2.827454%, 7.096863%)" offset="0.984375"/><stop stop-opacity="1" stop-color="rgb(1.574707%, 2.793884%, 7.080078%)" offset="0.988281"/><stop stop-opacity="1" stop-color="rgb(1.290894%, 2.761841%, 7.064819%)" offset="0.992188"/><stop stop-opacity="1" stop-color="rgb(1.234436%, 2.755737%, 7.061768%)" offset="1"/></linearGradient><clipPath id="64452f802c"><path d="M 14 14.464844 L 24 14.464844 L 24 20 L 14 20 Z M 14 14.464844 " clip-rule="nonzero"/></clipPath><clipPath id="0d4373c598"><path d="M 19 14.464844 L 26 14.464844 L 26 21 L 19 21 Z M 19 14.464844 " clip-rule="nonzero"/></clipPath><clipPath id="fec888190b"><path d="M 13 14.464844 L 19 14.464844 L 19 21 L 13 21 Z M 13 14.464844 " clip-rule="nonzero"/></clipPath><clipPath id="1c78e01928"><path d="M 14 20 L 19 20 L 19 24.089844 L 14 24.089844 Z M 14 20 " clip-rule="nonzero"/></clipPath><clipPath id="857de8d0b5"><path d="M 19 20 L 25 20 L 25 24.089844 L 19 24.089844 Z M 19 20 " clip-rule="nonzero"/></clipPath><clipPath id="80c1526353"><path d="M 12.011719 14.464844 L 20 14.464844 L 20 22 L 12.011719 22 Z M 12.011719 14.464844 " clip-rule="nonzero"/></clipPath><clipPath id="5a4e32b289"><path d="M 19 14.464844 L 26.074219 14.464844 L 26.074219 22 L 19 22 Z M 19 14.464844 " clip-rule="nonzero"/></clipPath><clipPath id="4f677898aa"><path d="M 38 0 L 149 0 L 149 37.007812 L 38 37.007812 Z M 38 0 " clip-rule="nonzero"/></clipPath><clipPath id="a3df68580b"><rect x="0" width="111" y="0" height="38"/></clipPath></defs><g clip-path="url(#c9f60bb502)"><g clip-path="url(#42703f35d5)"><path fill="url(#394375e207)" d="M 0.988281 0.609375 L 0.988281 36.875 L 37.253906 36.875 L 37.253906 0.609375 Z M 0.988281 0.609375 " fill-rule="nonzero"/></g></g><g clip-path="url(#64452f802c)"><path fill="#b91c1c" d="M 19.152344 19.269531 C 18.316406 18.144531 17.125 17.523438 15.804688 17.089844 C 15.339844 16.9375 14.90625 16.695312 14.425781 16.480469 C 14.761719 15.820312 15.042969 15.265625 15.335938 14.691406 C 16.132812 15.019531 16.910156 15.316406 17.667969 15.660156 C 18.320312 15.957031 18.894531 16.367188 19.179688 17.148438 C 19.667969 16.03125 20.644531 15.65625 21.609375 15.265625 C 22.070312 15.078125 22.542969 14.90625 23.058594 14.710938 C 23.332031 15.246094 23.617188 15.800781 23.914062 16.378906 C 23.605469 16.738281 23.191406 16.898438 22.761719 17.039062 C 21.878906 17.324219 21.003906 17.636719 20.277344 18.238281 C 19.894531 18.558594 19.542969 18.910156 19.152344 19.269531 Z M 19.152344 19.269531 " fill-opacity="1" fill-rule="nonzero"/></g><g clip-path="url(#0d4373c598)"><path fill="#b91c1c" d="M 24.296875 16.542969 C 24.011719 15.964844 23.738281 15.40625 23.445312 14.816406 C 23.867188 14.867188 24.140625 15.011719 24.316406 15.386719 C 24.554688 15.910156 24.855469 16.40625 25.148438 16.945312 C 23.378906 18.011719 21.621094 19.070312 19.851562 20.136719 C 19.683594 20.003906 19.523438 19.878906 19.355469 19.746094 C 20.238281 18.613281 21.292969 17.777344 22.675781 17.398438 C 23.257812 17.238281 23.824219 17.023438 24.296875 16.542969 Z M 24.296875 16.542969 " fill-opacity="1" fill-rule="nonzero"/></g><g clip-path="url(#fec888190b)"><path fill="#b91c1c" d="M 13.238281 16.945312 C 13.578125 16.324219 13.871094 15.722656 14.226562 15.160156 C 14.347656 14.972656 14.628906 14.890625 14.835938 14.757812 C 14.867188 14.785156 14.898438 14.816406 14.929688 14.84375 C 14.707031 15.289062 14.503906 15.75 14.257812 16.183594 C 14.085938 16.480469 14.117188 16.683594 14.425781 16.828125 C 14.804688 17.007812 15.179688 17.230469 15.578125 17.34375 C 16.992188 17.746094 18.117188 18.546875 19 19.730469 C 18.960938 19.773438 18.921875 19.824219 18.875 19.863281 C 18.765625 19.953125 18.65625 20.035156 18.53125 20.132812 C 16.773438 19.074219 15.027344 18.019531 13.238281 16.945312 Z M 13.238281 16.945312 " fill-opacity="1" fill-rule="nonzero"/></g><g clip-path="url(#1c78e01928)"><path fill="#b91c1c" d="M 15.414062 21.304688 C 15.542969 20.609375 16.046875 20.351562 16.554688 20.109375 C 16.621094 20.078125 16.730469 20.09375 16.796875 20.132812 C 17.488281 20.546875 18.175781 20.96875 18.914062 21.421875 C 17.3125 22.390625 15.757812 23.335938 14.09375 24.34375 C 14.09375 24.097656 14.054688 23.929688 14.101562 23.792969 C 14.277344 23.234375 14.613281 22.832031 15.167969 22.5625 C 15.660156 22.324219 16.09375 21.960938 16.535156 21.632812 C 16.6875 21.519531 16.835938 21.371094 16.914062 21.203125 C 16.972656 21.082031 16.964844 20.851562 16.886719 20.765625 C 16.804688 20.679688 16.570312 20.640625 16.453125 20.695312 C 16.105469 20.859375 15.785156 21.078125 15.414062 21.304688 Z M 15.414062 21.304688 " fill-opacity="1" fill-rule="nonzero"/></g><g clip-path="url(#857de8d0b5)"><path fill="#b91c1c" d="M 19.472656 21.421875 C 20.207031 20.972656 20.871094 20.5625 21.546875 20.164062 C 21.628906 20.113281 21.769531 20.082031 21.851562 20.121094 C 22.355469 20.355469 22.847656 20.613281 22.96875 21.292969 C 22.667969 21.117188 22.390625 20.953125 22.117188 20.789062 C 21.902344 20.65625 21.679688 20.507812 21.46875 20.773438 C 21.261719 21.035156 21.4375 21.265625 21.621094 21.40625 C 22.214844 21.859375 22.796875 22.335938 23.445312 22.683594 C 23.984375 22.972656 24.117188 23.464844 24.34375 23.921875 C 24.382812 24 24.289062 24.144531 24.242188 24.3125 C 22.636719 23.335938 21.082031 22.394531 19.472656 21.421875 Z M 19.472656 21.421875 " fill-opacity="1" fill-rule="nonzero"/></g><g clip-path="url(#80c1526353)"><path fill="#b91c1c" d="M 12.015625 16.929688 C 12.574219 16.109375 12.726562 15.117188 13.453125 14.464844 C 13.492188 14.484375 13.53125 14.503906 13.566406 14.527344 C 13.207031 15.28125 12.847656 16.035156 12.476562 16.816406 C 12.863281 17.050781 13.222656 17.273438 13.582031 17.492188 C 15.320312 18.546875 17.058594 19.605469 18.804688 20.652344 C 19.046875 20.800781 19.183594 20.949219 19.035156 21.292969 C 16.710938 19.847656 14.390625 18.40625 12.015625 16.929688 Z M 12.015625 16.929688 " fill-opacity="1" fill-rule="nonzero"/></g><g clip-path="url(#5a4e32b289)"><path fill="#b91c1c" d="M 25.90625 16.808594 C 25.542969 16.042969 25.1875 15.292969 24.828125 14.542969 C 24.851562 14.519531 24.875 14.496094 24.898438 14.46875 C 25.035156 14.597656 25.21875 14.699219 25.300781 14.855469 C 25.65625 15.523438 25.984375 16.210938 26.347656 16.941406 C 24.019531 18.390625 21.699219 19.835938 19.359375 21.292969 C 19.214844 20.976562 19.316406 20.8125 19.582031 20.652344 C 21.582031 19.453125 23.574219 18.242188 25.566406 17.03125 C 25.671875 16.964844 25.777344 16.894531 25.90625 16.808594 Z M 25.90625 16.808594 " fill-opacity="1" fill-rule="nonzero"/></g><path fill="#b91c1c" d="M 15.585938 21.84375 C 15.511719 21.738281 15.457031 21.65625 15.371094 21.53125 C 15.773438 21.304688 16.15625 21.074219 16.554688 20.875 C 16.636719 20.832031 16.777344 20.902344 16.890625 20.917969 C 16.894531 20.953125 16.902344 20.984375 16.910156 21.015625 C 16.480469 21.285156 16.054688 21.550781 15.585938 21.84375 Z M 15.585938 21.84375 " fill-opacity="1" fill-rule="nonzero"/><path fill="#b91c1c" d="M 22.832031 21.859375 C 22.351562 21.5625 21.921875 21.296875 21.480469 21.023438 C 21.78125 20.765625 21.828125 20.78125 22.980469 21.53125 C 22.941406 21.621094 22.898438 21.714844 22.832031 21.859375 Z M 22.832031 21.859375 " fill-opacity="1" fill-rule="nonzero"/><g clip-path="url(#4f677898aa)"><g transform="matrix(1, 0, 0, 1, 38, -0.000000000000001478)"><g clip-path="url(#a3df68580b)"><g fill="#b91c1c" fill-opacity="1"><g transform="translate(0.987723, 27.174711)"><g><path d="M 7 -9.375 L 5.15625 -11.234375 L 7 -13.078125 L 8.859375 -11.234375 Z M 11.921875 -8.234375 L 11.921875 0 C 11.921875 0.820312 11.785156 1.539062 11.515625 2.15625 C 11.242188 2.78125 10.867188 3.296875 10.390625 3.703125 C 9.921875 4.109375 9.390625 4.410156 8.796875 4.609375 C 8.203125 4.816406 7.59375 4.921875 6.96875 4.921875 C 6.34375 4.921875 5.738281 4.816406 5.15625 4.609375 C 4.570312 4.398438 4.050781 4.085938 3.59375 3.671875 C 3.132812 3.265625 2.765625 2.753906 2.484375 2.140625 C 2.210938 1.523438 2.078125 0.8125 2.078125 0 L 2.078125 -3.296875 L 4.4375 -4.484375 L 4.4375 0 C 4.4375 0.5625 4.5625 1.03125 4.8125 1.40625 C 5.0625 1.789062 5.378906 2.078125 5.765625 2.265625 C 6.160156 2.453125 6.554688 2.550781 6.953125 2.5625 C 7.367188 2.5625 7.773438 2.46875 8.171875 2.28125 C 8.578125 2.101562 8.910156 1.820312 9.171875 1.4375 C 9.429688 1.050781 9.5625 0.570312 9.5625 0 L 9.5625 -7.046875 Z M 11.921875 -8.234375 "/></g></g><g transform="translate(14.988375, 27.174711)"><g><path d="M 1.734375 -18.5625 C 2.179688 -18.644531 2.578125 -18.617188 2.921875 -18.484375 C 3.265625 -18.347656 3.550781 -18.140625 3.78125 -17.859375 C 4.019531 -17.585938 4.179688 -17.28125 4.265625 -16.9375 C 4.347656 -16.625 4.523438 -16.359375 4.796875 -16.140625 C 5.066406 -15.929688 5.398438 -15.851562 5.796875 -15.90625 L 6.015625 -15.09375 C 5.578125 -15.007812 5.179688 -15.035156 4.828125 -15.171875 C 4.484375 -15.316406 4.195312 -15.53125 3.96875 -15.8125 C 3.738281 -16.09375 3.578125 -16.398438 3.484375 -16.734375 C 3.398438 -17.035156 3.222656 -17.289062 2.953125 -17.5 C 2.679688 -17.71875 2.34375 -17.804688 1.9375 -17.765625 Z M 2.078125 -16.359375 C 2.554688 -15.585938 3.066406 -14.910156 3.609375 -14.328125 C 4.148438 -13.753906 4.664062 -13.269531 5.15625 -12.875 L 4.4375 -12.875 L 4.4375 -0.6875 L 2.078125 -0.6875 Z M 2.078125 -16.359375 "/></g></g></g><g fill="#b91c1c" fill-opacity="1"><g transform="translate(24.174136, 36.957129)"><g><path d="M -1.640625 -25.625 C -1.640625 -25.976562 -1.5625 -26.273438 -1.40625 -26.515625 C -1.25 -26.753906 -1.046875 -26.9375 -0.796875 -27.0625 C -0.546875 -27.1875 -0.28125 -27.25 0 -27.25 C 0.53125 -27.25 0.929688 -27.082031 1.203125 -26.75 C 1.472656 -26.425781 1.613281 -26.0625 1.625 -25.65625 C 1.632812 -25.382812 1.582031 -25.117188 1.46875 -24.859375 C 1.351562 -24.609375 1.175781 -24.398438 0.9375 -24.234375 C 0.695312 -24.078125 0.398438 -23.992188 0.046875 -23.984375 L -0.421875 -23.984375 C -0.535156 -23.984375 -0.628906 -24.019531 -0.703125 -24.09375 C -0.785156 -24.175781 -0.828125 -24.273438 -0.828125 -24.390625 L -0.828125 -24.015625 L -1.234375 -24.015625 C -1.347656 -24.015625 -1.441406 -24.050781 -1.515625 -24.125 C -1.597656 -24.207031 -1.640625 -24.304688 -1.640625 -24.421875 Z M 0 -24.78125 C 0.257812 -24.78125 0.457031 -24.875 0.59375 -25.0625 C 0.738281 -25.257812 0.8125 -25.445312 0.8125 -25.625 C 0.8125 -25.800781 0.738281 -25.976562 0.59375 -26.15625 C 0.457031 -26.34375 0.257812 -26.4375 0 -26.4375 C -0.175781 -26.4375 -0.359375 -26.363281 -0.546875 -26.21875 C -0.734375 -26.082031 -0.828125 -25.882812 -0.828125 -25.625 L -0.828125 -24.78125 Z M 0 -24.78125 "/></g></g></g><g fill="#b91c1c" fill-opacity="1"><g transform="translate(21.523863, 27.174711)"><g><path d="M 4.140625 -10.109375 L 4.140625 0 C 4.140625 1.101562 3.894531 2.019531 3.40625 2.75 C 2.925781 3.476562 2.320312 4.023438 1.59375 4.390625 C 1.476562 4.003906 1.3125 3.617188 1.09375 3.234375 C 0.875 2.847656 0.671875 2.523438 0.484375 2.265625 C 0.859375 2.054688 1.171875 1.765625 1.421875 1.390625 C 1.671875 1.015625 1.796875 0.550781 1.796875 0 L 1.796875 -8.921875 Z M 4.140625 -10.109375 "/></g></g></g><g fill="#b91c1c" fill-opacity="1"><g transform="translate(34.317324, 30.976672)"><g><path d="M -0.0625 -26.515625 C -0.226562 -26.847656 -0.289062 -27.15625 -0.25 -27.4375 C -0.207031 -27.726562 -0.101562 -27.984375 0.0625 -28.203125 C 0.226562 -28.429688 0.441406 -28.609375 0.703125 -28.734375 C 1.078125 -28.898438 1.472656 -28.9375 1.890625 -28.84375 C 2.304688 -28.75 2.632812 -28.460938 2.875 -27.984375 C 2.988281 -27.734375 3.046875 -27.46875 3.046875 -27.1875 C 3.046875 -26.914062 2.972656 -26.65625 2.828125 -26.40625 C 2.691406 -26.15625 2.460938 -25.945312 2.140625 -25.78125 L -2.59375 -23.390625 L -2.59375 -24.328125 L 0.3125 -25.78125 Z M 1.78125 -26.515625 C 2.007812 -26.628906 2.148438 -26.800781 2.203125 -27.03125 C 2.253906 -27.257812 2.234375 -27.453125 2.140625 -27.609375 C 2.015625 -27.859375 1.835938 -28.003906 1.609375 -28.046875 C 1.390625 -28.085938 1.195312 -28.066406 1.03125 -27.984375 C 0.875 -27.898438 0.742188 -27.753906 0.640625 -27.546875 C 0.546875 -27.335938 0.5625 -27.113281 0.6875 -26.875 L 1.046875 -26.140625 Z M 1.78125 -26.515625 "/></g></g></g><g fill="#b91c1c" fill-opacity="1"><g transform="translate(25.658843, 27.174711)"><g><path d="M 7.109375 -13.09375 L 5.265625 -14.953125 L 7.109375 -16.8125 L 8.65625 -15.265625 L 10.21875 -16.8125 L 12.078125 -14.953125 L 10.21875 -13.09375 L 8.65625 -14.640625 Z M 4.390625 -3.046875 C 4.054688 -3.628906 3.847656 -4.265625 3.765625 -4.953125 C 3.691406 -5.640625 3.734375 -6.3125 3.890625 -6.96875 C 4.054688 -7.625 4.34375 -8.21875 4.75 -8.75 C 5.15625 -9.289062 5.679688 -9.722656 6.328125 -10.046875 C 6.984375 -10.367188 7.753906 -10.53125 8.640625 -10.53125 C 9.460938 -10.53125 10.179688 -10.394531 10.796875 -10.125 C 11.421875 -9.851562 11.9375 -9.484375 12.34375 -9.015625 C 12.757812 -8.546875 13.066406 -8.015625 13.265625 -7.421875 C 13.472656 -6.835938 13.578125 -6.234375 13.578125 -5.609375 L 13.578125 -0.6875 L 1.171875 -0.6875 C 0.847656 -0.6875 0.566406 -0.800781 0.328125 -1.03125 C 0.0976562 -1.269531 -0.015625 -1.550781 -0.015625 -1.875 L -0.015625 -3.046875 Z M 11.21875 -3.046875 L 11.21875 -5.609375 C 11.21875 -6.023438 11.117188 -6.425781 10.921875 -6.8125 C 10.734375 -7.207031 10.445312 -7.53125 10.0625 -7.78125 C 9.6875 -8.039062 9.210938 -8.171875 8.640625 -8.171875 C 8.078125 -8.171875 7.601562 -8.046875 7.21875 -7.796875 C 6.84375 -7.554688 6.5625 -7.238281 6.375 -6.84375 C 6.1875 -6.457031 6.09375 -6.046875 6.09375 -5.609375 C 6.09375 -5.171875 6.1875 -4.753906 6.375 -4.359375 C 6.5625 -3.972656 6.84375 -3.65625 7.21875 -3.40625 C 7.601562 -3.164062 8.078125 -3.046875 8.640625 -3.046875 Z M 11.21875 -3.046875 "/></g></g></g><g fill="#b91c1c" fill-opacity="1"><g transform="translate(39.229346, 27.174711)"><g><path d="M 5.515625 -16.359375 C 5.992188 -15.585938 6.503906 -14.910156 7.046875 -14.328125 C 7.597656 -13.753906 8.117188 -13.269531 8.609375 -12.875 L 7.875 -12.875 L 7.875 -0.6875 L 1.171875 -0.6875 C 0.847656 -0.6875 0.566406 -0.800781 0.328125 -1.03125 C 0.0976562 -1.269531 -0.015625 -1.546875 -0.015625 -1.859375 L -0.015625 -3.046875 L 5.515625 -3.046875 Z M 5.515625 -16.359375 "/></g></g></g><g fill="#b91c1c" fill-opacity="1"><g transform="translate(49.219901, 27.174711)"><g><path d="M 2.078125 -16.359375 C 2.554688 -15.585938 3.066406 -14.910156 3.609375 -14.328125 C 4.148438 -13.753906 4.664062 -13.269531 5.15625 -12.875 L 4.4375 -12.875 L 4.4375 -0.6875 L 2.078125 -0.6875 Z M 2.078125 -16.359375 "/></g></g><g transform="translate(55.755389, 27.174711)"><g/></g></g><g fill="#b91c1c" fill-opacity="1"><g transform="translate(74.8762, 36.957129)"><g><path d="M -0.0625 -26.515625 C -0.226562 -26.847656 -0.289062 -27.15625 -0.25 -27.4375 C -0.207031 -27.726562 -0.101562 -27.984375 0.0625 -28.203125 C 0.226562 -28.429688 0.441406 -28.609375 0.703125 -28.734375 C 1.078125 -28.898438 1.472656 -28.9375 1.890625 -28.84375 C 2.304688 -28.75 2.632812 -28.460938 2.875 -27.984375 C 2.988281 -27.734375 3.046875 -27.46875 3.046875 -27.1875 C 3.046875 -26.914062 2.972656 -26.65625 2.828125 -26.40625 C 2.691406 -26.15625 2.460938 -25.945312 2.140625 -25.78125 L -2.59375 -23.390625 L -2.59375 -24.328125 L 0.3125 -25.78125 Z M 1.78125 -26.515625 C 2.007812 -26.628906 2.148438 -26.800781 2.203125 -27.03125 C 2.253906 -27.257812 2.234375 -27.453125 2.140625 -27.609375 C 2.015625 -27.859375 1.835938 -28.003906 1.609375 -28.046875 C 1.390625 -28.085938 1.195312 -28.066406 1.03125 -27.984375 C 0.875 -27.898438 0.742188 -27.753906 0.640625 -27.546875 C 0.546875 -27.335938 0.5625 -27.113281 0.6875 -26.875 L 1.046875 -26.140625 Z M 1.78125 -26.515625 "/></g></g></g><g fill="#b91c1c" fill-opacity="1"><g transform="translate(61.305697, 27.174711)"><g><path d="M 8.65625 -5.609375 C 8.65625 -6.429688 8.789062 -7.148438 9.0625 -7.765625 C 9.34375 -8.378906 9.710938 -8.890625 10.171875 -9.296875 C 10.628906 -9.710938 11.148438 -10.019531 11.734375 -10.21875 C 12.328125 -10.425781 12.941406 -10.53125 13.578125 -10.53125 C 14.398438 -10.53125 15.117188 -10.394531 15.734375 -10.125 C 16.347656 -9.851562 16.859375 -9.484375 17.265625 -9.015625 C 17.679688 -8.546875 17.988281 -8.015625 18.1875 -7.421875 C 18.394531 -6.835938 18.5 -6.234375 18.5 -5.609375 L 18.5 -1.875 C 18.5 -1.5625 18.382812 -1.285156 18.15625 -1.046875 C 17.925781 -0.804688 17.644531 -0.6875 17.3125 -0.6875 L 7 -0.6875 C 6.59375 -0.6875 6.191406 -0.59375 5.796875 -0.40625 C 5.398438 -0.21875 5.070312 0.0625 4.8125 0.4375 C 4.550781 0.820312 4.421875 1.300781 4.421875 1.875 L 4.421875 4.5 L 2.078125 3.3125 L 2.078125 1.875 C 2.078125 1.050781 2.210938 0.332031 2.484375 -0.28125 C 2.765625 -0.894531 3.132812 -1.40625 3.59375 -1.8125 C 4.050781 -2.21875 4.570312 -2.523438 5.15625 -2.734375 C 5.75 -2.941406 6.363281 -3.046875 7 -3.046875 L 8.65625 -3.046875 Z M 16.140625 -3.046875 L 16.140625 -5.609375 C 16.140625 -6.023438 16.046875 -6.425781 15.859375 -6.8125 C 15.671875 -7.207031 15.382812 -7.53125 15 -7.78125 C 14.625 -8.039062 14.148438 -8.171875 13.578125 -8.171875 C 13.171875 -8.171875 12.769531 -8.078125 12.375 -7.890625 C 11.976562 -7.703125 11.648438 -7.414062 11.390625 -7.03125 C 11.128906 -6.65625 11 -6.179688 11 -5.609375 L 11 -3.046875 Z M 16.140625 -3.046875 "/></g></g></g><g fill="#b91c1c" fill-opacity="1"><g transform="translate(85.532792, 22.345943)"><g><path d="M 3.046875 6.140625 L 3.046875 7.0625 L -2.59375 9.90625 L -2.59375 9 Z M 3.046875 6.140625 "/></g></g></g><g fill="#b91c1c" fill-opacity="1"><g transform="translate(79.802099, 27.174711)"><g><path d="M 5.515625 -16.359375 C 5.992188 -15.585938 6.503906 -14.910156 7.046875 -14.328125 C 7.597656 -13.753906 8.117188 -13.269531 8.609375 -12.875 L 7.875 -12.875 L 7.875 -0.6875 L 1.171875 -0.6875 C 0.847656 -0.6875 0.566406 -0.800781 0.328125 -1.03125 C 0.0976562 -1.269531 -0.015625 -1.546875 -0.015625 -1.859375 L -0.015625 -3.046875 L 5.515625 -3.046875 Z M 5.515625 -16.359375 "/></g></g></g><g fill="#b91c1c" fill-opacity="1"><g transform="translate(89.792653, 27.174711)"><g><path d="M 4.4375 -3.1875 C 4.4375 -2.726562 4.507812 -2.359375 4.65625 -2.078125 C 4.8125 -1.796875 4.984375 -1.550781 5.171875 -1.34375 C 5.367188 -1.144531 5.539062 -0.925781 5.6875 -0.6875 L 2.078125 -0.6875 L 2.078125 -16.359375 C 2.554688 -15.585938 3.066406 -14.910156 3.609375 -14.328125 C 4.148438 -13.753906 4.664062 -13.269531 5.15625 -12.875 L 4.4375 -12.875 Z M 4.4375 -3.1875 "/></g></g></g><g fill="#b91c1c" fill-opacity="1"><g transform="translate(102.849753, 36.971005)"><g><path d="M 3.046875 -27.140625 L 3.046875 -26.234375 L -2.59375 -23.390625 L -2.59375 -24.296875 Z M 3.046875 -27.140625 "/></g></g></g><g fill="#b91c1c" fill-opacity="1"><g transform="translate(94.219024, 27.174711)"><g><path d="M 15 -3.046875 L 13.84375 -0.6875 L 1.171875 -0.6875 C 0.847656 -0.6875 0.566406 -0.800781 0.328125 -1.03125 C 0.0976562 -1.269531 -0.015625 -1.546875 -0.015625 -1.859375 L -0.015625 -3.046875 L 3.734375 -3.046875 L 3.734375 -5.609375 C 3.734375 -6.429688 3.867188 -7.148438 4.140625 -7.765625 C 4.410156 -8.378906 4.773438 -8.890625 5.234375 -9.296875 C 5.703125 -9.703125 6.226562 -10.003906 6.8125 -10.203125 C 7.40625 -10.410156 8.015625 -10.515625 8.640625 -10.515625 L 11.734375 -10.515625 C 11.785156 -10.046875 11.878906 -9.617188 12.015625 -9.234375 C 12.148438 -8.859375 12.328125 -8.503906 12.546875 -8.171875 L 8.640625 -8.171875 C 8.234375 -8.171875 7.832031 -8.078125 7.4375 -7.890625 C 7.050781 -7.703125 6.726562 -7.414062 6.46875 -7.03125 C 6.207031 -6.65625 6.078125 -6.179688 6.078125 -5.609375 L 6.078125 -3.046875 Z M 15 -3.046875 "/></g></g></g></g></g></g></svg>