<?xml version="1.0" encoding="UTF-8"?>
<!DOCTYPE svg PUBLIC "-//W3C//DTD SVG 1.1//EN" "http://www.w3.org/Graphics/SVG/1.1/DTD/svg11.dtd">
<!-- Creator: CorelDRAW -->
<svg xmlns="http://www.w3.org/2000/svg" xml:space="preserve" width="1.70666in" height="1.70666in" version="1.1" style="shape-rendering:geometricPrecision; text-rendering:geometricPrecision; image-rendering:optimizeQuality; fill-rule:evenodd; clip-rule:evenodd"
viewBox="0 0 1707 1707"
 xmlns:xlink="http://www.w3.org/1999/xlink">
 <defs>
  <style type="text/css">
   <![CDATA[
    .fil0 {fill:#9a3412}
   ]]>
  </style>
 </defs>
 <g id="Layer_x0020_1">
  <metadata id="CorelCorpID_0Corel-Layer"/>
  <path class="fil0" d="M117 1660l0 -133c0,-30 45,-30 45,0l0 133 320 0 0 -133c0,-30 46,-30 46,0l0 133 71 0 0 -147c0,-80 -66,-146 -146,-146l-24 0 -89 117c-8,11 -27,11 -36,0l-88 -117 -24 0c-81,0 -147,66 -147,146l0 147 72 0zm714 -745c-242,-12 -435,-214 -435,-457 0,-251 206,-456 457,-456 252,0 457,205 457,456 0,243 -192,445 -434,457l0 154 59 0c12,0 23,10 23,23l0 382c0,12 -11,22 -23,22l-163 0c-13,0 -23,-10 -23,-22l0 -382c0,-13 10,-23 23,-23l59 0 0 -154zm22 -868c-355,0 -543,423 -306,686 0,-261 613,-261 613,0 237,-263 49,-686 -307,-686zm-261 730c151,123 372,123 522,0l0 -44c0,-200 -522,-200 -522,0l0 44zm261 -315c-77,0 -140,-63 -140,-140 0,-78 63,-141 140,-141 78,0 141,63 141,141 0,77 -63,140 -141,140zm0 -235c-52,0 -95,42 -95,95 0,52 43,95 95,95 53,0 96,-43 96,-95 0,-53 -43,-95 -96,-95zm-59 1224l118 0 0 -227 -118 0 0 227zm118 -273l0 -64 -118 0 0 64 118 0zm313 -64c-32,-108 34,-225 157,-225 60,0 104,32 106,33 81,61 69,151 49,194 -5,25 20,110 -64,171l20 35 22 0c106,0 192,86 192,191l0 169c0,13 -11,23 -23,23l-599 0c-13,0 -23,-10 -23,-23l0 -169c0,-105 86,-191 192,-191l22 0 18 -32c-41,-28 -69,-76 -69,-130l0 -46zm267 -2c-11,-149 -221,-91 -222,-1 0,66 -3,116 67,150 70,35 155,-24 155,-101l0 -48zm-110 -178c-56,0 -105,40 -116,91 60,-56 176,-73 237,-5 -10,-41 -52,-86 -121,-86zm-1 382c-16,0 -31,-2 -45,-7l-19 34 67 90 68 -90 -20 -35c-16,5 -33,8 -51,8zm-273 344l71 0 0 -133c0,-30 45,-30 45,0l0 133 321 0 0 -133c0,-30 45,-30 45,0l0 133 71 0 0 -147c0,-80 -65,-146 -146,-146l-24 0 -88 117c-9,11 -28,11 -37,0l-88 -117 -24 0c-81,0 -146,66 -146,146l0 147 0 0zm-945 -546c-32,-108 34,-225 156,-225 60,0 105,32 107,33 81,61 68,151 49,194 -5,25 20,110 -65,171l20 35 23 0c105,0 191,86 191,191l0 169c0,13 -10,23 -22,23l-599 0c-13,0 -23,-10 -23,-23l0 -169c0,-105 86,-191 192,-191l22 0 18 -32c-42,-28 -69,-76 -69,-130l0 -46zm267 -2c-11,-149 -221,-91 -222,-1 -1,66 -3,117 66,150 71,35 156,-24 156,-101l0 -48zm-111 -178c-55,0 -104,40 -115,91 60,-56 176,-73 237,-5 -10,-41 -52,-86 -122,-86zm0 382c-16,0 -31,-2 -46,-7l-19 34 68 90 68 -90 -20 -35c-16,5 -33,8 -51,8z"/>
 </g>
</svg>
