<?xml version="1.0" encoding="UTF-8"?>
<!DOCTYPE svg PUBLIC "-//W3C//DTD SVG 1.1//EN" "http://www.w3.org/Graphics/SVG/1.1/DTD/svg11.dtd">
<!-- Creator: CorelDRAW -->
<svg xmlns="http://www.w3.org/2000/svg" xml:space="preserve" width="7.11111in" height="7.11111in" version="1.1" style="shape-rendering:geometricPrecision; text-rendering:geometricPrecision; image-rendering:optimizeQuality; fill-rule:evenodd; clip-rule:evenodd"
viewBox="0 0 7111 7111"
 xmlns:xlink="http://www.w3.org/1999/xlink">
 <defs>
  <style type="text/css">
   <![CDATA[
    .fil0 {fill:#9a3412}
   ]]>
  </style>
 </defs>
 <g id="Layer_x0020_1">
  <metadata id="CorelCorpID_0Corel-Layer"/>
  <path class="fil0" d="M5019 3785l-289 0 0 239 289 0 0 -239zm-584 3214c-92,0 -151,-101 -105,-181l153 -265 -926 -535 -926 535 149 258c52,84 -5,195 -109,187l-1518 -109c-85,-6 -137,-97 -100,-173l664 -1369c42,-87 165,-91 213,-8l153 265 927 -534 0 -805 -948 0c-66,0 -120,-54 -120,-120l0 -646c0,-423 365,-767 814,-767l300 0 104 -246c-279,-166 -483,-463 -483,-767l0 -336c-63,-19 -125,-54 -185,-90 -133,-77 -213,-124 -203,-221 13,-119 133,-115 191,-155 83,-58 139,-171 198,-291 105,-214 247,-504 628,-435 112,-72 260,-85 358,-76 3,0 6,0 8,1 455,71 730,415 827,560 100,148 135,449 41,650l0 393c0,308 -210,610 -494,774l101 239 300 0c449,0 814,344 814,767l0 646c0,66 -54,120 -121,120l-1036 0 0 805 927 534 153 -265c48,-83 171,-79 213,8l664 1369c37,76 -16,167 -100,173l-1518 109c-3,1 -5,1 -8,1zm-1306 -2975l1 0 854 0 505 0 0 -537c0,-67 54,-121 120,-121 67,0 121,54 121,121l0 56 289 0 0 -44c0,-290 -256,-525 -572,-525l-331 0 -429 422c-47,46 -122,46 -169,0l-431 -422 -331 0c-316,0 -573,235 -573,525l0 44 289 0 0 -56c0,-67 55,-121 121,-121 67,0 121,54 121,121l0 537 415 0zm-1781 2637l1113 80 -100 -172c-33,-57 -12,-132 45,-165l1091 -630c37,-22 83,-22 120,0l1091 630c57,33 78,108 45,165l-100 172 1113 -80 -487 -1004 -100 173c-32,57 -108,77 -165,44l-1091 -630c-37,-22 -60,-61 -60,-105l0 -874 -612 0 0 874c0,44 -23,83 -60,105l-1091 630c-57,33 -133,13 -165,-44l-100 -173 -487 1004zm-236 -3751c-611,0 -1109,-498 -1109,-1109 0,-612 498,-1109 1109,-1109 612,0 1109,497 1109,1109 0,611 -497,1109 -1109,1109zm0 -1977c-478,0 -867,389 -867,868 0,478 389,867 867,867 479,0 868,-389 868,-867 0,-479 -389,-868 -868,-868zm-350 1339c-104,0 -162,-130 -85,-207l265 -264 -265 -265c-47,-47 -47,-123 0,-171 47,-47 124,-47 171,0l264 265 265 -265c47,-47 124,-47 171,0 47,48 47,124 0,171l-265 265 265 264c77,77 19,207 -86,207 -31,0 -61,-12 -85,-36l-265 -264 -264 264c-24,24 -55,36 -86,36zm5237 638c-612,0 -1109,-498 -1109,-1109 0,-612 497,-1109 1109,-1109 611,0 1109,497 1109,1109 0,611 -498,1109 -1109,1109zm0 -1977c-479,0 -868,389 -868,868 0,478 389,867 868,867 478,0 867,-389 867,-867 0,-479 -389,-868 -867,-868zm-213 1339c-32,0 -63,-13 -85,-36l-275 -274c-47,-47 -47,-124 0,-171 47,-47 124,-47 171,0l189 189 615 -615c47,-47 123,-47 170,0 48,48 48,124 0,171l-700 700c-22,23 -53,36 -85,36zm-2177 348c-77,0 -155,-14 -228,-36l-102 240 323 317 321 -316 -100 -237c-69,19 -142,32 -214,32zm-690 -1271l0 370c0,318 347,650 690,660 342,-10 690,-342 690,-660l0 -384c-267,-198 -765,-286 -969,-306 -60,20 -174,96 -335,258 -26,26 -51,46 -76,62zm257 -515c-27,-155 -20,-348 -17,-408 -232,38 -260,472 -520,674 128,73 132,69 185,16 134,-134 252,-229 352,-282zm238 -38c183,23 623,96 938,285 6,-103 -16,-214 -53,-271 -79,-117 -302,-396 -659,-455 -25,-1 -206,-6 -239,84 -6,99 -5,254 13,357zm-1231 3228l289 0 0 -239 -289 0 0 239z"/>
 </g>
</svg>
