<?xml version="1.0" encoding="UTF-8" standalone="no"?> <svg width="512" height="512" viewBox="0 0 512 512" fill="none" xmlns="http://www.w3.org/2000/svg">
<path d="M267.63 215.05C270.63 218.058 272.313 222.133 272.31 226.38V254.06C285.201 250.217 296.277 241.862 303.514 230.524C310.751 219.185 313.665 205.62 311.723 192.31C309.781 178.999 303.113 166.833 292.938 158.035C282.763 149.236 269.761 144.395 256.31 144.395C242.859 144.395 229.857 149.236 219.682 158.035C209.507 166.833 202.839 178.999 200.897 192.31C198.955 205.62 201.869 219.185 209.106 230.524C216.343 241.862 227.419 250.217 240.31 254.06V226.38C240.313 223.216 241.253 220.124 243.012 217.494C244.77 214.864 247.268 212.814 250.191 211.602C253.113 210.39 256.329 210.071 259.433 210.684C262.536 211.298 265.389 212.817 267.63 215.05V215.05Z" fill="#57A4FF"/>
<path d="M360.31 448.381H248.31V496.381H360.31V448.381Z" fill="#57A4FF"/>
<path d="M472 168C464.907 168.008 458.018 170.369 452.41 174.712C446.802 179.055 442.793 185.135 441.01 192H319.48C318.051 180.598 313.562 169.796 306.49 160.74L359.41 107.81C365.524 111.41 372.66 112.878 379.699 111.984C386.738 111.09 393.28 107.884 398.3 102.87C401.279 99.9034 403.641 96.3763 405.249 92.4921C406.857 88.608 407.68 84.4437 407.67 80.2397C407.668 75.32 406.531 70.467 404.348 66.058C402.166 61.6489 398.996 57.8025 395.085 54.8176C391.174 51.8327 386.628 49.7897 381.799 48.8474C376.971 47.905 371.99 48.0888 367.244 49.3842C362.498 50.6797 358.114 53.0521 354.434 56.317C350.754 59.5818 347.876 63.6513 346.024 68.2092C344.172 72.7671 343.396 77.6906 343.756 82.5971C344.116 87.5036 345.603 92.2611 348.1 96.4997L295.16 149.43C286.122 142.405 275.358 137.945 264 136.52V70.9897C271.541 69.0426 278.114 64.4119 282.485 57.9657C286.856 51.5194 288.726 43.7002 287.745 35.9737C286.764 28.2472 282.998 21.1439 277.154 15.9951C271.31 10.8464 263.789 8.00586 256 8.00586C248.211 8.00586 240.69 10.8464 234.846 15.9951C229.002 21.1439 225.236 28.2472 224.255 35.9737C223.274 43.7002 225.144 51.5194 229.515 57.9657C233.887 64.4119 240.459 69.0426 248 70.9897V136.52C234.543 138.214 221.975 144.151 212.12 153.47L188.05 128.6C192.032 121.906 193.436 113.99 191.999 106.335C190.562 98.6804 186.383 91.8125 180.245 87.0186C174.106 82.2248 166.43 79.8343 158.655 80.2951C150.88 80.7559 143.541 84.0365 138.011 89.5218C132.482 95.0072 129.143 102.321 128.621 110.092C128.098 117.863 130.427 125.557 135.172 131.734C139.917 137.91 146.752 142.144 154.395 143.642C162.038 145.14 169.965 143.798 176.69 139.87L201.88 165.9C196.851 173.841 193.648 182.8 192.5 192.13H70.86C68.9129 184.588 64.2822 178.016 57.836 173.645C51.3897 169.274 43.5705 167.403 35.844 168.385C28.1175 169.366 21.0142 173.132 15.8654 178.976C10.7167 184.82 7.87616 192.341 7.87616 200.13C7.87616 207.918 10.7167 215.44 15.8654 221.284C21.0142 227.128 28.1175 230.893 35.844 231.875C43.5705 232.856 51.3897 230.986 57.836 226.615C64.2822 222.243 68.9129 215.671 70.86 208.13H192.53C194.03 219.469 198.524 230.204 205.55 239.23L119.46 325.31C112.75 321.349 104.825 319.971 97.1722 321.435C89.5191 322.899 82.6626 327.104 77.888 333.262C73.1135 339.42 70.7487 347.108 71.237 354.884C71.7253 362.661 75.0332 369.993 80.5405 375.505C86.0478 381.017 93.3765 384.331 101.153 384.827C108.929 385.322 116.619 382.964 122.781 378.195C128.943 373.426 133.154 366.573 134.625 358.921C136.095 351.269 134.725 343.343 130.77 336.63L216.84 250.56C221.465 254.168 226.566 257.12 232 259.33V335.95L224.09 329.14C219.567 324.74 213.493 322.297 207.183 322.34C200.873 322.383 194.833 324.908 190.37 329.37C182.14 337.61 180.71 351 186.72 363.51C187.09 364.27 248 427.31 248 427.31V440C245.878 440 243.843 440.843 242.343 442.343C240.843 443.843 240 445.878 240 448V496C240 498.121 240.843 500.156 242.343 501.657C243.843 503.157 245.878 504 248 504H360C362.122 504 364.157 503.157 365.657 501.657C367.157 500.156 368 498.121 368 496V448C368 445.878 367.157 443.843 365.657 442.343C364.157 440.843 362.122 440 360 440V427.31L373.66 413.66C375.159 412.158 376.001 410.122 376 408V306C375.999 302.086 375.041 298.231 373.209 294.772C371.377 291.313 368.728 288.354 365.491 286.153C362.254 283.953 358.528 282.577 354.637 282.146C350.747 281.715 346.81 282.241 343.17 283.68C342.092 279.734 340.023 276.129 337.161 273.207C334.298 270.285 330.737 268.143 326.814 266.984C322.891 265.825 318.737 265.687 314.746 266.585C310.755 267.482 307.06 269.383 304.01 272.11C300.799 269.242 296.877 267.289 292.654 266.455C288.43 265.621 284.06 265.937 280 267.37V259.33C290.522 255.013 299.717 247.992 306.652 238.978C313.587 229.964 318.016 219.277 319.49 208H441.01C442.506 213.794 445.598 219.054 449.933 223.18C454.268 227.306 459.673 230.133 465.535 231.341C471.397 232.549 477.48 232.089 483.093 230.013C488.706 227.937 493.625 224.329 497.29 219.598C500.956 214.867 503.221 209.203 503.829 203.249C504.436 197.295 503.362 191.29 500.728 185.916C498.094 180.542 494.006 176.014 488.928 172.847C483.849 169.68 477.985 168.001 472 168ZM364.36 68.9197C367.361 65.9188 371.431 64.2329 375.675 64.2329C379.919 64.2329 383.989 65.9188 386.99 68.9197C389.991 71.9206 391.677 75.9908 391.677 80.2347C391.677 84.4787 389.991 88.5488 386.99 91.5497C385.507 93.0417 383.743 94.2246 381.8 95.0297C379.857 95.8347 377.773 96.246 375.67 96.2397C372.505 96.2402 369.41 95.3018 366.778 93.5431C364.146 91.7844 362.095 89.2845 360.884 86.3597C359.673 83.435 359.357 80.2168 359.976 77.1124C360.595 74.0079 362.12 71.1568 364.36 68.9197V68.9197ZM171.85 123.55C169.233 126.17 165.788 127.802 162.103 128.168C158.417 128.533 154.719 127.609 151.639 125.553C148.558 123.497 146.286 120.437 145.209 116.893C144.133 113.349 144.318 109.542 145.734 106.12C147.15 102.698 149.709 99.8726 152.975 98.1258C156.241 96.3791 160.011 95.8189 163.644 96.5408C167.276 97.2627 170.546 99.2219 172.896 102.085C175.246 104.947 176.53 108.536 176.53 112.24C176.536 114.341 176.125 116.422 175.322 118.363C174.519 120.304 173.339 122.067 171.85 123.55ZM39.87 216.13C36.7055 216.13 33.6121 215.191 30.9809 213.433C28.3497 211.675 26.299 209.176 25.088 206.253C23.877 203.329 23.5601 200.112 24.1775 197.008C24.7948 193.905 26.3187 191.054 28.5563 188.816C30.794 186.578 33.6449 185.055 36.7486 184.437C39.8523 183.82 43.0693 184.137 45.993 185.348C48.9166 186.559 51.4154 188.609 53.1735 191.241C54.9316 193.872 55.87 196.965 55.87 200.13C55.8645 204.371 54.177 208.438 51.1776 211.437C48.1782 214.437 44.1118 216.124 39.87 216.13ZM114.52 364.2C111.902 366.823 108.454 368.458 104.766 368.824C101.077 369.191 97.3756 368.267 94.2921 366.209C91.2086 364.152 88.9341 361.089 87.8562 357.543C86.7783 353.996 86.9638 350.185 88.3811 346.76C89.7984 343.335 92.3597 340.508 95.6285 338.76C98.8972 337.012 102.671 336.452 106.307 337.175C109.942 337.898 113.214 339.859 115.566 342.725C117.917 345.591 119.201 349.183 119.2 352.89C119.204 354.99 118.793 357.071 117.99 359.012C117.187 360.953 116.008 362.716 114.52 364.2V364.2ZM240 39.9997C240 36.8352 240.938 33.7418 242.697 31.1106C244.455 28.4794 246.953 26.4287 249.877 25.2177C252.801 24.0067 256.018 23.6898 259.121 24.3072C262.225 24.9245 265.076 26.4484 267.314 28.686C269.551 30.9237 271.075 33.7746 271.693 36.8783C272.31 39.982 271.993 43.199 270.782 46.1227C269.571 49.0463 267.52 51.5451 264.889 53.3032C262.258 55.0613 259.165 55.9997 256 55.9997C251.758 55.9942 247.692 54.3067 244.692 51.3073C241.693 48.3079 240.006 44.2415 240 39.9997V39.9997ZM352 488H256V456H352V488ZM288 282C289.051 281.998 290.092 282.204 291.063 282.606C292.034 283.007 292.917 283.596 293.66 284.34C294.403 285.083 294.992 285.965 295.394 286.937C295.796 287.908 296.001 288.949 296 290V330C296 332.121 296.843 334.156 298.343 335.657C299.843 337.157 301.878 338 304 338C306.122 338 308.157 337.157 309.657 335.657C311.157 334.156 312 332.121 312 330V290C312 287.878 312.843 285.843 314.343 284.343C315.843 282.843 317.878 282 320 282C322.122 282 324.157 282.843 325.657 284.343C327.157 285.843 328 287.878 328 290V330C328 332.121 328.843 334.156 330.343 335.657C331.843 337.157 333.878 338 336 338C338.122 338 340.157 337.157 341.657 335.657C343.157 334.156 344 332.121 344 330V306C344 303.878 344.843 301.843 346.343 300.343C347.843 298.843 349.878 298 352 298C354.122 298 356.157 298.843 357.657 300.343C359.157 301.843 360 303.878 360 306V404.69L346.34 418.34C344.841 419.842 343.999 421.878 344 424V440H264V424C264.001 421.878 263.159 419.842 261.66 418.34L245.71 402.4L200.66 355.49C198.57 350.49 198.13 344.25 201.69 340.69C202.431 339.946 203.311 339.355 204.28 338.952C205.249 338.549 206.288 338.341 207.338 338.34C208.388 338.339 209.427 338.545 210.397 338.947C211.367 339.348 212.248 339.937 212.99 340.68L213.44 341.1L234.78 359.45C235.941 360.449 237.365 361.095 238.882 361.309C240.399 361.523 241.946 361.297 243.338 360.658C244.731 360.018 245.91 358.993 246.737 357.702C247.563 356.412 248.002 354.912 248 353.38V226C248 223.878 248.843 221.843 250.343 220.343C251.843 218.843 253.878 218 256 218C258.122 218 260.157 218.843 261.657 220.343C263.157 221.843 264 223.878 264 226V330C264 332.121 264.843 334.156 266.343 335.657C267.843 337.157 269.878 338 272 338C274.122 338 276.157 337.157 277.657 335.657C279.157 334.156 280 332.121 280 330V290C280.003 287.879 280.847 285.846 282.346 284.346C283.846 282.846 285.879 282.003 288 282V282ZM280 241.56V226C280 219.635 277.471 213.53 272.971 209.029C268.47 204.528 262.365 202 256 202C249.635 202 243.53 204.528 239.029 209.029C234.529 213.53 232 219.635 232 226V241.56C222.849 236.277 215.697 228.121 211.654 218.359C207.61 208.597 206.901 197.774 209.636 187.567C212.37 177.361 218.397 168.342 226.779 161.91C235.162 155.477 245.434 151.991 256 151.991C266.566 151.991 276.838 155.477 285.221 161.91C293.604 168.342 299.63 177.361 302.364 187.567C305.099 197.774 304.39 208.597 300.346 218.359C296.303 228.121 289.151 236.277 280 241.56ZM472 216C468.836 216 465.742 215.061 463.111 213.303C460.48 211.545 458.429 209.046 457.218 206.123C456.007 203.199 455.69 199.982 456.307 196.878C456.925 193.775 458.449 190.924 460.686 188.686C462.924 186.448 465.775 184.925 468.879 184.307C471.982 183.69 475.199 184.007 478.123 185.218C481.047 186.429 483.545 188.479 485.304 191.111C487.062 193.742 488 196.835 488 200C487.994 204.241 486.307 208.308 483.308 211.307C480.308 214.307 476.242 215.994 472 216V216Z" fill="#004FAC"/>
</svg>
