<?xml version="1.0" encoding="UTF-8" standalone="no"?>
<svg
   xmlns:dc="http://purl.org/dc/elements/1.1/"
   xmlns:cc="http://creativecommons.org/ns#"
   xmlns:rdf="http://www.w3.org/1999/02/22-rdf-syntax-ns#"
   xmlns:svg="http://www.w3.org/2000/svg"
   xmlns="http://www.w3.org/2000/svg"
   xmlns:sodipodi="http://sodipodi.sourceforge.net/DTD/sodipodi-0.dtd"
   xmlns:inkscape="http://www.inkscape.org/namespaces/inkscape"
   sodipodi:docname="mosque, masjid, islamic, islam, building.svg"
   inkscape:version="1.0 (4035a4fb49, 2020-05-01)"
   id="svg3460"
   version="1.1"
   viewBox="0 0 16.933333 16.933334"
   height="64"
   width="64">
  <defs
     id="defs3454">
    <inkscape:path-effect
       hide_knots="false"
       only_selected="false"
       apply_with_radius="true"
       apply_no_radius="true"
       use_knot_distance="true"
       flexible="false"
       chamfer_steps="1"
       radius="0"
       mode="F"
       method="auto"
       unit="px"
       satellites_param="F,0,0,1,0,0,0,1 @ F,0,1,1,0,2.1166667,0,1 @ F,0,0,1,0,2.1166667,0,1 @ F,0,0,1,0,0,0,1"
       lpeversion="1"
       is_visible="true"
       id="path-effect1544"
       effect="fillet_chamfer" />
    <inkscape:path-effect
       hide_knots="false"
       only_selected="false"
       apply_with_radius="true"
       apply_no_radius="true"
       use_knot_distance="true"
       flexible="false"
       chamfer_steps="1"
       radius="0"
       mode="F"
       method="auto"
       unit="px"
       satellites_param="F,0,0,1,0,1.8520868,0,1 @ F,0,0,1,0,1.8520834,0,1 @ F,0,0,1,0,1.8520848,0,1 @ F,0,0,1,0,1.8520868,0,1"
       lpeversion="1"
       is_visible="true"
       id="path-effect1540"
       effect="fillet_chamfer" />
    <inkscape:path-effect
       effect="fillet_chamfer"
       id="path-effect1852"
       is_visible="true"
       lpeversion="1"
       satellites_param="F,0,0,1,0,0,0,1 @ F,0,0,1,0,0.83589627,0,1 @ F,0,0,1,0,1.0902992,0,1 @ F,0,0,1,0,0.7338217,0,1 @ F,0,0,1,0,0.49720114,0,1 @ F,0,1,1,0,0,0,1"
       unit="px"
       method="auto"
       mode="F"
       radius="0"
       chamfer_steps="1"
       flexible="false"
       use_knot_distance="true"
       apply_no_radius="true"
       apply_with_radius="true"
       only_selected="false"
       hide_knots="false" />
    <inkscape:path-effect
       effect="fillet_chamfer"
       id="path-effect1854"
       is_visible="true"
       lpeversion="1"
       satellites_param="F,0,0,1,0,0,0,1 @ F,0,0,1,0,1.0902994,0,1 @ F,0,0,1,0,1.0902994,0,1 @ F,0,0,1,0,1.0902994,0,1 @ F,0,0,1,0,0.58123162,0,1 @ F,0,0,1,0,0,0,1"
       unit="px"
       method="auto"
       mode="F"
       radius="0"
       chamfer_steps="1"
       flexible="false"
       use_knot_distance="true"
       apply_no_radius="true"
       apply_with_radius="true"
       only_selected="false"
       hide_knots="false" />
    <inkscape:path-effect
       effect="fillet_chamfer"
       id="path-effect1842"
       is_visible="true"
       lpeversion="1"
       satellites_param="F,0,0,1,0,0,0,1 @ F,0,0,1,0,1.5875034,0,1 @ F,0,0,1,0,0,0,1 @ F,0,0,1,0,0,0,1 @ F,0,0,1,0,0,0,1 @ F,0,0,1,0,0,0,1"
       unit="px"
       method="auto"
       mode="F"
       radius="0"
       chamfer_steps="1"
       flexible="false"
       use_knot_distance="true"
       apply_no_radius="true"
       apply_with_radius="true"
       only_selected="false"
       hide_knots="false" />
    <inkscape:path-effect
       effect="fillet_chamfer"
       id="path-effect2050"
       is_visible="true"
       lpeversion="1"
       satellites_param="F,0,0,1,0,0,0,1 @ F,0,1,1,0,1.058337,0,1 @ F,0,0,1,0,0,0,1 @ F,0,0,1,0,1.058337,0,1 @ F,0,0,1,0,0,0,1"
       unit="px"
       method="auto"
       mode="F"
       radius="0"
       chamfer_steps="1"
       flexible="false"
       use_knot_distance="true"
       apply_no_radius="true"
       apply_with_radius="true"
       only_selected="false"
       hide_knots="false" />
    <inkscape:path-effect
       effect="fillet_chamfer"
       id="path-effect2044"
       is_visible="true"
       lpeversion="1"
       satellites_param="F,0,0,1,0,0,0,1 @ F,0,1,1,0,0.79375034,0,1 @ F,0,0,1,0,0,0,1 @ F,0,0,1,0,0.79375034,0,1 @ F,0,0,1,0,0,0,1"
       unit="px"
       method="auto"
       mode="F"
       radius="0"
       chamfer_steps="1"
       flexible="false"
       use_knot_distance="true"
       apply_no_radius="true"
       apply_with_radius="true"
       only_selected="false"
       hide_knots="false" />
    <inkscape:path-effect
       effect="fillet_chamfer"
       id="path-effect2046"
       is_visible="true"
       lpeversion="1"
       satellites_param="F,0,0,1,0,0,0,1 @ F,0,1,1,0,0.79375034,0,1 @ F,0,0,1,0,0,0,1 @ F,0,0,1,0,0.79375034,0,1 @ F,0,0,1,0,0,0,1"
       unit="px"
       method="auto"
       mode="F"
       radius="0"
       chamfer_steps="1"
       flexible="false"
       use_knot_distance="true"
       apply_no_radius="true"
       apply_with_radius="true"
       only_selected="false"
       hide_knots="false" />
  </defs>
  <sodipodi:namedview
     showguides="false"
     inkscape:window-maximized="1"
     inkscape:window-y="-8"
     inkscape:window-x="-8"
     inkscape:window-height="746"
     inkscape:window-width="1366"
     units="px"
     showgrid="false"
     inkscape:document-rotation="0"
     inkscape:current-layer="layer1"
     inkscape:document-units="px"
     inkscape:cy="26.596188"
     inkscape:cx="12.325862"
     inkscape:zoom="5.5541732"
     inkscape:pageshadow="2"
     inkscape:pageopacity="0.0"
     borderopacity="1.0"
     bordercolor="#666666"
     pagecolor="#ffffff"
     id="base" />
  <metadata
     id="metadata3457">
    <rdf:RDF>
      <cc:Work
         rdf:about="">
        <dc:format>image/svg+xml</dc:format>
        <dc:type
           rdf:resource="http://purl.org/dc/dcmitype/StillImage" />
        <dc:title />
      </cc:Work>
    </rdf:RDF>
  </metadata>
  <g
     id="layer1"
     inkscape:groupmode="layer"
     inkscape:label="Layer 1">
    <path
       d="M 7.9318155,0.52917424 A 0.52916504,0.52916504 0 0 0 7.5235717,0.71675974 C 7.0240995,1.3022352 7.0191224,2.1702968 7.5116867,2.7615962 7.6340027,2.9084308 7.7789259,3.0279025 7.9375005,3.1191971 v 0.613916 C 5.6457625,3.9632141 3.7509534,5.6679723 3.2871378,7.936991 H 0.52916655 A 0.52921796,0.52921796 0 0 0 -1.3000001e-7,8.4666746 V 15.874491 A 0.52921796,0.52921796 0 0 0 0.52916655,16.404175 H 2.64635 4.7635334 16.404167 a 0.52921796,0.52921796 0 0 0 0.529167,-0.529684 V 8.4666746 A 0.52921796,0.52921796 0 0 0 16.404167,7.936991 H 13.647746 C 13.184165,5.6677321 11.288834,3.9621462 8.9958334,3.7325964 V 3.3103999 C 9.178415,3.2800191 9.3580562,3.2176552 9.5255168,3.1207474 A 0.52916504,0.52916504 0 0 0 9.7187865,2.3962438 0.52916504,0.52916504 0 0 0 8.9958334,2.205041 C 8.769681,2.3359132 8.4912762,2.2843609 8.3240397,2.0836014 8.1568032,1.8828419 8.1585917,1.6007714 8.3281738,1.4019893 A 0.52916504,0.52916504 0 0 0 8.2692627,0.65578154 0.52916504,0.52916504 0 0 0 7.9318155,0.52917424 Z M 8.4666666,4.7635413 a 0.52916504,0.52916504 0 0 0 0.00413,0 c 1.9527964,0.00119 3.6169544,1.3245728 4.0922564,3.1734497 H 4.371826 C 4.8479651,6.0879106 6.5143619,4.7642296 8.4666666,4.7635413 Z m -7.4083334,4.2323 H 15.875 v 6.3515507 h -1.05885 v -2.382801 c 0,-0.685778 -0.388626,-1.314403 -1.002006,-1.62109 l -0.347266,-0.173632 a 0.52921796,0.52921796 0 0 0 -0.236678,-0.05684 0.52921796,0.52921796 0 0 0 -0.238228,0.05684 l -0.347266,0.173632 c -0.61338,0.306687 -1.002006,0.935312 -1.002006,1.62109 v 2.382801 h -1.05885 v -2.646351 c 0,-0.837499 -0.420402,-1.621617 -1.1172442,-2.086177 L 8.7617391,10.144091 a 0.52921796,0.52921796 0 0 0 -0.289388,-0.08992 0.52921796,0.52921796 0 0 0 -0.2986898,0.08992 l -0.7069336,0.470773 c -0.6968425,0.464559 -1.1151775,1.248678 -1.1151775,2.086177 v 2.646351 H 5.2927001 v -2.382801 c 0,-0.685778 -0.390176,-1.314403 -1.0035563,-1.62109 L 3.9413614,11.169869 a 0.52921796,0.52921796 0 0 0 -0.2361613,-0.05684 0.52921796,0.52921796 0 0 0 -0.236678,0.05684 l -0.3493328,0.173632 c -0.6133807,0.306687 -1.002006,0.935312 -1.002006,1.62109 v 2.382801 H 1.0583332 Z m 7.4083334,2.2246707 0.4139283,0.275435 c 0.403446,0.268963 0.6449219,0.720213 0.6449219,1.205094 v 2.646351 H 7.4083333 v -2.646351 c 0,-0.484881 0.2430262,-0.936131 0.6464722,-1.205094 z m -4.7614665,1.013375 0.1111043,0.05684 c 0.2568319,0.128414 0.4180623,0.386714 0.4180623,0.673861 v 2.3828 h -1.05885 v -2.382801 c 0,-0.287146 0.1612305,-0.545446 0.4180623,-0.673861 z m 9.5249999,0 0.111621,0.05684 c 0.256832,0.128414 0.418063,0.386714 0.418063,0.673861 v 2.3828 h -1.05885 v -2.382801 c 0,-0.287146 0.159163,-0.545446 0.415995,-0.673861 z"
       style="color:#9a3412;font-style:normal;font-variant:normal;font-weight:normal;font-stretch:normal;font-size:medium;line-height:normal;font-family:sans-serif;font-variant-ligatures:normal;font-variant-position:normal;font-variant-caps:normal;font-variant-numeric:normal;font-variant-alternates:normal;font-variant-east-asian:normal;font-feature-settings:normal;font-variation-settings:normal;text-indent:0;text-align:start;text-decoration:none;text-decoration-line:none;text-decoration-style:solid;text-decoration-color:#000000;letter-spacing:normal;word-spacing:normal;text-transform:none;writing-mode:lr-tb;direction:ltr;text-orientation:mixed;dominant-baseline:auto;baseline-shift:baseline;text-anchor:start;white-space:normal;shape-padding:0;shape-margin:0;inline-size:0;clip-rule:nonzero;display:inline;overflow:visible;visibility:visible;opacity:1;isolation:auto;mix-blend-mode:normal;color-interpolation:sRGB;color-interpolation-filters:linearRGB;solid-color:#000000;solid-opacity:1;vector-effect:none;fill:#9a3412;fill-opacity:1;fill-rule:evenodd;stroke:none;stroke-width:1.05833;stroke-linecap:round;stroke-linejoin:round;stroke-miterlimit:4;stroke-dasharray:none;stroke-dashoffset:0;stroke-opacity:1;color-rendering:auto;image-rendering:auto;shape-rendering:auto;text-rendering:auto;enable-background:accumulate;stop-color:#9a3412;stop-opacity:1"
       id="path51" />
  </g>
</svg>
