<?xml version="1.0" encoding="UTF-8" standalone="no"?> <svg width="64" height="64" viewBox="0 0 64 64" fill="none" xmlns="http://www.w3.org/2000/svg">
<path d="M26.24 48.98C26.8838 49.9123 27.7443 50.6744 28.7476 51.2008C29.7509 51.7272 30.867 52.0023 32 52.0023C33.133 52.0023 34.2491 51.7272 35.2524 51.2008C36.2557 50.6744 37.1162 49.9123 37.76 48.98C37.8389 48.9966 37.9195 49.0033 38 49L39.96 49.39C40.6642 49.5265 41.3493 49.7481 42 50.05V61H22V50.05C22.6507 49.7481 23.3358 49.5265 24.04 49.39L26 49C26.0805 49.0033 26.1611 48.9966 26.24 48.98V48.98Z" fill="#9a3412"/>
<path d="M50.62 18.26C50.9912 20.3377 50.8783 22.473 50.29 24.5L50.1 25.16C49.5847 25.0083 49.0438 24.9638 48.5107 25.0292C47.9775 25.0945 47.4634 25.2684 47 25.54V18.9C47.3288 18.9689 47.6641 19.0024 48 19C48.9252 19.002 49.8326 18.7457 50.62 18.26V18.26Z" fill="#9a3412"/>
<path d="M17 18.9V25.54C16.5366 25.2684 16.0225 25.0945 15.4893 25.0292C14.9562 24.9638 14.4153 25.0083 13.9 25.16L13.71 24.5C13.1218 22.473 13.0088 20.3377 13.38 18.26C14.1675 18.7457 15.0748 19.002 16 19C16.336 19.0024 16.6712 18.9689 17 18.9V18.9Z" fill="#9a3412"/>
<path d="M50.54 17.85C50.57 17.99 50.6 18.12 50.62 18.26C49.8326 18.7457 48.9252 19.002 48 19C47.6641 19.0024 47.3288 18.9689 47 18.9C46.1388 18.722 45.3391 18.3221 44.68 17.74C44.4938 17.5711 44.2514 17.4775 44 17.4775C43.7486 17.4775 43.5062 17.5711 43.32 17.74C42.405 18.5526 41.2237 19.0013 40 19.0013C38.7763 19.0013 37.595 18.5526 36.68 17.74C36.4938 17.5711 36.2514 17.4775 36 17.4775C35.7486 17.4775 35.5062 17.5711 35.32 17.74C34.405 18.5526 33.2237 19.0013 32 19.0013C30.7763 19.0013 29.595 18.5526 28.68 17.74C28.4938 17.5711 28.2514 17.4775 28 17.4775C27.7486 17.4775 27.5062 17.5711 27.32 17.74C26.405 18.5526 25.2237 19.0013 24 19.0013C22.7763 19.0013 21.595 18.5526 20.68 17.74C20.4938 17.5711 20.2514 17.4775 20 17.4775C19.7486 17.4775 19.5062 17.5711 19.32 17.74C18.6609 18.3221 17.8612 18.722 17 18.9C16.6712 18.9689 16.3359 19.0024 16 19C15.0748 19.002 14.1674 18.7457 13.38 18.26C13.4 18.12 13.43 17.99 13.46 17.85C14.4042 13.6375 16.7548 9.8721 20.1247 7.17388C23.4946 4.47567 27.683 3.00552 32 3.00552C36.317 3.00552 40.5054 4.47567 43.8753 7.17388C47.2452 9.8721 49.5958 13.6375 50.54 17.85V17.85Z" fill="#9a3412"/>
<path d="M51.5 24.67C51.4305 24.6427 51.3635 24.6093 51.3 24.57C51.8776 22.4692 51.9835 20.2666 51.61 18.12C51.59 17.98 51.56 17.85 51.52 17.63C50.5249 13.1886 48.0446 9.21945 44.4888 6.37818C40.933 3.5369 36.5144 1.99346 31.9629 2.00279C27.4114 2.01211 22.9992 3.57364 19.4551 6.42946C15.911 9.28528 13.4469 13.2645 12.47 17.71C12.44 17.85 12.41 17.98 12.4 18.07C12.0172 20.2321 12.1197 22.4523 12.7 24.57C12.6365 24.6093 12.5695 24.6427 12.5 24.67C11.4539 25.2775 10.6636 26.2437 10.2755 27.3894C9.88736 28.5352 9.92777 29.7828 10.3892 30.901C10.8507 32.0192 11.7019 32.9322 12.785 33.4708C13.8682 34.0094 15.1099 34.137 16.28 33.83C16.7678 36.5046 17.887 39.0241 19.5446 41.1791C21.2021 43.3341 23.3501 45.0623 25.81 46.22L27 46.77V47C26.9993 47.244 26.9095 47.4793 26.7474 47.6616C26.5853 47.8439 26.3622 47.9607 26.12 47.99C26.0798 47.9884 26.0394 47.9917 26 48C25.9329 48.0017 25.8661 48.0084 25.8 48.02L23.85 48.41C23.0735 48.5576 22.3179 48.7994 21.6 49.13C19.6367 49.9806 17.9655 51.3875 16.7926 53.177C15.6197 54.9665 14.9965 57.0604 15 59.2V60C15.0016 60.5299 15.2128 61.0377 15.5875 61.4125C15.9623 61.7872 16.4701 61.9984 17 62H47C47.53 61.9984 48.0377 61.7872 48.4125 61.4125C48.7872 61.0377 48.9984 60.5299 49 60V59.2C49.0046 57.064 48.3841 54.9733 47.2149 53.1857C46.0456 51.3981 44.3789 49.9917 42.42 49.14C41.6991 48.8059 40.9402 48.5608 40.16 48.41L38.2 48.02C38.1337 48.0117 38.0668 48.0083 38 48.01C37.961 47.9985 37.9207 47.9918 37.88 47.99C37.6378 47.9607 37.4147 47.8439 37.2526 47.6616C37.0905 47.4793 37.0007 47.244 37 47V46.77L38.19 46.22C40.649 45.061 42.7962 43.3324 44.4536 41.1776C46.1109 39.0229 47.2307 36.504 47.72 33.83C48.8901 34.137 50.1318 34.0094 51.215 33.4708C52.2982 32.9322 53.1494 32.0192 53.6108 30.901C54.0723 29.7828 54.1127 28.5352 53.7245 27.3894C53.3364 26.2437 52.5461 25.2775 51.5 24.67V24.67ZM21 60H17V59.2C17.0015 57.7248 17.3675 56.2728 18.0653 54.9731C18.7631 53.6734 19.7712 52.5663 21 51.75V60ZM43 51.74C44.2292 52.5582 45.2374 53.6672 45.9352 54.9686C46.633 56.2699 46.9987 57.7234 47 59.2V60H43V51.74ZM49.37 24.04C48.9119 24.0015 48.4506 24.0284 48 24.12V20C48.6106 19.9973 49.2174 19.9029 49.8 19.72C49.8929 21.1738 49.7476 22.633 49.37 24.04V24.04ZM14.21 19.72C14.789 19.9037 15.3926 19.9981 16 20V24.12C15.5495 24.0284 15.0882 24.0015 14.63 24.04C14.2492 22.6337 14.1073 21.1734 14.21 19.72V19.72ZM15 32C14.2051 31.9976 13.4434 31.6808 12.8813 31.1187C12.3192 30.5566 12.0024 29.7949 12 29C11.9992 28.4743 12.1375 27.9578 12.401 27.5029C12.6645 27.048 13.0436 26.6709 13.5 26.41C13.8753 26.1924 14.2942 26.0607 14.7264 26.0244C15.1587 25.9881 15.5937 26.0481 16 26.2V30.81C16 31.13 16.01 31.47 16.03 31.81C15.7008 31.9344 15.3519 31.9988 15 32V32ZM38.18 50.06L39.77 50.37C40.1883 50.4595 40.5994 50.5798 41 50.73V60H23V50.73C23.4031 50.5772 23.8177 50.4568 24.24 50.37L25.82 50.06C26.5669 50.9786 27.5091 51.7191 28.5781 52.2277C29.6472 52.7363 30.8161 53.0002 32 53.0002C33.1839 53.0002 34.3528 52.7363 35.4219 52.2277C36.4909 51.7191 37.4332 50.9786 38.18 50.06ZM27.87 49.34C28.4308 48.8902 28.8136 48.2558 28.95 47.55C30.9351 48.1767 33.065 48.1767 35.05 47.55C35.1864 48.2558 35.5692 48.8902 36.13 49.34C35.0189 50.4052 33.5392 50.9999 32 50.9999C30.4608 50.9999 28.9811 50.4052 27.87 49.34V49.34ZM46 30.81C46.002 31.3111 45.9753 31.8119 45.92 32.31C45.6557 34.8932 44.7275 37.3642 43.2258 39.4827C41.7242 41.6011 39.7 43.2951 37.35 44.4L35.58 45.22C34.4605 45.7484 33.2379 46.0225 32 46.0225C30.7621 46.0225 29.5395 45.7484 28.42 45.22L26.65 44.4C24.3013 43.2961 22.278 41.6037 20.7764 39.487C19.2748 37.3704 18.3459 34.9015 18.08 32.32C18.025 31.8186 17.9983 31.3144 18 30.81V19.65C18.7384 19.3897 19.423 18.9966 20.02 18.49C21.12 19.4588 22.5342 19.9953 24 20C25.4766 19.9886 26.9011 19.4535 28.02 18.49C29.12 19.4588 30.5342 19.9953 32 20C33.4766 19.9886 34.9011 19.4535 36.02 18.49C37.12 19.4588 38.5342 19.9953 40 20C41.4766 19.9886 42.9011 19.4535 44.02 18.49C44.5982 19.0018 45.2708 19.3959 46 19.65V30.81ZM47.2 17.92C46.5104 17.775 45.8698 17.4547 45.34 16.99C44.9731 16.6571 44.4954 16.4726 44 16.4726C43.5046 16.4726 43.0269 16.6571 42.66 16.99C41.9187 17.6187 40.9788 17.9646 40.0068 17.9664C39.0349 17.9682 38.0937 17.6259 37.35 17C36.9813 16.6679 36.5031 16.4833 36.0069 16.4814C35.5107 16.4796 35.0312 16.6606 34.66 16.99C33.9187 17.6187 32.9788 17.9646 32.0068 17.9664C31.0349 17.9682 30.0937 17.6259 29.35 17C28.9813 16.6679 28.5031 16.4833 28.0069 16.4814C27.5107 16.4796 27.0312 16.6606 26.66 16.99C25.9187 17.6187 24.9788 17.9646 24.0068 17.9664C23.0349 17.9682 22.0937 17.6259 21.35 17C20.9832 16.6641 20.5043 16.477 20.0069 16.4752C19.5096 16.4733 19.0294 16.6569 18.66 16.99C18.1279 17.457 17.4835 17.7774 16.79 17.92C16.5301 17.9739 16.2654 18.0007 16 18C15.4958 17.9995 14.9966 17.901 14.53 17.71C15.4883 13.8 17.7304 10.3246 20.8977 7.83976C24.065 5.35496 27.9743 4.0045 32 4.0045C36.0257 4.0045 39.935 5.35496 43.1023 7.83976C46.2696 10.3246 48.5118 13.8 49.47 17.71C48.7486 17.9938 47.9613 18.0666 47.2 17.92V17.92ZM49 32C48.6481 31.9988 48.2992 31.9344 47.97 31.81C47.99 31.47 48 31.13 48 30.81V26.2C48.4063 26.0481 48.8413 25.9881 49.2736 26.0244C49.7059 26.0607 50.1247 26.1924 50.5 26.41C50.9564 26.6709 51.3356 27.048 51.599 27.5029C51.8625 27.9578 52.0008 28.4743 52 29C51.9976 29.7949 51.6808 30.5566 51.1187 31.1187C50.5566 31.6808 49.7949 31.9976 49 32V32Z" fill="#9a3412"/>
<path d="M39 32C40.1046 32 41 31.1046 41 30C41 28.8954 40.1046 28 39 28C37.8954 28 37 28.8954 37 30C37 31.1046 37.8954 32 39 32Z" fill="#9a3412"/>
<path d="M33.554 24.3L34.546 26.037C35.9208 25.3249 37.4521 24.9684 39 25C40.5858 24.9659 42.1531 25.345 43.548 26.1L44.574 24.383C42.8708 23.4379 40.9475 22.9607 39 23C37.1037 22.9636 35.2294 23.411 33.554 24.3V24.3Z" fill="#9a3412"/>
<path d="M25 32C26.1046 32 27 31.1046 27 30C27 28.8954 26.1046 28 25 28C23.8954 28 23 28.8954 23 30C23 31.1046 23.8954 32 25 32Z" fill="#9a3412"/>
<path d="M29.454 26.04L30.446 24.303C28.7709 23.4129 26.8966 22.9645 25 23C23.0529 22.9591 21.1298 23.4346 19.426 24.378L20.452 26.1C21.8469 25.345 23.4143 24.9659 25 25C26.5482 24.9693 28.0795 25.3269 29.454 26.04Z" fill="#9a3412"/>
<path d="M30.643 33.531C31.0279 33.1918 31.526 33.0092 32.039 33.0191C32.552 33.0291 33.0426 33.231 33.414 33.585L34.829 32.172C34.0981 31.441 33.1125 31.0213 32.079 31.001C31.0454 30.9806 30.0441 31.3613 29.285 32.063L30.643 33.531Z" fill="#9a3412"/>
<path d="M28.5 38.062L27.5 39.793C28.8695 40.5837 30.4231 41 32.0045 41C33.5859 41 35.1395 40.5837 36.509 39.793L35.509 38.062C34.44 38.6667 33.2327 38.9845 32.0045 38.9845C30.7763 38.9845 29.569 38.6667 28.5 38.062V38.062Z" fill="#9a3412"/>
</svg>
