<svg xmlns="http://www.w3.org/2000/svg" xmlns:xlink="http://www.w3.org/1999/xlink" width="200" zoomAndPan="magnify" viewBox="0 0 150 52.499999" height="70" preserveAspectRatio="xMidYMid meet" version="1.0"><defs><g/><clipPath id="866bb788c8"><path d="M 0.707031 0 L 149.292969 0 L 149.292969 52.003906 L 0.707031 52.003906 Z M 0.707031 0 " clip-rule="nonzero"/></clipPath><clipPath id="60f84667ea"><path d="M 3.613281 10.847656 L 36.527344 10.847656 L 36.527344 41.15625 L 3.613281 41.15625 Z M 3.613281 10.847656 " clip-rule="nonzero"/></clipPath><clipPath id="fcf7e5e364"><path d="M 7.328125 10.847656 L 32.734375 10.847656 C 34.785156 10.847656 36.449219 12.511719 36.449219 14.5625 L 36.449219 37.445312 C 36.449219 39.496094 34.785156 41.15625 32.734375 41.15625 L 7.328125 41.15625 C 5.273438 41.15625 3.613281 39.496094 3.613281 37.445312 L 3.613281 14.5625 C 3.613281 12.511719 5.273438 10.847656 7.328125 10.847656 Z M 7.328125 10.847656 " clip-rule="nonzero"/></clipPath><clipPath id="ef3cbf534d"><path d="M 20 15.847656 L 32 15.847656 L 32 30 L 20 30 Z M 20 15.847656 " clip-rule="nonzero"/></clipPath><clipPath id="470f84f352"><path d="M 6.757812 15.847656 L 33.503906 15.847656 L 33.503906 35.90625 L 6.757812 35.90625 Z M 6.757812 15.847656 " clip-rule="nonzero"/></clipPath><clipPath id="d16e0e3d06"><path d="M 8 15.847656 L 20 15.847656 L 20 30 L 8 30 Z M 8 15.847656 " clip-rule="nonzero"/></clipPath></defs><g clip-path="url(#866bb788c8)"><path fill="#ffffff" d="M 0.707031 0 L 149.292969 0 L 149.292969 52.003906 L 0.707031 52.003906 Z M 0.707031 0 " fill-opacity="1" fill-rule="nonzero"/><path fill="#ffffff" d="M 0.707031 0 L 149.292969 0 L 149.292969 52.003906 L 0.707031 52.003906 Z M 0.707031 0 " fill-opacity="1" fill-rule="nonzero"/></g><g clip-path="url(#60f84667ea)"><g clip-path="url(#fcf7e5e364)"><path fill="#ff3131" d="M 3.613281 10.847656 L 36.410156 10.847656 L 36.410156 41.15625 L 3.613281 41.15625 Z M 3.613281 10.847656 " fill-opacity="1" fill-rule="nonzero"/></g></g><g clip-path="url(#ef3cbf534d)"><path fill="#ffffff" d="M 31.191406 24.105469 L 28.558594 15.847656 C 28.558594 15.847656 27.546875 16.734375 24.777344 17.152344 C 22.007812 17.574219 20.488281 19.160156 20.488281 19.160156 L 20.488281 29.332031 C 22.65625 26.578125 31.191406 24.105469 31.191406 24.105469 " fill-opacity="1" fill-rule="nonzero"/></g><g clip-path="url(#470f84f352)"><path fill="#ffffff" d="M 32.328125 25.878906 L 26.152344 28.910156 C 26.484375 29.023438 26.816406 29.171875 27.082031 29.554688 C 27.585938 30.292969 26.921875 30.707031 26.851562 30.683594 C 26.824219 30.675781 25.90625 30.203125 24.738281 29.601562 L 24.316406 29.8125 C 25.988281 30.414062 27.25 32.472656 27.847656 32.972656 C 28.613281 33.601562 29.714844 33.410156 30.445312 34.472656 C 31.175781 35.539062 30.210938 36.148438 30.113281 36.117188 C 30.027344 36.089844 22.460938 32.253906 20.492188 31.1875 L 19.570312 31.1875 C 17.605469 32.253906 10.039062 36.089844 9.949219 36.117188 C 9.851562 36.148438 8.886719 35.539062 9.617188 34.472656 C 10.351562 33.410156 11.449219 33.601562 12.214844 32.972656 C 12.816406 32.472656 14.074219 30.414062 15.746094 29.8125 L 15.324219 29.601562 C 14.160156 30.203125 13.238281 30.675781 13.214844 30.683594 C 13.144531 30.707031 12.476562 30.292969 12.984375 29.554688 C 13.246094 29.171875 13.578125 29.023438 13.914062 28.910156 L 7.738281 25.878906 L 6.765625 25.402344 L 7.101562 24.328125 L 9.722656 15.875 L 10.742188 16.191406 L 8.074219 24.792969 L 20.03125 30.453125 L 31.988281 24.792969 L 29.320312 16.191406 L 30.339844 15.875 L 32.964844 24.328125 L 33.296875 25.402344 L 32.328125 25.878906 " fill-opacity="1" fill-rule="nonzero"/></g><g clip-path="url(#d16e0e3d06)"><path fill="#ffffff" d="M 19.578125 29.332031 L 19.578125 19.160156 C 19.578125 19.160156 18.054688 17.574219 15.285156 17.152344 C 12.519531 16.734375 11.503906 15.847656 11.503906 15.847656 L 8.875 24.105469 C 8.875 24.105469 17.410156 26.578125 19.578125 29.332031 " fill-opacity="1" fill-rule="nonzero"/></g><g fill="#ff3131" fill-opacity="1"><g transform="translate(36.948577, 29.246971)"><g><path d="M 4.84375 0.09375 C 3.351562 0.09375 2.210938 -0.398438 1.421875 -1.390625 C 0.773438 -2.171875 0.453125 -3.101562 0.453125 -4.1875 C 0.453125 -5.332031 0.773438 -6.328125 1.421875 -7.171875 C 2.210938 -8.191406 3.351562 -8.703125 4.84375 -8.703125 C 6.320312 -8.703125 7.472656 -8.191406 8.296875 -7.171875 C 8.921875 -6.347656 9.234375 -5.351562 9.234375 -4.1875 C 9.234375 -3.144531 8.929688 -2.234375 8.328125 -1.453125 L 9.546875 -1.453125 L 9.546875 0 L 5.859375 0 C 5.554688 0.0625 5.21875 0.09375 4.84375 0.09375 Z M 3.078125 -2.171875 C 3.515625 -1.648438 4.101562 -1.390625 4.84375 -1.390625 C 5.582031 -1.390625 6.171875 -1.648438 6.609375 -2.171875 C 7.046875 -2.691406 7.265625 -3.363281 7.265625 -4.1875 C 7.265625 -5.070312 7.046875 -5.796875 6.609375 -6.359375 C 6.179688 -6.929688 5.59375 -7.21875 4.84375 -7.21875 C 4.101562 -7.21875 3.515625 -6.929688 3.078125 -6.359375 C 2.640625 -5.796875 2.421875 -5.070312 2.421875 -4.1875 C 2.421875 -3.363281 2.640625 -2.691406 3.078125 -2.171875 Z M 3.078125 -2.171875 "/></g></g></g><g fill="#ff3131" fill-opacity="1"><g transform="translate(46.717077, 29.246971)"><g><path d="M 4.765625 0.09375 C 3.285156 0.09375 2.195312 -0.359375 1.5 -1.265625 C 0.945312 -1.972656 0.671875 -2.867188 0.671875 -3.953125 L 0.671875 -8.53125 L 2.640625 -8.53125 L 2.640625 -3.90625 C 2.640625 -3.144531 2.8125 -2.535156 3.15625 -2.078125 C 3.507812 -1.617188 4.046875 -1.390625 4.765625 -1.390625 C 5.492188 -1.390625 6.03125 -1.617188 6.375 -2.078125 C 6.726562 -2.535156 6.90625 -3.144531 6.90625 -3.90625 L 6.90625 -8.53125 L 8.875 -8.53125 L 8.875 -3.953125 C 8.875 -2.867188 8.601562 -1.972656 8.0625 -1.265625 C 7.351562 -0.359375 6.253906 0.09375 4.765625 0.09375 Z M 4.765625 0.09375 "/></g></g></g><g fill="#ff3131" fill-opacity="1"><g transform="translate(56.252302, 29.246971)"><g><path d="M 0.75 0 L 0.75 -8.53125 L 4.609375 -8.53125 C 5.734375 -8.53125 6.59375 -8.242188 7.1875 -7.671875 C 7.789062 -7.097656 8.09375 -6.394531 8.09375 -5.5625 C 8.09375 -5.039062 7.953125 -4.535156 7.671875 -4.046875 C 7.390625 -3.554688 6.988281 -3.1875 6.46875 -2.9375 L 7.84375 0 L 5.65625 0 L 4.46875 -2.546875 L 2.71875 -2.546875 L 2.71875 0 Z M 2.71875 -4.046875 L 4.640625 -4.046875 C 5.078125 -4.046875 5.429688 -4.179688 5.703125 -4.453125 C 5.984375 -4.722656 6.125 -5.085938 6.125 -5.546875 C 6.125 -6.003906 5.984375 -6.367188 5.703125 -6.640625 C 5.429688 -6.910156 5.078125 -7.046875 4.640625 -7.046875 L 2.71875 -7.046875 Z M 2.71875 -4.046875 "/></g></g></g><g fill="#ff3131" fill-opacity="1"><g transform="translate(64.664877, 29.246971)"><g><path d="M 0.15625 0 L 3.03125 -8.53125 L 6.296875 -8.53125 L 9.171875 0 L 7.09375 0 L 6.5 -1.796875 L 2.84375 -1.796875 L 2.234375 0 Z M 3.359375 -3.328125 L 5.96875 -3.328125 L 4.671875 -7.203125 Z M 3.359375 -3.328125 "/></g></g></g><g fill="#ff3131" fill-opacity="1"><g transform="translate(73.981405, 29.246971)"><g><path d="M 0.75 0 L 0.75 -8.53125 L 3.125 -8.53125 L 6.90625 -2.328125 L 6.90625 -8.53125 L 8.875 -8.53125 L 8.875 0 L 6.1875 0 L 2.71875 -5.671875 L 2.71875 0 Z M 0.75 0 "/></g></g></g><g fill="#ff3131" fill-opacity="1"><g transform="translate(83.589533, 29.246971)"><g><path d="M 4.640625 0.09375 C 3.953125 0.09375 3.304688 0.0078125 2.703125 -0.15625 C 2.109375 -0.332031 1.597656 -0.625 1.171875 -1.03125 C 0.753906 -1.445312 0.546875 -1.953125 0.546875 -2.546875 L 2.96875 -2.546875 C 2.96875 -1.773438 3.53125 -1.390625 4.65625 -1.390625 C 5.3125 -1.390625 5.769531 -1.46875 6.03125 -1.625 C 6.289062 -1.78125 6.421875 -2.050781 6.421875 -2.4375 C 6.421875 -2.53125 6.398438 -2.617188 6.359375 -2.703125 C 6.316406 -2.785156 6.242188 -2.859375 6.140625 -2.921875 C 6.035156 -2.992188 5.941406 -3.050781 5.859375 -3.09375 C 5.773438 -3.132812 5.640625 -3.175781 5.453125 -3.21875 C 5.273438 -3.269531 5.132812 -3.304688 5.03125 -3.328125 C 4.9375 -3.347656 4.773438 -3.378906 4.546875 -3.421875 C 4.421875 -3.453125 4.328125 -3.472656 4.265625 -3.484375 C 3.796875 -3.578125 3.425781 -3.65625 3.15625 -3.71875 C 2.894531 -3.78125 2.570312 -3.882812 2.1875 -4.03125 C 1.800781 -4.175781 1.503906 -4.332031 1.296875 -4.5 C 1.097656 -4.664062 0.921875 -4.894531 0.765625 -5.1875 C 0.609375 -5.488281 0.53125 -5.820312 0.53125 -6.1875 C 0.53125 -6.945312 0.796875 -7.539062 1.328125 -7.96875 C 1.960938 -8.457031 2.953125 -8.703125 4.296875 -8.703125 C 4.984375 -8.703125 5.613281 -8.613281 6.1875 -8.4375 C 6.757812 -8.257812 7.242188 -7.96875 7.640625 -7.5625 C 8.035156 -7.15625 8.234375 -6.65625 8.234375 -6.0625 L 5.828125 -6.0625 C 5.828125 -6.476562 5.703125 -6.773438 5.453125 -6.953125 C 5.203125 -7.128906 4.820312 -7.21875 4.3125 -7.21875 C 3.71875 -7.21875 3.273438 -7.132812 2.984375 -6.96875 C 2.691406 -6.8125 2.546875 -6.585938 2.546875 -6.296875 C 2.546875 -6.128906 2.601562 -5.976562 2.71875 -5.84375 C 2.832031 -5.71875 3.003906 -5.613281 3.234375 -5.53125 C 3.460938 -5.457031 3.679688 -5.390625 3.890625 -5.328125 C 4.097656 -5.273438 4.367188 -5.21875 4.703125 -5.15625 C 4.742188 -5.144531 4.773438 -5.132812 4.796875 -5.125 C 4.816406 -5.125 4.847656 -5.117188 4.890625 -5.109375 C 4.929688 -5.109375 4.960938 -5.101562 4.984375 -5.09375 C 5.453125 -5 5.863281 -4.894531 6.21875 -4.78125 C 6.582031 -4.664062 6.941406 -4.515625 7.296875 -4.328125 C 7.660156 -4.140625 7.941406 -3.898438 8.140625 -3.609375 C 8.347656 -3.316406 8.453125 -2.976562 8.453125 -2.59375 C 8.453125 -1.738281 8.175781 -1.097656 7.625 -0.671875 C 6.988281 -0.160156 5.992188 0.09375 4.640625 0.09375 Z M 4.640625 0.09375 "/></g></g></g><g fill="#ff3131" fill-opacity="1"><g transform="translate(92.556138, 29.246971)"><g><path d="M 4.890625 0.09375 C 3.378906 0.09375 2.226562 -0.390625 1.4375 -1.359375 C 0.78125 -2.148438 0.453125 -3.125 0.453125 -4.28125 L 0.453125 -4.328125 C 0.453125 -5.492188 0.78125 -6.472656 1.4375 -7.265625 C 2.21875 -8.222656 3.367188 -8.703125 4.890625 -8.703125 C 6.023438 -8.703125 6.960938 -8.445312 7.703125 -7.9375 C 8.441406 -7.425781 8.882812 -6.738281 9.03125 -5.875 L 6.984375 -5.875 C 6.941406 -6.3125 6.734375 -6.644531 6.359375 -6.875 C 5.984375 -7.101562 5.492188 -7.21875 4.890625 -7.21875 C 4.128906 -7.21875 3.523438 -6.945312 3.078125 -6.40625 C 2.640625 -5.863281 2.421875 -5.15625 2.421875 -4.28125 C 2.421875 -3.414062 2.644531 -2.71875 3.09375 -2.1875 C 3.539062 -1.65625 4.140625 -1.390625 4.890625 -1.390625 C 5.492188 -1.390625 5.984375 -1.503906 6.359375 -1.734375 C 6.734375 -1.960938 6.941406 -2.296875 6.984375 -2.734375 L 9.03125 -2.734375 C 8.882812 -1.878906 8.4375 -1.191406 7.6875 -0.671875 C 6.945312 -0.160156 6.015625 0.09375 4.890625 0.09375 Z M 4.890625 0.09375 "/></g></g></g><g fill="#ff3131" fill-opacity="1"><g transform="translate(102.033039, 29.246971)"><g><path d="M 0.75 0 L 0.75 -8.53125 L 2.71875 -8.53125 L 2.71875 -4.859375 L 6.234375 -4.859375 L 6.234375 -8.53125 L 8.203125 -8.53125 L 8.203125 0 L 6.234375 0 L 6.234375 -3.34375 L 2.71875 -3.34375 L 2.71875 0 Z M 0.75 0 "/></g></g></g><g fill="#ff3131" fill-opacity="1"><g transform="translate(110.970488, 29.246971)"><g><path d="M 4.84375 0.09375 C 3.351562 0.09375 2.210938 -0.398438 1.421875 -1.390625 C 0.773438 -2.171875 0.453125 -3.101562 0.453125 -4.1875 C 0.453125 -5.332031 0.773438 -6.328125 1.421875 -7.171875 C 2.210938 -8.191406 3.351562 -8.703125 4.84375 -8.703125 C 6.320312 -8.703125 7.472656 -8.191406 8.296875 -7.171875 C 8.921875 -6.347656 9.234375 -5.351562 9.234375 -4.1875 C 9.234375 -3.09375 8.921875 -2.160156 8.296875 -1.390625 C 7.472656 -0.398438 6.320312 0.09375 4.84375 0.09375 Z M 3.078125 -2.171875 C 3.515625 -1.648438 4.101562 -1.390625 4.84375 -1.390625 C 5.582031 -1.390625 6.171875 -1.648438 6.609375 -2.171875 C 7.046875 -2.691406 7.265625 -3.363281 7.265625 -4.1875 C 7.265625 -5.070312 7.046875 -5.796875 6.609375 -6.359375 C 6.179688 -6.929688 5.59375 -7.21875 4.84375 -7.21875 C 4.101562 -7.21875 3.515625 -6.929688 3.078125 -6.359375 C 2.640625 -5.796875 2.421875 -5.070312 2.421875 -4.1875 C 2.421875 -3.363281 2.640625 -2.691406 3.078125 -2.171875 Z M 3.078125 -2.171875 "/></g></g></g><g fill="#ff3131" fill-opacity="1"><g transform="translate(120.651507, 29.246971)"><g><path d="M 0.75 0 L 0.75 -8.53125 L 2.71875 -8.53125 L 2.71875 -1.484375 L 7.109375 -1.484375 L 7.109375 0 Z M 0.75 0 "/></g></g></g><g fill="#ff3131" fill-opacity="1"><g transform="translate(128.130971, 29.246971)"><g><path d="M 0.15625 0 L 3.03125 -8.53125 L 6.296875 -8.53125 L 9.171875 0 L 7.09375 0 L 6.5 -1.796875 L 2.84375 -1.796875 L 2.234375 0 Z M 3.359375 -3.328125 L 5.96875 -3.328125 L 4.671875 -7.203125 Z M 3.359375 -3.328125 "/></g></g></g><g fill="#ff3131" fill-opacity="1"><g transform="translate(137.447499, 29.246971)"><g><path d="M 0.75 0 L 0.75 -8.53125 L 4.609375 -8.53125 C 5.734375 -8.53125 6.59375 -8.242188 7.1875 -7.671875 C 7.789062 -7.097656 8.09375 -6.394531 8.09375 -5.5625 C 8.09375 -5.039062 7.953125 -4.535156 7.671875 -4.046875 C 7.390625 -3.554688 6.988281 -3.1875 6.46875 -2.9375 L 7.84375 0 L 5.65625 0 L 4.46875 -2.546875 L 2.71875 -2.546875 L 2.71875 0 Z M 2.71875 -4.046875 L 4.640625 -4.046875 C 5.078125 -4.046875 5.429688 -4.179688 5.703125 -4.453125 C 5.984375 -4.722656 6.125 -5.085938 6.125 -5.546875 C 6.125 -6.003906 5.984375 -6.367188 5.703125 -6.640625 C 5.429688 -6.910156 5.078125 -7.046875 4.640625 -7.046875 L 2.71875 -7.046875 Z M 2.71875 -4.046875 "/></g></g></g></svg>