<?xml version="1.0" encoding="utf-8"?>
<!-- Generator: Adobe Illustrator 27.5.0, SVG Export Plug-In . SVG Version: 6.00 Build 0)  -->
<svg version="1.1" id="Layer_1" xmlns="http://www.w3.org/2000/svg" xmlns:xlink="http://www.w3.org/1999/xlink" x="0px" y="0px"
	 viewBox="0 0 500 500" style="enable-background:new 0 0 500 500;" xml:space="preserve">
<g>
	<g>
		<rect x="0.5" y="0.5" style="fill-rule:evenodd;clip-rule:evenodd;fill:#FFFFFF;" width="499" height="499"/>
	</g>
	<g>
		<g>
			<path style="fill:#92400E;" d="M250.819,438.875c-100.287,0-181.875-81.586-181.875-181.871
				c0-100.287,81.588-181.877,181.875-181.877c100.286,0,181.874,81.59,181.874,181.877
				C432.693,357.289,351.105,438.875,250.819,438.875z M250.819,76.912c-99.304,0-180.093,80.787-180.093,180.092
				c0,99.301,80.789,180.09,180.093,180.09c99.303,0,180.092-80.789,180.092-180.09C430.911,157.699,350.122,76.912,250.819,76.912z
				"/>
		</g>
		<g>
			
				<ellipse transform="matrix(0.7071 -0.7071 0.7071 0.7071 -103.3526 249.9173)" style="fill-rule:evenodd;clip-rule:evenodd;fill:#f4beb9;" cx="250.001" cy="249.716" rx="180.984" ry="180.984"/>
		</g>
		<g>
			<g>
				<g>
					<g>
						<g>
							<path style="fill-rule:evenodd;clip-rule:evenodd;fill:#92400E;" d="M363.891,443.199h66.171c1.123,0,2.044,0.92,2.044,2.043
								l0,0c0,1.127-0.921,2.043-2.044,2.043h-66.171c-1.124,0-2.044-0.916-2.044-2.043l0,0
								C361.847,444.119,362.767,443.199,363.891,443.199z"/>
						</g>
						<g>
							<path style="fill-rule:evenodd;clip-rule:evenodd;fill:#92400E;" d="M438.751,443.199h22.184c1.123,0,2.043,0.92,2.043,2.043
								l0,0c0,1.127-0.92,2.043-2.043,2.043h-22.184c-1.125,0-2.044-0.916-2.044-2.043l0,0
								C436.707,444.119,437.626,443.199,438.751,443.199z"/>
						</g>
					</g>
					<g>
						<g>
							<path style="fill-rule:evenodd;clip-rule:evenodd;fill:#92400E;" d="M450.666,432.67h3.319c1.124,0,2.043,0.918,2.043,2.041
								l0,0c0,1.127-0.919,2.047-2.043,2.047h-3.319c-1.124,0-2.044-0.92-2.044-2.047l0,0
								C448.622,433.588,449.542,432.67,450.666,432.67z"/>
						</g>
						<g>
							<path style="fill-rule:evenodd;clip-rule:evenodd;fill:#92400E;" d="M438.318,432.67h3.318c1.126,0,2.044,0.918,2.044,2.041
								l0,0c0,1.127-0.918,2.047-2.044,2.047h-3.318c-1.124,0-2.044-0.92-2.044-2.047l0,0
								C436.274,433.588,437.194,432.67,438.318,432.67z"/>
						</g>
						<g>
							<path style="fill-rule:evenodd;clip-rule:evenodd;fill:#92400E;" d="M418.565,432.67h10.725c1.124,0,2.045,0.918,2.045,2.041
								l0,0c0,1.127-0.921,2.047-2.045,2.047h-10.725c-1.123,0-2.043-0.92-2.043-2.047l0,0
								C416.522,433.588,417.441,432.67,418.565,432.67z"/>
						</g>
						<g>
							<path style="fill-rule:evenodd;clip-rule:evenodd;fill:#92400E;" d="M391.412,432.67h17.76c1.123,0,2.043,0.918,2.043,2.041
								l0,0c0,1.127-0.92,2.047-2.043,2.047h-17.76c-1.126,0-2.046-0.92-2.046-2.047l0,0
								C389.366,433.588,390.286,432.67,391.412,432.67z"/>
						</g>
					</g>
					<g>
						<g>
							<path style="fill-rule:evenodd;clip-rule:evenodd;fill:#92400E;" d="M431.963,453.73h3.319c1.123,0,2.042,0.918,2.042,2.043
								l0,0c0,1.123-0.919,2.043-2.042,2.043h-3.319c-1.125,0-2.043-0.92-2.043-2.043l0,0
								C429.92,454.648,430.838,453.73,431.963,453.73z"/>
						</g>
						<g>
							<path style="fill-rule:evenodd;clip-rule:evenodd;fill:#92400E;" d="M419.615,453.73h3.318c1.124,0,2.043,0.918,2.043,2.043
								l0,0c0,1.123-0.919,2.043-2.043,2.043h-3.318c-1.123,0-2.045-0.92-2.045-2.043l0,0
								C417.57,454.648,418.492,453.73,419.615,453.73z"/>
						</g>
						<g>
							<path style="fill-rule:evenodd;clip-rule:evenodd;fill:#92400E;" d="M399.859,453.73h10.728c1.123,0,2.042,0.918,2.042,2.043
								l0,0c0,1.123-0.919,2.043-2.042,2.043h-10.728c-1.123,0-2.043-0.92-2.043-2.043l0,0
								C397.816,454.648,398.736,453.73,399.859,453.73z"/>
						</g>
						<g>
							<path style="fill-rule:evenodd;clip-rule:evenodd;fill:#92400E;" d="M372.707,453.73h17.76c1.125,0,2.043,0.918,2.043,2.043
								l0,0c0,1.123-0.918,2.043-2.043,2.043h-17.76c-1.125,0-2.043-0.92-2.043-2.043l0,0
								C370.664,454.648,371.582,453.73,372.707,453.73z"/>
						</g>
					</g>
				</g>
				<g>
					<g>
						<g>
							<path style="fill-rule:evenodd;clip-rule:evenodd;fill:#92400E;" d="M47.552,140.703V74.535c0-1.127,0.921-2.045,2.044-2.045
								l0,0c1.125,0,2.044,0.918,2.044,2.045v66.168c0,1.125-0.919,2.045-2.044,2.045l0,0
								C48.473,142.748,47.552,141.828,47.552,140.703z"/>
						</g>
						<g>
							<path style="fill-rule:evenodd;clip-rule:evenodd;fill:#92400E;" d="M47.552,65.844V43.66c0-1.125,0.921-2.045,2.044-2.045
								l0,0c1.125,0,2.044,0.92,2.044,2.045v22.184c0,1.125-0.919,2.043-2.044,2.043l0,0C48.473,67.887,47.552,66.969,47.552,65.844
								z"/>
						</g>
					</g>
					<g>
						<g>
							<path style="fill-rule:evenodd;clip-rule:evenodd;fill:#92400E;" d="M37.021,53.928v-3.318c0-1.125,0.919-2.043,2.044-2.043
								l0,0c1.124,0,2.044,0.918,2.044,2.043v3.318c0,1.125-0.92,2.045-2.044,2.045l0,0C37.94,55.973,37.021,55.053,37.021,53.928z"
								/>
						</g>
						<g>
							<path style="fill-rule:evenodd;clip-rule:evenodd;fill:#92400E;" d="M37.021,66.275v-3.318c0-1.125,0.919-2.043,2.044-2.043
								l0,0c1.124,0,2.044,0.918,2.044,2.043v3.318c0,1.125-0.92,2.043-2.044,2.043l0,0C37.94,68.318,37.021,67.4,37.021,66.275z"/>
						</g>
						<g>
							<path style="fill-rule:evenodd;clip-rule:evenodd;fill:#92400E;" d="M37.021,86.031V75.305c0-1.125,0.919-2.043,2.044-2.043
								l0,0c1.124,0,2.044,0.918,2.044,2.043v10.727c0,1.123-0.92,2.043-2.044,2.043l0,0C37.94,88.074,37.021,87.154,37.021,86.031z
								"/>
						</g>
						<g>
							<path style="fill-rule:evenodd;clip-rule:evenodd;fill:#92400E;" d="M37.021,113.184v-17.76c0-1.127,0.919-2.043,2.044-2.043
								l0,0c1.124,0,2.044,0.916,2.044,2.043v17.76c0,1.123-0.92,2.045-2.044,2.045l0,0
								C37.94,115.229,37.021,114.307,37.021,113.184z"/>
						</g>
					</g>
					<g>
						<g>
							<path style="fill-rule:evenodd;clip-rule:evenodd;fill:#92400E;" d="M58.084,72.633v-3.32c0-1.123,0.919-2.041,2.044-2.041
								l0,0c1.123,0,2.043,0.918,2.043,2.041v3.32c0,1.123-0.92,2.043-2.043,2.043l0,0C59.003,74.676,58.084,73.756,58.084,72.633z"
								/>
						</g>
						<g>
							<path style="fill-rule:evenodd;clip-rule:evenodd;fill:#92400E;" d="M58.084,84.98v-3.32c0-1.123,0.919-2.043,2.044-2.043
								l0,0c1.123,0,2.043,0.92,2.043,2.043v3.32c0,1.123-0.92,2.043-2.043,2.043l0,0C59.003,87.023,58.084,86.104,58.084,84.98z"/>
						</g>
						<g>
							<path style="fill-rule:evenodd;clip-rule:evenodd;fill:#92400E;" d="M58.084,104.732V94.008c0-1.125,0.919-2.043,2.044-2.043
								l0,0c1.123,0,2.043,0.918,2.043,2.043v10.725c0,1.127-0.92,2.043-2.043,2.043l0,0
								C59.003,106.775,58.084,105.859,58.084,104.732z"/>
						</g>
						<g>
							<path style="fill-rule:evenodd;clip-rule:evenodd;fill:#92400E;" d="M58.084,131.889v-17.764
								c0-1.123,0.919-2.043,2.044-2.043l0,0c1.123,0,2.043,0.92,2.043,2.043v17.764c0,1.123-0.92,2.043-2.043,2.043l0,0
								C59.003,133.932,58.084,133.012,58.084,131.889z"/>
						</g>
					</g>
				</g>
			</g>
			<g>
				<g>
					<g>
						<path style="fill-rule:evenodd;clip-rule:evenodd;fill:#92400E;" d="M326.74,58.959v-3.32c0-1.123,0.921-2.043,2.044-2.043
							l0,0c1.125,0,2.044,0.92,2.044,2.043v3.32c0,1.125-0.919,2.043-2.044,2.043l0,0C327.661,61.002,326.74,60.084,326.74,58.959z"
							/>
					</g>
					<g>
						<path style="fill-rule:evenodd;clip-rule:evenodd;fill:#92400E;" d="M340.65,58.959v-3.32c0-1.123,0.92-2.043,2.044-2.043l0,0
							c1.125,0,2.043,0.92,2.043,2.043v3.32c0,1.125-0.918,2.043-2.043,2.043l0,0C341.57,61.002,340.65,60.084,340.65,58.959z"/>
					</g>
					<g>
						<path style="fill-rule:evenodd;clip-rule:evenodd;fill:#92400E;" d="M354.56,58.959v-3.32c0-1.123,0.92-2.043,2.043-2.043l0,0
							c1.126,0,2.044,0.92,2.044,2.043v3.32c0,1.125-0.918,2.043-2.044,2.043l0,0C355.48,61.002,354.56,60.084,354.56,58.959z"/>
					</g>
					<g>
						<path style="fill-rule:evenodd;clip-rule:evenodd;fill:#92400E;" d="M368.471,58.959v-3.32c0-1.123,0.92-2.043,2.043-2.043
							l0,0c1.125,0,2.044,0.92,2.044,2.043v3.32c0,1.125-0.919,2.043-2.044,2.043l0,0C369.391,61.002,368.471,60.084,368.471,58.959
							z"/>
					</g>
					<g>
						<path style="fill-rule:evenodd;clip-rule:evenodd;fill:#92400E;" d="M382.381,58.959v-3.32c0-1.123,0.92-2.043,2.043-2.043
							l0,0c1.126,0,2.043,0.92,2.043,2.043v3.32c0,1.125-0.917,2.043-2.043,2.043l0,0C383.301,61.002,382.381,60.084,382.381,58.959
							z"/>
					</g>
				</g>
				<g>
					<g>
						<path style="fill-rule:evenodd;clip-rule:evenodd;fill:#92400E;" d="M65.123,373.002h3.32c1.123,0,2.043,0.92,2.043,2.043l0,0
							c0,1.123-0.92,2.043-2.043,2.043h-3.32c-1.125,0-2.043-0.92-2.043-2.043l0,0C63.08,373.922,63.998,373.002,65.123,373.002z"/>
					</g>
					<g>
						<path style="fill-rule:evenodd;clip-rule:evenodd;fill:#92400E;" d="M65.123,386.91h3.32c1.123,0,2.043,0.922,2.043,2.045l0,0
							c0,1.123-0.92,2.043-2.043,2.043h-3.32c-1.125,0-2.043-0.92-2.043-2.043l0,0C63.08,387.832,63.998,386.91,65.123,386.91z"/>
					</g>
					<g>
						<path style="fill-rule:evenodd;clip-rule:evenodd;fill:#92400E;" d="M65.123,400.82h3.32c1.123,0,2.043,0.92,2.043,2.043l0,0
							c0,1.125-0.92,2.045-2.043,2.045h-3.32c-1.125,0-2.043-0.92-2.043-2.045l0,0C63.08,401.74,63.998,400.82,65.123,400.82z"/>
					</g>
					<g>
						<path style="fill-rule:evenodd;clip-rule:evenodd;fill:#92400E;" d="M65.123,414.73h3.32c1.123,0,2.043,0.92,2.043,2.043l0,0
							c0,1.125-0.92,2.043-2.043,2.043h-3.32c-1.125,0-2.043-0.918-2.043-2.043l0,0C63.08,415.65,63.998,414.73,65.123,414.73z"/>
					</g>
					<g>
						<path style="fill-rule:evenodd;clip-rule:evenodd;fill:#92400E;" d="M65.123,428.641h3.32c1.123,0,2.043,0.92,2.043,2.043l0,0
							c0,1.127-0.92,2.043-2.043,2.043h-3.32c-1.125,0-2.043-0.916-2.043-2.043l0,0C63.08,429.56,63.998,428.641,65.123,428.641z"/>
					</g>
				</g>
			</g>
		</g>
	</g>
	<g>
		<path style="fill-rule:evenodd;clip-rule:evenodd;fill:#FFFFFF;" d="M193.318,426.279c1.068,0,2.09,0.191,3.033,0.543
			c0.428-0.471,1.044-0.768,1.729-0.768c0.32,0,0.625,0.066,0.902,0.182c0.151-2.01,1.831-3.594,3.879-3.594
			c0.891,0,1.711,0.299,2.366,0.803c0.143-0.199,0.316-0.369,0.511-0.514c-0.374-0.662-0.586-1.43-0.586-2.244
			c0-1.268,0.513-2.414,1.344-3.246c0.831-0.828,1.978-1.344,3.246-1.344h0.015c0.699-0.367,1.493-0.576,2.337-0.576
			c0.516,0,1.015,0.08,1.484,0.225c0.214-0.457,0.574-0.83,1.02-1.061c-0.124-0.568-0.189-1.16-0.189-1.767
			c0-2.301,0.934-4.385,2.44-5.889c1.507-1.51,3.59-2.443,5.892-2.443c0.731,0,1.441,0.096,2.118,0.275
			c4.924,0.07,8.893,4.082,8.893,9.025c0,0.068-0.001,0.139-0.003,0.209c0.436-0.111,0.892-0.17,1.362-0.17
			c0.935,0,1.814,0.232,2.585,0.639c1.317-1.793,3.44-2.959,5.837-2.959c3.995,0,7.232,3.236,7.232,7.23
			c0,0.785-0.126,1.541-0.356,2.25c0.072-0.006,0.145-0.008,0.219-0.008c1.967,0,3.561,1.592,3.561,3.563
			c0,0.23-0.023,0.457-0.064,0.674c0.025,0,0.051-0.002,0.075-0.002c1.111,0,2.017,0.883,2.054,1.986
			c0.308-0.06,0.626-0.09,0.951-0.09c1.284,0,2.485,0.447,3.351,1.264c2.313,2.189-0.213,2.76-2.647,2.76h-3.174h-2.491h-43.641
			c-4.994-1.465-11.281-3.314-16.504-4.867C192.496,426.307,192.904,426.279,193.318,426.279L193.318,426.279z M215.258,414.465
			c0.125-0.023,0.255-0.033,0.387-0.033l0.066,0.002c-0.011-0.18-0.018-0.363-0.018-0.547c0-3.973,2.563-7.342,6.126-8.551
			c-1.741,0.209-3.304,1.002-4.481,2.18c-1.381,1.385-2.237,3.293-2.237,5.402C215.101,413.449,215.155,413.965,215.258,414.465
			L215.258,414.465z M206.352,422.615c0.234-0.08,0.484-0.125,0.745-0.125c0.128,0,0.253,0.012,0.376,0.033
			c-0.259-0.609-0.402-1.275-0.402-1.977c0-1.398,0.571-2.662,1.494-3.574c-0.604,0.189-1.143,0.525-1.578,0.959
			c-0.705,0.703-1.142,1.682-1.142,2.756C205.845,421.389,206.029,422.045,206.352,422.615z"/>
	</g>
	<g>
		<path style="fill-rule:evenodd;clip-rule:evenodd;fill:#FFFFFF;" d="M408.596,305.471c-1.068,0-2.09,0.191-3.034,0.543
			c-0.428-0.469-1.044-0.766-1.729-0.766c-0.318,0-0.624,0.063-0.9,0.178c-0.152-2.008-1.832-3.594-3.881-3.594
			c-0.89,0-1.71,0.301-2.364,0.803c-0.143-0.197-0.315-0.369-0.513-0.51c0.374-0.666,0.586-1.43,0.586-2.246
			c0-1.268-0.514-2.414-1.343-3.244c-0.83-0.832-1.978-1.346-3.246-1.346h-0.015c-0.699-0.367-1.493-0.574-2.338-0.574
			c-0.516,0-1.015,0.078-1.483,0.223c-0.214-0.457-0.574-0.832-1.019-1.063c0.123-0.568,0.189-1.158,0.189-1.766
			c0-2.301-0.933-4.383-2.44-5.891c-1.508-1.508-3.59-2.44-5.891-2.44c-0.732,0-1.442,0.092-2.118,0.272
			c-4.924,0.07-8.895,4.086-8.895,9.027c0,0.068,0.003,0.139,0.004,0.209c-0.436-0.111-0.892-0.172-1.363-0.172
			c-0.932,0-1.813,0.232-2.585,0.643c-1.315-1.797-3.44-2.961-5.836-2.961c-3.995,0-7.232,3.236-7.232,7.232
			c0,0.783,0.125,1.539,0.357,2.246c-0.071-0.004-0.145-0.006-0.218-0.006c-1.967,0-3.562,1.594-3.562,3.561
			c0,0.232,0.021,0.457,0.064,0.676c-0.025-0.002-0.049-0.002-0.074-0.002c-1.111,0-2.016,0.883-2.053,1.984
			c-0.309-0.057-0.627-0.088-0.953-0.088c-1.283,0-2.484,0.447-3.35,1.264c-2.313,2.189,0.212,2.758,2.646,2.758h3.174h2.49h51.065
			h3.986h6.55c2.535,0,6.159,0.416,3.642-2.236C413.325,306.512,411.082,305.471,408.596,305.471L408.596,305.471z M386.655,293.656
			c-0.126-0.023-0.255-0.035-0.387-0.035l-0.065,0.002c0.01-0.18,0.016-0.363,0.016-0.545c0-3.973-2.564-7.342-6.124-8.553
			c1.741,0.209,3.302,1.004,4.479,2.184c1.383,1.381,2.236,3.291,2.236,5.4C386.81,292.639,386.758,293.156,386.655,293.656
			L386.655,293.656z M395.56,301.805c-0.232-0.08-0.482-0.123-0.744-0.123c-0.128,0-0.254,0.014-0.377,0.031
			c0.261-0.605,0.403-1.275,0.403-1.977c0-1.396-0.571-2.662-1.493-3.572c0.602,0.191,1.141,0.523,1.578,0.959
			c0.705,0.705,1.141,1.68,1.141,2.756C396.068,300.578,395.885,301.238,395.56,301.805z"/>
	</g>
	<g>
		<path style="fill-rule:evenodd;clip-rule:evenodd;fill:#FFFFFF;" d="M166.428,278.066c-1.066,0-2.09,0.191-3.033,0.543
			c-0.428-0.469-1.045-0.766-1.73-0.766c-0.319,0-0.624,0.064-0.899,0.182c-0.153-2.012-1.832-3.594-3.882-3.594
			c-0.891,0-1.71,0.299-2.364,0.799c-0.143-0.193-0.316-0.367-0.512-0.51c0.373-0.664,0.587-1.43,0.587-2.244
			c0-1.266-0.515-2.414-1.345-3.246c-0.83-0.83-1.979-1.346-3.245-1.346h-0.016c-0.698-0.365-1.492-0.572-2.336-0.572
			c-0.518,0-1.016,0.076-1.485,0.221c-0.213-0.455-0.573-0.828-1.019-1.061c0.122-0.566,0.189-1.16,0.189-1.766
			c0-2.301-0.934-4.383-2.44-5.892c-1.508-1.506-3.591-2.44-5.891-2.44c-0.732,0-1.442,0.096-2.118,0.273
			c-4.924,0.07-8.893,4.086-8.893,9.025c0,0.068,0.001,0.139,0.003,0.209c-0.437-0.111-0.894-0.168-1.362-0.168
			c-0.935,0-1.814,0.23-2.588,0.639c-1.314-1.795-3.438-2.961-5.835-2.961c-3.995,0-7.232,3.236-7.232,7.232
			c0,0.785,0.126,1.539,0.357,2.248c-0.072-0.004-0.146-0.008-0.219-0.008c-1.968,0-3.562,1.596-3.562,3.561
			c0,0.232,0.021,0.459,0.064,0.676c-0.025,0-0.05,0-0.075,0c-1.111,0-2.016,0.883-2.053,1.986
			c-0.308-0.059-0.626-0.092-0.952-0.092c-1.285,0-2.485,0.447-3.351,1.268c-2.313,2.185,0.214,2.756,2.647,2.756h3.174h2.49h51.065
			h3.986h6.549c2.535,0,6.159,0.414,3.643-2.238C171.158,279.109,168.916,278.066,166.428,278.066L166.428,278.066z
			 M144.488,266.252c-0.126-0.02-0.255-0.033-0.387-0.033l-0.066,0.004c0.011-0.184,0.018-0.365,0.018-0.549
			c0-3.969-2.564-7.342-6.125-8.553c1.741,0.211,3.302,1.006,4.48,2.184c1.382,1.383,2.237,3.295,2.237,5.402
			C144.645,265.236,144.591,265.752,144.488,266.252L144.488,266.252z M153.395,274.4c-0.234-0.076-0.483-0.123-0.745-0.123
			c-0.128,0-0.253,0.012-0.376,0.033c0.26-0.605,0.403-1.273,0.403-1.975c0-1.4-0.571-2.666-1.494-3.576
			c0.603,0.191,1.142,0.525,1.577,0.961c0.706,0.705,1.143,1.68,1.143,2.756C153.902,273.178,153.718,273.834,153.395,274.4z"/>
	</g>
	<g>
		<path style="fill:#59B2FF;" d="M140.412,347.43c-3.31,0-6.581-0.43-9.799-1.305c-19.225-5.211-34.353-25.435-38.54-51.529
			c-5.294-32.986,7.993-63.523,35.542-81.691c9.881-6.516,20.508-11.986,30.786-17.273c26.464-13.619,49.319-25.381,48.302-48.84
			c-0.76-17.529-5.9-29.549-15.279-35.723c-13.725-9.041-32.034-2.252-32.217-2.184c-0.229,0.088-0.486-0.027-0.575-0.258
			c-0.087-0.229,0.028-0.486,0.259-0.574c0.188-0.072,18.91-7.017,33.019,2.266c9.634,6.342,14.911,18.6,15.686,36.436
			c1.041,24.027-22.05,35.91-48.786,49.67c-10.256,5.279-20.861,10.736-30.702,17.225c-27.25,17.965-40.391,48.174-35.153,80.807
			c4.131,25.746,19.006,45.691,37.894,50.81c18.178,4.932,38.232-4.568,56.477-26.742c1.209-1.471,2.557-2.879,3.858-4.242
			c2.983-3.121,5.801-6.068,7.257-9.805c19.485-49.959,56.434-83.355,101.369-91.625c40.68-7.482,82.259,7.141,111.228,39.125
			c0.164,0.184,0.149,0.465-0.031,0.631c-0.184,0.166-0.464,0.154-0.63-0.029c-28.759-31.758-70.032-46.283-110.405-38.852
			c-44.625,8.213-81.329,41.41-100.7,91.076c-1.521,3.898-4.531,7.049-7.443,10.094c-1.291,1.351-2.626,2.75-3.815,4.193
			C172.74,337.65,156.166,347.43,140.412,347.43z"/>
	</g>
	<g>
		<g>
			<path style="fill-rule:evenodd;clip-rule:evenodd;fill:#92400E;" d="M371.195,293.785c0,0,12.548,5.033,17.262,18.799
				c2.653,7.748,7.156,25.637,10.588,39.809c-8.354,12.103-18.145,23.137-29.125,32.861l-2.869-9.484c0,0-2.168-4.432-7.45-3.109
				l-15.56-57.811L371.195,293.785z"/>
		</g>
		<g>
			<path style="fill-rule:evenodd;clip-rule:evenodd;fill:#92400E;" d="M252.61,279.459c-11.038,4.029-39.536,14.469-57.53,20.08
				c-1.577,0.492,6.569,2.723,6.183,4.371l-11.519,49.066c0,0,18.78,1.859,31.793-6.816c13.016-8.676,14.902-10.564,19.24-6.791
				c4.337,3.773,6.224-0.377,6.224-0.377L252.61,279.459z"/>
		</g>
		<g>
			<path style="fill-rule:evenodd;clip-rule:evenodd;fill:#92400E;" d="M212.955,325.492c-3.875-14.699-19.405-54.951-26.086-71.117
				c-3.826-9.262-6.002-11.902-17.703-11.326c-5.369,1.391-11.322,1.662-15.845,4.02c-8.321,4.342-15.999,14.209-15.999,14.209
				s-13.109,11.363-7.355,26.023c5.543,14.119,29.438,43.228,40.701,55.955C187.188,361.926,220.18,352.895,212.955,325.492z"/>
		</g>
		<g>
			<path style="fill-rule:evenodd;clip-rule:evenodd;fill:#000;" d="M166.177,243.719c-4.509,0.889-9.159,1.422-12.855,3.35
				c-8.321,4.342-15.999,14.209-15.999,14.209s-3.046,2.641-5.559,7.02c0.046,2.949,0.842,5.77,2.477,8.23
				c5.678,8.561,19.286,9.523,30.396,2.152c11.108-7.371,15.514-20.285,9.836-28.84
				C172.512,246.881,169.604,244.832,166.177,243.719z"/>
		</g>
		<g>
			<path style="fill-rule:evenodd;clip-rule:evenodd;fill:#f4beb9;" d="M145.032,243.047c10.271-6.814,22.851-5.922,28.1,1.988
				c5.248,7.912,1.178,19.848-9.093,26.662c-10.271,6.813-22.852,5.926-28.1-1.988C130.689,261.797,134.762,249.861,145.032,243.047
				z"/>
		</g>
		<g>
			<path style="fill-rule:evenodd;clip-rule:evenodd;fill:#12006C;" d="M248.344,423.572c0,0-1.803,2.461-1.375,7.09
				c1.01,0.018,2.018,0.037,3.031,0.037c21.481,0,42.084-3.752,61.2-10.619l-11.371-0.98L248.344,423.572z"/>
		</g>
		<g>
			<path style="fill-rule:evenodd;clip-rule:evenodd;fill:#f4beb9;" d="M328.201,275.418l0.353,50.631l-6.899,89.9
				c-13.239,5.715-27.296,9.887-41.944,12.311l-7.844-102.211l0.354-50.631C305.356,295.85,295.065,295.85,328.201,275.418z"/>
		</g>
		<g>
			<path style="fill-rule:evenodd;clip-rule:evenodd;fill:#92400E;" d="M328.201,275.418l0.174,24.902
				c-30.599,6.715-51.014-11.797-51.014-11.797s8.899-4.146,8.318-3.244c0.003-0.008,0.464-0.158,1.314-0.432
				C303.012,295.111,301.359,291.971,328.201,275.418z"/>
		</g>
		<g>
			<path style="fill:#12006C;" d="M295.047,425.492c-0.223,0-0.415-0.166-0.441-0.395c-0.287-2.447-0.566-4.701-0.834-6.869
				c-1.419-11.441-2.54-20.482-2.771-42.123c-8.414-12.613-4.467-28.281,0.99-49.941c2.624-10.414,5.597-22.219,7.574-35.492
				c0.037-0.244,0.265-0.41,0.507-0.375c0.244,0.035,0.412,0.262,0.375,0.506c-1.984,13.318-4.964,25.145-7.592,35.578
				c-5.416,21.5-9.33,37.035-1.041,49.336c0.048,0.07,0.074,0.156,0.075,0.244c0.229,21.688,1.348,30.721,2.765,42.16
				c0.27,2.166,0.549,4.424,0.836,6.875c0.029,0.242-0.146,0.465-0.391,0.492C295.083,425.492,295.065,425.492,295.047,425.492z"/>
		</g>
		<g>
			<path style="fill-rule:evenodd;clip-rule:evenodd;fill:#92400E;" d="M272.887,276.01c0,0-16.814,1.043-24.191,5.094
				c-5.529,18.57-12.158,46.277-12.158,70.316c0,12.648,8.301,46.824,8.282,60.84c0,0-2.147,7.34-5.313,18.131
				c3.475,0.197,6.971,0.309,10.494,0.309c11.171,0,22.103-1.018,32.714-2.955c0.085-0.502,0.151-0.852,0.193-1.033
				c0.869-3.713,0.716-15.895-0.279-23.26C281.63,396.084,272.887,276.01,272.887,276.01z"/>
		</g>
		<g>
			<path style="fill-rule:evenodd;clip-rule:evenodd;fill:#92400E;" d="M328.201,275.418c0,0,31.518,11.729,42.994,18.367
				c0,0-16.766,47.426-5.86,79.955c-1.063,8.631-2.786,11.799-4.906,19.361c-16.334,12.598-34.88,22.463-54.954,28.924
				c-0.717-4.109-1.191-6.76-1.328-7.34c-0.868-3.717-0.715-15.896,0.28-23.264C305.424,384.055,328.201,275.418,328.201,275.418z"
				/>
		</g>
		<g>
			<path style="fill-rule:evenodd;clip-rule:evenodd;fill:#92400E;" d="M328.201,275.418c0,0,16.228,6.039,29.635,11.904
				c-12.442,8.238-24.979,12.445-35.041,13.969C325.325,286.082,328.201,275.418,328.201,275.418z"/>
		</g>
		<g>
			<path style="fill-rule:evenodd;clip-rule:evenodd;fill:#92400E;" d="M263.281,280.299c-4.214-3.473-1.661-9.885,4.618-15.428
				c-15.486-12.852-22.694-30.633-10.341-55.773c9.35-86.664,112.756-72.279,98.094,13.646c5.02,27.557,4.52,38.254-13.886,46.389
				c3.642,5.889,4.501,14.51-1.636,17.199C307.112,300.012,278.188,292.584,263.281,280.299z"/>
		</g>
		<g>
			<path style="fill-rule:evenodd;clip-rule:evenodd;fill:#E33BA3;" d="M267.364,235.125c2.628,45.395,52.197,53.145,68.554,10.719
				c7.856-23.232,3.932-67.666-23.77-72.58C284.271,169.492,266.974,210.6,267.364,235.125z"/>
		</g>
		<!--  -->
		<g>
			<path style="fill-rule:evenodd;clip-rule:evenodd;fill:#FDBA74;" d="M266.228,230.91c2.88,45.434,53.761,53.389,70.369,11.004
				c7.967-23.219,3.76-67.693-24.677-72.725C283.308,165.303,265.73,206.369,266.228,230.91z"/>
		</g>
		<g>
			<path style="fill-rule:evenodd;clip-rule:evenodd;fill:#2C81FE;" d="M339.945,211.977c-0.114-1.635-0.273-3.27-0.485-4.895
				c-3.114-16.705-11.781-31.648-28.065-34.518c-16.386-2.236-29.2,9.35-37.264,24.309c-0.695,1.484-1.347,2.992-1.955,4.514
				c8.464-13.957,21.52-24.367,38.164-22.076C326.887,182.205,336.147,196.107,339.945,211.977z"/>
		</g>
		<g>
			<path style="fill-rule:evenodd;clip-rule:evenodd;fill:#FFFFFF;" d="M310.867,175.938c16.779,2.947,25.742,18.016,28.985,34.803
				c-1.646-19.391-9.938-38.367-27.932-41.551c-18.107-2.459-31.794,13.082-39.277,31.045
				C280.853,185.238,293.988,173.623,310.867,175.938z"/>
		</g>
		<g>
			<path style="fill:#E33BA3;" d="M322.877,285.334c-27.447,0-48.959-15.982-49.227-16.184c-0.036-0.029-0.066-0.059-0.092-0.094
				c-3.804-2.098-5.868-3.781-5.944-3.844c-0.189-0.158-0.215-0.441-0.057-0.629c0.157-0.19,0.439-0.213,0.628-0.055
				c0.289,0.238,29.433,23.914,73.399,4.195c0.226-0.1,0.489,0,0.589,0.225c0.1,0.223,0.001,0.486-0.224,0.59
				c-27.537,12.348-49.353,7.85-62.049,2.566c11.059,6.432,36.733,18.219,64.227,8.867c0.234-0.08,0.486,0.045,0.565,0.275
				c0.079,0.234-0.045,0.488-0.277,0.568C337.023,284.328,329.763,285.334,322.877,285.334z M316.897,269.338
				c-0.172,0-0.337-0.1-0.408-0.27c-0.098-0.225,0.006-0.486,0.232-0.584c29.375-12.637,37.65-42.486,38.498-45.848
				c0.06-0.24,0.301-0.383,0.542-0.324c0.237,0.061,0.383,0.301,0.323,0.543c-0.858,3.404-9.243,33.641-39.011,46.447
				C317.016,269.326,316.955,269.338,316.897,269.338z M260.648,228.771c-0.17,0-0.332-0.098-0.406-0.26
				c-4.275-9.504-3.137-19.371-3.125-19.469c0.029-0.244,0.252-0.428,0.496-0.389c0.244,0.029,0.418,0.252,0.389,0.496
				c-0.012,0.096-1.117,9.727,3.053,18.994c0.102,0.223,0.002,0.486-0.224,0.59C260.772,228.76,260.71,228.771,260.648,228.771z"/>
		</g>
		<g>
			<g>
				<path style="fill-rule:evenodd;clip-rule:evenodd;fill:#E33BA3;" d="M259.134,224.277c-2.445-8.029-1.575-15.18-1.575-15.18
					c-1.48,3.012-2.68,5.918-3.617,8.725C255.716,218.02,257.683,219.545,259.134,224.277z"/>
			</g>
			<g>
				<path style="fill-rule:evenodd;clip-rule:evenodd;fill:#E33BA3;" d="M355.652,222.744c-0.804,3.189-2.794,9.271-6.6,16.182
					c3.395-5.107,6.119-7.076,8.029-7.744C356.682,228.557,356.199,225.752,355.652,222.744z"/>
			</g>
			<g>
				<path style="fill-rule:evenodd;clip-rule:evenodd;fill:#E33BA3;" d="M306.439,277.066c-14.934-0.094-26.143-4.744-32.52-8.273
					c0,0,12.105,9.164,29.841,13.676C303.76,282.469,292.621,277.223,306.439,277.066z"/>
			</g>
		</g>
		<g>
			<g>
				<path style="fill-rule:evenodd;clip-rule:evenodd;fill:#2C81FE;" d="M303.211,218.938c-0.016,0.08-0.043,0.16-0.084,0.236
					l-0.227,0.416l-0.005,0.008l0,0c-1.158,2.135-4.862,8.961-4.843,9.699c0.053,0.531,2.045,2.07,2.479,2.369
					c1.003,0.688,3.338-0.293,4.179-0.643c3.63-1.51-2.218,3.303-3.709,2.922c-1.186-0.301-1.95-0.838-2.854-1.625
					c-0.761-0.664-1.813-1.889-1.912-2.896c-0.103-1.035,3.677-8.234,4.985-10.57c1.227-2.303,1.195-3.785,0.887-4.648
					c-0.21-0.584-0.233-1.467,0.592-0.371C303.387,214.746,304.232,216.506,303.211,218.938z"/>
			</g>
			<g>
				<path style="fill-rule:evenodd;clip-rule:evenodd;fill:#12006C;" d="M295.68,195.25c-0.102,0.59-0.297,0.867-0.432,0.992
					c0.019-0.822-0.477-1.455-1.302-1.939c-5.403-2.764-14.407-1.895-18.71,0.818h0.001c-0.037,0.025-0.06,0.074-0.05,0.121
					c0.013,0.059,0.065,0.094,0.119,0.078c3.068-0.869,6.102-0.869,8.775-0.465c4.287,0.648,7.654,2.326,8.798,3.115
					c0.403,0.279,0.892,0.572,1.399,0.633c0.523,0.064,1.063-0.117,1.545-0.799c0.159-0.227,0.281-0.449,0.368-0.666
					c0.209-0.512,0.24-0.986,0.197-1.352c-0.043-0.377-0.173-0.645-0.268-0.727c-0.014-0.006-0.025-0.018-0.038-0.021l-0.002-0.004
					h-0.003h-0.001c-0.287-0.127-0.392,0.195-0.393,0.195h0.001L295.68,195.25z"/>
			</g>
			<g>
				<path style="fill-rule:evenodd;clip-rule:evenodd;fill:#2C81FE;" d="M291.068,216.068l0.241-1.131
					c0.358-9.006-12.317-15.891-19.575-4.367c-1.646,2.613,0.155,3.613,1.908,4.508c0,0,2.27-5.264,6.588-6.619
					C284.551,207.105,288.729,209.02,291.068,216.068z"/>
			</g>
			<g>
				<g>
					<path style="fill-rule:evenodd;clip-rule:evenodd;fill:#12006C;" d="M291.122,214.336c-1.282-3.756-3.147-5.941-5.185-6.977
						c-1.407-0.711-2.895-0.877-4.331-0.627c-1.425,0.246-2.802,0.904-4,1.834c-2.185,1.699-3.787,4.322-4.03,7.045
						c-0.016,0.162,0.103,0.307,0.266,0.324c0.149,0.012,0.283-0.088,0.315-0.23c0.42-1.793,1.62-3.459,3.217-4.635
						c1.211-0.896,2.649-1.51,4.143-1.686c1.487-0.174,3.035,0.088,4.475,0.936c1.677,0.988,3.218,2.783,4.36,5.619
						c0.273,0.676,0.472,1.391,0.583,2.105c0.108,0.691,0.135,1.385,0.067,2.049c-0.017,0.162,0.1,0.309,0.262,0.324
						c0.153,0.018,0.291-0.086,0.32-0.234c0.19-0.912,0.237-1.887,0.159-2.861C291.664,216.309,291.448,215.291,291.122,214.336z"/>
				</g>
				<g>
					<path style="fill-rule:evenodd;clip-rule:evenodd;fill:#12006C;" d="M289.444,212.713c-0.22-0.529-0.456-1.02-0.703-1.48
						c-1.079-1.133-2.571-1.947-4.298-2.215c-3.896-0.611-7.508,1.783-8.066,5.352c-0.927,5.93,6.581,8.68,11.02,6.641
						c0.834-0.49,1.549-1.143,2.088-1.924C290.472,217.297,290.323,214.828,289.444,212.713z"/>
				</g>
				<g>
					<path style="fill-rule:evenodd;clip-rule:evenodd;fill:#12006C;" d="M275.891,212.15c0.264-0.193,0.32-0.563,0.129-0.826
						c-0.192-0.264-0.563-0.322-0.826-0.131c-0.002,0.002-0.663,0.459-1.299,0.002c-0.265-0.188-0.634-0.127-0.823,0.139
						c-0.188,0.262-0.128,0.633,0.137,0.822C274.521,213.096,275.888,212.15,275.891,212.15z"/>
				</g>
				<g>
					<path style="fill-rule:evenodd;clip-rule:evenodd;fill:#12006C;" d="M275.058,213.148c0.208-0.252,0.398-0.506,0.148-0.717
						c-0.25-0.205-0.621-0.174-0.829,0.078c-0.001,0-0.518,0.664-1.263,0.422c-0.31-0.098-0.642,0.07-0.741,0.379
						c-0.1,0.311,0.07,0.645,0.379,0.742c0.916,0.299,1.64-0.041,2.073-0.361C275.117,213.475,275.057,213.148,275.058,213.148z"/>
				</g>
			</g>
			<g>
				<g>
					<path style="fill:#2C81FE;" d="M272.99,218.59c-0.222,0-0.414-0.166-0.441-0.391c-0.03-0.244,0.145-0.469,0.389-0.498
						c0.424-0.051,0.671-0.229,0.674-0.23c0.197-0.145,0.476-0.105,0.622,0.092c0.146,0.193,0.11,0.467-0.083,0.615
						c-0.042,0.033-0.438,0.328-1.105,0.408C273.027,218.588,273.009,218.59,272.99,218.59z"/>
				</g>
				<g>
					<path style="fill:#2C81FE;" d="M274.485,220.174c-0.16,0-0.314-0.086-0.395-0.236c-0.114-0.219-0.032-0.488,0.186-0.604
						c0.279-0.148,0.403-0.334,0.405-0.334c0.133-0.203,0.407-0.264,0.612-0.135c0.206,0.131,0.271,0.398,0.144,0.605
						c-0.023,0.039-0.247,0.387-0.744,0.652C274.628,220.156,274.556,220.174,274.485,220.174z"/>
				</g>
			</g>
			<g>
				<path style="fill-rule:evenodd;clip-rule:evenodd;fill:#FFFFFF;" d="M280.701,211.783c0.689,0.041,1.21,0.646,1.166,1.352
					c-0.046,0.707-0.641,1.244-1.329,1.205c-0.688-0.041-1.211-0.645-1.167-1.35C279.416,212.283,280.012,211.744,280.701,211.783z"
					/>
			</g>
			<g>
				<path style="fill:#FFFFFF;" d="M324.286,237.125c-1.118,0-2.221-0.133-3.29-0.414l0,0c-5.465-1.418-10.07-5.785-12.322-11.678
					c-1.596-4.182-1.734-8.568-0.478-12.35c-3.612-2.01-6.772-1.535-7.872-1.271c0.052,3.998-1.419,8.148-4.225,11.654
					c-3.942,4.928-9.664,7.67-15.298,7.361c-5.428-0.301-10.602-4.146-13.505-10.031c-2.89-5.859-2.839-12.207,0.133-16.566
					c3.078-4.51,12.08-5.332,19.142-4.186c7.194,1.168,12.126,4.111,13.193,7.873c0.244,0.855,0.406,1.736,0.492,2.625
					c1.43-0.311,4.666-0.65,8.385,1.359c0.355-0.836,0.785-1.641,1.289-2.396c2.164-3.254,7.758-4.553,14.965-3.471
					c7.074,1.063,15.396,4.592,16.951,9.83c1.501,5.055-0.387,11.117-4.929,15.814C333.283,235.039,328.671,237.125,324.286,237.125
					z M320.192,206.512c-4.437,0-7.812,1.158-9.225,3.285c-2.696,4.053-3.117,9.582-1.129,14.789
					c2.107,5.518,6.396,9.6,11.472,10.92l0,0c4.826,1.25,10.461-0.697,14.71-5.094c4.228-4.373,6.003-9.967,4.63-14.594
					c-1.337-4.504-9.032-7.912-15.941-8.949C323.115,206.627,321.601,206.512,320.192,206.512z M280.793,200.428
					c-5.301,0-10.378,1.24-12.334,4.107c-2.719,3.986-2.736,9.852-0.044,15.313c2.704,5.482,7.476,9.061,12.454,9.336l0,0
					c5.234,0.289,10.564-2.285,14.256-6.896c3.482-4.352,4.77-9.748,3.44-14.428c-0.918-3.236-5.591-5.91-12.193-6.984
					C284.57,200.584,282.666,200.428,280.793,200.428z"/>
			</g>
			<g>
				<g>
					<path style="fill-rule:evenodd;clip-rule:evenodd;fill:#12006C;" d="M317.02,208.539c-0.098,0.656,0.002,1.01,0.093,1.184
						c0.255-0.869,0.956-1.371,1.93-1.613c6.243-1.141,14.827,2.719,18.161,6.98l0,0c0.029,0.041,0.035,0.098,0.009,0.146
						c-0.031,0.055-0.095,0.074-0.144,0.043c-2.733-1.92-5.722-2.912-8.491-3.363c-4.439-0.721-8.317-0.055-9.708,0.402
						c-0.489,0.162-1.066,0.313-1.588,0.209c-0.536-0.105-1.008-0.473-1.256-1.348c-0.082-0.289-0.127-0.563-0.142-0.818
						c-0.034-0.611,0.093-1.121,0.255-1.488c0.168-0.381,0.387-0.625,0.508-0.676c0.016-0.008,0.031-0.012,0.045-0.012h0.003h0.003
						h0.001c0.325-0.043,0.322,0.332,0.322,0.332l0,0L317.02,208.539z"/>
				</g>
				<g>
					<g>
						<path style="fill:#2C81FE;" d="M333.986,228.814c-0.069,0-0.141-0.014-0.207-0.049c-0.618-0.328-0.895-0.768-0.923-0.818
							c-0.126-0.211-0.057-0.484,0.154-0.609c0.211-0.121,0.481-0.059,0.609,0.15c0.009,0.016,0.187,0.283,0.574,0.488
							c0.218,0.115,0.302,0.383,0.187,0.6C334.302,228.73,334.147,228.814,333.986,228.814z"/>
					</g>
					<g>
						<path style="fill:#2C81FE;" d="M331.955,229.926c-0.126,0-0.251-0.053-0.339-0.156c-0.382-0.447-0.471-0.879-0.48-0.928
							c-0.045-0.24,0.116-0.475,0.358-0.518c0.237-0.039,0.47,0.113,0.518,0.354c0.002,0.012,0.06,0.256,0.279,0.512
							c0.161,0.186,0.14,0.467-0.048,0.629C332.16,229.889,332.057,229.926,331.955,229.926z"/>
					</g>
				</g>
				<g>
					<path style="fill-rule:evenodd;clip-rule:evenodd;fill:#2C81FE;" d="M314.492,221.498l-2.389,1.635
						c1.798-11.762,25.445-11.082,20.791,0.557c0,0-1.682,1.924-3.355,1.477c-1.675-0.447-13.29-4.352-13.29-4.352L314.492,221.498z
						"/>
				</g>
				<g>
					<path style="fill-rule:evenodd;clip-rule:evenodd;fill:#12006C;" d="M322.974,224.611c-3.739-1.928-7.89-3.438-11.176-1.338
						c-0.039,0.035-0.094,0.047-0.138,0.023c-0.057-0.029-0.074-0.105-0.039-0.168c2.729-5.063,9.821-3.922,14.629-1.367
						c1.138,0.605,2.186,1.234,3.086,1.771l0.473,0.281c2.504,1.49,2.934,0.891,2.936,0.891c0.033-0.049,0.094-0.072,0.145-0.051
						c0.06,0.02,0.088,0.092,0.06,0.158c-0.074,0.17-0.432,0.832-1.518,1.322c-0.604,0.27-1.436,0.494-2.576,0.555
						C327.182,226.779,325.152,225.734,322.974,224.611z"/>
				</g>
				<g>
					<g>
						<path style="fill-rule:evenodd;clip-rule:evenodd;fill:#12006C;" d="M329.484,224.865c-0.34,0.01-0.615-0.273-0.617-0.637
							c-0.002-0.355,0.273-0.658,0.612-0.668c0.002,0,0.837-0.047,1.089-0.875c0.105-0.342,0.452-0.537,0.773-0.434
							c0.322,0.1,0.499,0.465,0.394,0.807C331.215,224.764,329.488,224.865,329.484,224.865z"/>
					</g>
					<g>
						<path style="fill-rule:evenodd;clip-rule:evenodd;fill:#12006C;" d="M330.798,225.172c-0.327-0.078-0.646-0.174-0.566-0.523
							c0.082-0.35,0.414-0.572,0.743-0.494c0.001,0.002,0.842,0.23,1.318-0.48c0.197-0.297,0.581-0.375,0.854-0.17
							c0.275,0.203,0.337,0.607,0.14,0.904c-0.584,0.873-1.398,1.066-1.96,1.08C330.949,225.498,330.799,225.172,330.798,225.172z"
							/>
					</g>
				</g>
			</g>
			<g>
				<path style="fill-rule:evenodd;clip-rule:evenodd;fill:#2C81FE;" d="M301.722,244.145c-1.019-0.236-0.789-1.223,0.234-0.99
					c0.007,0,2.609,0.311,5.362-0.318c0.438-0.035,0.822,0.295,0.859,0.729c0.033,0.439-0.292,0.826-0.731,0.861
					C304.252,244.691,301.729,244.145,301.722,244.145z"/>
			</g>
			<g>
				<path style="fill-rule:evenodd;clip-rule:evenodd;fill:#2C81FE;" d="M294.036,238.703c-1.007-0.381-0.794-1.418,0.21-1.039
					c0.033,0.014,11.797,4.566,17.214-1.135c0.313-0.324,0.829-0.34,1.156-0.027c0.326,0.311,0.34,0.826,0.03,1.152
					C306.471,244.15,294.072,238.717,294.036,238.703z"/>
			</g>
			<g>
				<path style="fill-rule:evenodd;clip-rule:evenodd;fill:#2C81FE;" d="M310.271,237.021c-0.449-0.061-0.764-0.473-0.704-0.92
					c0.06-0.447,0.472-0.762,0.92-0.703c0.008,0,3.314,0.377,2.831,3.5c-0.069,0.445-0.485,0.752-0.931,0.684
					c-0.444-0.068-0.75-0.484-0.683-0.93C311.927,237.211,310.274,237.021,310.271,237.021z"/>
			</g>
		</g>
		<g>
			<path style="fill:#FFFFFF;" d="M167.459,234.898c-0.573,0-1.039-0.166-1.394-0.494c-1.298-1.213-0.412-4.086-0.307-4.41
				c0.081-0.279,8.522-29.111,9.934-33.699c1.474-4.789,5.499-6.412,5.67-6.48l61.409-30.996c0.221-0.109,0.489-0.025,0.6,0.195
				c0.109,0.219,0.021,0.486-0.197,0.598l-61.449,31.018c-0.075,0.033-3.838,1.563-5.18,5.93c-1.409,4.58-9.85,33.406-9.935,33.695
				c-0.225,0.697-0.687,2.797,0.063,3.498c0.515,0.475,1.566,0.199,2.359-0.123c4.893-1.973,90.348-30.816,91.211-31.105
				c0.067-0.021,6.09-2.055,8.172-11.15c2.143-9.363,7.538-42.551,7.592-42.885c0.005-0.029,0.395-2.42-0.79-3.35
				c-0.746-0.588-2.011-0.506-3.762,0.242l-19.839,9.971c-0.22,0.111-0.487,0.023-0.598-0.197c-0.111-0.219-0.021-0.488,0.198-0.598
				l19.862-9.982c2.1-0.9,3.67-0.941,4.691-0.135c1.599,1.262,1.136,4.076,1.115,4.193c-0.053,0.332-5.453,33.549-7.603,42.938
				c-2.201,9.621-8.496,11.715-8.763,11.801c-0.854,0.289-86.285,29.123-91.155,31.088C168.637,234.752,168,234.898,167.459,234.898
				z M244.947,158.664c-0.162,0-0.319-0.09-0.398-0.244c-0.109-0.221-0.022-0.486,0.197-0.6l0.824-0.418
				c0.222-0.107,0.488-0.021,0.6,0.197c0.111,0.221,0.023,0.486-0.196,0.6l-0.825,0.418
				C245.084,158.648,245.015,158.664,244.947,158.664z"/>
		</g>
		<g>
			<path style="fill:#FFFFFF;" d="M199.086,206.617c-0.176,0-0.343-0.105-0.412-0.279c-0.093-0.229,0.018-0.49,0.244-0.58
				c0.3-0.123,0.73-0.287,1.271-0.484c0.231-0.084,0.486,0.035,0.571,0.264c0.085,0.23-0.034,0.486-0.265,0.572
				c-0.529,0.193-0.949,0.355-1.241,0.473C199.199,206.605,199.143,206.617,199.086,206.617z M202.76,205.266
				c-0.184,0-0.355-0.115-0.421-0.297c-0.082-0.23,0.04-0.486,0.271-0.57c10.147-3.6,35.706-12.201,35.962-12.287
				c0.063-0.02,5.616-1.896,7.536-10.293c1.982-8.658,6.975-39.355,7.023-39.666c0.004-0.025,0.361-2.215-0.719-3.068
				c-0.847-0.662-2.341-0.24-3.445,0.234l-36.864,18.588c-0.218,0.109-0.487,0.023-0.599-0.197c-0.11-0.221-0.021-0.486,0.197-0.598
				l36.89-18.602c1.955-0.84,3.42-0.877,4.374-0.121c1.495,1.178,1.064,3.799,1.045,3.91c-0.05,0.307-5.045,31.031-7.033,39.719
				c-2.041,8.92-7.881,10.863-8.128,10.941c-0.249,0.082-25.8,8.68-35.94,12.279C202.858,205.258,202.809,205.266,202.76,205.266z"
				/>
		</g>
		<g>
			<g>
				<g>
					<path style="fill-rule:evenodd;clip-rule:evenodd;fill:#12006C;" d="M144.694,171.936c-0.864,0.359-1.813,1.006-2.519,1.592
						c-1.755,1.459-3.051,3.381-3.744,5.561c-0.788,2.473-1.538,4.965-2.299,7.447c-1.281,4.191-2.561,8.381-3.837,12.572
						c-2.076,6.816-4.147,13.633-6.22,20.447c-0.262,0.793-0.442,1.752-0.471,2.572v0.023c-0.948,0.016-2.547,0.158-2.547,0.158
						l0.062,0.908l4.078,2.432c1.212,0.721,2.773,0.438,4.108-0.109c1.679-0.693,3.353-1.42,5.025-2.131
						c3.452-1.473,6.904-2.951,10.355-4.426c9.876-4.227,19.75-8.455,29.622-12.689c15.032-6.445,30.065-12.891,45.095-19.34
						c1.355-0.469,2.884-1.559,3.917-2.506c2.862-2.623,4.593-6.201,5.491-9.936c0.66-2.738,1.211-5.529,1.757-8.291
						c0.741-3.742,1.448-7.492,2.144-11.24c1.361-7.322,2.672-14.648,3.961-21.977c0.202-1.117,0.148-2.494-0.231-3.549
						c-0.088-0.242-0.194-0.479-0.321-0.703c-0.412-0.727-0.941-1.215-1.544-1.521l0,0l-3.729-2.225l-0.59,1.209l1.131,0.723
						c-0.719,0.141-1.436,0.383-2.102,0.674l-0.052,0.024L144.694,171.936z"/>
				</g>
				<g>
					<path style="fill-rule:evenodd;clip-rule:evenodd;fill:#12006C;" d="M140.564,169.475c-0.863,0.361-1.813,1.004-2.518,1.592
						c-1.756,1.459-3.051,3.381-3.745,5.559c-0.787,2.475-1.537,4.965-2.298,7.447c-1.282,4.191-2.561,8.381-3.838,12.574
						c-2.075,6.814-4.146,13.633-6.219,20.447c-0.262,0.791-0.441,1.75-0.47,2.57c-0.034,1.021,0.158,2.063,0.819,2.857
						c1.254,1.506,3.24,1.229,4.88,0.555c1.679-0.691,3.352-1.42,5.025-2.131c3.453-1.473,6.904-2.951,10.356-4.426
						c9.875-4.223,19.748-8.455,29.621-12.689c15.033-6.441,30.065-12.891,45.095-19.34c1.357-0.467,2.884-1.559,3.917-2.506
						c2.863-2.623,4.594-6.199,5.493-9.932c0.659-2.742,1.209-5.531,1.757-8.295c0.74-3.742,1.447-7.49,2.144-11.238
						c1.359-7.32,2.671-14.65,3.96-21.979c0.201-1.117,0.146-2.492-0.231-3.547c-0.089-0.242-0.194-0.48-0.322-0.705
						c-1.474-2.598-4.469-2.172-6.835-1.141l-0.051,0.023L140.564,169.475z"/>
				</g>
				<g>
					<path style="fill-rule:evenodd;clip-rule:evenodd;fill:#FF75CA;" d="M226.787,127.244l-85.98,43.355
						c0,0-3.813,1.492-5.18,5.936c-1.366,4.445-12.121,41.166-12.121,41.166s-1.841,5.658,2.891,3.748
						c4.73-1.906,89.955-38.668,89.955-38.668s6.028-1.906,8.107-10.99c2.08-9.086,7.279-41.111,7.279-41.111
						S232.769,124.684,226.787,127.244z"/>
				</g>
			</g>
			<g>
				<g>
					<path style="fill-rule:evenodd;clip-rule:evenodd;fill:#000;" d="M150.01,211.355c10.772-10.293,20.171-24.076,28.881-36.67
						c18.366-28.697,38.724-40.813,52.18-39.928c-0.316,1.912-0.727,4.383-1.189,7.148c-13.846,0.361-34.996,13.066-49.394,33.885
						c-7.685,11.109-16.169,23.373-25.746,33.529L150.01,211.355z"/>
				</g>
				<g>
					<path style="fill-rule:evenodd;clip-rule:evenodd;fill:#E33BA3;" d="M124.52,214.244c28.191-1.709,43.788-33.98,57.369-61.217
						c0.643-1.414,1.297-2.783,1.957-4.131l3.512-1.768c-1.316,2.176-2.568,4.432-3.732,6.766
						c-13.795,27.666-30.892,61.932-60.294,64.473c0.089-0.396,0.175-0.666,0.175-0.666L124.52,214.244z"/>
				</g>
			</g>
		</g>
		<g>
			<g>
				<path style="fill-rule:evenodd;clip-rule:evenodd;fill:#FDBA74;" d="M141.119,184.99c0,0-6.438,2.42-8.808,3.445
					c-2.37,1.027-3.369,2.291-5.71,5.535c-2.343,3.244-5.519,7.656-5.932,10.373c-0.415,2.717-2.046,20.785-2.046,20.785
					s-3.251,6.699,1.568,10.883c4.097,3.559,14.655,12.068,22.047,17.713c15.285,11.684,33.558-14.211,14.122-25.902
					c0,0-0.259-0.061-0.248-0.318c0.367-8.777-5.368-8.426-5.869-9.066c0,0,2.989,0.168,4.922,0.238l3.129-0.234
					c0,0,3.295,0.4,5.764,0.637c2.469,0.238,4.552-2.666,5.05-4.377c0.498-1.709-1.226-3.154-4.079-3.689
					c-2.852-0.535-7.769-2.133-11.104-2.486c-3.336-0.357-10.146,0.922-14.46,1.486c4.845-5.578,9.539-11.447,14.947-16.479
					c2.939-2.73,2.971-6.357,1.175-8.076c-2.712-2.6-5.167-1.824-9.616,2.416C145.971,187.873,144.987,183.412,141.119,184.99z"/>
			</g>
			<g>
				<path style="fill:#92400E;" d="M151.254,249.141c-0.047,0-0.095-0.008-0.142-0.023c-0.233-0.076-0.358-0.33-0.28-0.564
					c3.046-9.031-2.146-12.805-3.664-13.688l-0.979,2.045c-0.107,0.223-0.373,0.314-0.595,0.209
					c-0.222-0.105-0.315-0.371-0.21-0.596l4.507-9.402c0.106-0.221,0.372-0.314,0.595-0.209c0.222,0.105,0.314,0.375,0.208,0.596
					l-0.849,1.775c1.491,2.994,3.236,4.492,4.805,4.1c0.876-0.215,1.393-0.969,1.384-1.309c-0.008-0.26-0.004-0.545,0-0.875
					c0.016-1.393,0.04-3.498-0.722-7.49c-0.834-4.367-5.309-4.826-5.877-4.867l-2.604-0.125c-0.146-0.008-3.118-0.264-5.24,3.229
					c-2.277,3.754-7.462,12.799-7.514,12.891c-0.123,0.213-0.395,0.285-0.607,0.166c-0.214-0.123-0.288-0.395-0.166-0.609
					c0.053-0.09,5.242-9.148,7.526-12.91c2.427-3.994,5.922-3.674,6.071-3.656l2.492,0.121c0.01,0,0.021,0,0.031,0.002
					c0.004,0,0.022,0.004,0.057,0.006l5.705,0.275c0.246,0.014,0.436,0.223,0.424,0.469c-0.013,0.246-0.216,0.469-0.466,0.422
					l-2.228-0.107c1.412,0.787,2.818,2.158,3.27,4.529c0.778,4.08,0.754,6.24,0.737,7.67c-0.004,0.313-0.007,0.588,0,0.834
					c0.024,0.814-0.798,1.889-2.061,2.203c-1.13,0.277-3.294,0.096-5.5-3.963l-1.814,3.779c1.609,0.955,7.37,5.146,4.126,14.773
					C151.614,249.023,151.441,249.141,151.254,249.141z M126,228.99c-0.071,0-0.143-0.018-0.209-0.053
					c-0.217-0.115-0.299-0.385-0.184-0.602c0.262-0.488,6.415-11.988,8.708-15.176c2.394-3.324,5.003-3.582,5.112-3.594
					c0.242-0.01,0.461,0.162,0.481,0.408c0.021,0.244-0.16,0.459-0.404,0.48c-0.057,0.004-2.344,0.277-4.466,3.229
					c-2.259,3.135-8.582,14.953-8.645,15.07C126.313,228.906,126.159,228.99,126,228.99z M118.624,225.576
					c-0.065,0-0.13-0.016-0.192-0.045c-0.222-0.105-0.316-0.373-0.209-0.596c0.051-0.105,5.162-10.797,7.677-16.268
					c2.562-5.57,5.982-8.297,6.126-8.408l13.643-12.711c0.179-0.172,0.461-0.158,0.629,0.021c0.168,0.18,0.157,0.461-0.023,0.629
					l-13.67,12.734c-0.061,0.053-3.43,2.744-5.896,8.105c-2.517,5.477-7.632,16.176-7.683,16.283
					C118.949,225.482,118.789,225.576,118.624,225.576z"/>
			</g>
		</g>
		<g>
			<g>
				<path style="fill:#92400E;" d="M255.014,273.115c-0.019,0-0.036,0-0.054-0.004l-6.728-0.398
					c-1.292-0.076-2.481-0.656-3.346-1.629c-0.863-0.975-1.297-2.223-1.221-3.516l0.6-10.1c0.029-0.49,0.455-0.885,0.943-0.838
					c0.491,0.027,0.865,0.449,0.836,0.943l-0.6,10.1c-0.049,0.818,0.227,1.609,0.774,2.227c0.549,0.619,1.301,0.982,2.118,1.033
					l6.727,0.4c0.491,0.029,0.865,0.451,0.837,0.941C255.874,272.748,255.481,273.115,255.014,273.115z"/>
			</g>
			<g>
				<path style="fill:#92400E;" d="M360.893,279.404c-0.098,0-0.196-0.002-0.295-0.008l-8.36-0.498
					c-0.491-0.027-0.865-0.451-0.837-0.941c0.029-0.492,0.455-0.875,0.943-0.838l8.361,0.498c0.815,0.049,1.607-0.227,2.225-0.773
					c0.618-0.551,0.985-1.301,1.034-2.119l0.604-10.184c0.03-0.492,0.46-0.853,0.942-0.836c0.492,0.029,0.866,0.451,0.838,0.941
					l-0.605,10.184c-0.077,1.293-0.655,2.48-1.63,3.346C363.214,278.975,362.079,279.404,360.893,279.404z"/>
			</g>
			<g>
				<path style="fill:#92400E;" d="M370.68,177.738c-0.018,0-0.035,0-0.053-0.002c-0.492-0.027-0.867-0.451-0.837-0.943
					l0.781-13.146c0.049-0.816-0.227-1.607-0.775-2.223c-0.549-0.621-1.3-0.986-2.118-1.035l-12.767-0.76
					c-0.491-0.029-0.866-0.453-0.837-0.941c0.029-0.494,0.453-0.873,0.943-0.838l12.766,0.762c1.293,0.076,2.481,0.654,3.346,1.629
					c0.864,0.973,1.299,2.221,1.222,3.512l-0.782,13.15C371.54,177.371,371.148,177.738,370.68,177.738z"/>
			</g>
		</g>
		<g>
			<path style="fill:#92400E;" d="M277.728,429.033c-0.242,0-0.441-0.193-0.447-0.438c-0.08-3.914-0.207-7.367-0.374-10.26
				c-0.641-11.053-13.661-99.811-17.638-126.75c-1.014-6.869-1.633-11.033-1.633-11.033c-0.037-0.242,0.133-0.467,0.375-0.506
				c0.244-0.039,0.471,0.133,0.507,0.377c0,0,0.618,4.162,1.632,11.029c5.098,34.545,17.022,116.045,17.647,126.83
				c0.168,2.904,0.295,6.367,0.377,10.295c0.005,0.246-0.19,0.449-0.436,0.455C277.734,429.033,277.73,429.033,277.728,429.033z
				 M310.293,420.846c-0.004,0-0.009,0-0.014,0c-0.246-0.006-0.439-0.213-0.433-0.457c0.468-16.299,3.363-24.951,5.477-31.266
				l0.241-0.721c2.873-8.621,35.125-99.816,35.45-100.736c0.081-0.23,0.337-0.351,0.568-0.271c0.232,0.084,0.353,0.336,0.272,0.57
				c-0.326,0.92-32.576,92.105-35.446,100.719l-0.24,0.721c-2.097,6.264-4.967,14.84-5.431,31.008
				C310.731,420.652,310.533,420.846,310.293,420.846z M365.335,374.188c-0.187,0-0.36-0.119-0.423-0.305
				c-4.791-14.291-3.334-34.977-2.193-45.125l-0.803-1.285c-0.131-0.205-0.066-0.482,0.143-0.615
				c0.207-0.129,0.482-0.066,0.612,0.143l0.214,0.342c0.122-1.018,0.236-1.887,0.334-2.592c0.033-0.248,0.256-0.43,0.503-0.383
				c0.242,0.033,0.413,0.26,0.379,0.5c-0.133,0.971-0.298,2.248-0.472,3.779c0.002,0.043-0.003,0.082-0.014,0.125
				c-1.138,10.049-2.609,30.658,2.142,44.828c0.078,0.234-0.048,0.484-0.281,0.564C365.429,374.18,365.381,374.188,365.335,374.188z
				 M237.569,363.922c-0.218,0-0.409-0.158-0.44-0.379c-0.852-5.84-1.182-9.699-1.037-12.148c0.586-9.854,1.839-20.793,3.651-31.965
				l-0.925-2.076c-0.101-0.225,0-0.49,0.225-0.588c0.226-0.107,0.489,0,0.589,0.225l0.375,0.842
				c0.259-1.551,0.527-3.105,0.807-4.662c0.044-0.244,0.277-0.406,0.518-0.359c0.243,0.043,0.403,0.274,0.359,0.516
				c-0.365,2.035-0.714,4.068-1.042,6.094c-0.002,0.016-0.004,0.029-0.008,0.043c-1.817,11.182-3.072,22.129-3.658,31.984
				c-0.14,2.354,0.197,6.27,1.028,11.969c0.036,0.24-0.133,0.467-0.376,0.502C237.613,363.922,237.591,363.922,237.569,363.922z
				 M208.58,312.047c-0.184,0-0.355-0.113-0.42-0.297l-5.248-14.721c-0.082-0.234,0.039-0.49,0.271-0.57
				c0.231-0.082,0.487,0.037,0.569,0.268L209,311.451c0.082,0.232-0.039,0.488-0.27,0.57
				C208.68,312.039,208.629,312.047,208.58,312.047z"/>
		</g>
		<g>
			<path style="fill:#92400E;" d="M203.335,297.33c-0.182,0-0.353-0.111-0.419-0.291c-5.983-16.313-12.727-33.463-16.457-42.494
				c-3.845-9.305-6.045-11.605-17.27-11.051c-0.262,0.023-0.456-0.178-0.469-0.424c-0.011-0.244,0.178-0.455,0.424-0.465
				c12.066-0.609,14.313,2.346,18.137,11.598c3.735,9.041,10.482,26.207,16.473,42.529c0.085,0.23-0.035,0.486-0.266,0.572
				C203.439,297.322,203.386,297.33,203.335,297.33z M129.967,287.746c-0.178,0-0.346-0.105-0.414-0.281
				c-5.803-14.785,7.345-26.408,7.478-26.523c0.186-0.164,0.468-0.139,0.629,0.045c0.161,0.186,0.141,0.467-0.045,0.627
				c-0.129,0.111-12.802,11.336-7.232,25.525c0.09,0.228-0.022,0.486-0.251,0.578C130.077,287.736,130.021,287.746,129.967,287.746z
				 M263.281,280.744c-0.1,0-0.199-0.033-0.284-0.102c-1.449-1.195-2.2-2.738-2.232-4.59c-0.057-3.328,2.289-7.381,6.454-11.17
				c-17.608-14.846-21.006-33.652-10.095-55.914c1.792-16.5,6.979-30.102,15.419-40.422c7.497-9.172,17.201-15.164,28.061-17.338
				c19.895-3.979,39.308,5.383,49.456,23.852c0.118,0.215,0.039,0.486-0.176,0.605c-0.215,0.117-0.486,0.039-0.605-0.176
				c-9.957-18.125-28.995-27.314-48.5-23.406c-23.436,4.688-39.429,26.02-42.776,57.061c-0.007,0.051-0.021,0.102-0.044,0.148
				c-10.828,22.037-7.388,40.619,10.226,55.232c0.1,0.084,0.159,0.207,0.161,0.338c0.001,0.131-0.054,0.256-0.151,0.342
				c-4.209,3.717-6.592,7.664-6.538,10.832c0.027,1.578,0.669,2.896,1.908,3.918c0.189,0.154,0.218,0.438,0.06,0.627
				C263.537,280.688,263.409,280.744,263.281,280.744z M305.325,269.904c-0.221,0-0.412-0.164-0.441-0.391
				c-0.031-0.244,0.141-0.467,0.384-0.5c13.55-1.764,24.818-11.701,30.916-27.264c1.568-4.57,2.674-10.066,3.192-15.869
				c0.022-0.244,0.238-0.434,0.484-0.402c0.245,0.02,0.426,0.236,0.404,0.482c-0.524,5.875-1.647,11.439-3.245,16.096
				c-6.227,15.895-17.755,26.035-31.637,27.842C305.363,269.9,305.344,269.904,305.325,269.904z M156.361,228.268
				c-0.033,0-0.068-0.002-0.102-0.01c-0.297-0.07-0.608-0.342-0.591-0.771c0.283-6.768-3.135-7.801-4.778-8.297
				c-0.49-0.146-0.813-0.244-0.996-0.479c-0.108-0.135-0.126-0.324-0.044-0.48c0.08-0.154,0.247-0.264,0.419-0.238
				c0.001,0,2.985,0.168,4.915,0.238l3.077-0.232c0.089,0.002,3.378,0.402,5.841,0.639c2.191,0.197,4.122-2.488,4.58-4.059
				c0.129-0.445,0.07-0.875-0.178-1.277c-0.521-0.85-1.817-1.525-3.557-1.852c-1.121-0.211-2.552-0.58-4.066-0.973
				c-2.341-0.607-4.994-1.293-7.003-1.51c-2.499-0.27-7.01,0.406-10.988,1c-1.208,0.182-2.356,0.354-3.366,0.484
				c-0.24,0.031-0.469-0.137-0.5-0.381c-0.032-0.246,0.14-0.471,0.384-0.5c1.006-0.131,2.148-0.305,3.351-0.482
				c4.033-0.604,8.603-1.285,11.214-1.008c2.075,0.223,4.763,0.92,7.134,1.533c1.499,0.389,2.915,0.756,4.007,0.961
				c2.014,0.377,3.488,1.182,4.152,2.262c0.379,0.613,0.472,1.305,0.271,1.99c-0.501,1.719-2.705,4.979-5.52,4.697
				c-2.474-0.236-5.776-0.639-5.776-0.639l-3.04,0.236c-0.695-0.025-1.515-0.063-2.285-0.098c1.791,0.941,3.846,3.039,3.646,8.402
				c0.181,0.09,0.282,0.293,0.233,0.5C156.746,228.131,156.564,228.268,156.361,228.268z M118.625,225.576
				c-0.015,0-0.027-0.002-0.041-0.002c-0.245-0.023-0.426-0.24-0.404-0.486c0.066-0.736,1.637-18.113,2.049-20.813
				c0.434-2.844,3.657-7.307,6.011-10.566c1.526-2.113,2.502-3.424,3.694-4.385l2.16-7.07c0.587-1.922,1.174-3.848,1.783-5.762
				c0.721-2.262,2.064-4.254,3.885-5.77c0.846-0.703,1.829-1.324,2.631-1.66l14.916-7.637c0.218-0.111,0.486-0.025,0.6,0.195
				c0.112,0.219,0.025,0.488-0.193,0.598l-14.948,7.652c-0.755,0.316-1.653,0.887-2.435,1.537c-1.691,1.404-2.938,3.258-3.605,5.354
				c-0.607,1.908-1.194,3.832-1.78,5.754l-1.839,6.018c0.316-0.178,0.654-0.348,1.027-0.508c2.353-1.018,8.763-3.428,8.827-3.453
				c1.197-0.486,2.283-0.492,3.212-0.002c1.117,0.586,1.721,1.738,2.009,2.492c3.788-3.504,6.642-4.871,9.712-1.93
				c0.179,0.172,0.185,0.453,0.014,0.631c-0.17,0.18-0.451,0.184-0.63,0.014c-2.439-2.338-4.626-1.75-9.001,2.42
				c-0.115,0.109-0.283,0.145-0.436,0.102c-0.154-0.047-0.27-0.172-0.306-0.328c-0.005-0.021-0.442-1.916-1.779-2.611
				c-0.687-0.359-1.517-0.346-2.47,0.043c-0.076,0.029-6.466,2.432-8.799,3.441c-0.695,0.303-1.265,0.621-1.787,1.012
				c-0.061,0.15-0.194,0.254-0.349,0.277c-1.026,0.867-1.934,2.082-3.39,4.1c-2.171,3.004-5.452,7.545-5.853,10.18
				c-0.409,2.67-2.026,20.578-2.043,20.76C119.047,225.4,118.852,225.576,118.625,225.576z M115.564,207.705
				c-0.238,0-0.436-0.188-0.444-0.43c-0.287-6.877,2.616-10.521,2.739-10.672c0.156-0.189,0.437-0.219,0.627-0.064
				c0.191,0.156,0.22,0.434,0.066,0.627c-0.029,0.033-2.814,3.555-2.542,10.074c0.01,0.244-0.181,0.453-0.427,0.465
				C115.578,207.705,115.57,207.705,115.564,207.705z M234.715,155.428c-0.027,0-0.056-0.002-0.082-0.008
				c-0.242-0.045-0.402-0.275-0.357-0.52c1.188-6.395,2.447-13.379,3.96-21.975c0.202-1.121,0.12-2.393-0.213-3.318
				c-0.078-0.223-0.175-0.434-0.29-0.637c-0.346-0.609-0.803-1.063-1.357-1.344l-3.755-2.236c-0.211-0.129-0.28-0.4-0.155-0.613
				c0.127-0.211,0.4-0.279,0.612-0.154l3.728,2.223c0.688,0.35,1.27,0.922,1.703,1.686c0.14,0.246,0.258,0.508,0.354,0.773
				c0.383,1.066,0.48,2.514,0.251,3.777c-1.513,8.598-2.773,15.584-3.96,21.98C235.111,155.277,234.925,155.428,234.715,155.428z
				 M242.405,130.408c-0.24,0-0.439-0.191-0.445-0.432c-0.006-0.246,0.188-0.451,0.434-0.457l2.079-0.057
				c0.255,0.004,0.45,0.188,0.457,0.434c0.006,0.246-0.188,0.451-0.434,0.457l-2.078,0.055
				C242.413,130.408,242.409,130.408,242.405,130.408z M241.387,126.82c-0.151,0-0.299-0.076-0.383-0.213
				c-0.126-0.215-0.059-0.486,0.152-0.613l2.83-1.699c0.209-0.125,0.484-0.059,0.611,0.152c0.126,0.211,0.058,0.486-0.152,0.611
				l-2.83,1.699C241.543,126.801,241.465,126.82,241.387,126.82z M238.581,123.965c-0.023,0-0.045-0.002-0.067-0.004
				c-0.242-0.037-0.411-0.264-0.374-0.508l0.311-2.055c0.036-0.244,0.261-0.42,0.507-0.375c0.243,0.037,0.41,0.264,0.373,0.508
				l-0.31,2.055C238.988,123.807,238.798,123.965,238.581,123.965z"/>
		</g>
		<g>
			<g>
				<path style="fill-rule:evenodd;clip-rule:evenodd;fill:#12006C;" d="M225.114,130.705l-28.069,14.152
					c0,0-1.243,0.486-1.689,1.939c-0.446,1.449-3.957,13.436-3.957,13.436s-0.601,1.846,0.943,1.227
					c1.545-0.623,29.365-12.625,29.365-12.625s1.969-0.623,2.646-3.588c0.679-2.965,2.377-13.42,2.377-13.42
					S227.065,129.867,225.114,130.705z"/>
			</g>
			<g>
				<path style="fill-rule:evenodd;clip-rule:evenodd;fill:#92400E;" d="M221.088,134.393c1.771,0,2.442,3.039,1.498,6.785
					c-0.945,3.746-3.148,6.785-4.922,6.785c-1.771,0-2.443-3.039-1.498-6.785C217.111,137.432,219.314,134.393,221.088,134.393z"/>
			</g>
			<g>
				<path style="fill-rule:evenodd;clip-rule:evenodd;fill:#2C81FE;" d="M219.4,136.1c1.381,0,1.903,2.367,1.168,5.287
					c-0.737,2.918-2.453,5.283-3.834,5.283c-1.382,0-1.904-2.365-1.168-5.283C216.303,138.467,218.019,136.1,219.4,136.1z"/>
			</g>
			<g>
				<path style="fill-rule:evenodd;clip-rule:evenodd;fill:#FFFFFF;" d="M217,140.82c0.56-0.107,0.958,0.811,0.892,2.051
					c-0.066,1.238-0.574,2.334-1.134,2.443c-0.56,0.109-0.959-0.807-0.892-2.049C215.934,142.025,216.44,140.932,217,140.82z"/>
			</g>
			<g>
				<path style="fill-rule:evenodd;clip-rule:evenodd;fill:#92400E;" d="M209.574,141.156c1.424,0,1.963,2.439,1.205,5.449
					c-0.761,3.014-2.53,5.449-3.953,5.449c-1.425,0-1.964-2.436-1.204-5.449C206.381,143.596,208.151,141.156,209.574,141.156z"/>
			</g>
			<g>
				<path style="fill-rule:evenodd;clip-rule:evenodd;fill:#FF75CA;" d="M208.22,142.527c1.108,0,1.529,1.902,0.938,4.246
					c-0.592,2.346-1.971,4.244-3.079,4.244c-1.109,0-1.528-1.898-0.938-4.244C205.732,144.43,207.11,142.527,208.22,142.527z"/>
			</g>
			<g>
				<path style="fill-rule:evenodd;clip-rule:evenodd;fill:#FFFFFF;" d="M206.291,146.322c0.45-0.088,0.77,0.648,0.717,1.643
					c-0.055,0.998-0.462,1.877-0.911,1.965c-0.449,0.088-0.77-0.65-0.716-1.646C205.435,147.289,205.843,146.406,206.291,146.322z"
					/>
			</g>
			<g>
				<path style="fill-rule:evenodd;clip-rule:evenodd;fill:#92400E;" d="M199.631,146.758c1.09,0,1.503,1.867,0.921,4.172
					c-0.581,2.303-1.936,4.172-3.026,4.172c-1.09,0-1.502-1.869-0.92-4.172C197.186,148.625,198.541,146.758,199.631,146.758z"/>
			</g>
			<g>
				<path style="fill-rule:evenodd;clip-rule:evenodd;fill:#2C81FE;" d="M198.594,147.807c0.849,0,1.17,1.455,0.718,3.252
					c-0.452,1.793-1.509,3.248-2.357,3.248s-1.171-1.455-0.718-3.248C196.689,149.262,197.744,147.807,198.594,147.807z"/>
			</g>
			<g>
				<path style="fill-rule:evenodd;clip-rule:evenodd;fill:#FFFFFF;" d="M197.117,150.711c0.345-0.068,0.59,0.496,0.548,1.26
					c-0.04,0.764-0.352,1.434-0.696,1.502c-0.344,0.068-0.589-0.498-0.549-1.258C196.462,151.449,196.774,150.779,197.117,150.711z"
					/>
			</g>
		</g>
	</g>
	<g>
		<g>
			<path style="fill-rule:evenodd;clip-rule:evenodd;fill:#92400E;" d="M100.715,87.777l49.4-1.35
				c2.695-0.076,4.962,2.07,5.035,4.768l1.35,49.4c0.074,2.695-2.071,4.959-4.767,5.035l-49.399,1.35
				c-2.696,0.072-4.962-2.074-5.035-4.768l-1.35-49.4C95.875,90.117,98.021,87.852,100.715,87.777z"/>
			<path style="fill:#59B2FF;" d="M102.198,147.428c-2.868,0-5.266-2.334-5.345-5.201l-1.351-49.402
				c-0.08-2.947,2.253-5.412,5.2-5.492l49.547-1.352c2.869,0,5.268,2.332,5.346,5.201l1.351,49.4c0.08,2.947-2.253,5.412-5.2,5.494
				L102.198,147.428z M150.25,86.869l-0.123,0.004l-49.398,1.352c-2.458,0.064-4.401,2.117-4.334,4.576l1.349,49.4
				c0.066,2.389,2.065,4.334,4.455,4.334l0.124-0.002l49.398-1.35c2.458-0.066,4.401-2.121,4.334-4.578l-1.35-49.398
				C154.64,88.814,152.642,86.869,150.25,86.869z"/>
		</g>
		<g>
			<path style="fill-rule:evenodd;clip-rule:evenodd;fill:#92400E;" d="M108.362,83.176l48.661,8.621
				c2.655,0.473,4.443,3.029,3.973,5.684l-8.621,48.66c-0.471,2.656-3.027,4.443-5.683,3.973l-48.661-8.621
				c-2.655-0.471-4.442-3.025-3.973-5.682l8.622-48.662C103.15,84.496,105.707,82.707,108.362,83.176z"/>
			<path style="fill:#FFFFFF;" d="M147.544,151.08c-0.335,0-0.675-0.029-1.007-0.088l-48.662-8.621
				c-3.145-0.557-5.25-3.57-4.693-6.717l8.621-48.662c0.49-2.771,2.891-4.781,5.708-4.781c0.335,0,0.675,0.027,1.007,0.088
				l48.661,8.621c3.146,0.559,5.252,3.57,4.694,6.717l-8.621,48.66C152.762,149.07,150.361,151.08,147.544,151.08z M107.511,83.992
				c-1.95,0-3.613,1.395-3.952,3.313l-8.622,48.662c-0.386,2.176,1.072,4.264,3.25,4.648l48.661,8.621
				c2.217,0.4,4.27-1.105,4.649-3.252l8.622-48.658c0.385-2.18-1.073-4.266-3.251-4.649l-48.661-8.623
				C107.974,84.014,107.74,83.992,107.511,83.992z"/>
		</g>
		<g>
			<g>
				<g>
					<path style="fill:#fff;" d="M152.775,104.318c-0.025,0-0.051-0.002-0.077-0.008c-0.242-0.043-0.404-0.273-0.361-0.516
						l0.641-3.615c0.071-0.402-0.02-0.809-0.255-1.148c-0.236-0.334-0.586-0.561-0.988-0.631l-3.616-0.641
						c-0.243-0.043-0.403-0.274-0.36-0.518c0.043-0.24,0.274-0.406,0.516-0.359l3.617,0.641c0.635,0.113,1.189,0.469,1.563,1
						c0.372,0.531,0.515,1.174,0.401,1.813l-0.64,3.613C153.177,104.166,152.988,104.318,152.775,104.318z"/>
				</g>
			</g>
			<g>
				<g>
					<path style="fill:#fff;" d="M108.204,96.424c-0.026,0-0.052-0.004-0.078-0.008c-0.242-0.043-0.403-0.273-0.361-0.518
						l0.641-3.615c0.234-1.318,1.497-2.199,2.812-1.965l3.615,0.643c0.243,0.043,0.404,0.271,0.36,0.516
						c-0.042,0.24-0.274,0.404-0.516,0.359l-3.616-0.639c-0.831-0.15-1.631,0.406-1.777,1.24l-0.642,3.617
						C108.604,96.27,108.416,96.424,108.204,96.424z"/>
				</g>
			</g>
			<g>
				<path style="fill:#fff;" d="M144.262,143.01c-0.141,0-0.281-0.012-0.424-0.037l-3.615-0.641
					c-0.242-0.043-0.404-0.271-0.36-0.516c0.042-0.242,0.272-0.408,0.515-0.359l3.615,0.639c0.833,0.148,1.632-0.41,1.78-1.242
					l0.641-3.617c0.042-0.242,0.275-0.41,0.516-0.359c0.243,0.041,0.403,0.273,0.361,0.514l-0.641,3.617
					C146.44,142.184,145.415,143.01,144.262,143.01z"/>
			</g>
			<g>
				<g>
					<path style="fill:#fff;" d="M106.859,136.416c-0.026,0-0.053-0.002-0.078-0.008l-3.616-0.643
						c-0.636-0.111-1.19-0.465-1.562-0.998c-0.373-0.529-0.516-1.176-0.402-1.811l0.639-3.617c0.043-0.244,0.271-0.404,0.518-0.359
						c0.241,0.043,0.404,0.275,0.36,0.516l-0.641,3.613c-0.071,0.404,0.02,0.813,0.255,1.148c0.236,0.336,0.587,0.561,0.988,0.633
						l3.616,0.641c0.243,0.043,0.403,0.275,0.361,0.516C107.26,136.264,107.071,136.416,106.859,136.416z"/>
				</g>
			</g>
		</g>
		<g>
			<path style="fill:#FFFFFF;" d="M127.553,136.9c-0.002,0-0.002,0-0.002,0c-1.185,0-2.381-0.105-3.557-0.313
				c-10.996-1.947-18.357-12.479-16.408-23.475c1.717-9.689,10.093-16.723,19.918-16.723c1.184,0,2.381,0.104,3.557,0.313
				c10.996,1.949,18.357,12.48,16.408,23.477C145.752,129.867,137.376,136.9,127.553,136.9z M127.504,97.279
				c-9.393,0-17.399,6.725-19.041,15.986c-1.862,10.514,5.175,20.582,15.687,22.445c1.125,0.197,2.269,0.299,3.401,0.299
				c9.392,0.002,17.399-6.723,19.041-15.986c1.862-10.512-5.175-20.58-15.686-22.441C129.781,97.381,128.637,97.279,127.504,97.279z
				"/>
		</g>
		<g>
			<g>
				<path style="fill:#FFFFFF;" d="M130.492,100.361c-0.025,0-0.053-0.004-0.078-0.008c-0.242-0.043-0.404-0.273-0.361-0.516
					l0.133-0.752c0.043-0.242,0.271-0.406,0.517-0.357c0.242,0.039,0.403,0.27,0.36,0.514l-0.133,0.75
					C130.893,100.207,130.704,100.361,130.492,100.361z"/>
			</g>
			<g>
				<path style="fill:#FFFFFF;" d="M124.432,134.572c-0.026,0-0.053-0.002-0.079-0.008c-0.242-0.043-0.403-0.277-0.36-0.518
					l0.133-0.748c0.043-0.242,0.271-0.41,0.516-0.363c0.242,0.045,0.404,0.277,0.36,0.518l-0.132,0.75
					C124.831,134.418,124.643,134.572,124.432,134.572z"/>
			</g>
		</g>
		<g>
			<g>
				<path style="fill:#FFFFFF;" d="M134.721,101.697c-0.064,0-0.128-0.012-0.188-0.043c-0.224-0.102-0.32-0.369-0.217-0.59
					l0.322-0.691c0.104-0.223,0.369-0.318,0.592-0.215c0.224,0.105,0.319,0.371,0.216,0.592l-0.321,0.689
					C135.049,101.602,134.889,101.697,134.721,101.697z"/>
			</g>
			<g>
				<path style="fill:#FFFFFF;" d="M120.012,133.176c-0.063,0-0.128-0.014-0.189-0.043c-0.224-0.104-0.319-0.369-0.215-0.594
					l0.322-0.688c0.104-0.225,0.37-0.32,0.592-0.217c0.223,0.105,0.319,0.369,0.216,0.592l-0.323,0.691
					C120.341,133.08,120.18,133.176,120.012,133.176z"/>
			</g>
		</g>
		<g>
			<g>
				<path style="fill:#FFFFFF;" d="M138.458,104.084c-0.101,0-0.202-0.035-0.286-0.105c-0.188-0.158-0.212-0.439-0.054-0.627
					l0.491-0.584c0.158-0.186,0.439-0.213,0.628-0.053c0.188,0.158,0.212,0.439,0.054,0.629l-0.491,0.582
					C138.711,104.029,138.586,104.084,138.458,104.084z"/>
			</g>
			<g>
				<path style="fill:#FFFFFF;" d="M116.104,130.682c-0.101,0-0.202-0.035-0.286-0.105c-0.188-0.158-0.213-0.439-0.055-0.627
					l0.49-0.584c0.158-0.191,0.438-0.217,0.628-0.055c0.188,0.158,0.213,0.439,0.055,0.627l-0.49,0.584
					C116.357,130.627,116.231,130.682,116.104,130.682z"/>
			</g>
		</g>
		<g>
			<g>
				<path style="fill:#FFFFFF;" d="M141.453,107.359c-0.14,0-0.279-0.068-0.365-0.191c-0.141-0.203-0.092-0.48,0.11-0.621
					l0.624-0.438c0.201-0.143,0.48-0.092,0.621,0.109c0.141,0.203,0.092,0.479-0.109,0.619l-0.625,0.438
					C141.632,107.332,141.542,107.359,141.453,107.359z"/>
			</g>
			<g>
				<path style="fill:#FFFFFF;" d="M112.978,127.262c-0.14,0-0.278-0.066-0.365-0.189c-0.141-0.201-0.091-0.481,0.11-0.619
					l0.623-0.438c0.201-0.143,0.479-0.092,0.62,0.109c0.142,0.199,0.093,0.479-0.109,0.619l-0.623,0.438
					C113.156,127.236,113.066,127.262,112.978,127.262z"/>
			</g>
		</g>
		<g>
			<g>
				<path style="fill:#FFFFFF;" d="M143.498,111.293c-0.182,0-0.354-0.111-0.419-0.293c-0.084-0.23,0.036-0.488,0.267-0.57
					l0.716-0.262c0.232-0.082,0.487,0.037,0.571,0.266c0.084,0.232-0.036,0.488-0.268,0.57l-0.715,0.262
					C143.6,111.283,143.549,111.293,143.498,111.293z"/>
			</g>
			<g>
				<path style="fill:#FFFFFF;" d="M110.841,123.148c-0.183,0-0.354-0.113-0.419-0.293c-0.084-0.229,0.035-0.486,0.266-0.57
					l0.717-0.26c0.232-0.086,0.488,0.035,0.571,0.268c0.084,0.23-0.036,0.486-0.267,0.57l-0.717,0.26
					C110.942,123.141,110.892,123.148,110.841,123.148z"/>
			</g>
		</g>
		<g>
			<g>
				<path style="fill:#FFFFFF;" d="M144.453,115.623c-0.227,0-0.422-0.176-0.442-0.406c-0.021-0.244,0.16-0.461,0.405-0.48
					l0.759-0.068c0.238-0.029,0.461,0.158,0.482,0.404c0.023,0.246-0.16,0.461-0.405,0.482l-0.759,0.066
					C144.48,115.623,144.467,115.623,144.453,115.623z"/>
			</g>
			<g>
				<path style="fill:#FFFFFF;" d="M109.841,118.623c-0.229,0-0.423-0.176-0.443-0.406c-0.021-0.246,0.16-0.461,0.406-0.482
					l0.759-0.066c0.243-0.01,0.46,0.162,0.481,0.408c0.021,0.244-0.16,0.459-0.405,0.482l-0.76,0.064
					C109.867,118.623,109.854,118.623,109.841,118.623z"/>
			</g>
		</g>
		<g>
			<g>
				<path style="fill:#FFFFFF;" d="M145.008,120.189c-0.026,0-0.053-0.004-0.079-0.008l-0.749-0.137
					c-0.242-0.039-0.404-0.273-0.359-0.514c0.042-0.244,0.275-0.408,0.516-0.359l0.75,0.133c0.241,0.043,0.402,0.273,0.359,0.516
					C145.407,120.039,145.219,120.189,145.008,120.189z"/>
			</g>
			<g>
				<path style="fill:#FFFFFF;" d="M110.797,114.125c-0.025,0-0.052,0-0.078-0.008l-0.75-0.129c-0.241-0.043-0.403-0.275-0.36-0.516
					c0.043-0.244,0.271-0.412,0.517-0.361l0.75,0.133c0.242,0.043,0.403,0.271,0.36,0.516
					C111.197,113.975,111.009,114.125,110.797,114.125z"/>
			</g>
		</g>
		<g>
			<g>
				<path style="fill:#FFFFFF;" d="M143.61,124.605c-0.063,0-0.128-0.012-0.188-0.041l-0.69-0.322
					c-0.223-0.104-0.32-0.369-0.216-0.59c0.104-0.225,0.37-0.32,0.592-0.217l0.69,0.322c0.223,0.102,0.32,0.369,0.216,0.59
					C143.939,124.512,143.778,124.605,143.61,124.605z"/>
			</g>
			<g>
				<path style="fill:#FFFFFF;" d="M112.134,109.896c-0.063,0-0.128-0.012-0.188-0.039l-0.69-0.324
					c-0.223-0.104-0.319-0.371-0.215-0.594c0.104-0.221,0.37-0.316,0.593-0.213l0.69,0.32c0.222,0.105,0.318,0.369,0.215,0.594
					C112.462,109.805,112.301,109.896,112.134,109.896z"/>
			</g>
		</g>
		<g>
			<g>
				<path style="fill:#FFFFFF;" d="M141.117,128.514c-0.102,0-0.203-0.035-0.286-0.105l-0.584-0.49
					c-0.188-0.16-0.212-0.439-0.054-0.629c0.158-0.188,0.439-0.213,0.627-0.055l0.584,0.492c0.189,0.158,0.213,0.439,0.054,0.629
					C141.37,128.459,141.244,128.514,141.117,128.514z"/>
			</g>
			<g>
				<path style="fill:#FFFFFF;" d="M114.521,106.158c-0.102,0-0.203-0.033-0.287-0.104l-0.584-0.49
					c-0.188-0.158-0.213-0.439-0.055-0.627c0.158-0.189,0.439-0.215,0.628-0.057l0.584,0.49c0.188,0.158,0.214,0.439,0.056,0.629
					C114.774,106.105,114.648,106.158,114.521,106.158z"/>
			</g>
		</g>
		<g>
			<path style="fill:#FFFFFF;" d="M127.505,134.502c-1.027,0-2.063-0.088-3.093-0.271c-0.242-0.043-0.404-0.273-0.361-0.518
				c0.043-0.242,0.274-0.404,0.517-0.359c5.947,1.047,12.062-1.166,15.955-5.795c0.158-0.188,0.439-0.213,0.628-0.055
				c0.188,0.158,0.213,0.439,0.055,0.627C137.781,132.199,132.727,134.502,127.505,134.502z M114.224,105.852
				c-0.102,0-0.204-0.033-0.287-0.105c-0.188-0.158-0.212-0.439-0.053-0.627c4.098-4.842,10.519-7.168,16.759-6.057
				c0.242,0.043,0.404,0.273,0.361,0.514c-0.043,0.242-0.274,0.406-0.516,0.363c-5.927-1.053-12.03,1.154-15.925,5.754
				C114.476,105.799,114.351,105.852,114.224,105.852z"/>
		</g>
		<g>
			<path style="fill:#FFFFFF;" d="M121.779,122.559L121.779,122.559c-0.406,0-0.815-0.035-1.219-0.107
				c-1.822-0.322-3.412-1.336-4.473-2.855c-1.061-1.518-1.468-3.354-1.145-5.178c0.587-3.32,3.455-5.727,6.819-5.727
				c0.405,0,0.815,0.037,1.216,0.107c1.824,0.324,3.413,1.336,4.474,2.854c1.062,1.518,1.468,3.358,1.145,5.182
				C128.01,120.15,125.143,122.559,121.779,122.559z M121.763,109.582c-2.931,0-5.43,2.1-5.941,4.988
				c-0.281,1.59,0.072,3.193,0.998,4.516c0.924,1.324,2.308,2.209,3.896,2.488c0.353,0.063,0.71,0.096,1.063,0.096
				c2.93,0,5.429-2.1,5.94-4.992c0.283-1.588-0.072-3.189-0.996-4.514c-0.925-1.322-2.309-2.205-3.898-2.488
				C122.474,109.615,122.116,109.582,121.763,109.582z"/>
		</g>
		<g>
			<g>
				<path style="fill:#FFFFFF;" d="M122.437,112.314c-0.025,0-0.052-0.004-0.077-0.008c-0.243-0.043-0.404-0.273-0.361-0.516
					l0.133-0.75c0.042-0.242,0.272-0.408,0.516-0.359c0.242,0.041,0.404,0.273,0.361,0.514l-0.133,0.752
					C122.837,112.164,122.648,112.314,122.437,112.314z"/>
			</g>
			<g>
				<path style="fill:#FFFFFF;" d="M120.972,120.578c-0.026,0-0.052-0.002-0.078-0.008c-0.243-0.043-0.403-0.273-0.36-0.514
					l0.133-0.752c0.043-0.242,0.275-0.402,0.517-0.359c0.242,0.043,0.403,0.274,0.361,0.516l-0.134,0.748
					C121.371,120.428,121.184,120.578,120.972,120.578z"/>
			</g>
		</g>
		<g>
			<g>
				<path style="fill:#FFFFFF;" d="M125.357,114.77c-0.183,0-0.354-0.113-0.419-0.295c-0.084-0.23,0.035-0.486,0.267-0.57
					l0.716-0.258c0.231-0.084,0.487,0.035,0.57,0.264c0.085,0.23-0.034,0.486-0.267,0.572l-0.715,0.26
					C125.459,114.762,125.408,114.77,125.357,114.77z"/>
			</g>
			<g>
				<path style="fill:#FFFFFF;" d="M117.467,117.633c-0.182,0-0.352-0.113-0.418-0.295c-0.084-0.23,0.035-0.486,0.268-0.568
					l0.715-0.26c0.231-0.088,0.487,0.035,0.572,0.267c0.082,0.23-0.037,0.486-0.269,0.57l-0.716,0.258
					C117.569,117.623,117.518,117.633,117.467,117.633z"/>
			</g>
		</g>
		<g>
			<g>
				<path style="fill:#FFFFFF;" d="M125.274,119.016c-0.102,0-0.203-0.033-0.287-0.104l-0.583-0.49
					c-0.189-0.158-0.213-0.439-0.055-0.627c0.158-0.189,0.438-0.217,0.628-0.057l0.583,0.49c0.188,0.158,0.213,0.439,0.055,0.629
					C125.527,118.963,125.4,119.016,125.274,119.016z"/>
			</g>
			<g>
				<path style="fill:#FFFFFF;" d="M118.85,113.615c-0.102,0-0.203-0.033-0.287-0.103l-0.582-0.488
					c-0.189-0.158-0.214-0.441-0.056-0.629c0.158-0.191,0.438-0.213,0.629-0.055l0.583,0.49c0.188,0.158,0.213,0.439,0.055,0.627
					C119.103,113.563,118.977,113.615,118.85,113.615z"/>
			</g>
		</g>
	</g>
	<g>
		<g>
			<path style="fill-rule:evenodd;clip-rule:evenodd;fill:#92400E;" d="M408.859,218.762l39.847,3.387
				c2.175,0.186,3.802,2.115,3.617,4.289l-3.389,39.85c-0.186,2.174-2.114,3.799-4.289,3.617l-39.847-3.389
				c-2.175-0.188-3.802-2.117-3.617-4.291l3.389-39.848C404.755,220.203,406.685,218.578,408.859,218.762z"/>
			<path style="fill:#92400E;" d="M444.983,270.363c-0.124,0-0.249-0.008-0.376-0.016l-39.847-3.389
				c-2.425-0.207-4.229-2.348-4.022-4.772l3.389-39.848c0.203-2.387,2.339-4.215,4.77-4.023l39.849,3.387
				c2.424,0.209,4.23,2.35,4.022,4.773l-3.388,39.846C449.185,268.59,447.255,270.363,444.983,270.363z M408.523,219.193
				c-1.814,0-3.356,1.414-3.51,3.221l-3.388,39.852c-0.165,1.932,1.275,3.641,3.21,3.807l39.848,3.387
				c1.935,0.168,3.645-1.305,3.808-3.211l3.388-39.848c0.166-1.936-1.275-3.641-3.211-3.807l-39.846-3.387
				C408.723,219.195,408.623,219.193,408.523,219.193z"/>
		</g>
		<g>
			<path style="fill-rule:evenodd;clip-rule:evenodd;fill:#92400E;" d="M413.813,215.93l38.566,10.586
				c2.103,0.578,3.352,2.773,2.773,4.877l-10.586,38.566c-0.576,2.103-2.772,3.351-4.875,2.773l-38.564-10.586
				c-2.104-0.578-3.353-2.772-2.775-4.875l10.586-38.563C409.515,216.604,411.709,215.354,413.813,215.93z"/>
			<path style="fill:#FFFFFF;" d="M440.736,273.766c-0.432,0-0.862-0.06-1.281-0.174l-38.564-10.586
				c-2.583-0.709-4.108-3.387-3.4-5.971l10.587-38.562c0.577-2.105,2.508-3.574,4.692-3.574c0.43,0,0.861,0.059,1.278,0.172
				l38.565,10.586c1.248,0.344,2.289,1.154,2.933,2.285c0.644,1.133,0.81,2.439,0.466,3.688l-10.586,38.563
				C444.85,272.299,442.921,273.766,440.736,273.766z M412.771,216.682c-1.386,0-2.608,0.93-2.973,2.262l-10.587,38.562
				c-0.449,1.639,0.517,3.332,2.151,3.781l38.565,10.586c1.613,0.443,3.344-0.56,3.779-2.15l10.586-38.566
				c0.217-0.785,0.111-1.615-0.296-2.334c-0.408-0.717-1.067-1.23-1.854-1.445l-38.566-10.586
				C413.313,216.719,413.043,216.682,412.771,216.682z"/>
		</g>
		<g>
			<g>
				<g>
					<path style="fill:#FFFFFF;" d="M448.67,236.129c-0.039,0-0.079-0.002-0.118-0.014c-0.236-0.066-0.377-0.313-0.312-0.549
						l0.809-2.947c0.084-0.309,0.043-0.633-0.115-0.912c-0.161-0.281-0.417-0.482-0.727-0.564l-2.948-0.813
						c-0.237-0.063-0.378-0.309-0.313-0.547c0.066-0.236,0.313-0.381,0.549-0.313l2.949,0.809c0.538,0.148,0.986,0.498,1.264,0.986
						c0.277,0.486,0.349,1.053,0.201,1.59l-0.809,2.947C449.045,236.002,448.865,236.129,448.67,236.129z"/>
				</g>
			</g>
			<g>
				<g>
					<path style="fill:#FFFFFF;" d="M412.322,226.154c-0.039,0-0.08-0.006-0.119-0.018c-0.237-0.063-0.377-0.309-0.31-0.549
						l0.809-2.947c0.146-0.537,0.496-0.986,0.983-1.264c0.487-0.275,1.054-0.346,1.591-0.201l2.947,0.809
						c0.237,0.066,0.377,0.311,0.312,0.549c-0.065,0.236-0.312,0.379-0.548,0.311l-2.947-0.809
						c-0.309-0.082-0.633-0.045-0.913,0.115c-0.28,0.162-0.482,0.418-0.566,0.727l-0.808,2.947
						C412.697,226.023,412.518,226.154,412.322,226.154z"/>
				</g>
			</g>
			<g>
				<path style="fill:#FFFFFF;" d="M438.785,267.565c-0.187,0-0.372-0.025-0.556-0.076l-2.947-0.809
					c-0.237-0.066-0.377-0.313-0.313-0.549c0.065-0.238,0.313-0.379,0.548-0.311l2.949,0.809c0.308,0.088,0.632,0.043,0.912-0.115
					c0.281-0.16,0.482-0.418,0.566-0.727l0.811-2.947c0.063-0.238,0.311-0.379,0.546-0.311c0.238,0.063,0.377,0.309,0.313,0.547
					l-0.811,2.947c-0.147,0.537-0.496,0.984-0.983,1.264C439.498,267.471,439.143,267.565,438.785,267.565z"/>
			</g>
			<g>
				<g>
					<path style="fill:#FFFFFF;" d="M408.128,259.209c-0.039,0-0.078-0.004-0.116-0.018l-2.951-0.809
						c-1.112-0.305-1.77-1.457-1.465-2.574l0.81-2.947c0.065-0.238,0.311-0.379,0.548-0.311c0.236,0.063,0.377,0.309,0.311,0.547
						l-0.809,2.947c-0.176,0.639,0.203,1.305,0.842,1.479l2.949,0.809c0.237,0.066,0.377,0.313,0.313,0.549
						C408.504,259.078,408.324,259.209,408.128,259.209z"/>
				</g>
			</g>
		</g>
		<g>
			<path style="fill:#FFFFFF;" d="M426.762,259.453c-1.35,0-2.698-0.184-4.011-0.543c-8.037-2.207-12.782-10.541-10.575-18.58
				c1.798-6.547,7.788-11.117,14.568-11.117c1.349,0,2.698,0.182,4.01,0.541c8.038,2.207,12.781,10.541,10.576,18.58
				C439.532,254.879,433.542,259.453,426.762,259.453z M426.744,230.104c-6.381,0-12.018,4.303-13.709,10.463
				c-2.076,7.564,2.389,15.408,9.952,17.484c1.234,0.34,2.505,0.51,3.774,0.51c6.379,0,12.017-4.301,13.709-10.463
				c2.075-7.563-2.39-15.406-9.953-17.484C429.284,230.275,428.013,230.104,426.744,230.104z"/>
		</g>
		<g>
			<g>
				<path style="fill-rule:evenodd;clip-rule:evenodd;fill:#FFFFFF;" d="M432.787,238.764c1.645,0.25,2.711,2.215,2.379,4.387
					c-0.333,2.17-1.938,3.727-3.584,3.475c-1.647-0.25-2.711-2.219-2.377-4.387C429.538,240.064,431.141,238.51,432.787,238.764z"/>
			</g>
			<g>
				<path style="fill-rule:evenodd;clip-rule:evenodd;fill:#FFFFFF;" d="M424.406,236.461c-1.545-0.623-3.463,0.523-4.285,2.561
					c-0.822,2.035-0.236,4.191,1.309,4.816c1.545,0.623,3.463-0.521,4.283-2.561C426.535,239.242,425.949,237.084,424.406,236.461z"
					/>
			</g>
		</g>
		<g>
			<path style="fill-rule:evenodd;clip-rule:evenodd;fill:#FFFFFF;" d="M432.42,250.027c-0.145-0.039-0.306-0.021-0.445,0.059
				c-1.47,0.855-4.16,0.932-6.855,0.193c-2.692-0.738-4.968-2.18-5.796-3.666c-0.154-0.279-0.507-0.381-0.787-0.225
				c-0.279,0.156-0.38,0.508-0.224,0.787c0.986,1.773,3.477,3.389,6.5,4.219c3.025,0.832,5.993,0.713,7.745-0.307
				c0.275-0.164,0.369-0.518,0.208-0.795C432.688,250.158,432.56,250.064,432.42,250.027z"/>
		</g>
	</g>
	<g>
		<path style="fill-rule:evenodd;clip-rule:evenodd;fill:#FFFFFF;" d="M325.181,119.795c1.066,0,2.089,0.191,3.033,0.543
			c0.427-0.471,1.044-0.768,1.729-0.768c0.319,0,0.625,0.066,0.901,0.182c0.151-2.01,1.832-3.594,3.881-3.594
			c0.89,0,1.71,0.297,2.365,0.799c0.143-0.195,0.314-0.367,0.511-0.51c-0.373-0.664-0.586-1.43-0.586-2.244
			c0-1.268,0.514-2.414,1.344-3.246c0.83-0.83,1.979-1.344,3.246-1.344h0.015c0.698-0.367,1.492-0.576,2.336-0.576
			c0.517,0,1.016,0.078,1.484,0.225c0.214-0.455,0.573-0.83,1.02-1.061c-0.123-0.57-0.188-1.162-0.188-1.77
			c0-2.299,0.933-4.383,2.439-5.891c1.507-1.508,3.591-2.439,5.891-2.439c0.731,0,1.442,0.096,2.118,0.271
			c4.924,0.072,8.893,4.086,8.893,9.029c0,0.067-0.001,0.137-0.003,0.205c0.436-0.107,0.893-0.168,1.363-0.168
			c0.934,0,1.814,0.23,2.586,0.641c1.315-1.795,3.439-2.961,5.836-2.961c3.994,0,7.233,3.236,7.233,7.232
			c0,0.783-0.125,1.541-0.357,2.25c0.07-0.006,0.145-0.008,0.218-0.008c1.967,0,3.561,1.592,3.561,3.56
			c0,0.231-0.022,0.457-0.064,0.676c0.025,0,0.05,0,0.074,0c1.112,0,2.017,0.881,2.054,1.984c0.309-0.061,0.625-0.09,0.951-0.09
			c1.285,0,2.485,0.447,3.351,1.264c2.313,2.188-0.213,2.76-2.647,2.76h-3.174h-2.49H333.04h-3.985h-6.549
			c-2.537,0-6.161,0.414-3.644-2.24C320.449,120.838,322.693,119.795,325.181,119.795L325.181,119.795z M347.119,107.98
			c0.126-0.023,0.256-0.033,0.388-0.033h0.065c-0.01-0.182-0.017-0.361-0.017-0.545c0-3.971,2.563-7.344,6.125-8.555
			c-1.741,0.211-3.302,1.006-4.48,2.184c-1.382,1.383-2.237,3.293-2.237,5.4C346.963,106.965,347.018,107.479,347.119,107.98
			L347.119,107.98z M338.214,116.129c0.234-0.08,0.484-0.123,0.744-0.123c0.128,0,0.254,0.012,0.377,0.031
			c-0.259-0.607-0.403-1.273-0.403-1.975c0-1.398,0.572-2.666,1.495-3.576c-0.604,0.191-1.144,0.524-1.579,0.961
			c-0.705,0.705-1.142,1.678-1.142,2.756C337.706,114.902,337.891,115.561,338.214,116.129z"/>
	</g>
	<g>
		<g>
			<g>
				<polygon style="fill-rule:evenodd;clip-rule:evenodd;fill:#FFFFFF;" points="181.247,380.785 176.894,380.785 179.071,377.273 
									"/>
				<path style="fill:#FFFFFF;" d="M181.27,381.23c-0.008,0-0.015,0-0.022,0h-4.354c-0.162,0-0.31-0.086-0.39-0.228
					c-0.078-0.141-0.074-0.315,0.012-0.453l2.177-3.51c0.081-0.131,0.225-0.211,0.379-0.211l0,0c0.154,0,0.297,0.08,0.379,0.211
					l2.113,3.412c0.093,0.084,0.151,0.201,0.151,0.334C181.715,381.031,181.516,381.23,181.27,381.23z M177.694,380.342h2.753
					l-1.376-2.223L177.694,380.342z"/>
			</g>
			<g>
				<path style="fill:#59B2FF;" d="M181.049,386.949L181.049,386.949c-0.153,0-0.297-0.08-0.379-0.211l-2.176-3.512
					c-0.085-0.137-0.089-0.311-0.011-0.451c0.079-0.143,0.228-0.228,0.39-0.228h4.353c0.163,0,0.311,0.086,0.39,0.228
					c0.079,0.141,0.075,0.314-0.01,0.451l-2.178,3.512C181.347,386.869,181.203,386.949,181.049,386.949z M179.673,383.44
					l1.376,2.219l1.377-2.219H179.673z"/>
			</g>
		</g>
		<g>
			<g>
				<polygon style="fill-rule:evenodd;clip-rule:evenodd;fill:#FFFFFF;" points="273.289,100.135 268.936,100.135 271.113,96.621 
									"/>
				<path style="fill:#FFFFFF;" d="M273.31,100.58c-0.007,0-0.014,0-0.021,0h-4.353c-0.162,0-0.311-0.088-0.39-0.232
					c-0.078-0.141-0.075-0.311,0.011-0.449l2.177-3.51c0.082-0.133,0.225-0.215,0.379-0.215l0,0c0.154,0,0.297,0.082,0.379,0.215
					l2.114,3.412c0.092,0.08,0.15,0.201,0.15,0.334C273.757,100.379,273.557,100.58,273.31,100.58z M269.736,99.688h2.752
					l-1.375-2.219L269.736,99.688z"/>
			</g>
			<g>
				<path style="fill:#59B2FF;" d="M273.092,106.297c-0.154,0-0.298-0.082-0.378-0.213l-2.178-3.51
					c-0.086-0.139-0.09-0.309-0.011-0.449c0.078-0.143,0.227-0.23,0.389-0.23h4.354c0.162,0,0.309,0.088,0.389,0.23
					c0.079,0.141,0.075,0.311-0.01,0.449l-2.177,3.51C273.389,106.215,273.246,106.297,273.092,106.297z M271.715,102.785
					l1.377,2.219l1.375-2.219H271.715z"/>
			</g>
		</g>
		<g>
			<g>
				<polygon style="fill-rule:evenodd;clip-rule:evenodd;fill:#FFFFFF;" points="397.772,193.684 393.42,193.684 395.596,190.172 
									"/>
				<path style="fill:#FFFFFF;" d="M397.794,194.131c-0.007,0-0.015,0-0.022,0h-4.352c-0.164,0-0.313-0.088-0.39-0.23
					c-0.079-0.141-0.075-0.313,0.01-0.449l2.178-3.514c0.081-0.131,0.225-0.211,0.378-0.211l0,0c0.154,0,0.298,0.08,0.379,0.211
					l2.113,3.412c0.094,0.084,0.151,0.201,0.151,0.334C398.239,193.93,398.041,194.131,397.794,194.131z M394.219,193.24h2.753
					l-1.376-2.223L394.219,193.24z"/>
			</g>
			<g>
				<path style="fill:#59B2FF;" d="M397.574,199.848c-0.154,0-0.298-0.08-0.379-0.211l-2.178-3.512
					c-0.085-0.137-0.088-0.311-0.01-0.451c0.078-0.143,0.228-0.23,0.39-0.23h4.352c0.163,0,0.311,0.088,0.39,0.229
					c0.079,0.143,0.075,0.316-0.01,0.453l-2.176,3.512C397.872,199.768,397.728,199.848,397.574,199.848z M396.197,196.336
					l1.377,2.221l1.376-2.221H396.197z"/>
			</g>
		</g>
		<g>
			<g>
				<polygon style="fill-rule:evenodd;clip-rule:evenodd;fill:#FFFFFF;" points="99.768,183.877 95.414,183.877 97.591,180.367 				
					"/>
				<path style="fill:#FFFFFF;" d="M99.79,184.322c-0.008,0-0.015,0-0.022,0h-4.354c-0.162,0-0.311-0.088-0.389-0.232
					c-0.078-0.137-0.074-0.311,0.011-0.449l2.176-3.51c0.163-0.262,0.596-0.262,0.758,0l2.114,3.412
					c0.093,0.08,0.151,0.201,0.151,0.334C100.235,184.121,100.036,184.322,99.79,184.322z M96.215,183.43h2.752l-1.376-2.219
					L96.215,183.43z"/>
			</g>
			<g>
				<path style="fill:#59B2FF;" d="M99.569,190.041c-0.154,0-0.298-0.08-0.378-0.211l-2.178-3.514
					c-0.085-0.139-0.089-0.309-0.01-0.449c0.078-0.143,0.227-0.23,0.389-0.23h4.354c0.162,0,0.311,0.088,0.389,0.23
					c0.079,0.141,0.075,0.311-0.01,0.449l-2.178,3.514C99.867,189.961,99.724,190.041,99.569,190.041z M98.193,186.527l1.376,2.223
					l1.376-2.223H98.193z"/>
			</g>
		</g>
	</g>
	<g>
		<path style="fill-rule:evenodd;clip-rule:evenodd;fill:#FFFFFF;" d="M132.276,117.408h6.935c0.27,0,0.488,0.217,0.488,0.486v6.012
			c0,0.267-0.219,0.486-0.488,0.486h-6.935c-0.269,0-0.488-0.219-0.488-0.486v-6.012
			C131.788,117.625,132.008,117.408,132.276,117.408L132.276,117.408z M135.744,119.145c-0.662,0-1.199,0.535-1.199,1.197
			c0,0.461,0.258,0.857,0.636,1.059l-0.444,0.893c-0.02,0.035-0.031,0.076-0.031,0.119c0,0.135,0.11,0.244,0.246,0.244h0.793h0.794
			c0.135,0,0.245-0.109,0.245-0.244c0-0.043-0.012-0.084-0.03-0.119l-0.446-0.893c0.379-0.201,0.637-0.598,0.637-1.059
			C136.943,119.68,136.406,119.145,135.744,119.145z"/>
	</g>
	<g>
		<path style="fill:#FFFFFF;" d="M138.393,118.225c-0.246,0-0.445-0.201-0.445-0.447v-0.787c0-1.217-0.988-2.203-2.203-2.203
			c-1.214,0-2.203,0.986-2.203,2.203v0.787c0,0.246-0.199,0.447-0.445,0.447c-0.246,0-0.445-0.201-0.445-0.447v-0.787
			c0-1.707,1.387-3.094,3.094-3.094c1.706,0,3.094,1.387,3.094,3.094v0.787C138.838,118.023,138.639,118.225,138.393,118.225z"/>
	</g>
</g>
</svg>
