<svg xmlns="http://www.w3.org/2000/svg" version="1.1" xmlns:xlink="http://www.w3.org/1999/xlink" xmlns:svgjs="http://svgjs.dev/svgjs" width="128" height="128" viewBox="0 0 128 128"><g transform="matrix(0.8046875,0,0,0.8046875,12.760752631578946,31.100233714036456)"><svg viewBox="0 0 95 61" data-background-color="#ffffff" preserveAspectRatio="xMidYMid meet" height="82" width="128" xmlns="http://www.w3.org/2000/svg" xmlns:xlink="http://www.w3.org/1999/xlink"><g id="tight-bounds" transform="matrix(1,0,0,1,-0.24049999999999727,-0.08543983414594436)"><svg viewBox="0 0 95.481 61.17087966829188" height="61.17087966829188" width="95.481"><g><svg viewBox="0 0 95.481 61.17087966829188" height="61.17087966829188" width="95.481"><g><svg viewBox="0 0 95.481 61.17087966829188" height="61.17087966829188" width="95.481"><g id="textblocktransform"><svg viewBox="0 0 95.481 61.17087966829188" height="61.17087966829188" width="95.481" id="textblock"><g><svg viewBox="0 0 95.481 61.17087966829188" height="61.17087966829188" width="95.481"><g><svg viewBox="0 0 95.481 61.17087966829188" height="61.17087966829188" width="95.481"><g><svg xmlns="http://www.w3.org/2000/svg" xmlns:xlink="http://www.w3.org/1999/xlink" version="1.1" x="0" y="0" viewBox="11.014703851409177 25.204759310340624 78.19314847565816 50.09524068965938" style="enable-background:new 0 0 100 100;" xml:space="preserve" height="61.17087966829188" width="95.481" class="icon-icon-0" data-fill-palette-color="accent" id="icon-0"><g fill="#9a3412" data-fill-palette-color="accent"><path d="M88.9 35.2C88.3 34.2 87.1 33.9 86.2 34.5L50.2 55.7 14 34.5C13 33.9 11.8 34.3 11.3 35.2 10.7 36.2 11.1 37.4 12 37.9L46.2 58 23.1 71.6C22.1 72.2 21.8 73.4 22.4 74.3 22.8 74.9 23.4 75.3 24.1 75.3 24.4 75.3 24.8 75.2 25.1 75L50.1 60.3 75.3 75C75.6 75.2 76 75.3 76.3 75.3 77 75.3 77.7 74.9 78 74.3 78.6 73.3 78.2 72.1 77.3 71.6L54.1 58 88.2 37.9C89.2 37.4 89.5 36.1 88.9 35.2" fill="#9a3412" data-fill-palette-color="accent"></path><path d="M18.7 30.6L48.3 53.1C48.8 53.5 49.5 53.7 50.1 53.7S51.4 53.5 51.9 53.1L82.3 30.6C83.6 29.6 83.9 27.7 82.9 26.4S80 24.8 78.7 25.8L50.1 47 22.3 25.8C21 24.8 19.1 25.1 18.1 26.4S17.4 29.6 18.7 30.6" fill="#9a3412" data-fill-palette-color="accent"></path></g></svg></g></svg></g></svg></g></svg></g></svg></g></svg></g><defs></defs></svg><rect width="95.481" height="61.17087966829188" fill="none" stroke="none" visibility="hidden"></rect></g></svg></g></svg>