<svg xmlns="http://www.w3.org/2000/svg" version="1.1" xmlns:xlink="http://www.w3.org/1999/xlink" xmlns:svgjs="http://svgjs.dev/svgjs" width="2000" height="808" viewBox="0 0 2000 808"><g transform="matrix(1,0,0,1,-1.0298309339943899,-0.5018446232865585)"><svg viewBox="0 0 396 160" data-background-color="#ffffff" preserveAspectRatio="xMidYMid meet" height="808" width="2000" xmlns="http://www.w3.org/2000/svg" xmlns:xlink="http://www.w3.org/1999/xlink"><g id="tight-bounds" transform="matrix(1,0,0,1,0.27995396160136465,0.09937517292803477)"><svg viewBox="0 0 395.5199999999999 159.80124965414393" height="159.80124965414393" width="395.5199999999999"><g><svg viewBox="0 0 395.5199999999999 159.80124965414393" height="159.80124965414393" width="395.5199999999999"><g transform="matrix(1,0,0,1,0,104.02228336675454)"><svg viewBox="0 0 395.5199999999999 55.77896628738938" height="55.77896628738938" width="395.5199999999999"><g id="textblocktransform"><svg viewBox="0 0 395.5199999999999 55.77896628738938" height="55.77896628738938" width="395.5199999999999" id="textblock"><g><svg viewBox="0 0 395.5199999999999 47.515048908542745" height="47.515048908542745" width="395.5199999999999"><g transform="matrix(1,0,0,1,0,0)"><svg width="395.5199999999999" viewBox="1.7235800826044503 -30.083287876039996 348.0168156903008 41.81674787604" height="47.515048908542745" data-palette-color="#9a3412"><path d="M20.484 7.498l9.981-1.279 0.38 3.59-13.312 1.059c-4.734 0.374-8.308-0.393-10.722-2.303-2.415-1.909-3.836-4.886-4.265-8.93v0l-0.77-7.26c-0.431-4.064 0.272-7.299 2.109-9.706 1.83-2.406 4.727-3.819 8.692-4.239v0c2.658-0.282 4.941-0.031 6.847 0.752 1.907 0.783 3.417 2.071 4.533 3.864 1.121 1.785 1.826 4.037 2.113 6.755v0l0.706 6.663c0.171 1.611 0.137 3.029-0.102 4.254-0.232 1.225-0.631 2.272-1.195 3.144-0.558 0.87-1.256 1.591-2.094 2.162-0.831 0.571-1.778 1.003-2.839 1.297v0zM16.465 7.532v0l0.537-0.057c0.895-0.283 1.728-0.683 2.498-1.2 0.762-0.523 1.414-1.176 1.955-1.957 0.54-0.788 0.926-1.734 1.157-2.838 0.225-1.103 0.261-2.374 0.109-3.812v0l-0.805-7.598c-0.309-2.917-1.216-5.087-2.722-6.509-1.512-1.422-3.597-1.992-6.255-1.711v0c-2.639 0.28-4.545 1.273-5.717 2.98-1.18 1.707-1.615 4.019-1.307 6.936v0l0.805 7.597c0.306 2.884 1.302 5.014 2.99 6.391 1.688 1.383 3.94 1.976 6.755 1.778zM45.585 8.191v0c-3.938 0.346-6.936-0.412-8.993-2.272-2.057-1.861-3.256-4.73-3.597-8.609v0l-1.771-20.172 4.084-0.359 1.78 20.272c0.237 2.696 1.008 4.7 2.315 6.011 1.307 1.317 3.265 1.862 5.875 1.632v0c2.63-0.231 4.467-1.108 5.511-2.632 1.051-1.518 1.459-3.625 1.222-6.321v0l-1.78-20.272 4.094-0.36 1.771 20.173c0.341 3.878-0.337 6.913-2.031 9.102-1.695 2.19-4.521 3.459-8.48 3.807zM85.118-2.288l1.531 6.862-4.22 0.288-1.329-6.405c-0.243-1.206-0.594-2.241-1.054-3.105-0.454-0.871-1.107-1.535-1.96-1.991-0.846-0.45-2.017-0.624-3.514-0.522v0l-8.562 0.554-0.221-3.232 9.148-0.645c2.155-0.147 3.658-0.784 4.51-1.911 0.846-1.12 1.206-2.595 1.081-4.424v0l-0.05-0.739c-0.123-1.809-0.688-3.177-1.694-4.104-1.006-0.934-2.6-1.326-4.781-1.177v0l-9.179 0.627-0.23-3.383 9.717-0.663c3.385-0.231 5.897 0.346 7.535 1.731 1.645 1.385 2.556 3.384 2.735 5.998v0l0.057 0.838c0.14 2.055-0.23 3.771-1.112 5.148-0.882 1.37-2.441 2.271-4.676 2.704v0l0.034 0.499-1.789-0.499c1.832 0.009 3.269 0.311 4.312 0.908 1.036 0.597 1.823 1.456 2.361 2.575 0.544 1.119 0.994 2.475 1.35 4.068zM67.207-7.28l0.895 13.119-4.05 0.277-2.152-31.527 4.02-0.274 1.151 16.851zM101.114-24.977l-7.263 29.216-4.155 0.202 8.347-32.042 6.473-0.314 11.429 31.083-4.145 0.201-10.067-28.376zM109.375-9.258l0.165 3.406-14.363 0.696-0.165-3.406zM120.674 3.025l-0.974-31.585 6.227-0.192 13.672 26.792 0.29-0.009-0.595-13.788-0.413-13.394 3.998-0.123 0.974 31.585-6.077 0.187-13.819-27.007-0.29 0.009 0.615 14.428 0.4 12.974zM171.686 2.626v0c-1.513 0.006-2.9-0.113-4.162-0.354-1.261-0.242-2.389-0.544-3.383-0.908-0.988-0.356-1.813-0.713-2.474-1.071v0l-0.435-4.078c1.276 0.749 2.775 1.406 4.497 1.973 1.722 0.56 3.596 0.837 5.623 0.829v0c2.44-0.009 4.245-0.449 5.416-1.32 1.163-0.871 1.742-2.17 1.735-3.896v0l-0.001-0.4c-0.004-1.133-0.238-2.062-0.701-2.788-0.463-0.725-1.245-1.332-2.347-1.821-1.095-0.489-2.584-0.947-4.465-1.373v0c-2.375-0.551-4.278-1.207-5.707-1.969-1.429-0.761-2.463-1.718-3.101-2.869-0.638-1.151-0.96-2.583-0.966-4.296v0l0-0.22c-0.01-2.587 0.833-4.59 2.527-6.009 1.688-1.413 4.255-2.126 7.702-2.139v0c2.26-0.008 4.184 0.214 5.773 0.669 1.595 0.454 2.897 0.959 3.906 1.515v0l0.384 3.759c-1.176-0.689-2.541-1.274-4.097-1.755-1.562-0.474-3.349-0.708-5.363-0.7v0c-1.593 0.006-2.886 0.197-3.878 0.574-0.985 0.384-1.7 0.933-2.143 1.648-0.444 0.708-0.664 1.566-0.661 2.573v0l0 0.1c0.004 1.02 0.227 1.893 0.67 2.617 0.436 0.718 1.205 1.342 2.307 1.872 1.095 0.523 2.657 1.027 4.686 1.512v0c2.329 0.531 4.194 1.151 5.597 1.859 1.403 0.701 2.426 1.621 3.07 2.759 0.638 1.131 0.96 2.613 0.966 4.446v0l0.002 0.52c0.011 2.847-0.901 5.013-2.735 6.501-1.835 1.48-4.582 2.227-8.242 2.24zM198.999 2.794v0c-3.906-0.05-6.822-1.184-8.748-3.401-1.925-2.218-2.862-5.347-2.811-9.387v0l0.096-7.489c0.051-4.033 1.064-7.13 3.038-9.292 1.974-2.162 4.905-3.218 8.791-3.169v0c1.253 0.016 2.395 0.147 3.426 0.394 1.024 0.246 1.936 0.555 2.738 0.925 0.802 0.37 1.48 0.759 2.035 1.166v0l0.302 3.814c-0.964-0.706-2.097-1.327-3.397-1.863-1.307-0.537-2.843-0.816-4.609-0.839v0c-2.653-0.034-4.663 0.727-6.03 2.283-1.373 1.556-2.078 3.784-2.115 6.684v0l-0.093 7.299c-0.037 2.88 0.618 5.125 1.964 6.736 1.346 1.604 3.379 2.423 6.1 2.458v0c1.747 0.022 3.296-0.211 4.649-0.701 1.346-0.496 2.521-1.108 3.523-1.835v0l-0.399 3.905c-0.565 0.386-1.263 0.764-2.095 1.133-0.825 0.37-1.772 0.661-2.841 0.874-1.063 0.22-2.238 0.322-3.524 0.305zM214.275-29.079l4.108 0.123-0.945 31.586-4.108-0.123zM233.356-28.508l4.099 0.123-0.946 31.585-4.098-0.122zM234.476-11.427l-18.362-0.55 0.104-3.458 18.361 0.55zM254.729 4.709v0c-3.982-0.2-6.953-1.451-8.913-3.753-1.967-2.302-2.847-5.5-2.641-9.595v0l0.366-7.291c0.205-4.082 1.402-7.169 3.59-9.261 2.181-2.093 5.263-3.039 9.244-2.839v0c3.988 0.201 6.963 1.452 8.923 3.753 1.967 2.302 2.848 5.493 2.642 9.575v0l-0.366 7.291c-0.206 4.095-1.403 7.189-3.591 9.281-2.181 2.093-5.266 3.039-9.254 2.839zM254.901 1.283v0c2.67 0.134 4.721-0.56 6.152-2.084 1.425-1.517 2.21-3.734 2.357-6.65v0l0.384-7.63c0.147-2.916-0.413-5.197-1.678-6.843-1.272-1.646-3.243-2.536-5.913-2.67v0c-2.65-0.133-4.687 0.555-6.112 2.065-1.431 1.51-2.22 3.723-2.366 6.64v0l-0.384 7.63c-0.147 2.916 0.416 5.201 1.688 6.853 1.265 1.659 3.222 2.555 5.872 2.689zM275.2-26.375l4.1 0.278-2.137 31.528-4.101-0.278zM291.889 6.429l-16.632-1.127 0.236-3.482 16.632 1.127zM309.604-20.968l-11.108 27.982-4.144-0.357 12.56-30.637 6.456 0.555 7.167 32.333-4.135-0.355-6.179-29.468zM315.687-4.286l-0.292 3.398-14.327-1.232 0.292-3.397zM347.434 4.711l0.338 7.022-4.208-0.435-0.217-6.538c-0.033-1.23-0.203-2.31-0.509-3.239-0.298-0.936-0.829-1.701-1.592-2.297-0.757-0.588-1.881-0.959-3.373-1.113v0l-8.531-0.914 0.334-3.223 9.123 0.925c2.148 0.223 3.739-0.149 4.77-1.114 1.024-0.96 1.631-2.351 1.82-4.175v0l0.076-0.736c0.187-1.804-0.136-3.248-0.968-4.333-0.832-1.092-2.335-1.75-4.511-1.975v0l-9.151-0.948 0.35-3.372 9.688 1.003c3.375 0.35 5.752 1.347 7.13 2.991 1.385 1.645 1.942 3.77 1.671 6.376v0l-0.086 0.836c-0.212 2.049-0.87 3.677-1.974 4.883-1.103 1.199-2.793 1.822-5.069 1.867v0l-0.052 0.497-1.677-0.797c1.803 0.321 3.168 0.864 4.094 1.631 0.919 0.765 1.548 1.746 1.887 2.94 0.345 1.195 0.558 2.608 0.637 4.238zM330.636-3.262l-1.355 13.08-4.039-0.419 3.257-31.432 4.009 0.416-1.741 16.8z" opacity="1" transform="matrix(1,0,0,1,0,0)" fill="#9a3412" class="wordmark-text-0" data-fill-palette-color="primary" id="text-0"></path></svg></g></svg></g><g transform="matrix(1,0,0,1,118.31980799999997,51.32154860831017)"><svg viewBox="0 0 158.880384 4.457417679079215" height="4.457417679079215" width="158.880384"><g transform="matrix(1,0,0,1,0,0)"><svg width="158.880384" viewBox="1.63 -32.55 1181.4799999999998 33.15" height="4.457417679079215" data-palette-color="#9a3412"><path d="M15.35 0L11.2 0 11.2-31.28 15.35-31.28 15.35 0ZM24.93-28.48L1.63-28.48 1.63-31.95 24.93-31.95 24.93-28.48ZM53.22 0L48.95 0 48.05-6.55Q47.8-8.4 47.2-9.76 46.6-11.13 45.36-11.9 44.12-12.68 41.85-12.68L41.85-12.68 33.17-12.7 33.17-15.98 42.45-16Q45.72-16 47.12-17.61 48.52-19.23 48.52-22L48.52-22 48.52-22.75Q48.52-25.5 47.1-27.01 45.67-28.53 42.35-28.53L42.35-28.53 33.05-28.53 33.05-31.95 42.9-31.95Q48.05-31.95 50.39-29.69 52.72-27.43 52.72-23.45L52.72-23.45 52.72-22.6Q52.72-19.48 51.25-17.49 49.77-15.5 46.35-15.08L46.35-15.08 46.35-14.58 44.57-15.2Q47.35-15 48.86-13.99 50.37-12.98 51.07-11.23 51.77-9.47 52.15-7.03L52.15-7.03 53.22 0ZM34.42 0L30.32 0 30.32-31.95 34.4-31.95 34.4-14.88 34.42-13.3 34.42 0ZM60.75 0L56.55 0 66.55-31.95 73.1-31.95 83.12 0 78.92 0 70.15-29.15 69.52-29.15 60.75 0ZM77.1-9.43L62.55-9.43 62.55-12.88 77.1-12.88 77.1-9.43ZM88.12-31.95L94.42-31.95 107.39-4.45 107.69-4.45 107.52-18.4 107.52-31.95 111.57-31.95 111.57 0 105.42 0 92.29-27.73 91.99-27.73 92.17-13.13 92.17 0 88.12 0 88.12-31.95ZM128.02 0.58L128.02 0.58Q125.72 0.58 123.8 0.2 121.89-0.18 120.39-0.73 118.89-1.28 117.89-1.83L117.89-1.83 117.47-5.95Q119.39-4.8 122-3.94 124.62-3.08 127.69-3.08L127.69-3.08Q131.39-3.08 133.17-4.39 134.94-5.7 134.94-8.33L134.94-8.33 134.94-8.72Q134.94-10.45 134.24-11.55 133.54-12.65 131.88-13.4 130.22-14.15 127.37-14.8L127.37-14.8Q123.77-15.65 121.6-16.81 119.44-17.98 118.48-19.73 117.52-21.48 117.52-24.08L117.52-24.08 117.52-24.3Q117.52-28.23 120.09-30.36 122.67-32.5 127.89-32.5L127.89-32.5Q131.32-32.5 133.73-31.8 136.14-31.1 137.67-30.25L137.67-30.25 138.04-26.45Q136.27-27.5 133.9-28.24 131.54-28.98 128.49-28.98L128.49-28.98Q126.07-28.98 124.57-28.4 123.07-27.83 122.39-26.75 121.72-25.68 121.72-24.15L121.72-24.15 121.72-24.05Q121.72-22.5 122.38-21.4 123.04-20.3 124.7-19.5 126.37-18.7 129.44-17.95L129.44-17.95Q132.97-17.13 135.09-16.05 137.22-14.98 138.18-13.25 139.14-11.53 139.14-8.75L139.14-8.75 139.14-8.22Q139.14-3.9 136.35-1.66 133.57 0.58 128.02 0.58ZM149.31 0L145.16 0 145.16-31.95 149.31-31.95 149.31 0ZM163.99-13.38L147.51-13.38 147.51-16.85 163.99-16.85 163.99-13.38ZM164.36-28.48L146.36-28.48 146.36-31.95 164.36-31.95 164.36-28.48ZM181.19 0.6L181.19 0.6Q175.14 0.6 171.99-2.74 168.84-6.08 168.84-12.3L168.84-12.3 168.84-19.68Q168.84-25.88 171.99-29.21 175.14-32.55 181.19-32.55L181.19-32.55Q187.24-32.55 190.39-29.21 193.54-25.88 193.54-19.68L193.54-19.68 193.54-12.3Q193.54-6.08 190.39-2.74 187.24 0.6 181.19 0.6ZM181.19-2.88L181.19-2.88Q185.24-2.88 187.29-5.29 189.34-7.7 189.34-12.13L189.34-12.13 189.34-19.85Q189.34-24.28 187.29-26.68 185.24-29.08 181.19-29.08L181.19-29.08Q177.16-29.08 175.11-26.68 173.06-24.28 173.06-19.85L173.06-19.85 173.06-12.13Q173.06-7.7 175.11-5.29 177.16-2.88 181.19-2.88ZM222.83 0L218.56 0 217.66-6.55Q217.41-8.4 216.81-9.76 216.21-11.13 214.97-11.9 213.73-12.68 211.46-12.68L211.46-12.68 202.78-12.7 202.78-15.98 212.06-16Q215.33-16 216.73-17.61 218.13-19.23 218.13-22L218.13-22 218.13-22.75Q218.13-25.5 216.71-27.01 215.28-28.53 211.96-28.53L211.96-28.53 202.66-28.53 202.66-31.95 212.51-31.95Q217.66-31.95 220-29.69 222.33-27.43 222.33-23.45L222.33-23.45 222.33-22.6Q222.33-19.48 220.86-17.49 219.38-15.5 215.96-15.08L215.96-15.08 215.96-14.58 214.18-15.2Q216.96-15 218.47-13.99 219.98-12.98 220.68-11.23 221.38-9.47 221.76-7.03L221.76-7.03 222.83 0ZM204.03 0L199.93 0 199.93-31.95 204.01-31.95 204.01-14.88 204.03-13.3 204.03 0ZM232.21 0L228.18 0 229.41-31.95 235.83-31.95 243.41-8.85 243.76-8.85 251.33-31.95 257.78-31.95 259.01 0 254.98 0 254.53-13.48 254.11-27.63 253.66-27.63 245.76-3.68 241.43-3.68 233.53-27.63 233.08-27.63 232.63-13.45 232.21 0ZM270.23-31.95L270.23 0 266.08 0 266.08-31.95 270.23-31.95ZM277.83-31.95L284.13-31.95 297.1-4.45 297.4-4.45 297.23-18.4 297.23-31.95 301.28-31.95 301.28 0 295.13 0 282-27.73 281.7-27.73 281.88-13.13 281.88 0 277.83 0 277.83-31.95ZM318.65 0.6L318.65 0.6Q315.02 0.6 312.57-0.86 310.12-2.33 308.89-5.13 307.65-7.93 307.65-11.9L307.65-11.9 307.65-19.45Q307.65-25.75 310.89-29.14 314.12-32.52 320.4-32.52L320.4-32.52Q322.65-32.52 324.49-32.16 326.32-31.8 327.75-31.21 329.17-30.63 330.2-29.98L330.2-29.98 330.57-26.23Q328.85-27.33 326.51-28.15 324.17-28.98 321.1-28.98L321.1-28.98Q316.45-28.98 314.16-26.5 311.87-24.03 311.87-19.38L311.87-19.38 311.87-11.93Q311.87-7.63 313.89-5.29 315.9-2.95 319.92-2.95L319.92-2.95Q321.97-2.95 323.44-3.65 324.9-4.35 325.84-5.5 326.77-6.65 327.2-8.03L327.2-8.03 327.2-15.9 327.87-14.43 320.35-14.43 320.35-17.88 331.25-17.88 331.25-5.25 327.17-5.28Q326.77-3.73 325.8-2.38 324.82-1.03 323.07-0.21 321.32 0.6 318.65 0.6ZM327.2 0L327.37-6.6 331.25-6.6 331.25 0 327.2 0ZM356.37-31.95L356.37 0 352.22 0 352.22-31.95 356.37-31.95ZM354.44 0L354.44-3.53 371.29-3.53 371.29 0 354.44 0ZM380.77-31.95L380.77 0 376.62 0 376.62-31.95 380.77-31.95ZM402.16 0L395.54 0 385.81-31.95 390.16-31.95 398.54-3.15 399.14-3.15 407.54-31.95 411.86-31.95 402.16 0ZM420.96 0L416.86 0 416.86-31.95 420.96-31.95 420.96 0ZM436.79 0L418.09 0 418.09-3.48 436.79-3.48 436.79 0ZM436.26-14.58L419.21-14.58 419.21-18.03 436.26-18.03 436.26-14.58ZM436.64-28.48L418.06-28.48 418.06-31.95 436.64-31.95 436.64-28.48ZM451.91 0.58L451.91 0.58Q449.61 0.58 447.7 0.2 445.78-0.18 444.28-0.73 442.78-1.28 441.78-1.83L441.78-1.83 441.36-5.95Q443.28-4.8 445.9-3.94 448.51-3.08 451.58-3.08L451.58-3.08Q455.28-3.08 457.06-4.39 458.83-5.7 458.83-8.33L458.83-8.33 458.83-8.72Q458.83-10.45 458.13-11.55 457.43-12.65 455.77-13.4 454.11-14.15 451.26-14.8L451.26-14.8Q447.66-15.65 445.5-16.81 443.33-17.98 442.37-19.73 441.41-21.48 441.41-24.08L441.41-24.08 441.41-24.3Q441.41-28.23 443.98-30.36 446.56-32.5 451.78-32.5L451.78-32.5Q455.21-32.5 457.62-31.8 460.03-31.1 461.56-30.25L461.56-30.25 461.93-26.45Q460.16-27.5 457.8-28.24 455.43-28.98 452.38-28.98L452.38-28.98Q449.96-28.98 448.46-28.4 446.96-27.83 446.28-26.75 445.61-25.68 445.61-24.15L445.61-24.15 445.61-24.05Q445.61-22.5 446.27-21.4 446.93-20.3 448.6-19.5 450.26-18.7 453.33-17.95L453.33-17.95Q456.86-17.13 458.98-16.05 461.11-14.98 462.07-13.25 463.03-11.53 463.03-8.75L463.03-8.75 463.03-8.22Q463.03-3.9 460.25-1.66 457.46 0.58 451.91 0.58ZM494 0L487.4 0 480.8-31.95 485.05-31.95 489.7-8.08 490.58-3.48 491.03-3.48 491.88-8.08 496.55-31.13 502.68-31.13 507.35-8.08 508.2-3.48 508.65-3.48 509.55-8.08 514.2-31.95 518.4-31.95 511.83 0 505.28 0 501.58-18.38 499.83-27.7 499.43-27.7 497.65-18.38 494 0ZM528.02-31.95L528.02 0 523.88 0 523.88-31.95 528.02-31.95ZM547.2 0L543.05 0 543.05-31.28 547.2-31.28 547.2 0ZM556.77-28.48L533.47-28.48 533.47-31.95 556.77-31.95 556.77-28.48ZM566.32-31.95L566.32 0 562.17 0 562.17-31.95 566.32-31.95ZM585.62-31.95L585.62 0 581.47 0 581.47-31.95 585.62-31.95ZM564.54-14.73L564.54-18.23 583.12-18.23 583.12-14.73 564.54-14.73ZM618.24 0.6L618.24 0.6Q612.19 0.6 609.04-2.74 605.89-6.08 605.89-12.3L605.89-12.3 605.89-19.68Q605.89-25.88 609.04-29.21 612.19-32.55 618.24-32.55L618.24-32.55Q624.29-32.55 627.44-29.21 630.59-25.88 630.59-19.68L630.59-19.68 630.59-12.3Q630.59-6.08 627.44-2.74 624.29 0.6 618.24 0.6ZM618.24-2.88L618.24-2.88Q622.29-2.88 624.34-5.29 626.39-7.7 626.39-12.13L626.39-12.13 626.39-19.85Q626.39-24.28 624.34-26.68 622.29-29.08 618.24-29.08L618.24-29.08Q614.21-29.08 612.16-26.68 610.11-24.28 610.11-19.85L610.11-19.85 610.11-12.13Q610.11-7.7 612.16-5.29 614.21-2.88 618.24-2.88ZM636.99-31.95L643.29-31.95 656.26-4.45 656.56-4.45 656.39-18.4 656.39-31.95 660.44-31.95 660.44 0 654.29 0 641.16-27.73 640.86-27.73 641.04-13.13 641.04 0 636.99 0 636.99-31.95ZM672.13-31.95L672.13 0 667.98 0 667.98-31.95 672.13-31.95ZM670.21 0L670.21-3.53 687.06-3.53 687.06 0 670.21 0ZM696.53-31.95L696.53 0 692.38 0 692.38-31.95 696.53-31.95ZM704.13-31.95L710.43-31.95 723.4-4.45 723.7-4.45 723.53-18.4 723.53-31.95 727.58-31.95 727.58 0 721.43 0 708.3-27.73 708-27.73 708.18-13.13 708.18 0 704.13 0 704.13-31.95ZM739.23 0L735.13 0 735.13-31.95 739.23-31.95 739.23 0ZM755.05 0L736.35 0 736.35-3.48 755.05-3.48 755.05 0ZM754.53-14.58L737.48-14.58 737.48-18.03 754.53-18.03 754.53-14.58ZM754.9-28.48L736.33-28.48 736.33-31.95 754.9-31.95 754.9-28.48ZM779.37-31.95L779.37 0 775.22 0 775.22-31.95 779.37-31.95ZM795.84 0.58L795.84 0.58Q793.54 0.58 791.63 0.2 789.72-0.18 788.22-0.73 786.72-1.28 785.72-1.83L785.72-1.83 785.29-5.95Q787.22-4.8 789.83-3.94 792.44-3.08 795.52-3.08L795.52-3.08Q799.22-3.08 800.99-4.39 802.77-5.7 802.77-8.33L802.77-8.33 802.77-8.72Q802.77-10.45 802.07-11.55 801.37-12.65 799.71-13.4 798.04-14.15 795.19-14.8L795.19-14.8Q791.59-15.65 789.43-16.81 787.27-17.98 786.31-19.73 785.34-21.48 785.34-24.08L785.34-24.08 785.34-24.3Q785.34-28.23 787.92-30.36 790.49-32.5 795.72-32.5L795.72-32.5Q799.14-32.5 801.56-31.8 803.97-31.1 805.49-30.25L805.49-30.25 805.87-26.45Q804.09-27.5 801.73-28.24 799.37-28.98 796.32-28.98L796.32-28.98Q793.89-28.98 792.39-28.4 790.89-27.83 790.22-26.75 789.54-25.68 789.54-24.15L789.54-24.15 789.54-24.05Q789.54-22.5 790.21-21.4 790.87-20.3 792.53-19.5 794.19-18.7 797.27-17.95L797.27-17.95Q800.79-17.13 802.92-16.05 805.04-14.98 806.01-13.25 806.97-11.53 806.97-8.75L806.97-8.75 806.97-8.22Q806.97-3.9 804.18-1.66 801.39 0.58 795.84 0.58ZM817.14-31.95L817.14 0 812.99 0 812.99-31.95 817.14-31.95ZM815.22 0L815.22-3.53 832.07-3.53 832.07 0 815.22 0ZM839.09 0L834.89 0 844.89-31.95 851.44-31.95 861.46 0 857.26 0 848.49-29.15 847.86-29.15 839.09 0ZM855.44-9.43L840.89-9.43 840.89-12.88 855.44-12.88 855.44-9.43ZM869.96 0L865.94 0 867.16-31.95 873.59-31.95 881.16-8.85 881.51-8.85 889.09-31.95 895.54-31.95 896.76 0 892.74 0 892.29-13.48 891.86-27.63 891.41-27.63 883.51-3.68 879.19-3.68 871.29-27.63 870.84-27.63 870.39-13.45 869.96 0ZM907.98-31.95L907.98 0 903.83 0 903.83-31.95 907.98-31.95ZM926.26 0.58L926.26 0.58Q920.33 0.58 917.37-2.75 914.41-6.08 914.41-12.2L914.41-12.2 914.41-19.78Q914.41-25.9 917.36-29.21 920.31-32.52 926.21-32.52L926.21-32.52Q928.11-32.52 929.67-32.18 931.23-31.83 932.46-31.28 933.68-30.73 934.53-30.13L934.53-30.13 934.88-26.28Q933.41-27.33 931.42-28.11 929.43-28.9 926.76-28.9L926.76-28.9Q922.73-28.9 920.68-26.51 918.63-24.13 918.63-19.73L918.63-19.73 918.63-12.35Q918.63-7.98 920.71-5.56 922.78-3.15 926.91-3.15L926.91-3.15Q929.56-3.15 931.59-3.93 933.63-4.7 935.13-5.83L935.13-5.83 934.78-1.88Q933.93-1.28 932.68-0.7 931.43-0.13 929.82 0.23 928.21 0.58 926.26 0.58ZM958.95 0L954.85 0 954.85-31.95 958.95-31.95 958.95 0ZM974.78 0L956.08 0 956.08-3.48 974.78-3.48 974.78 0ZM974.25-14.58L957.2-14.58 957.2-18.03 974.25-18.03 974.25-14.58ZM974.63-28.48L956.05-28.48 956.05-31.95 974.63-31.95 974.63-28.48ZM991.7 0L983.8 0 983.8-3.5 991.55-3.5Q995.8-3.5 997.94-5.81 1000.07-8.13 1000.07-12.43L1000.07-12.43 1000.07-19.55Q1000.07-23.88 997.94-26.18 995.8-28.48 991.55-28.48L991.55-28.48 983.77-28.48 983.77-31.95 991.7-31.95Q997.9-31.95 1001.07-28.76 1004.25-25.58 1004.25-19.58L1004.25-19.58 1004.25-12.4Q1004.25-6.43 1001.07-3.21 997.9 0 991.7 0L991.7 0ZM985.1 0L981 0 981-31.95 985.1-31.95 985.1 0ZM1022.02 0.6L1022.02 0.6Q1016.02 0.6 1013.16-2.49 1010.3-5.58 1010.3-11.48L1010.3-11.48 1010.3-31.95 1014.45-31.95 1014.45-11.38Q1014.45-7.28 1016.25-5.11 1018.05-2.95 1022.02-2.95L1022.02-2.95Q1026.02-2.95 1027.81-5.11 1029.6-7.28 1029.6-11.38L1029.6-11.38 1029.6-31.95 1033.75-31.95 1033.75-11.48Q1033.75-5.58 1030.9-2.49 1028.05 0.6 1022.02 0.6ZM1051.59 0.58L1051.59 0.58Q1045.67 0.58 1042.71-2.75 1039.74-6.08 1039.74-12.2L1039.74-12.2 1039.74-19.78Q1039.74-25.9 1042.69-29.21 1045.64-32.52 1051.54-32.52L1051.54-32.52Q1053.44-32.52 1055.01-32.18 1056.57-31.83 1057.79-31.28 1059.02-30.73 1059.87-30.13L1059.87-30.13 1060.22-26.28Q1058.74-27.33 1056.76-28.11 1054.77-28.9 1052.09-28.9L1052.09-28.9Q1048.07-28.9 1046.02-26.51 1043.97-24.13 1043.97-19.73L1043.97-19.73 1043.97-12.35Q1043.97-7.98 1046.04-5.56 1048.12-3.15 1052.24-3.15L1052.24-3.15Q1054.89-3.15 1056.93-3.93 1058.97-4.7 1060.47-5.83L1060.47-5.83 1060.12-1.88Q1059.27-1.28 1058.02-0.7 1056.77-0.13 1055.16 0.23 1053.54 0.58 1051.59 0.58ZM1067.89 0L1063.69 0 1073.69-31.95 1080.24-31.95 1090.27 0 1086.07 0 1077.29-29.15 1076.67-29.15 1067.89 0ZM1084.24-9.43L1069.69-9.43 1069.69-12.88 1084.24-12.88 1084.24-9.43ZM1102.96 0L1098.81 0 1098.81-31.28 1102.96-31.28 1102.96 0ZM1112.54-28.48L1089.24-28.48 1089.24-31.95 1112.54-31.95 1112.54-28.48ZM1122.14-31.95L1122.14 0 1117.99 0 1117.99-31.95 1122.14-31.95ZM1140.91 0.6L1140.91 0.6Q1134.86 0.6 1131.71-2.74 1128.56-6.08 1128.56-12.3L1128.56-12.3 1128.56-19.68Q1128.56-25.88 1131.71-29.21 1134.86-32.55 1140.91-32.55L1140.91-32.55Q1146.96-32.55 1150.11-29.21 1153.26-25.88 1153.26-19.68L1153.26-19.68 1153.26-12.3Q1153.26-6.08 1150.11-2.74 1146.96 0.6 1140.91 0.6ZM1140.91-2.88L1140.91-2.88Q1144.96-2.88 1147.01-5.29 1149.06-7.7 1149.06-12.13L1149.06-12.13 1149.06-19.85Q1149.06-24.28 1147.01-26.68 1144.96-29.08 1140.91-29.08L1140.91-29.08Q1136.88-29.08 1134.83-26.68 1132.78-24.28 1132.78-19.85L1132.78-19.85 1132.78-12.13Q1132.78-7.7 1134.83-5.29 1136.88-2.88 1140.91-2.88ZM1159.66-31.95L1165.96-31.95 1178.93-4.45 1179.23-4.45 1179.06-18.4 1179.06-31.95 1183.11-31.95 1183.11 0 1176.96 0 1163.83-27.73 1163.53-27.73 1163.71-13.13 1163.71 0 1159.66 0 1159.66-31.95Z" opacity="1" transform="matrix(1,0,0,1,0,0)" fill="#9a3412" class="slogan-text-1" data-fill-palette-color="secondary" id="text-1"></path></svg></g></svg></g></svg></g></svg></g><g transform="matrix(1,0,0,1,152.63481627350194,0)"><svg viewBox="0 0 90.25036745299602 90.25036745299602" height="90.25036745299602" width="90.25036745299602"><g><svg xmlns="http://www.w3.org/2000/svg" xmlns:xlink="http://www.w3.org/1999/xlink" xml:space="preserve" style="shape-rendering:geometricPrecision;text-rendering:geometricPrecision;image-rendering:optimizeQuality;" viewBox="0 0 6 6" x="0" y="0" fill-rule="evenodd" clip-rule="evenodd" id="icon-0" width="90.25036745299602" height="90.25036745299602" class="icon-icon-0" data-fill-palette-color="accent"><g fill="#9a3412" data-fill-palette-color="accent"><g fill="#9a3412" data-fill-palette-color="accent"><path class="" d="M2.86 2.323L2.866 2.32C2.902 2.286 2.945 2.261 2.988 2.235A1 1 0 0 0 3.126 2.141L3.155 2.116 3.183 2.141C3.227 2.178 3.273 2.207 3.323 2.235 3.364 2.26 3.406 2.282 3.44 2.315A0.06 0.06 0 0 0 3.471 2.332H3.476A0.7 0.7 0 0 1 3.622 2.359 1 1 0 0 0 3.787 2.391L3.824 2.394 3.827 2.43A1 1 0 0 0 3.859 2.596C3.87 2.643 3.885 2.689 3.886 2.738 3.886 2.748 3.889 2.759 3.895 2.768L3.899 2.772 3.949 2.831 4.068 2.984 4.094 3.01 4.125 3.04 4.095 3.07A0.8 0.8 0 0 0 3.983 3.231C3.958 3.27 3.936 3.312 3.903 3.347L3.887 3.374V3.383A0.7 0.7 0 0 1 3.858 3.529 1 1 0 0 0 3.827 3.694L3.824 3.73 3.787 3.734A1 1 0 0 0 3.622 3.766 1 1 0 0 1 3.482 3.793L3.452 3.8 3.445 3.806A0.7 0.7 0 0 1 3.323 3.89 1 1 0 0 0 3.183 3.984L3.156 4.009 3.127 3.984A1 1 0 0 0 2.987 3.89C2.948 3.865 2.906 3.843 2.87 3.81L2.844 3.794H2.835A0.7 0.7 0 0 1 2.69 3.765 1 1 0 0 0 2.524 3.734L2.487 3.731 2.484 3.694A1 1 0 0 0 2.452 3.529C2.44 3.483 2.427 3.438 2.425 3.39L2.417 3.36 2.412 3.352A0.7 0.7 0 0 1 2.328 3.23 1 1 0 0 0 2.234 3.091L2.209 3.063 2.234 3.034A1 1 0 0 0 2.328 2.895C2.352 2.854 2.375 2.812 2.408 2.777L2.424 2.75V2.742A0.7 0.7 0 0 1 2.453 2.596 1 1 0 0 0 2.484 2.431L2.487 2.394 2.524 2.39A1 1 0 0 0 2.689 2.359C2.736 2.347 2.782 2.333 2.83 2.332A0.05 0.05 0 0 0 2.86 2.323M3.622 2.804L3.566 2.751 3.483 2.674A1 1 0 0 0 3.393 2.6 0.2 0.2 0 0 0 3.338 2.57H2.971A0.05 0.05 0 0 0 2.937 2.585L2.68 2.84C2.677 2.847 2.675 2.855 2.67 2.861L2.663 2.886V3.246A0.05 0.05 0 0 0 2.677 3.282L2.933 3.537 2.954 3.546 2.98 3.556H3.339A0.05 0.05 0 0 0 3.375 3.54L3.634 3.281A0.05 0.05 0 0 0 3.648 3.247V2.878C3.648 2.844 3.638 2.831 3.621 2.804" fill="#9a3412" data-fill-palette-color="accent"></path><polygon class="" points="3.31979,3.45942 2.99099,3.45942 2.75854,3.22696 2.75853,2.89817 2.991,2.66571 3.31978,2.66571 3.55224,2.89817 3.55224,3.22696 " fill="#9a3412" data-fill-palette-color="accent"></polygon><path class="" d="M4.085 1.319A0.42 0.42 0 0 0 4.41 1.642L4.444 1.649V4.377L4.409 4.384A0.42 0.42 0 0 0 4.085 4.707L4.078 4.742H2.233L2.225 4.707A0.42 0.42 0 0 0 1.902 4.384L1.867 4.377V1.649L1.902 1.642A0.42 0.42 0 0 0 2.225 1.319L2.233 1.284H4.078zM3.122 4.116A0.05 0.05 0 0 0 3.19 4.116L3.196 4.107C3.245 4.044 3.304 4.012 3.371 3.972A1 1 0 0 0 3.487 3.896L3.497 3.888 3.51 3.887A1 1 0 0 0 3.646 3.858 1.4 1.4 0 0 1 3.83 3.826 0.1 0.1 0 0 1 3.88 3.83C3.91 3.827 3.927 3.8 3.924 3.773 3.913 3.693 3.932 3.628 3.95 3.553A1 1 0 0 0 3.98 3.417L3.981 3.404 3.989 3.394A1 1 0 0 0 4.065 3.278 1.4 1.4 0 0 1 4.171 3.126 0.1 0.1 0 0 1 4.211 3.094 0.05 0.05 0 0 0 4.222 3.063L4.215 3.037A1 1 0 0 0 4.147 2.927 4 4 0 0 0 3.989 2.731L3.981 2.721 3.979 2.708A1 1 0 0 0 3.951 2.572 1.4 1.4 0 0 1 3.92 2.387 0.1 0.1 0 0 1 3.923 2.337 0.05 0.05 0 0 0 3.903 2.302 0.05 0.05 0 0 0 3.867 2.295C3.786 2.305 3.72 2.286 3.646 2.267A1 1 0 0 0 3.51 2.239L3.497 2.237 3.487 2.23A1 1 0 0 0 3.371 2.153C3.305 2.113 3.245 2.083 3.197 2.019 3.185 2.003 3.166 1.991 3.145 1.996A0.05 0.05 0 0 0 3.115 2.017C3.065 2.08 3.005 2.113 2.939 2.153A1 1 0 0 0 2.824 2.229L2.814 2.237 2.8 2.24A1 1 0 0 0 2.665 2.267C2.622 2.277 2.57 2.28 2.527 2.286A1 1 0 0 0 2.43 2.3 0.06 0.06 0 0 0 2.394 2.321C2.372 2.351 2.372 2.415 2.371 2.451A0.5 0.5 0 0 1 2.36 2.572 1 1 0 0 0 2.33 2.708V2.721L2.321 2.73A1 1 0 0 0 2.246 2.847 0.6 0.6 0 0 1 2.106 3.026L2.102 3.029C2.08 3.051 2.087 3.085 2.11 3.103 2.173 3.153 2.207 3.212 2.246 3.278A1 1 0 0 0 2.322 3.394L2.33 3.404 2.331 3.417A1 1 0 0 0 2.36 3.553C2.38 3.63 2.395 3.698 2.387 3.778V3.784C2.387 3.798 2.394 3.811 2.405 3.82 2.416 3.83 2.431 3.832 2.445 3.83 2.525 3.82 2.59 3.839 2.665 3.858 2.71 3.87 2.755 3.881 2.8 3.887H2.814L2.824 3.897C2.86 3.926 2.9 3.949 2.94 3.972A0.6 0.6 0 0 1 3.118 4.112z" fill="#9a3412" data-fill-palette-color="accent"></path><path class="" d="M1.438 5.17V0.856H4.873V5.17zM4.125 4.838A0.05 0.05 0 0 0 4.173 4.79 0.32 0.32 0 0 1 4.492 4.472 0.05 0.05 0 0 0 4.54 4.423V1.603A0.05 0.05 0 0 0 4.492 1.553 0.32 0.32 0 0 1 4.173 1.236 0.05 0.05 0 0 0 4.125 1.188H2.185A0.05 0.05 0 0 0 2.139 1.236 0.32 0.32 0 0 1 1.819 1.554 0.05 0.05 0 0 0 1.771 1.602V4.423A0.05 0.05 0 0 0 1.82 4.472 0.317 0.317 0 0 1 2.138 4.79C2.138 4.817 2.159 4.838 2.186 4.838z" fill="#9a3412" data-fill-palette-color="accent"></path><path class="" d="M5.079 5.969V5.972H1.542L1.595 5.902A0.47 0.47 0 0 0 1.688 5.619V5.599A0.47 0.47 0 0 0 1.595 5.337L1.542 5.266H5.036A0.352 0.352 0 0 1 5.285 5.868 0.35 0.35 0 0 1 5.079 5.968M2.792 5.619C2.792 5.645 2.814 5.667 2.84 5.667H5.036A0.048 0.048 0 1 0 5.036 5.57H2.84A0.05 0.05 0 0 0 2.792 5.62" fill="#9a3412" data-fill-palette-color="accent"></path><path class="" d="M5.021 0.856H5.036A0.35 0.35 0 0 1 5.388 1.21V5.327L5.318 5.27A0.45 0.45 0 0 0 5.036 5.17H4.969V0.855H5.014z" fill="#9a3412" data-fill-palette-color="accent"></path></g></g><rect class="" width="6.82666" height="6.82666" fill="none"></rect></svg></g></svg></g><g></g></svg></g><defs></defs></svg><rect width="395.5199999999999" height="159.80124965414393" fill="none" stroke="none" visibility="hidden"></rect></g></svg></g></svg>