<svg xmlns="http://www.w3.org/2000/svg" version="1.1" xmlns:xlink="http://www.w3.org/1999/xlink" xmlns:svgjs="http://svgjs.dev/svgjs" width="2000" height="348" viewBox="0 0 2000 348"><g transform="matrix(1,0,0,1,-1.2121212121212466,-0.5326072124033772)"><svg viewBox="0 0 396 69" data-background-color="#ffffff" preserveAspectRatio="xMidYMid meet" height="348" width="2000" xmlns="http://www.w3.org/2000/svg" xmlns:xlink="http://www.w3.org/1999/xlink"><g id="tight-bounds" transform="matrix(1,0,0,1,0.2400000000000091,0.10560315418342725)"><svg viewBox="0 0 395.52 68.78879369163316" height="68.78879369163316" width="395.52"><g><svg viewBox="0 0 490.62924259646354 85.33018241315322" height="68.78879369163316" width="395.52"><g transform="matrix(1,0,0,1,95.10924259646355,11.793100463757067)"><svg viewBox="0 0 395.52 61.74398148563909" height="61.74398148563909" width="395.52"><g id="textblocktransform"><svg viewBox="0 0 395.52 61.74398148563909" height="61.74398148563909" width="395.52" id="textblock"><g><svg viewBox="0 0 395.52 41.423355967189956" height="41.423355967189956" width="395.52"><g transform="matrix(1,0,0,1,0,0)"><svg width="395.52" viewBox="2.2 -35.86 449.40000000000003 47.07" height="41.423355967189956" data-palette-color="#9a3412"><path d="M27.56 11.13L27.56 11.13Q27.25 11.21 26.93 11.21L26.93 11.21Q24 11.21 21.36 9.88 18.73 8.54 17.02 6.1 15.31 3.66 15.21 0.32L15.21 0.32Q9.2-0.66 5.7-4.99 2.2-9.33 2.2-17.04L2.2-17.04Q2.2-26.39 6.76-30.99 11.33-35.6 19.48-35.6L19.48-35.6Q27.12-35.6 31.57-31.09 36.01-26.59 36.01-17.75L36.01-17.75Q36.01-9.94 32.79-5.53 29.57-1.12 23.85 0.12L23.85 0.12Q23.95 2.25 25.06 3.06 26.17 3.88 27.83 4.2L27.83 4.2Q28.39 4.3 28.72 4.47 29.05 4.64 29.42 5.08L29.42 5.08Q30.32 6.37 30.98 8.08L30.98 8.08Q31.18 8.54 31.18 8.84L31.18 8.84Q31.18 9.28 30.69 9.64L30.69 9.64Q29.79 10.3 28.92 10.66 28.05 11.01 27.56 11.13ZM19.07-5.98L19.07-5.98Q23.46-5.98 25.59-9.13 27.71-12.28 27.71-17.31L27.71-17.31Q27.71-23.14 25.71-26.07 23.71-29 19.26-29L19.26-29Q10.5-29 10.5-17.46L10.5-17.46Q10.5-12.3 12.61-9.14 14.72-5.98 19.07-5.98ZM56.27 0.59L56.27 0.59Q51.68 0.59 48.45-0.61 45.21-1.81 43.52-4.81 41.82-7.81 41.82-13.23L41.82-13.23 41.82-31.1Q41.82-31.81 42.06-32.18L42.06-32.18Q43.16-33.79 45.14-35.57L45.14-35.57Q45.51-35.86 45.77-35.86L45.77-35.86Q46.07-35.86 46.38-35.57L46.38-35.57Q47.46-34.64 48.19-33.8 48.92-32.96 49.46-32.18L49.46-32.18Q49.7-31.79 49.7-31.1L49.7-31.1 49.7-14.45Q49.7-10.96 50.45-9.14 51.19-7.32 52.66-6.67 54.12-6.01 56.27-6.01L56.27-6.01Q58.47-6.01 59.93-6.67 61.4-7.32 62.13-9.14 62.86-10.96 62.86-14.45L62.86-14.45 62.86-31.1Q62.86-31.81 63.11-32.18L63.11-32.18Q64.21-33.79 66.18-35.57L66.18-35.57Q66.55-35.86 66.82-35.86L66.82-35.86Q67.11-35.86 67.43-35.57L67.43-35.57Q68.5-34.64 69.24-33.8 69.97-32.96 70.51-32.18L70.51-32.18Q70.75-31.79 70.75-31.1L70.75-31.1 70.75-13.23Q70.75-7.81 68.89-4.81 67.04-1.81 63.78-0.61 60.52 0.59 56.27 0.59ZM86.15-25.93L86.15-1.29Q86.15-0.56 85.85-0.28 85.54 0 84.81 0L84.81 0 79.61 0Q78.88 0 78.57-0.28 78.27-0.56 78.27-1.29L78.27-1.29 78.27-28.47Q78.27-30.91 78.72-32.34 79.17-33.76 80.48-34.39 81.78-35.01 84.3-35.01L84.3-35.01 90.77-35.01Q103.51-35.01 103.51-25.22L103.51-25.22Q103.51-22.24 102.51-20.34 101.51-18.43 100.02-17.37 98.53-16.31 97.09-15.77L97.09-15.77 97.09-15.65Q98.73-14.58 100.2-12.83 101.68-11.08 102.88-9.05 104.07-7.01 104.9-5.02 105.73-3.03 106.05-1.46L106.05-1.46Q106.2-0.73 106.06-0.37 105.93 0 105.22 0L105.22 0 99.58 0Q98.95 0 98.47-0.27 97.99-0.54 97.6-1.51L97.6-1.51Q95.75-6.18 93.33-9.12 90.91-12.06 88.67-13.84L88.67-13.84Q87.23-14.99 87.23-15.48L87.23-15.48Q87.23-15.87 87.69-16.55L87.69-16.55Q87.98-16.97 88.54-17.55 89.11-18.14 89.52-18.43L89.52-18.43Q89.94-18.73 90.19-18.8 90.45-18.87 90.99-18.87L90.99-18.87Q92.79-18.87 94-20.12 95.21-21.36 95.21-24.05L95.21-24.05Q95.21-26.59 93.93-27.77 92.65-28.96 90.4-28.96L90.4-28.96 88.94-28.96Q87.32-28.96 86.74-28.27 86.15-27.59 86.15-25.93L86.15-25.93ZM129.73-33.08L129.73-33.08Q131.07-31.2 132.48-28.23 133.88-25.27 135.2-21.73 136.52-18.19 137.58-14.49 138.64-10.79 139.32-7.37 140.01-3.96 140.1-1.29L140.1-1.29Q140.13 0 138.93 0L138.93 0 133.02 0Q131.88 0 131.83-1.15L131.83-1.15Q131.73-3.88 130.95-7.79L130.95-7.79 117.62-7.79Q116.94-3.98 116.84-1.15L116.84-1.15Q116.79 0 115.59 0L115.59 0 109.81 0Q109.37 0 109.07-0.26 108.78-0.51 108.81-1.15L108.81-1.15Q108.93-3.86 109.6-7.31 110.27-10.77 111.35-14.48 112.42-18.19 113.74-21.74 115.06-25.29 116.47-28.25 117.89-31.2 119.23-33.08L119.23-33.08Q119.94-34.08 120.73-34.55 121.53-35.01 122.7-35.01L122.7-35.01 126.21-35.01Q127.41-35.01 128.22-34.55 129.02-34.08 129.73-33.08ZM124.36-27.29L124.21-27.29Q122.6-24.73 121.26-21.17 119.91-17.6 118.94-13.84L118.94-13.84 129.53-13.84Q128.51-17.6 127.17-21.17 125.82-24.73 124.36-27.29L124.36-27.29ZM153.29-25.29L153.29-1.29Q153.29-0.56 153.01-0.28 152.72 0 152.02 0L152.02 0 147.11 0Q146.43 0 146.13-0.28 145.84-0.56 145.84-1.29L145.84-1.29 145.84-32.23Q145.84-33.67 146.4-34.34 146.96-35.01 148.38-35.01L148.38-35.01 150.65-35.01Q151.89-35.01 153.01-34.68 154.12-34.35 155.37-33.2 156.63-32.06 158.3-29.65 159.98-27.25 162.34-23.1L162.34-23.1Q164.61-19.14 165.99-16.77 167.37-14.4 168.13-13.16 168.89-11.91 169.26-11.38 169.64-10.84 169.89-10.5L169.89-10.5 169.89-31.1Q169.89-31.81 170.11-32.18L170.11-32.18Q171.16-33.79 173.01-35.57L173.01-35.57Q173.38-35.86 173.62-35.86L173.62-35.86Q173.89-35.86 174.21-35.57L174.21-35.57Q175.21-34.64 175.91-33.8 176.6-32.96 177.11-32.18L177.11-32.18Q177.33-31.79 177.33-31.1L177.33-31.1 177.33-2.03Q177.33-0.93 176.92-0.46 176.5 0 175.41 0L175.41 0 173.06 0Q172.01 0 170.91-0.35 169.81-0.71 168.42-1.97 167.03-3.22 165.13-5.88 163.22-8.54 160.54-13.16L160.54-13.16Q158.27-17.09 156.91-19.41 155.56-21.73 154.85-22.91 154.14-24.1 153.82-24.57 153.51-25.05 153.29-25.29L153.29-25.29ZM208.41 0.59L208.41 0.59Q205.31 0.59 203.27 0.02 201.23-0.54 200-1.38 198.76-2.22 198.11-3.05L198.11-3.05Q197.89-3.37 197.71-3.66 197.54-3.96 197.47-4.32L197.47-4.32Q197.37-4.81 197.28-5.6 197.18-6.4 197.25-7.45L197.25-7.45Q197.28-7.89 197.42-8.06L197.42-8.06Q197.59-8.25 197.98-8.35L197.98-8.35Q198.69-8.52 199.83-8.65 200.96-8.79 201.45-8.79L201.45-8.79Q201.96-8.79 202.28-8.59 202.6-8.4 203.04-7.93L203.04-7.93Q203.53-7.42 204.72-6.63 205.92-5.83 208.41-5.83L208.41-5.83Q210.8-5.83 212.02-6.84 213.24-7.84 213.24-9.62L213.24-9.62Q213.24-10.57 212.67-11.41 212.09-12.26 210.58-13.1 209.07-13.94 206.26-14.87L206.26-14.87Q201.62-16.43 199.57-18.75 197.52-21.07 197.52-25.2L197.52-25.2Q197.52-28.61 199.18-30.91 200.84-33.2 203.77-34.38 206.7-35.55 210.53-35.55L210.53-35.55Q213.49-35.55 215.43-34.85 217.37-34.16 218.44-33.29 219.52-32.42 219.83-31.88L219.83-31.88Q220.03-31.57 220.09-31.41 220.15-31.25 220.18-30.98L220.18-30.98Q220.25-30.22 220.22-29.3 220.2-28.37 220.05-27.2L220.05-27.2Q219.98-26.81 219.78-26.66L219.78-26.66Q219.61-26.54 219.25-26.54L219.25-26.54Q216.88-26.49 215.59-26.78L215.59-26.78Q215.07-26.9 214.9-27.03 214.73-27.15 214.46-27.42L214.46-27.42Q214.07-27.88 213.23-28.5 212.39-29.13 210.53-29.13L210.53-29.13Q207.97-29.13 206.89-27.97 205.82-26.81 205.82-25.37L205.82-25.37Q205.82-23.66 207.41-22.69 208.99-21.73 212.41-20.51L212.41-20.51Q215.27-19.51 217.32-18.33 219.37-17.16 220.46-15.33 221.54-13.5 221.54-10.5L221.54-10.5Q221.54-6.76 219.82-4.3 218.1-1.83 215.13-0.62 212.17 0.59 208.41 0.59ZM242.34-5.98L242.34-5.98Q244.12-5.98 245.14-6.35 246.15-6.71 246.71-7.25 247.27-7.79 247.69-8.33L247.69-8.33Q248.08-8.81 248.33-9.06 248.59-9.3 249.05-9.4L249.05-9.4Q249.45-9.52 250.31-9.56 251.18-9.59 252.05-9.59 252.91-9.59 253.25-9.55L253.25-9.55Q253.77-9.52 253.96-9.35L253.96-9.35Q254.16-9.18 254.21-8.62L254.21-8.62Q254.28-7.84 254.29-6.76 254.3-5.69 254.25-4.91L254.25-4.91Q254.23-4.66 254.17-4.49 254.11-4.32 253.91-3.98L253.91-3.98Q253.67-3.59 252.96-2.84 252.25-2.1 250.89-1.31 249.52-0.51 247.36 0.05 245.2 0.61 242.05 0.61L242.05 0.61Q238.68 0.61 235.75-0.26 232.82-1.12 230.61-3.17 228.4-5.22 227.17-8.72 225.93-12.21 225.93-17.43L225.93-17.43Q225.93-23.24 227.95-27.31 229.96-31.37 233.67-33.5 237.38-35.62 242.46-35.62L242.46-35.62Q246.03-35.62 248.19-34.89 250.35-34.16 251.47-33.17 252.59-32.18 253.06-31.45L253.06-31.45Q253.23-31.18 253.3-30.97 253.38-30.76 253.4-30.32L253.4-30.32Q253.47-29.74 253.44-28.61 253.4-27.49 253.25-26.64L253.25-26.64Q253.16-26.1 252.94-25.93L252.94-25.93Q252.84-25.83 252.59-25.76 252.35-25.68 251.86-25.68L251.86-25.68Q251.08-25.68 250.1-25.74 249.13-25.81 248.64-25.88L248.64-25.88Q248.05-25.98 247.79-26.16 247.52-26.34 247.25-26.73L247.25-26.73Q246.81-27.37 245.73-28.2 244.66-29.03 242.19-29.03L242.19-29.03Q238.73-29.03 236.48-26.35 234.24-23.68 234.24-17.7L234.24-17.7Q234.24-11.74 236.59-8.86 238.95-5.98 242.34-5.98ZM282.06-21.04L282.06-31.1Q282.06-31.81 282.3-32.18L282.3-32.18Q283.4-33.79 285.38-35.57L285.38-35.57Q285.75-35.86 286.02-35.86L286.02-35.86Q286.31-35.86 286.63-35.57L286.63-35.57Q287.7-34.64 288.43-33.8 289.16-32.96 289.7-32.18L289.7-32.18Q289.95-31.79 289.95-31.1L289.95-31.1 289.95-1.29Q289.95-0.56 289.64-0.28 289.34 0 288.6 0L288.6 0 283.4 0Q282.67 0 282.37-0.28 282.06-0.56 282.06-1.29L282.06-1.29 282.06-14.26 267.56-14.26 267.56-1.29Q267.56-0.56 267.25-0.28 266.95 0 266.22 0L266.22 0 261.02 0Q260.28 0 259.98-0.28 259.67-0.56 259.67-1.29L259.67-1.29 259.67-33.72Q259.67-34.45 259.98-34.73 260.28-35.01 261.02-35.01L261.02-35.01 266.22-35.01Q266.95-35.01 267.25-34.73 267.56-34.45 267.56-33.72L267.56-33.72 267.56-21.04 282.06-21.04ZM312.77 0.61L312.77 0.61Q307.69 0.61 303.93-1.34 300.17-3.3 298.11-7.23 296.05-11.16 296.05-17.04L296.05-17.04Q296.05-26.39 300.61-30.99 305.18-35.6 313.33-35.6L313.33-35.6Q320.97-35.6 325.42-31.09 329.86-26.59 329.86-17.75L329.86-17.75Q329.86-11.5 327.79-7.43 325.71-3.37 321.88-1.38 318.04 0.61 312.77 0.61ZM312.92-5.98L312.92-5.98Q317.31-5.98 319.44-9.13 321.56-12.28 321.56-17.31L321.56-17.31Q321.56-23.14 319.56-26.07 317.56-29 313.11-29L313.11-29Q304.35-29 304.35-17.46L304.35-17.46Q304.35-12.3 306.46-9.14 308.57-5.98 312.92-5.98ZM354.13 0L341.99 0Q339.48 0 338.17-0.63 336.86-1.27 336.41-2.71 335.96-4.15 335.96-6.54L335.96-6.54 335.96-31.1Q335.96-31.81 336.21-32.18L336.21-32.18Q337.3-33.79 339.28-35.57L339.28-35.57Q339.65-35.86 339.92-35.86L339.92-35.86Q340.21-35.86 340.53-35.57L340.53-35.57Q341.6-34.64 342.33-33.8 343.07-32.96 343.6-32.18L343.6-32.18Q343.85-31.79 343.85-31.1L343.85-31.1 343.85-9.45Q343.85-7.81 344.43-7.1 345.02-6.4 346.63-6.4L346.63-6.4 354.13-6.42Q354.71-6.42 355-6.23L355-6.23Q355.64-5.79 356.32-5.18 357.01-4.57 357.76-3.71L357.76-3.71Q358.01-3.39 358.01-3.2L358.01-3.2Q358.01-2.98 357.76-2.71L357.76-2.71Q357.01-1.86 356.32-1.25 355.64-0.63 355-0.2L355-0.2Q354.66 0 354.13 0L354.13 0ZM380.27-33.08L380.27-33.08Q381.61-31.2 383.02-28.23 384.42-25.27 385.74-21.73 387.06-18.19 388.12-14.49 389.18-10.79 389.87-7.37 390.55-3.96 390.65-1.29L390.65-1.29Q390.67 0 389.47 0L389.47 0 383.57 0Q382.42 0 382.37-1.15L382.37-1.15Q382.27-3.88 381.49-7.79L381.49-7.79 368.16-7.79Q367.48-3.98 367.38-1.15L367.38-1.15Q367.33 0 366.13 0L366.13 0 360.35 0Q359.91 0 359.62-0.26 359.32-0.51 359.35-1.15L359.35-1.15Q359.47-3.86 360.14-7.31 360.81-10.77 361.89-14.48 362.96-18.19 364.28-21.74 365.6-25.29 367.01-28.25 368.43-31.2 369.77-33.08L369.77-33.08Q370.48-34.08 371.27-34.55 372.07-35.01 373.24-35.01L373.24-35.01 376.75-35.01Q377.95-35.01 378.76-34.55 379.56-34.08 380.27-33.08ZM374.9-27.29L374.75-27.29Q373.14-24.73 371.8-21.17 370.46-17.6 369.48-13.84L369.48-13.84 380.08-13.84Q379.05-17.6 377.71-21.17 376.36-24.73 374.9-27.29L374.9-27.29ZM404.27-25.93L404.27-1.29Q404.27-0.56 403.96-0.28 403.66 0 402.92 0L402.92 0 397.72 0Q396.99 0 396.69-0.28 396.38-0.56 396.38-1.29L396.38-1.29 396.38-28.47Q396.38-30.91 396.83-32.34 397.28-33.76 398.59-34.39 399.9-35.01 402.41-35.01L402.41-35.01 408.88-35.01Q421.63-35.01 421.63-25.22L421.63-25.22Q421.63-22.24 420.62-20.34 419.62-18.43 418.13-17.37 416.64-16.31 415.2-15.77L415.2-15.77 415.2-15.65Q416.84-14.58 418.32-12.83 419.79-11.08 420.99-9.05 422.19-7.01 423.02-5.02 423.85-3.03 424.16-1.46L424.16-1.46Q424.31-0.73 424.18-0.37 424.04 0 423.33 0L423.33 0 417.69 0Q417.06 0 416.58-0.27 416.11-0.54 415.72-1.51L415.72-1.51Q413.86-6.18 411.44-9.12 409.03-12.06 406.78-13.84L406.78-13.84Q405.34-14.99 405.34-15.48L405.34-15.48Q405.34-15.87 405.8-16.55L405.8-16.55Q406.1-16.97 406.66-17.55 407.22-18.14 407.64-18.43L407.64-18.43Q408.05-18.73 408.31-18.8 408.56-18.87 409.1-18.87L409.1-18.87Q410.91-18.87 412.12-20.12 413.32-21.36 413.32-24.05L413.32-24.05Q413.32-26.59 412.04-27.77 410.76-28.96 408.51-28.96L408.51-28.96 407.05-28.96Q405.44-28.96 404.85-28.27 404.27-27.59 404.27-25.93L404.27-25.93ZM438.47 0.59L438.47 0.59Q435.37 0.59 433.33 0.02 431.29-0.54 430.06-1.38 428.82-2.22 428.17-3.05L428.17-3.05Q427.95-3.37 427.78-3.66 427.6-3.96 427.53-4.32L427.53-4.32Q427.43-4.81 427.34-5.6 427.24-6.4 427.31-7.45L427.31-7.45Q427.34-7.89 427.48-8.06L427.48-8.06Q427.65-8.25 428.04-8.35L428.04-8.35Q428.75-8.52 429.89-8.65 431.02-8.79 431.51-8.79L431.51-8.79Q432.02-8.79 432.34-8.59 432.66-8.4 433.1-7.93L433.1-7.93Q433.59-7.42 434.78-6.63 435.98-5.83 438.47-5.83L438.47-5.83Q440.86-5.83 442.08-6.84 443.3-7.84 443.3-9.62L443.3-9.62Q443.3-10.57 442.73-11.41 442.16-12.26 440.64-13.1 439.13-13.94 436.32-14.87L436.32-14.87Q431.68-16.43 429.63-18.75 427.58-21.07 427.58-25.2L427.58-25.2Q427.58-28.61 429.24-30.91 430.9-33.2 433.83-34.38 436.76-35.55 440.59-35.55L440.59-35.55Q443.55-35.55 445.49-34.85 447.43-34.16 448.5-33.29 449.58-32.42 449.89-31.88L449.89-31.88Q450.09-31.57 450.15-31.41 450.21-31.25 450.24-30.98L450.24-30.98Q450.31-30.22 450.28-29.3 450.26-28.37 450.11-27.2L450.11-27.2Q450.04-26.81 449.85-26.66L449.85-26.66Q449.67-26.54 449.31-26.54L449.31-26.54Q446.94-26.49 445.65-26.78L445.65-26.78Q445.13-26.9 444.96-27.03 444.79-27.15 444.52-27.42L444.52-27.42Q444.13-27.88 443.29-28.5 442.45-29.13 440.59-29.13L440.59-29.13Q438.03-29.13 436.95-27.97 435.88-26.81 435.88-25.37L435.88-25.37Q435.88-23.66 437.47-22.69 439.05-21.73 442.47-20.51L442.47-20.51Q445.33-19.51 447.38-18.33 449.43-17.16 450.52-15.33 451.6-13.5 451.6-10.5L451.6-10.5Q451.6-6.76 449.88-4.3 448.16-1.83 445.19-0.62 442.23 0.59 438.47 0.59Z" opacity="1" transform="matrix(1,0,0,1,0,0)" fill="#9a3412" class="wordmark-text-0" data-fill-palette-color="primary" id="text-0"></path></svg></g></svg></g><g transform="matrix(1,0,0,1,0,51.20241615050029)"><svg viewBox="0 0 375.74399999999997 10.541565335138795" height="10.541565335138795" width="375.74399999999997"><g transform="matrix(1,0,0,1,0,0)"><svg width="375.74399999999997" viewBox="1.63 -32.55 1181.4799999999998 33.15" height="10.541565335138795" data-palette-color="#9a3412"><path d="M15.35 0L11.2 0 11.2-31.28 15.35-31.28 15.35 0ZM24.93-28.48L1.63-28.48 1.63-31.95 24.93-31.95 24.93-28.48ZM53.22 0L48.95 0 48.05-6.55Q47.8-8.4 47.2-9.76 46.6-11.13 45.36-11.9 44.12-12.68 41.85-12.68L41.85-12.68 33.17-12.7 33.17-15.98 42.45-16Q45.72-16 47.12-17.61 48.52-19.23 48.52-22L48.52-22 48.52-22.75Q48.52-25.5 47.1-27.01 45.67-28.53 42.35-28.53L42.35-28.53 33.05-28.53 33.05-31.95 42.9-31.95Q48.05-31.95 50.39-29.69 52.72-27.43 52.72-23.45L52.72-23.45 52.72-22.6Q52.72-19.48 51.25-17.49 49.77-15.5 46.35-15.08L46.35-15.08 46.35-14.58 44.57-15.2Q47.35-15 48.86-13.99 50.37-12.98 51.07-11.23 51.77-9.47 52.15-7.03L52.15-7.03 53.22 0ZM34.42 0L30.32 0 30.32-31.95 34.4-31.95 34.4-14.88 34.42-13.3 34.42 0ZM60.75 0L56.55 0 66.55-31.95 73.1-31.95 83.12 0 78.92 0 70.15-29.15 69.52-29.15 60.75 0ZM77.1-9.43L62.55-9.43 62.55-12.88 77.1-12.88 77.1-9.43ZM88.12-31.95L94.42-31.95 107.39-4.45 107.69-4.45 107.52-18.4 107.52-31.95 111.57-31.95 111.57 0 105.42 0 92.29-27.73 91.99-27.73 92.17-13.13 92.17 0 88.12 0 88.12-31.95ZM128.02 0.58L128.02 0.58Q125.72 0.58 123.8 0.2 121.89-0.18 120.39-0.73 118.89-1.28 117.89-1.83L117.89-1.83 117.47-5.95Q119.39-4.8 122-3.94 124.62-3.08 127.69-3.08L127.69-3.08Q131.39-3.08 133.17-4.39 134.94-5.7 134.94-8.33L134.94-8.33 134.94-8.72Q134.94-10.45 134.24-11.55 133.54-12.65 131.88-13.4 130.22-14.15 127.37-14.8L127.37-14.8Q123.77-15.65 121.6-16.81 119.44-17.98 118.48-19.73 117.52-21.48 117.52-24.08L117.52-24.08 117.52-24.3Q117.52-28.23 120.09-30.36 122.67-32.5 127.89-32.5L127.89-32.5Q131.32-32.5 133.73-31.8 136.14-31.1 137.67-30.25L137.67-30.25 138.04-26.45Q136.27-27.5 133.9-28.24 131.54-28.98 128.49-28.98L128.49-28.98Q126.07-28.98 124.57-28.4 123.07-27.83 122.39-26.75 121.72-25.68 121.72-24.15L121.72-24.15 121.72-24.05Q121.72-22.5 122.38-21.4 123.04-20.3 124.7-19.5 126.37-18.7 129.44-17.95L129.44-17.95Q132.97-17.13 135.09-16.05 137.22-14.98 138.18-13.25 139.14-11.53 139.14-8.75L139.14-8.75 139.14-8.22Q139.14-3.9 136.35-1.66 133.57 0.58 128.02 0.58ZM149.31 0L145.16 0 145.16-31.95 149.31-31.95 149.31 0ZM163.99-13.38L147.51-13.38 147.51-16.85 163.99-16.85 163.99-13.38ZM164.36-28.48L146.36-28.48 146.36-31.95 164.36-31.95 164.36-28.48ZM181.19 0.6L181.19 0.6Q175.14 0.6 171.99-2.74 168.84-6.08 168.84-12.3L168.84-12.3 168.84-19.68Q168.84-25.88 171.99-29.21 175.14-32.55 181.19-32.55L181.19-32.55Q187.24-32.55 190.39-29.21 193.54-25.88 193.54-19.68L193.54-19.68 193.54-12.3Q193.54-6.08 190.39-2.74 187.24 0.6 181.19 0.6ZM181.19-2.88L181.19-2.88Q185.24-2.88 187.29-5.29 189.34-7.7 189.34-12.13L189.34-12.13 189.34-19.85Q189.34-24.28 187.29-26.68 185.24-29.08 181.19-29.08L181.19-29.08Q177.16-29.08 175.11-26.68 173.06-24.28 173.06-19.85L173.06-19.85 173.06-12.13Q173.06-7.7 175.11-5.29 177.16-2.88 181.19-2.88ZM222.83 0L218.56 0 217.66-6.55Q217.41-8.4 216.81-9.76 216.21-11.13 214.97-11.9 213.73-12.68 211.46-12.68L211.46-12.68 202.78-12.7 202.78-15.98 212.06-16Q215.33-16 216.73-17.61 218.13-19.23 218.13-22L218.13-22 218.13-22.75Q218.13-25.5 216.71-27.01 215.28-28.53 211.96-28.53L211.96-28.53 202.66-28.53 202.66-31.95 212.51-31.95Q217.66-31.95 220-29.69 222.33-27.43 222.33-23.45L222.33-23.45 222.33-22.6Q222.33-19.48 220.86-17.49 219.38-15.5 215.96-15.08L215.96-15.08 215.96-14.58 214.18-15.2Q216.96-15 218.47-13.99 219.98-12.98 220.68-11.23 221.38-9.47 221.76-7.03L221.76-7.03 222.83 0ZM204.03 0L199.93 0 199.93-31.95 204.01-31.95 204.01-14.88 204.03-13.3 204.03 0ZM232.21 0L228.18 0 229.41-31.95 235.83-31.95 243.41-8.85 243.76-8.85 251.33-31.95 257.78-31.95 259.01 0 254.98 0 254.53-13.48 254.11-27.63 253.66-27.63 245.76-3.68 241.43-3.68 233.53-27.63 233.08-27.63 232.63-13.45 232.21 0ZM270.23-31.95L270.23 0 266.08 0 266.08-31.95 270.23-31.95ZM277.83-31.95L284.13-31.95 297.1-4.45 297.4-4.45 297.23-18.4 297.23-31.95 301.28-31.95 301.28 0 295.13 0 282-27.73 281.7-27.73 281.88-13.13 281.88 0 277.83 0 277.83-31.95ZM318.65 0.6L318.65 0.6Q315.02 0.6 312.57-0.86 310.12-2.33 308.89-5.13 307.65-7.93 307.65-11.9L307.65-11.9 307.65-19.45Q307.65-25.75 310.89-29.14 314.12-32.52 320.4-32.52L320.4-32.52Q322.65-32.52 324.49-32.16 326.32-31.8 327.75-31.21 329.17-30.63 330.2-29.98L330.2-29.98 330.57-26.23Q328.85-27.33 326.51-28.15 324.17-28.98 321.1-28.98L321.1-28.98Q316.45-28.98 314.16-26.5 311.87-24.03 311.87-19.38L311.87-19.38 311.87-11.93Q311.87-7.63 313.89-5.29 315.9-2.95 319.92-2.95L319.92-2.95Q321.97-2.95 323.44-3.65 324.9-4.35 325.84-5.5 326.77-6.65 327.2-8.03L327.2-8.03 327.2-15.9 327.87-14.43 320.35-14.43 320.35-17.88 331.25-17.88 331.25-5.25 327.17-5.28Q326.77-3.73 325.8-2.38 324.82-1.03 323.07-0.21 321.32 0.6 318.65 0.6ZM327.2 0L327.37-6.6 331.25-6.6 331.25 0 327.2 0ZM356.37-31.95L356.37 0 352.22 0 352.22-31.95 356.37-31.95ZM354.44 0L354.44-3.53 371.29-3.53 371.29 0 354.44 0ZM380.77-31.95L380.77 0 376.62 0 376.62-31.95 380.77-31.95ZM402.16 0L395.54 0 385.81-31.95 390.16-31.95 398.54-3.15 399.14-3.15 407.54-31.95 411.86-31.95 402.16 0ZM420.96 0L416.86 0 416.86-31.95 420.96-31.95 420.96 0ZM436.79 0L418.09 0 418.09-3.48 436.79-3.48 436.79 0ZM436.26-14.58L419.21-14.58 419.21-18.03 436.26-18.03 436.26-14.58ZM436.64-28.48L418.06-28.48 418.06-31.95 436.64-31.95 436.64-28.48ZM451.91 0.58L451.91 0.58Q449.61 0.58 447.7 0.2 445.78-0.18 444.28-0.73 442.78-1.28 441.78-1.83L441.78-1.83 441.36-5.95Q443.28-4.8 445.9-3.94 448.51-3.08 451.58-3.08L451.58-3.08Q455.28-3.08 457.06-4.39 458.83-5.7 458.83-8.33L458.83-8.33 458.83-8.72Q458.83-10.45 458.13-11.55 457.43-12.65 455.77-13.4 454.11-14.15 451.26-14.8L451.26-14.8Q447.66-15.65 445.5-16.81 443.33-17.98 442.37-19.73 441.41-21.48 441.41-24.08L441.41-24.08 441.41-24.3Q441.41-28.23 443.98-30.36 446.56-32.5 451.78-32.5L451.78-32.5Q455.21-32.5 457.62-31.8 460.03-31.1 461.56-30.25L461.56-30.25 461.93-26.45Q460.16-27.5 457.8-28.24 455.43-28.98 452.38-28.98L452.38-28.98Q449.96-28.98 448.46-28.4 446.96-27.83 446.28-26.75 445.61-25.68 445.61-24.15L445.61-24.15 445.61-24.05Q445.61-22.5 446.27-21.4 446.93-20.3 448.6-19.5 450.26-18.7 453.33-17.95L453.33-17.95Q456.86-17.13 458.98-16.05 461.11-14.98 462.07-13.25 463.03-11.53 463.03-8.75L463.03-8.75 463.03-8.22Q463.03-3.9 460.25-1.66 457.46 0.58 451.91 0.58ZM494 0L487.4 0 480.8-31.95 485.05-31.95 489.7-8.08 490.58-3.48 491.03-3.48 491.88-8.08 496.55-31.13 502.68-31.13 507.35-8.08 508.2-3.48 508.65-3.48 509.55-8.08 514.2-31.95 518.4-31.95 511.83 0 505.28 0 501.58-18.38 499.83-27.7 499.43-27.7 497.65-18.38 494 0ZM528.02-31.95L528.02 0 523.88 0 523.88-31.95 528.02-31.95ZM547.2 0L543.05 0 543.05-31.28 547.2-31.28 547.2 0ZM556.77-28.48L533.47-28.48 533.47-31.95 556.77-31.95 556.77-28.48ZM566.32-31.95L566.32 0 562.17 0 562.17-31.95 566.32-31.95ZM585.62-31.95L585.62 0 581.47 0 581.47-31.95 585.62-31.95ZM564.54-14.73L564.54-18.23 583.12-18.23 583.12-14.73 564.54-14.73ZM618.24 0.6L618.24 0.6Q612.19 0.6 609.04-2.74 605.89-6.08 605.89-12.3L605.89-12.3 605.89-19.68Q605.89-25.88 609.04-29.21 612.19-32.55 618.24-32.55L618.24-32.55Q624.29-32.55 627.44-29.21 630.59-25.88 630.59-19.68L630.59-19.68 630.59-12.3Q630.59-6.08 627.44-2.74 624.29 0.6 618.24 0.6ZM618.24-2.88L618.24-2.88Q622.29-2.88 624.34-5.29 626.39-7.7 626.39-12.13L626.39-12.13 626.39-19.85Q626.39-24.28 624.34-26.68 622.29-29.08 618.24-29.08L618.24-29.08Q614.21-29.08 612.16-26.68 610.11-24.28 610.11-19.85L610.11-19.85 610.11-12.13Q610.11-7.7 612.16-5.29 614.21-2.88 618.24-2.88ZM636.99-31.95L643.29-31.95 656.26-4.45 656.56-4.45 656.39-18.4 656.39-31.95 660.44-31.95 660.44 0 654.29 0 641.16-27.73 640.86-27.73 641.04-13.13 641.04 0 636.99 0 636.99-31.95ZM672.13-31.95L672.13 0 667.98 0 667.98-31.95 672.13-31.95ZM670.21 0L670.21-3.53 687.06-3.53 687.06 0 670.21 0ZM696.53-31.95L696.53 0 692.38 0 692.38-31.95 696.53-31.95ZM704.13-31.95L710.43-31.95 723.4-4.45 723.7-4.45 723.53-18.4 723.53-31.95 727.58-31.95 727.58 0 721.43 0 708.3-27.73 708-27.73 708.18-13.13 708.18 0 704.13 0 704.13-31.95ZM739.23 0L735.13 0 735.13-31.95 739.23-31.95 739.23 0ZM755.05 0L736.35 0 736.35-3.48 755.05-3.48 755.05 0ZM754.53-14.58L737.48-14.58 737.48-18.03 754.53-18.03 754.53-14.58ZM754.9-28.48L736.33-28.48 736.33-31.95 754.9-31.95 754.9-28.48ZM779.37-31.95L779.37 0 775.22 0 775.22-31.95 779.37-31.95ZM795.84 0.58L795.84 0.58Q793.54 0.58 791.63 0.2 789.72-0.18 788.22-0.73 786.72-1.28 785.72-1.83L785.72-1.83 785.29-5.95Q787.22-4.8 789.83-3.94 792.44-3.08 795.52-3.08L795.52-3.08Q799.22-3.08 800.99-4.39 802.77-5.7 802.77-8.33L802.77-8.33 802.77-8.72Q802.77-10.45 802.07-11.55 801.37-12.65 799.71-13.4 798.04-14.15 795.19-14.8L795.19-14.8Q791.59-15.65 789.43-16.81 787.27-17.98 786.31-19.73 785.34-21.48 785.34-24.08L785.34-24.08 785.34-24.3Q785.34-28.23 787.92-30.36 790.49-32.5 795.72-32.5L795.72-32.5Q799.14-32.5 801.56-31.8 803.97-31.1 805.49-30.25L805.49-30.25 805.87-26.45Q804.09-27.5 801.73-28.24 799.37-28.98 796.32-28.98L796.32-28.98Q793.89-28.98 792.39-28.4 790.89-27.83 790.22-26.75 789.54-25.68 789.54-24.15L789.54-24.15 789.54-24.05Q789.54-22.5 790.21-21.4 790.87-20.3 792.53-19.5 794.19-18.7 797.27-17.95L797.27-17.95Q800.79-17.13 802.92-16.05 805.04-14.98 806.01-13.25 806.97-11.53 806.97-8.75L806.97-8.75 806.97-8.22Q806.97-3.9 804.18-1.66 801.39 0.58 795.84 0.58ZM817.14-31.95L817.14 0 812.99 0 812.99-31.95 817.14-31.95ZM815.22 0L815.22-3.53 832.07-3.53 832.07 0 815.22 0ZM839.09 0L834.89 0 844.89-31.95 851.44-31.95 861.46 0 857.26 0 848.49-29.15 847.86-29.15 839.09 0ZM855.44-9.43L840.89-9.43 840.89-12.88 855.44-12.88 855.44-9.43ZM869.96 0L865.94 0 867.16-31.95 873.59-31.95 881.16-8.85 881.51-8.85 889.09-31.95 895.54-31.95 896.76 0 892.74 0 892.29-13.48 891.86-27.63 891.41-27.63 883.51-3.68 879.19-3.68 871.29-27.63 870.84-27.63 870.39-13.45 869.96 0ZM907.98-31.95L907.98 0 903.83 0 903.83-31.95 907.98-31.95ZM926.26 0.58L926.26 0.58Q920.33 0.58 917.37-2.75 914.41-6.08 914.41-12.2L914.41-12.2 914.41-19.78Q914.41-25.9 917.36-29.21 920.31-32.52 926.21-32.52L926.21-32.52Q928.11-32.52 929.67-32.18 931.23-31.83 932.46-31.28 933.68-30.73 934.53-30.13L934.53-30.13 934.88-26.28Q933.41-27.33 931.42-28.11 929.43-28.9 926.76-28.9L926.76-28.9Q922.73-28.9 920.68-26.51 918.63-24.13 918.63-19.73L918.63-19.73 918.63-12.35Q918.63-7.98 920.71-5.56 922.78-3.15 926.91-3.15L926.91-3.15Q929.56-3.15 931.59-3.93 933.63-4.7 935.13-5.83L935.13-5.83 934.78-1.88Q933.93-1.28 932.68-0.7 931.43-0.13 929.82 0.23 928.21 0.58 926.26 0.58ZM958.95 0L954.85 0 954.85-31.95 958.95-31.95 958.95 0ZM974.78 0L956.08 0 956.08-3.48 974.78-3.48 974.78 0ZM974.25-14.58L957.2-14.58 957.2-18.03 974.25-18.03 974.25-14.58ZM974.63-28.48L956.05-28.48 956.05-31.95 974.63-31.95 974.63-28.48ZM991.7 0L983.8 0 983.8-3.5 991.55-3.5Q995.8-3.5 997.94-5.81 1000.07-8.13 1000.07-12.43L1000.07-12.43 1000.07-19.55Q1000.07-23.88 997.94-26.18 995.8-28.48 991.55-28.48L991.55-28.48 983.77-28.48 983.77-31.95 991.7-31.95Q997.9-31.95 1001.07-28.76 1004.25-25.58 1004.25-19.58L1004.25-19.58 1004.25-12.4Q1004.25-6.43 1001.07-3.21 997.9 0 991.7 0L991.7 0ZM985.1 0L981 0 981-31.95 985.1-31.95 985.1 0ZM1022.02 0.6L1022.02 0.6Q1016.02 0.6 1013.16-2.49 1010.3-5.58 1010.3-11.48L1010.3-11.48 1010.3-31.95 1014.45-31.95 1014.45-11.38Q1014.45-7.28 1016.25-5.11 1018.05-2.95 1022.02-2.95L1022.02-2.95Q1026.02-2.95 1027.81-5.11 1029.6-7.28 1029.6-11.38L1029.6-11.38 1029.6-31.95 1033.75-31.95 1033.75-11.48Q1033.75-5.58 1030.9-2.49 1028.05 0.6 1022.02 0.6ZM1051.59 0.58L1051.59 0.58Q1045.67 0.58 1042.71-2.75 1039.74-6.08 1039.74-12.2L1039.74-12.2 1039.74-19.78Q1039.74-25.9 1042.69-29.21 1045.64-32.52 1051.54-32.52L1051.54-32.52Q1053.44-32.52 1055.01-32.18 1056.57-31.83 1057.79-31.28 1059.02-30.73 1059.87-30.13L1059.87-30.13 1060.22-26.28Q1058.74-27.33 1056.76-28.11 1054.77-28.9 1052.09-28.9L1052.09-28.9Q1048.07-28.9 1046.02-26.51 1043.97-24.13 1043.97-19.73L1043.97-19.73 1043.97-12.35Q1043.97-7.98 1046.04-5.56 1048.12-3.15 1052.24-3.15L1052.24-3.15Q1054.89-3.15 1056.93-3.93 1058.97-4.7 1060.47-5.83L1060.47-5.83 1060.12-1.88Q1059.27-1.28 1058.02-0.7 1056.77-0.13 1055.16 0.23 1053.54 0.58 1051.59 0.58ZM1067.89 0L1063.69 0 1073.69-31.95 1080.24-31.95 1090.27 0 1086.07 0 1077.29-29.15 1076.67-29.15 1067.89 0ZM1084.24-9.43L1069.69-9.43 1069.69-12.88 1084.24-12.88 1084.24-9.43ZM1102.96 0L1098.81 0 1098.81-31.28 1102.96-31.28 1102.96 0ZM1112.54-28.48L1089.24-28.48 1089.24-31.95 1112.54-31.95 1112.54-28.48ZM1122.14-31.95L1122.14 0 1117.99 0 1117.99-31.95 1122.14-31.95ZM1140.91 0.6L1140.91 0.6Q1134.86 0.6 1131.71-2.74 1128.56-6.08 1128.56-12.3L1128.56-12.3 1128.56-19.68Q1128.56-25.88 1131.71-29.21 1134.86-32.55 1140.91-32.55L1140.91-32.55Q1146.96-32.55 1150.11-29.21 1153.26-25.88 1153.26-19.68L1153.26-19.68 1153.26-12.3Q1153.26-6.08 1150.11-2.74 1146.96 0.6 1140.91 0.6ZM1140.91-2.88L1140.91-2.88Q1144.96-2.88 1147.01-5.29 1149.06-7.7 1149.06-12.13L1149.06-12.13 1149.06-19.85Q1149.06-24.28 1147.01-26.68 1144.96-29.08 1140.91-29.08L1140.91-29.08Q1136.88-29.08 1134.83-26.68 1132.78-24.28 1132.78-19.85L1132.78-19.85 1132.78-12.13Q1132.78-7.7 1134.83-5.29 1136.88-2.88 1140.91-2.88ZM1159.66-31.95L1165.96-31.95 1178.93-4.45 1179.23-4.45 1179.06-18.4 1179.06-31.95 1183.11-31.95 1183.11 0 1176.96 0 1163.83-27.73 1163.53-27.73 1163.71-13.13 1163.71 0 1159.66 0 1159.66-31.95Z" opacity="1" transform="matrix(1,0,0,1,0,0)" fill="#9a3412" class="slogan-text-1" data-fill-palette-color="secondary" id="text-1"></path></svg></g></svg></g></svg></g></svg></g><g><svg viewBox="0 0 85.33018241315321 85.33018241315322" height="85.33018241315322" width="85.33018241315321"><g><svg></svg></g><g id="icon-0"><svg viewBox="0 0 85.33018241315321 85.33018241315322" height="85.33018241315322" width="85.33018241315321"><g><path transform="scale(0.8533,0.8533)" d="M30 100c-16.569 0-30-13.431-30-30v-40c0-16.569 13.431-30 30-30h40c16.569 0 30 13.431 30 30v40c0 16.569-13.431 30-30 30z" fill="#9a3412" fill-rule="nonzero" stroke="none" stroke-width="1" stroke-linecap="butt" stroke-linejoin="miter" stroke-miterlimit="10" stroke-dasharray="" stroke-dashoffset="0" font-family="none" font-weight="none" font-size="none" text-anchor="none" style="mix-blend-mode: normal" data-fill-palette-color="accent"></path></g><g transform="matrix(1,0,0,1,17.06603648263064,26.2647948529511)"><svg viewBox="0 0 51.19810944789193 32.80059270725103" height="32.80059270725103" width="51.19810944789193"><g><svg xmlns="http://www.w3.org/2000/svg" xmlns:xlink="http://www.w3.org/1999/xlink" version="1.1" x="0" y="0" viewBox="11.014703851409177 25.204759310340624 78.19314847565816 50.09524068965938" style="enable-background:new 0 0 100 100;" xml:space="preserve" height="32.80059270725103" width="51.19810944789193" class="icon-dxe-0" data-fill-palette-color="quaternary" id="dxe-0"><g fill="#ffffff" data-fill-palette-color="quaternary"><path d="M88.9 35.2C88.3 34.2 87.1 33.9 86.2 34.5L50.2 55.7 14 34.5C13 33.9 11.8 34.3 11.3 35.2 10.7 36.2 11.1 37.4 12 37.9L46.2 58 23.1 71.6C22.1 72.2 21.8 73.4 22.4 74.3 22.8 74.9 23.4 75.3 24.1 75.3 24.4 75.3 24.8 75.2 25.1 75L50.1 60.3 75.3 75C75.6 75.2 76 75.3 76.3 75.3 77 75.3 77.7 74.9 78 74.3 78.6 73.3 78.2 72.1 77.3 71.6L54.1 58 88.2 37.9C89.2 37.4 89.5 36.1 88.9 35.2" fill="#ffffff" data-fill-palette-color="quaternary"></path><path d="M18.7 30.6L48.3 53.1C48.8 53.5 49.5 53.7 50.1 53.7S51.4 53.5 51.9 53.1L82.3 30.6C83.6 29.6 83.9 27.7 82.9 26.4S80 24.8 78.7 25.8L50.1 47 22.3 25.8C21 24.8 19.1 25.1 18.1 26.4S17.4 29.6 18.7 30.6" fill="#ffffff" data-fill-palette-color="quaternary"></path></g></svg></g></svg></g></svg></g></svg></g></svg></g><defs></defs></svg><rect width="395.52" height="68.78879369163316" fill="none" stroke="none" visibility="hidden"></rect></g></svg></g></svg>