<svg xmlns="http://www.w3.org/2000/svg" xmlns:xlink="http://www.w3.org/1999/xlink" width="100" zoomAndPan="magnify" viewBox="0 0 75 52.499999" height="70" preserveAspectRatio="xMidYMid meet" version="1.0"><defs><g/><clipPath id="bf17446952"><path d="M 18.722656 0 L 49.925781 0 L 49.925781 38.632812 L 18.722656 38.632812 Z M 18.722656 0 " clip-rule="nonzero"/></clipPath><clipPath id="fbe645e35b"><path d="M 42 16.46875 L 54 16.46875 L 54 31 L 42 31 Z M 42 16.46875 " clip-rule="nonzero"/></clipPath><clipPath id="d928fa79b4"><path d="M 27.765625 16.46875 L 56 16.46875 L 56 38.011719 L 27.765625 38.011719 Z M 27.765625 16.46875 " clip-rule="nonzero"/></clipPath><clipPath id="11954fe159"><path d="M 30 16.46875 L 42 16.46875 L 42 31 L 30 31 Z M 30 16.46875 " clip-rule="nonzero"/></clipPath></defs><g clip-path="url(#bf17446952)"><path fill="#dc2626" d="M 49.136719 15.058594 C 48.203125 13.808594 47.144531 12.679688 45.957031 11.671875 C 44.785156 10.660156 43.484375 9.867188 42.089844 9.074219 C 41.394531 8.675781 40.6875 8.25 40.003906 7.773438 C 39.316406 7.292969 38.664062 6.773438 38.046875 6.207031 C 36.808594 5.074219 35.726562 3.808594 34.789062 2.414062 L 36.460938 2.414062 C 35.046875 4.644531 33.269531 6.527344 31.125 8.066406 C 30.0625 8.828125 28.953125 9.441406 27.949219 10.089844 C 26.949219 10.722656 26.015625 11.441406 25.152344 12.25 C 24.285156 13.058594 23.496094 13.9375 22.785156 14.886719 L 22.527344 15.234375 C 22.449219 15.34375 22.394531 15.441406 22.3125 15.570312 C 22.167969 15.8125 22.027344 16.066406 21.894531 16.320312 C 21.632812 16.832031 21.40625 17.359375 21.222656 17.898438 C 21.03125 18.429688 20.898438 18.96875 20.816406 19.523438 C 20.730469 20.058594 20.714844 20.59375 20.765625 21.128906 C 20.871094 22.1875 21.285156 23.109375 22.007812 23.890625 L 22.398438 24.304688 L 22.222656 24.859375 L 22.144531 25.109375 C 22.136719 25.144531 22.125 25.179688 22.121094 25.214844 C 22.109375 25.28125 22.109375 25.347656 22.121094 25.417969 C 22.132812 25.484375 22.15625 25.546875 22.1875 25.609375 C 22.191406 25.621094 22.203125 25.636719 22.210938 25.652344 L 22.253906 25.714844 L 22.40625 25.925781 L 22.894531 26.609375 L 22.300781 27.203125 L 20.882812 28.617188 L 20.878906 28.625 L 21.167969 27.925781 L 20.746094 37.707031 C 20.742188 37.859375 20.683594 37.992188 20.570312 38.097656 C 20.460938 38.203125 20.328125 38.253906 20.175781 38.253906 C 20.023438 38.253906 19.890625 38.203125 19.78125 38.097656 C 19.667969 37.992188 19.609375 37.859375 19.605469 37.707031 L 19.183594 27.925781 L 19.167969 27.539062 L 19.472656 27.226562 L 20.894531 25.804688 L 20.789062 27.082031 L 20.640625 26.871094 L 20.535156 26.71875 C 20.5 26.660156 20.460938 26.601562 20.429688 26.539062 C 20.160156 26.027344 20.070312 25.488281 20.15625 24.917969 C 20.179688 24.78125 20.210938 24.648438 20.25 24.519531 L 20.328125 24.269531 L 20.546875 25.238281 C 19.550781 24.1875 18.945312 22.757812 18.792969 21.335938 C 18.726562 20.632812 18.746094 19.929688 18.855469 19.234375 C 18.953125 18.558594 19.117188 17.898438 19.347656 17.253906 C 19.566406 16.621094 19.828125 16.007812 20.136719 15.414062 C 20.289062 15.117188 20.449219 14.828125 20.621094 14.539062 C 20.707031 14.40625 20.804688 14.238281 20.910156 14.09375 L 21.203125 13.695312 C 21.984375 12.652344 22.851562 11.6875 23.800781 10.800781 C 24.753906 9.910156 25.777344 9.117188 26.875 8.417969 C 27.957031 7.722656 29.023438 7.132812 29.976562 6.449219 C 31.910156 5.058594 33.515625 3.355469 34.789062 1.34375 L 35.636719 0.0195312 L 36.460938 1.34375 C 37.25 2.652344 38.1875 3.847656 39.261719 4.933594 C 40.339844 6.019531 41.550781 6.921875 42.894531 7.761719 C 44.242188 8.601562 45.640625 9.550781 46.835938 10.679688 C 48.046875 11.804688 49.117188 13.050781 50.042969 14.421875 C 50.128906 14.542969 50.15625 14.679688 50.128906 14.828125 C 50.105469 14.980469 50.03125 15.097656 49.90625 15.183594 C 49.785156 15.273438 49.648438 15.304688 49.5 15.28125 C 49.347656 15.253906 49.230469 15.183594 49.140625 15.058594 Z M 49.136719 15.058594 " fill-opacity="1" fill-rule="nonzero"/></g><path fill="#dc2626" d="M 35.824219 6.394531 C 35.191406 8.148438 34.203125 9.824219 32.800781 11.148438 C 32.105469 11.824219 31.289062 12.367188 30.582031 12.902344 C 29.867188 13.4375 29.191406 14.019531 28.554688 14.644531 C 27.898438 15.28125 27.222656 15.90625 26.78125 16.523438 C 26.554688 16.839844 26.367188 17.175781 26.222656 17.535156 C 26.058594 17.910156 25.917969 18.292969 25.804688 18.6875 C 25.582031 19.4375 25.496094 20.207031 25.550781 20.992188 C 25.601562 21.800781 25.746094 22.59375 25.988281 23.367188 L 25.988281 23.378906 C 26.019531 23.472656 26.011719 23.5625 25.964844 23.648438 C 25.917969 23.738281 25.847656 23.792969 25.753906 23.824219 C 25.667969 23.847656 25.585938 23.84375 25.503906 23.804688 C 24.53125 23.351562 23.875 22.320312 23.65625 21.257812 C 23.554688 20.722656 23.535156 20.1875 23.597656 19.648438 C 23.640625 19.125 23.742188 18.613281 23.898438 18.113281 C 24.046875 17.625 24.234375 17.152344 24.460938 16.695312 C 24.691406 16.210938 24.980469 15.765625 25.324219 15.355469 C 26.035156 14.539062 26.800781 14.003906 27.527344 13.433594 C 28.273438 12.851562 29.050781 12.3125 29.863281 11.816406 C 30.679688 11.328125 31.449219 10.925781 32.125 10.371094 C 33.503906 9.285156 34.601562 7.832031 35.445312 6.226562 C 35.5 6.097656 35.589844 6.066406 35.71875 6.121094 C 35.84375 6.175781 35.878906 6.265625 35.824219 6.390625 Z M 35.824219 6.394531 " fill-opacity="1" fill-rule="nonzero"/><g clip-path="url(#fbe645e35b)"><path fill="#dc2626" d="M 54 25.332031 L 51.175781 16.464844 C 51.175781 16.464844 50.085938 17.417969 47.113281 17.871094 C 44.140625 18.320312 42.507812 20.023438 42.507812 20.023438 L 42.507812 30.945312 C 44.835938 27.988281 54 25.332031 54 25.332031 " fill-opacity="1" fill-rule="nonzero"/></g><g clip-path="url(#d928fa79b4)"><path fill="#dc2626" d="M 55.21875 27.238281 L 48.589844 30.492188 C 48.945312 30.613281 49.304688 30.773438 49.585938 31.183594 C 50.128906 31.976562 49.414062 32.421875 49.339844 32.398438 C 49.3125 32.390625 48.324219 31.882812 47.074219 31.238281 L 46.617188 31.460938 C 48.414062 32.109375 49.765625 34.320312 50.410156 34.855469 C 51.234375 35.53125 52.414062 35.324219 53.199219 36.46875 C 53.984375 37.609375 52.949219 38.265625 52.84375 38.230469 C 52.75 38.199219 44.625 34.085938 42.511719 32.9375 L 41.523438 32.9375 C 39.410156 34.085938 31.285156 38.199219 31.195312 38.230469 C 31.085938 38.265625 30.050781 37.609375 30.835938 36.46875 C 31.621094 35.324219 32.800781 35.53125 33.625 34.855469 C 34.269531 34.320312 35.621094 32.109375 37.417969 31.460938 L 36.964844 31.238281 C 35.710938 31.882812 34.722656 32.390625 34.695312 32.398438 C 34.621094 32.421875 33.90625 31.976562 34.449219 31.183594 C 34.730469 30.773438 35.089844 30.613281 35.445312 30.492188 L 28.816406 27.238281 L 27.773438 26.726562 L 28.132812 25.574219 L 30.949219 16.496094 L 32.042969 16.832031 L 29.179688 26.070312 L 42.019531 32.148438 L 54.855469 26.070312 L 51.992188 16.832031 L 53.085938 16.496094 L 55.902344 25.574219 L 56.261719 26.726562 L 55.21875 27.238281 " fill-opacity="1" fill-rule="nonzero"/></g><g clip-path="url(#11954fe159)"><path fill="#dc2626" d="M 41.527344 30.945312 L 41.527344 20.023438 C 41.527344 20.023438 39.894531 18.320312 36.921875 17.871094 C 33.949219 17.417969 32.859375 16.464844 32.859375 16.464844 L 30.035156 25.332031 C 30.035156 25.332031 39.199219 27.988281 41.527344 30.945312 " fill-opacity="1" fill-rule="nonzero"/></g><g fill="#dc2626" fill-opacity="1"><g transform="translate(4.34888, 45.357394)"><g><path d="M 6 0.125 L 4.828125 1 L 4.046875 -0.03125 C 3.742188 0.0625 3.429688 0.109375 3.109375 0.109375 C 2.722656 0.109375 2.359375 0.0351562 2.015625 -0.109375 C 1.671875 -0.253906 1.363281 -0.453125 1.09375 -0.703125 C 0.820312 -0.960938 0.609375 -1.257812 0.453125 -1.59375 C 0.304688 -1.925781 0.234375 -2.289062 0.234375 -2.6875 C 0.234375 -3.070312 0.304688 -3.429688 0.453125 -3.765625 C 0.609375 -4.097656 0.820312 -4.394531 1.09375 -4.65625 C 1.363281 -4.914062 1.671875 -5.117188 2.015625 -5.265625 C 2.359375 -5.410156 2.722656 -5.484375 3.109375 -5.484375 C 3.503906 -5.484375 3.875 -5.410156 4.21875 -5.265625 C 4.5625 -5.117188 4.863281 -4.914062 5.125 -4.65625 C 5.394531 -4.394531 5.609375 -4.097656 5.765625 -3.765625 C 5.921875 -3.429688 6 -3.070312 6 -2.6875 C 6 -2.332031 5.929688 -1.992188 5.796875 -1.671875 C 5.671875 -1.359375 5.492188 -1.082031 5.265625 -0.84375 Z M 1.640625 -2.6875 C 1.640625 -2.414062 1.707031 -2.164062 1.84375 -1.9375 C 1.976562 -1.71875 2.15625 -1.539062 2.375 -1.40625 C 2.59375 -1.28125 2.835938 -1.21875 3.109375 -1.21875 C 3.378906 -1.21875 3.625 -1.28125 3.84375 -1.40625 C 4.070312 -1.539062 4.25 -1.71875 4.375 -1.9375 C 4.507812 -2.164062 4.578125 -2.414062 4.578125 -2.6875 C 4.578125 -2.945312 4.507812 -3.1875 4.375 -3.40625 C 4.25 -3.632812 4.070312 -3.816406 3.84375 -3.953125 C 3.625 -4.085938 3.378906 -4.15625 3.109375 -4.15625 C 2.835938 -4.15625 2.59375 -4.085938 2.375 -3.953125 C 2.15625 -3.816406 1.976562 -3.632812 1.84375 -3.40625 C 1.707031 -3.1875 1.640625 -2.945312 1.640625 -2.6875 Z M 1.640625 -2.6875 "/></g></g></g><g fill="#dc2626" fill-opacity="1"><g transform="translate(10.570185, 45.357394)"><g><path d="M 3.796875 -5.359375 L 5.265625 -5.359375 L 5.265625 -2.1875 C 5.265625 -1.675781 5.15625 -1.25 4.9375 -0.90625 C 4.71875 -0.5625 4.429688 -0.304688 4.078125 -0.140625 C 3.722656 0.0234375 3.328125 0.109375 2.890625 0.109375 C 2.460938 0.109375 2.066406 0.0234375 1.703125 -0.140625 C 1.347656 -0.304688 1.0625 -0.5625 0.84375 -0.90625 C 0.632812 -1.25 0.53125 -1.675781 0.53125 -2.1875 L 0.53125 -5.359375 L 2 -5.359375 C 2 -5.359375 2 -5.296875 2 -5.171875 C 2 -5.046875 2 -4.878906 2 -4.671875 C 2 -4.460938 2 -4.234375 2 -3.984375 C 2 -3.742188 2 -3.5 2 -3.25 C 2 -3.007812 2 -2.789062 2 -2.59375 C 2 -2.394531 2 -2.242188 2 -2.140625 C 2 -1.816406 2.082031 -1.570312 2.25 -1.40625 C 2.425781 -1.25 2.640625 -1.171875 2.890625 -1.171875 C 3.140625 -1.171875 3.351562 -1.25 3.53125 -1.40625 C 3.707031 -1.570312 3.796875 -1.816406 3.796875 -2.140625 C 3.796875 -2.242188 3.796875 -2.394531 3.796875 -2.59375 C 3.796875 -2.789062 3.796875 -3.007812 3.796875 -3.25 C 3.796875 -3.5 3.796875 -3.742188 3.796875 -3.984375 C 3.796875 -4.234375 3.796875 -4.460938 3.796875 -4.671875 C 3.796875 -4.878906 3.796875 -5.046875 3.796875 -5.171875 C 3.796875 -5.296875 3.796875 -5.359375 3.796875 -5.359375 Z M 3.796875 -5.359375 "/></g></g></g><g fill="#dc2626" fill-opacity="1"><g transform="translate(16.362962, 45.357394)"><g><path d="M 3.53125 0 L 2.53125 -1.71875 L 2 -1.71875 L 2 0 L 0.53125 0 L 0.53125 -5.359375 L 2.734375 -5.359375 C 3.171875 -5.359375 3.539062 -5.273438 3.84375 -5.109375 C 4.15625 -4.953125 4.394531 -4.738281 4.5625 -4.46875 C 4.738281 -4.195312 4.828125 -3.890625 4.828125 -3.546875 C 4.828125 -3.222656 4.75 -2.929688 4.59375 -2.671875 C 4.445312 -2.410156 4.238281 -2.195312 3.96875 -2.03125 L 5.140625 0 Z M 2 -4.125 L 2 -2.96875 L 2.6875 -2.96875 C 3 -2.96875 3.210938 -3.019531 3.328125 -3.125 C 3.441406 -3.226562 3.5 -3.367188 3.5 -3.546875 C 3.5 -3.710938 3.441406 -3.847656 3.328125 -3.953125 C 3.210938 -4.066406 3 -4.125 2.6875 -4.125 Z M 2 -4.125 "/></g></g></g><g fill="#dc2626" fill-opacity="1"><g transform="translate(21.497643, 45.357394)"><g><path d="M 4.0625 0 L 3.734375 -0.953125 L 2.03125 -0.953125 L 1.703125 0 L 0.078125 0 L 2.09375 -5.359375 L 3.671875 -5.359375 L 5.703125 0 Z M 2.46875 -2.1875 L 3.296875 -2.1875 L 2.890625 -3.375 Z M 2.46875 -2.1875 "/></g></g></g><g fill="#dc2626" fill-opacity="1"><g transform="translate(27.267464, 45.357394)"><g><path d="M 0.53125 -5.359375 L 1.84375 -5.359375 L 3.703125 -2.515625 L 3.703125 -5.359375 L 5.171875 -5.359375 L 5.171875 0 L 3.859375 0 L 2 -2.84375 L 2 0 L 0.53125 0 Z M 0.53125 -5.359375 "/></g></g></g><g fill="#dc2626" fill-opacity="1"><g transform="translate(32.968413, 45.357394)"><g><path d="M 2.109375 -3.921875 C 2.078125 -3.804688 2.101562 -3.707031 2.1875 -3.625 C 2.28125 -3.539062 2.410156 -3.46875 2.578125 -3.40625 C 2.742188 -3.34375 2.925781 -3.273438 3.125 -3.203125 C 3.332031 -3.140625 3.535156 -3.0625 3.734375 -2.96875 C 3.941406 -2.875 4.128906 -2.757812 4.296875 -2.625 C 4.460938 -2.5 4.59375 -2.335938 4.6875 -2.140625 C 4.78125 -1.953125 4.816406 -1.722656 4.796875 -1.453125 C 4.773438 -1.148438 4.703125 -0.894531 4.578125 -0.6875 C 4.453125 -0.488281 4.296875 -0.328125 4.109375 -0.203125 C 3.921875 -0.0859375 3.71875 -0.00390625 3.5 0.046875 C 3.289062 0.0976562 3.078125 0.125 2.859375 0.125 C 2.648438 0.132812 2.457031 0.128906 2.28125 0.109375 C 2 0.078125 1.726562 0.0234375 1.46875 -0.046875 C 1.21875 -0.128906 0.984375 -0.222656 0.765625 -0.328125 C 0.554688 -0.441406 0.378906 -0.550781 0.234375 -0.65625 L 0.90625 -1.765625 C 1.03125 -1.628906 1.179688 -1.507812 1.359375 -1.40625 C 1.546875 -1.3125 1.738281 -1.238281 1.9375 -1.1875 C 2.144531 -1.132812 2.335938 -1.101562 2.515625 -1.09375 C 2.703125 -1.09375 2.859375 -1.117188 2.984375 -1.171875 C 3.109375 -1.222656 3.179688 -1.3125 3.203125 -1.4375 C 3.234375 -1.570312 3.203125 -1.679688 3.109375 -1.765625 C 3.023438 -1.859375 2.898438 -1.9375 2.734375 -2 C 2.578125 -2.0625 2.398438 -2.125 2.203125 -2.1875 C 2.003906 -2.25 1.800781 -2.320312 1.59375 -2.40625 C 1.394531 -2.488281 1.210938 -2.597656 1.046875 -2.734375 C 0.890625 -2.867188 0.769531 -3.039062 0.6875 -3.25 C 0.613281 -3.457031 0.59375 -3.710938 0.625 -4.015625 C 0.65625 -4.210938 0.710938 -4.40625 0.796875 -4.59375 C 0.890625 -4.78125 1.023438 -4.941406 1.203125 -5.078125 C 1.390625 -5.222656 1.625 -5.332031 1.90625 -5.40625 C 2.1875 -5.476562 2.535156 -5.503906 2.953125 -5.484375 C 3.296875 -5.460938 3.582031 -5.414062 3.8125 -5.34375 C 4.050781 -5.269531 4.234375 -5.191406 4.359375 -5.109375 C 4.492188 -5.035156 4.578125 -4.988281 4.609375 -4.96875 L 4.09375 -3.8125 C 4 -3.90625 3.875 -3.988281 3.71875 -4.0625 C 3.5625 -4.132812 3.394531 -4.191406 3.21875 -4.234375 C 3.050781 -4.273438 2.882812 -4.289062 2.71875 -4.28125 C 2.5625 -4.28125 2.425781 -4.25 2.3125 -4.1875 C 2.195312 -4.132812 2.128906 -4.046875 2.109375 -3.921875 Z M 2.109375 -3.921875 "/></g></g></g><g fill="#dc2626" fill-opacity="1"><g transform="translate(37.995962, 45.357394)"><g><path d="M 3.28125 -1.1875 C 3.476562 -1.1875 3.664062 -1.222656 3.84375 -1.296875 C 4.03125 -1.367188 4.207031 -1.460938 4.375 -1.578125 L 5.09375 -0.546875 C 4.820312 -0.347656 4.535156 -0.1875 4.234375 -0.0625 C 3.941406 0.0507812 3.625 0.109375 3.28125 0.109375 C 2.84375 0.109375 2.4375 0.0351562 2.0625 -0.109375 C 1.695312 -0.253906 1.375 -0.453125 1.09375 -0.703125 C 0.820312 -0.960938 0.609375 -1.257812 0.453125 -1.59375 C 0.304688 -1.925781 0.234375 -2.289062 0.234375 -2.6875 C 0.234375 -3.070312 0.304688 -3.429688 0.453125 -3.765625 C 0.609375 -4.097656 0.820312 -4.394531 1.09375 -4.65625 C 1.375 -4.914062 1.695312 -5.117188 2.0625 -5.265625 C 2.4375 -5.410156 2.84375 -5.484375 3.28125 -5.484375 C 3.625 -5.484375 3.941406 -5.421875 4.234375 -5.296875 C 4.535156 -5.179688 4.820312 -5.019531 5.09375 -4.8125 L 4.375 -3.796875 C 4.03125 -4.046875 3.664062 -4.171875 3.28125 -4.171875 C 2.96875 -4.171875 2.691406 -4.101562 2.453125 -3.96875 C 2.210938 -3.832031 2.019531 -3.648438 1.875 -3.421875 C 1.726562 -3.203125 1.65625 -2.957031 1.65625 -2.6875 C 1.65625 -2.40625 1.726562 -2.148438 1.875 -1.921875 C 2.019531 -1.703125 2.210938 -1.523438 2.453125 -1.390625 C 2.691406 -1.253906 2.96875 -1.1875 3.28125 -1.1875 Z M 3.28125 -1.1875 "/></g></g></g><g fill="#dc2626" fill-opacity="1"><g transform="translate(43.314298, 45.357394)"><g><path d="M 3.796875 -5.359375 L 5.265625 -5.359375 L 5.265625 0 L 3.796875 0 L 3.796875 -2.0625 L 2 -2.0625 L 2 0 L 0.53125 0 L 0.53125 -5.359375 L 2 -5.359375 L 2 -3.296875 L 3.796875 -3.296875 Z M 3.796875 -5.359375 "/></g></g></g><g fill="#dc2626" fill-opacity="1"><g transform="translate(49.107074, 45.357394)"><g><path d="M 3.109375 -5.484375 C 3.503906 -5.484375 3.875 -5.410156 4.21875 -5.265625 C 4.5625 -5.117188 4.863281 -4.914062 5.125 -4.65625 C 5.394531 -4.394531 5.609375 -4.097656 5.765625 -3.765625 C 5.921875 -3.429688 6 -3.070312 6 -2.6875 C 6 -2.289062 5.921875 -1.925781 5.765625 -1.59375 C 5.609375 -1.257812 5.394531 -0.960938 5.125 -0.703125 C 4.863281 -0.453125 4.5625 -0.253906 4.21875 -0.109375 C 3.875 0.0351562 3.503906 0.109375 3.109375 0.109375 C 2.722656 0.109375 2.359375 0.0351562 2.015625 -0.109375 C 1.671875 -0.253906 1.363281 -0.453125 1.09375 -0.703125 C 0.820312 -0.960938 0.609375 -1.257812 0.453125 -1.59375 C 0.304688 -1.925781 0.234375 -2.289062 0.234375 -2.6875 C 0.234375 -3.070312 0.304688 -3.429688 0.453125 -3.765625 C 0.609375 -4.097656 0.820312 -4.394531 1.09375 -4.65625 C 1.363281 -4.914062 1.671875 -5.117188 2.015625 -5.265625 C 2.359375 -5.410156 2.722656 -5.484375 3.109375 -5.484375 Z M 3.109375 -1.21875 C 3.378906 -1.21875 3.625 -1.28125 3.84375 -1.40625 C 4.070312 -1.539062 4.253906 -1.71875 4.390625 -1.9375 C 4.523438 -2.164062 4.59375 -2.414062 4.59375 -2.6875 C 4.59375 -2.945312 4.523438 -3.1875 4.390625 -3.40625 C 4.253906 -3.632812 4.070312 -3.816406 3.84375 -3.953125 C 3.625 -4.085938 3.378906 -4.15625 3.109375 -4.15625 C 2.835938 -4.15625 2.59375 -4.085938 2.375 -3.953125 C 2.15625 -3.816406 1.976562 -3.632812 1.84375 -3.40625 C 1.707031 -3.1875 1.640625 -2.945312 1.640625 -2.6875 C 1.640625 -2.414062 1.707031 -2.164062 1.84375 -1.9375 C 1.976562 -1.71875 2.15625 -1.539062 2.375 -1.40625 C 2.59375 -1.28125 2.835938 -1.21875 3.109375 -1.21875 Z M 3.109375 -1.21875 "/></g></g></g><g fill="#dc2626" fill-opacity="1"><g transform="translate(55.328377, 45.357394)"><g><path d="M 2 -1.234375 L 4.265625 -1.234375 L 4.265625 0 L 0.53125 0 L 0.53125 -5.359375 L 2 -5.359375 Z M 2 -1.234375 "/></g></g></g><g fill="#dc2626" fill-opacity="1"><g transform="translate(59.743745, 45.357394)"><g><path d="M 4.0625 0 L 3.734375 -0.953125 L 2.03125 -0.953125 L 1.703125 0 L 0.078125 0 L 2.09375 -5.359375 L 3.671875 -5.359375 L 5.703125 0 Z M 2.46875 -2.1875 L 3.296875 -2.1875 L 2.890625 -3.375 Z M 2.46875 -2.1875 "/></g></g></g><g fill="#dc2626" fill-opacity="1"><g transform="translate(65.513566, 45.357394)"><g><path d="M 3.53125 0 L 2.53125 -1.71875 L 2 -1.71875 L 2 0 L 0.53125 0 L 0.53125 -5.359375 L 2.734375 -5.359375 C 3.171875 -5.359375 3.539062 -5.273438 3.84375 -5.109375 C 4.15625 -4.953125 4.394531 -4.738281 4.5625 -4.46875 C 4.738281 -4.195312 4.828125 -3.890625 4.828125 -3.546875 C 4.828125 -3.222656 4.75 -2.929688 4.59375 -2.671875 C 4.445312 -2.410156 4.238281 -2.195312 3.96875 -2.03125 L 5.140625 0 Z M 2 -4.125 L 2 -2.96875 L 2.6875 -2.96875 C 3 -2.96875 3.210938 -3.019531 3.328125 -3.125 C 3.441406 -3.226562 3.5 -3.367188 3.5 -3.546875 C 3.5 -3.710938 3.441406 -3.847656 3.328125 -3.953125 C 3.210938 -4.066406 3 -4.125 2.6875 -4.125 Z M 2 -4.125 "/></g></g></g><g fill="#dc2626" fill-opacity="1"><g transform="translate(19.836073, 50.499178)"><g><path d="M 0.65625 0 L 0.65625 -2.875 L 0.265625 -2.875 L 0.265625 0 Z M 0.65625 0 "/></g></g></g><g fill="#dc2626" fill-opacity="1"><g transform="translate(21.566955, 50.499178)"><g><path d="M 0.125 -0.625 C 0.1875 -0.25 0.40625 0.0625 1.015625 0.0625 C 1.46875 0.0625 1.828125 -0.171875 1.828125 -0.546875 C 1.828125 -0.890625 1.546875 -1.015625 1.1875 -1.109375 L 1 -1.15625 C 0.703125 -1.21875 0.53125 -1.28125 0.53125 -1.453125 C 0.53125 -1.578125 0.640625 -1.734375 0.90625 -1.734375 C 1.1875 -1.734375 1.34375 -1.59375 1.390625 -1.484375 C 1.421875 -1.4375 1.421875 -1.40625 1.421875 -1.3125 L 1.78125 -1.34375 C 1.765625 -1.40625 1.75 -1.53125 1.671875 -1.640625 C 1.578125 -1.78125 1.359375 -1.984375 0.953125 -1.984375 C 0.609375 -1.984375 0.203125 -1.828125 0.203125 -1.40625 C 0.203125 -1.140625 0.359375 -0.953125 0.890625 -0.859375 L 1.078125 -0.8125 C 1.25 -0.78125 1.484375 -0.75 1.484375 -0.515625 C 1.484375 -0.234375 1.1875 -0.1875 1.03125 -0.1875 C 0.875 -0.1875 0.71875 -0.203125 0.609375 -0.328125 C 0.515625 -0.4375 0.5 -0.546875 0.5 -0.671875 Z M 0.125 -0.625 "/></g></g></g><g fill="#dc2626" fill-opacity="1"><g transform="translate(24.318294, 50.499178)"><g><path d="M 0.578125 0 L 0.578125 -2.875 L 0.265625 -2.875 L 0.265625 0 Z M 0.578125 0 "/></g></g></g><g fill="#dc2626" fill-opacity="1"><g transform="translate(25.963458, 50.499178)"><g><path d="M 1.40625 -1.15625 L 1.125 -1.125 C 0.875 -1.109375 0.53125 -1.0625 0.34375 -0.90625 C 0.15625 -0.78125 0.125 -0.59375 0.125 -0.5 C 0.125 -0.171875 0.40625 0.046875 0.78125 0.046875 C 1.15625 0.046875 1.34375 -0.15625 1.4375 -0.265625 C 1.4375 -0.203125 1.5 -0.078125 1.5625 -0.03125 C 1.640625 0.03125 1.75 0.03125 1.78125 0.03125 C 1.828125 0.03125 1.890625 0.015625 1.984375 -0.015625 L 1.984375 -0.28125 C 1.9375 -0.28125 1.921875 -0.265625 1.890625 -0.265625 C 1.734375 -0.265625 1.734375 -0.375 1.734375 -0.5 L 1.734375 -1.171875 C 1.734375 -1.515625 1.71875 -1.71875 1.453125 -1.875 C 1.28125 -1.96875 1.078125 -1.984375 0.96875 -1.984375 C 0.28125 -1.984375 0.234375 -1.4375 0.234375 -1.34375 L 0.5625 -1.328125 L 0.5625 -1.359375 C 0.5625 -1.59375 0.71875 -1.734375 0.984375 -1.734375 C 1.40625 -1.734375 1.40625 -1.390625 1.40625 -1.21875 Z M 1.421875 -0.9375 L 1.421875 -0.78125 C 1.421875 -0.296875 1.03125 -0.21875 0.859375 -0.21875 C 0.59375 -0.21875 0.484375 -0.359375 0.484375 -0.5 C 0.484375 -0.6875 0.671875 -0.78125 0.71875 -0.796875 C 0.875 -0.859375 1.265625 -0.90625 1.421875 -0.9375 Z M 1.421875 -0.9375 "/></g></g></g><g fill="#dc2626" fill-opacity="1"><g transform="translate(28.800515, 50.499178)"><g><path d="M 2.890625 0 L 2.890625 -1.265625 C 2.890625 -1.453125 2.875 -1.625 2.75 -1.765625 C 2.703125 -1.828125 2.546875 -1.984375 2.3125 -1.984375 C 1.984375 -1.984375 1.78125 -1.734375 1.65625 -1.625 C 1.625 -1.6875 1.59375 -1.75 1.546875 -1.796875 C 1.40625 -1.96875 1.21875 -1.984375 1.140625 -1.984375 C 0.90625 -1.984375 0.71875 -1.84375 0.5625 -1.65625 L 0.5625 -1.921875 L 0.265625 -1.921875 L 0.265625 0 L 0.5625 0 L 0.5625 -1.140625 C 0.5625 -1.265625 0.578125 -1.328125 0.59375 -1.390625 C 0.65625 -1.5625 0.890625 -1.671875 1.046875 -1.671875 C 1.15625 -1.671875 1.40625 -1.625 1.40625 -1.25 L 1.40625 0 L 1.71875 0 L 1.71875 -1.078125 C 1.71875 -1.21875 1.734375 -1.296875 1.75 -1.359375 C 1.8125 -1.546875 2.03125 -1.671875 2.203125 -1.671875 C 2.34375 -1.671875 2.5625 -1.625 2.5625 -1.28125 L 2.5625 0 Z M 2.890625 0 "/></g></g></g><g fill="#dc2626" fill-opacity="1"><g transform="translate(32.743746, 50.499178)"><g><path d="M 0.59375 -2.5 L 0.59375 -2.875 L 0.28125 -2.875 L 0.28125 -2.5 Z M 0.59375 0 L 0.59375 -1.921875 L 0.28125 -1.921875 L 0.28125 0 Z M 0.59375 0 "/></g></g></g><g fill="#dc2626" fill-opacity="1"><g transform="translate(34.38891, 50.499178)"><g><path d="M 1.65625 -0.71875 C 1.625 -0.421875 1.484375 -0.1875 1.125 -0.1875 C 0.71875 -0.1875 0.515625 -0.515625 0.515625 -0.96875 C 0.515625 -1.546875 0.796875 -1.75 1.09375 -1.75 C 1.375 -1.75 1.5625 -1.59375 1.625 -1.3125 L 1.984375 -1.34375 C 1.921875 -1.609375 1.671875 -1.984375 1.09375 -1.984375 C 0.46875 -1.984375 0.15625 -1.515625 0.15625 -0.953125 C 0.15625 -0.359375 0.5 0.0625 1.109375 0.0625 C 1.546875 0.0625 1.90625 -0.140625 2.015625 -0.6875 Z M 1.65625 -0.71875 "/></g></g></g><g fill="#dc2626" fill-opacity="1"><g transform="translate(37.311685, 50.499178)"><g/></g></g><g fill="#dc2626" fill-opacity="1"><g transform="translate(39.214004, 50.499178)"><g><path d="M 2.609375 -1.09375 C 2.515625 -0.515625 2.109375 -0.25 1.65625 -0.25 C 1.078125 -0.25 0.625 -0.640625 0.625 -1.453125 C 0.625 -2.15625 1 -2.640625 1.65625 -2.640625 C 2.1875 -2.640625 2.484375 -2.3125 2.578125 -2 L 2.96875 -2.078125 C 2.78125 -2.625 2.34375 -2.953125 1.65625 -2.953125 C 0.75 -2.953125 0.203125 -2.34375 0.203125 -1.4375 C 0.203125 -0.53125 0.75 0.078125 1.609375 0.078125 C 2.515625 0.078125 2.921875 -0.578125 3.03125 -1.046875 Z M 2.609375 -1.09375 "/></g></g></g><g fill="#dc2626" fill-opacity="1"><g transform="translate(43.128662, 50.499178)"><g><path d="M 0.515625 -0.90625 L 1.96875 -0.90625 L 1.96875 -0.953125 C 1.96875 -1.703125 1.515625 -1.984375 1.09375 -1.984375 C 0.6875 -1.984375 0.15625 -1.703125 0.15625 -0.984375 C 0.15625 -0.21875 0.625 0.0625 1.09375 0.0625 C 1.75 0.0625 1.921875 -0.453125 1.96875 -0.59375 L 1.640625 -0.625 C 1.59375 -0.453125 1.46875 -0.1875 1.140625 -0.1875 C 0.671875 -0.1875 0.515625 -0.578125 0.515625 -0.875 Z M 0.515625 -1.140625 C 0.546875 -1.4375 0.71875 -1.734375 1.0625 -1.734375 C 1.390625 -1.734375 1.609375 -1.453125 1.609375 -1.140625 Z M 0.515625 -1.140625 "/></g></g></g><g fill="#dc2626" fill-opacity="1"><g transform="translate(46.051436, 50.499178)"><g><path d="M 1.859375 0 L 1.859375 -1.21875 C 1.859375 -1.390625 1.84375 -1.5625 1.734375 -1.71875 C 1.5625 -1.953125 1.28125 -1.984375 1.1875 -1.984375 C 0.859375 -1.984375 0.671875 -1.78125 0.59375 -1.640625 L 0.59375 -1.921875 L 0.265625 -1.921875 L 0.265625 0 L 0.59375 0 L 0.59375 -1.140625 C 0.59375 -1.484375 0.828125 -1.671875 1.09375 -1.671875 C 1.328125 -1.671875 1.53125 -1.5625 1.53125 -1.265625 L 1.53125 0 Z M 1.859375 0 "/></g></g></g><g fill="#dc2626" fill-opacity="1"><g transform="translate(48.97421, 50.499178)"><g><path d="M 0.703125 -1.65625 L 1.0625 -1.65625 L 1.0625 -1.921875 L 0.703125 -1.921875 L 0.703125 -2.53125 L 0.375 -2.53125 L 0.375 -1.921875 L 0.0625 -1.921875 L 0.0625 -1.65625 L 0.375 -1.65625 L 0.375 -0.3125 C 0.375 -0.09375 0.421875 0.03125 0.75 0.03125 C 0.875 0.03125 1.03125 0 1.0625 0 L 1.0625 -0.265625 C 0.96875 -0.234375 0.890625 -0.21875 0.859375 -0.21875 C 0.75 -0.21875 0.703125 -0.28125 0.703125 -0.421875 Z M 0.703125 -1.65625 "/></g></g></g><g fill="#dc2626" fill-opacity="1"><g transform="translate(50.962248, 50.499178)"><g><path d="M 0.515625 -0.90625 L 1.96875 -0.90625 L 1.96875 -0.953125 C 1.96875 -1.703125 1.515625 -1.984375 1.09375 -1.984375 C 0.6875 -1.984375 0.15625 -1.703125 0.15625 -0.984375 C 0.15625 -0.21875 0.625 0.0625 1.09375 0.0625 C 1.75 0.0625 1.921875 -0.453125 1.96875 -0.59375 L 1.640625 -0.625 C 1.59375 -0.453125 1.46875 -0.1875 1.140625 -0.1875 C 0.671875 -0.1875 0.515625 -0.578125 0.515625 -0.875 Z M 0.515625 -1.140625 C 0.546875 -1.4375 0.71875 -1.734375 1.0625 -1.734375 C 1.390625 -1.734375 1.609375 -1.453125 1.609375 -1.140625 Z M 0.515625 -1.140625 "/></g></g></g><g fill="#dc2626" fill-opacity="1"><g transform="translate(53.885022, 50.499178)"><g><path d="M 0.265625 -1.921875 L 0.265625 0 L 0.59375 0 L 0.59375 -0.890625 C 0.59375 -1.078125 0.59375 -1.140625 0.625 -1.25 C 0.6875 -1.484375 0.890625 -1.609375 1.125 -1.609375 C 1.15625 -1.609375 1.203125 -1.609375 1.25 -1.59375 L 1.25 -1.9375 C 1 -1.9375 0.84375 -1.84375 0.765625 -1.796875 C 0.6875 -1.734375 0.640625 -1.65625 0.59375 -1.5625 L 0.59375 -1.921875 Z M 0.265625 -1.921875 "/></g></g></g></svg>