<?xml version="1.0" encoding="utf-8"?>
<!-- Generator: Adobe Illustrator 27.5.0, SVG Export Plug-In . SVG Version: 6.00 Build 0)  -->
<svg version="1.1" xmlns="http://www.w3.org/2000/svg" xmlns:xlink="http://www.w3.org/1999/xlink" x="0px" y="0px"
	 viewBox="0 0 500 500" style="enable-background:new 0 0 500 500;" xml:space="preserve">
<g id="BACKGROUND">
	<rect style="fill:#FFFDFF;" width="500" height="500"/>
</g>
<g id="OBJECTS">
	<g>
		<path style="fill:#EEEEEE;" d="M466.165,301.71H350.78c-3.931,0-7.118-3.187-7.118-7.118V142.922c0-3.931,3.187-7.118,7.118-7.118
			h115.385c3.931,0,7.118,3.187,7.118,7.118v151.671C473.283,298.524,470.096,301.71,466.165,301.71z"/>
		<rect x="354.74" y="143.126" style="fill:#E3ABBF;" width="83.829" height="5.227"/>
		<circle style="fill:#F8E970;" cx="381.058" cy="177.487" r="18.106"/>
		<path style="fill:#97B6EB;" d="M405.183,194.092v-27.533c0-0.547,0.443-0.99,0.99-0.99h48.171c0.547,0,0.99,0.443,0.99,0.99
			v18.806c0,0.547-0.443,0.99-0.99,0.99h-41.056c-0.324,0-0.627,0.158-0.812,0.424l-5.491,7.879
			C406.431,195.453,405.183,195.061,405.183,194.092z"/>
		<path style="fill:#97B6EB;" d="M365.38,270.3v-25.729c0-1.858,1.506-3.363,3.363-3.363h58.152c1.858,0,3.363,1.506,3.363,3.363
			v14.059c0,1.858-1.506,3.363-3.363,3.363h-53.503c-0.265,0-0.514,0.13-0.665,0.347l-5.871,8.423
			C366.403,271.415,365.38,271.094,365.38,270.3z"/>
		<path style="fill:#97B6EB;" d="M455.334,232.523V204.99c0-0.547-0.443-0.99-0.99-0.99h-86.298c-1.472,0-2.666,1.193-2.666,2.666
			v15.455c0,1.472,1.193,2.666,2.666,2.666h79.183c0.324,0,0.627,0.158,0.812,0.424l5.491,7.879
			C454.086,233.884,455.334,233.492,455.334,232.523z"/>
		<rect x="327.579" y="172.86" style="fill:#E89F9F;" width="46.952" height="60.655"/>
		<g>
			<line style="fill:none;stroke:#F4D9E9;stroke-miterlimit:10;" x1="334.109" y1="183.179" x2="368.002" y2="183.179"/>
			<line style="fill:none;stroke:#F4D9E9;stroke-miterlimit:10;" x1="334.109" y1="191.488" x2="368.002" y2="191.488"/>
			<line style="fill:none;stroke:#F4D9E9;stroke-miterlimit:10;" x1="334.109" y1="199.797" x2="368.002" y2="199.797"/>
		</g>
		<g>
			<g>
				
					<line style="fill:none;stroke:#111010;stroke-width:0.75;stroke-miterlimit:10;" x1="462.542" y1="142.12" x2="468.05" y2="147.627"/>
				
					<line style="fill:none;stroke:#111010;stroke-width:0.75;stroke-miterlimit:10;" x1="462.542" y1="147.627" x2="468.05" y2="142.12"/>
			</g>
			
				<rect x="453.926" y="142.26" style="fill:none;stroke:#111010;stroke-width:0.75;stroke-miterlimit:10;" width="5.227" height="5.227"/>
			
				<line style="fill:none;stroke:#111010;stroke-width:0.75;stroke-miterlimit:10;" x1="450.875" y1="143.342" x2="447.393" y2="143.342"/>
		</g>
	</g>
	<rect y="393.971" style="fill:#FFE9C5;" width="500" height="107.269"/>
	<g>
		<path style="fill:#F8E970;" d="M139.203,77.093H68.54c-1.385,0-2.508-1.123-2.508-2.508V27.964c0-1.385,1.123-2.508,2.508-2.508
			h70.663c1.385,0,2.508,1.123,2.508,2.508v46.622C141.711,75.97,140.588,77.093,139.203,77.093z"/>
		<path style="fill:#FFFFFF;" d="M119.828,50.405L89.035,38.097c-0.615-0.246-1.285,0.207-1.285,0.87v24.614
			c0,0.663,0.669,1.116,1.285,0.87l30.793-12.307C120.613,51.831,120.613,50.718,119.828,50.405z"/>
	</g>
	<g>
		<path style="fill:#DEAEC5;" d="M290.662,234.237v-9.361h-1.846v9.361c-1.59,0.412-2.769,1.843-2.769,3.562
			c0,2.039,1.653,3.692,3.692,3.692c2.039,0,3.692-1.653,3.692-3.692C293.431,236.08,292.252,234.649,290.662,234.237z"/>
		<path style="fill:#DEAEC5;" d="M310.241,222.398c0.345-0.525,0.172-1.219-0.365-1.544c-0.968-0.584-2.6-1.76-4.422-3.886
			c-2.915-3.401-1.457-13.36-4.979-21.376c-2.844-6.474-8.188-5.962-10.736-5.962c-2.53,0-7.892-0.512-10.736,5.962
			c-3.521,8.016-2.064,17.976-4.979,21.376c-1.822,2.125-3.454,3.302-4.422,3.886c-0.538,0.324-0.711,1.019-0.365,1.544
			c1.413,2.147,6.051,6.848,19.695,7.194l0.004,0.022c0.275,0,0.535-0.008,0.803-0.011c0.268,0.003,0.528,0.011,0.803,0.011
			l0.004-0.022C304.19,229.246,308.828,224.545,310.241,222.398z"/>
		<g>
			<g>
				<path style="fill:none;stroke:#DEAEC5;stroke-miterlimit:10;" d="M272.835,200.51c-0.099-5.286,2.289-10.566,6.323-13.983"/>
				<path style="fill:none;stroke:#DEAEC5;stroke-miterlimit:10;" d="M269.075,196.039c0.375-3.727,2.322-7.271,5.265-9.587"/>
			</g>
			<g>
				<path style="fill:none;stroke:#DEAEC5;stroke-miterlimit:10;" d="M306.643,200.51c0.099-5.286-2.289-10.566-6.323-13.983"/>
				<path style="fill:none;stroke:#DEAEC5;stroke-miterlimit:10;" d="M310.404,196.039c-0.376-3.727-2.322-7.271-5.265-9.587"/>
			</g>
		</g>
	</g>
	<g>
		<rect x="319.45" y="31.467" style="fill:#E8A3A2;" width="162.092" height="60.835"/>
		<rect x="319.45" y="31.467" style="fill:#F0C441;" width="66.723" height="60.835"/>
		<circle style="fill:#FFFFFF;" cx="352.812" cy="61.885" r="19.802"/>
		<path style="fill:none;stroke:#111010;stroke-width:0.75;stroke-miterlimit:10;" d="M352.812,75.294v-16.15
			c0-0.232-0.289-0.339-0.44-0.162l-11.816,13.829"/>
		<g>
			<rect x="395.595" y="42.083" style="fill:none;stroke:#EDCACA;stroke-miterlimit:10;" width="72.498" height="9.238"/>
			<rect x="395.595" y="72.449" style="fill:none;stroke:#EDCACA;stroke-miterlimit:10;" width="37.904" height="9.238"/>
			<rect x="395.595" y="57.266" style="fill:none;stroke:#EDCACA;stroke-miterlimit:10;" width="61.969" height="9.238"/>
		</g>
	</g>
	<g>
		<path style="fill:#97B6EB;" d="M327.431,165.294h-61.065c-2.173,0-3.935-1.762-3.935-3.935V81.101
			c0-2.173,1.762-3.935,3.935-3.935h61.065c2.173,0,3.935,1.762,3.935,3.935v80.259
			C331.365,163.533,329.604,165.294,327.431,165.294z"/>
		<path style="fill:#4B5A8F;" d="M301.368,72.476c0.389-1.298,0.424-2.748-1.341-4.594c-0.825-0.863-1.936-1.43-3.13-1.43
			c-2.588,0.001-4.685,2.099-4.685,4.687c0,0.468,0.09,0.911,0.217,1.338h-8.109c-1.84,0-3.332,1.492-3.332,3.332v7.451h31.821
			v-7.451c0-1.84-1.492-3.332-3.332-3.332H301.368z"/>
		<g>
			<line style="fill:none;stroke:#E4E8F4;stroke-miterlimit:10;" x1="274.529" y1="97.338" x2="319.268" y2="97.338"/>
			<line style="fill:none;stroke:#E4E8F4;stroke-miterlimit:10;" x1="274.529" y1="104.542" x2="319.268" y2="104.542"/>
			<line style="fill:none;stroke:#E4E8F4;stroke-miterlimit:10;" x1="274.529" y1="111.747" x2="319.268" y2="111.747"/>
			<line style="fill:none;stroke:#E4E8F4;stroke-miterlimit:10;" x1="274.529" y1="118.951" x2="319.268" y2="118.951"/>
			<line style="fill:none;stroke:#E4E8F4;stroke-miterlimit:10;" x1="274.529" y1="126.156" x2="319.268" y2="126.156"/>
			<line style="fill:none;stroke:#E4E8F4;stroke-miterlimit:10;" x1="274.529" y1="133.361" x2="319.268" y2="133.361"/>
			<line style="fill:none;stroke:#E4E8F4;stroke-miterlimit:10;" x1="274.529" y1="140.565" x2="319.268" y2="140.565"/>
			<line style="fill:none;stroke:#E4E8F4;stroke-miterlimit:10;" x1="274.529" y1="147.77" x2="319.268" y2="147.77"/>
		</g>
	</g>
	<g>
		<circle style="fill:#A2DFD9;" cx="58.774" cy="108.976" r="49.651"/>
		<path style="fill:#E89F9F;" d="M29.599,68.8c-21.094,15.318-26.571,44.131-13.216,66l42.39-25.825l16.888-46.693
			C60.707,56.889,43.432,58.755,29.599,68.8z"/>
		<path style="fill:#A8BEFD;" d="M16.383,134.801l42.39-25.825L41.191,62.548c-4.032,1.529-7.934,3.597-11.592,6.253
			C8.505,84.119,3.028,112.931,16.383,134.801z"/>
	</g>
	<g>
		<path style="fill:#A8BEFD;" d="M451.231,417.994h-22.577c-5.664,0-10.381-4.344-10.846-9.989l-5.336-64.739h54.941l-5.336,64.739
			C461.612,413.65,456.895,417.994,451.231,417.994z"/>
		<path style="fill:#E89F9F;" d="M469.55,346.069h-59.215l0.874-3.339c0.278-1.062,1.237-1.802,2.334-1.802h52.798
			c1.097,0,2.057,0.74,2.335,1.802L469.55,346.069z"/>
		<polygon style="fill:#4B5A8F;" points="464.373,396.527 466.993,364.733 412.891,364.733 415.512,396.527 		"/>
		<rect x="415.441" y="337.898" style="fill:#E89F9F;" width="49.002" height="4.278"/>
	</g>
	<path style="fill:#E8A3A2;" d="M246.126,112.418c0,0-8.807-43.528-33.131-53.079c-21.15-8.305-67.219-12.606-81.169,34.135
		l57.05-26.168l26.088,8.334l13.95,17.936L246.126,112.418z"/>
	<path style="fill:#97B6EB;" d="M117.999,193.806"/>
	<g>
		<g>
			<path style="fill:#B26964;" d="M154.446,151.258l-25.032,41.15c0,0-56.804,13.259-61.618,17.077
				c-4.814,3.818-12.516,184.486-12.516,184.486h185.815L220.877,205.6c0,0-35.623-3.894-36.585-9.649
				c-0.963-5.755,3.851-31.799,3.851-31.799L154.446,151.258z"/>
			<path style="fill:#A55751;" d="M188.36,199.114c-2.336-0.972-3.879-2.031-4.068-3.163c-0.963-5.755,3.851-31.799,3.851-31.799
				l-33.697-12.895l-14.092,23.165c0.898,4.463,2.261,8.755,4.006,12.632C153.722,208.455,172.476,208.386,188.36,199.114z"/>
			<path style="fill:#DFE0CA;" d="M219.74,205.589c0,0-12.42-1.361-22.79-3.66c-12.339,12.073-28.357,18.881-47.728,16.114
				c-14.553-1.819-24.684-11.365-29.967-23.499c-16.226,3.915-48.991,12.069-52.597,14.929
				c-4.814,3.818-12.516,184.486-12.516,184.486h185.815L219.74,205.589z"/>
			<path style="fill:#EAC268;" d="M63.201,247.859c-3.997,54.081-7.92,146.111-7.92,146.111h72.3
				c-9.01-41.499-9.099-84.398-6.014-127.181c-8.535,5.395-16.366,14.686-26.206,15.265
				C78.072,282.965,72.373,261.524,63.201,247.859z"/>
			<path style="fill:#D7B259;" d="M67.796,209.485c-1.378,1.093-2.993,16.682-4.596,38.374
				c9.173,13.665,14.871,35.105,32.159,34.196c9.841-0.579,17.671-9.87,26.206-15.265c1.796-24.904,4.665-49.77,7.484-74.297
				C124.202,193.63,72.385,205.846,67.796,209.485z"/>
			<path style="fill:#D7B259;" d="M187.769,198.859c-4.034,30.087-8.48,59.862-13.117,89.983
				c10.788-0.194,19.864-8.373,27.708-17.786c3-2,7-4,10-3c5.297,2.445,10.595,5.055,15.96,6.885l-7.442-69.34
				C220.877,205.6,196.912,202.978,187.769,198.859z"/>
			<path style="fill:#EAC268;" d="M202.36,271.055c-7.844,9.413-16.92,17.592-27.708,17.786
				c-4.003,26.004-8.146,52.263-12.292,79.214c-1.521,8.747-2.896,17.348-3.963,25.916h82.698L228.32,274.94
				c-5.365-1.83-10.662-4.44-15.96-6.885C209.36,267.055,205.36,269.055,202.36,271.055z"/>
			<path style="fill:#C3867F;" d="M216.32,205.038c0,0,17.328,0.778,22.499,7.367c12.346,15.731,50.92,125.389,50.92,125.389
				l45.621-73.185c0,0,7.211-27.02,10.817-31.904c3.606-4.884,13.521-2.681,13.521-2.681s45.071-41.656,49.578-39.507
				c4.507,2.149-23.437,37.29-23.437,37.29s19.831,16.043,18.028,27.86c-1.803,11.817-18.93,21.77-18.93,21.77
				s-28.845,102.724-65.803,136.077c-36.958,33.352-74.951,18.028-78.04-5.409C238.007,384.668,216.32,205.038,216.32,205.038z"/>
			<path style="fill:#D7B259;" d="M252.36,275.055c4.339-2.336,7.778-5.46,10.818-8.91c-9.548-24.396-19.223-47.195-24.358-53.739
				c-5.171-6.589-22.499-7.367-22.499-7.367s3.716,30.781,8.291,68.521C233.605,277.165,242.747,279.175,252.36,275.055z"/>
			<path style="fill:#EAC268;" d="M322.036,285.985l-32.297,51.81c0,0-13.157-37.4-26.562-71.65c-3.04,3.45-6.479,6.574-10.818,8.91
				c-9.613,4.12-18.755,2.11-27.749-1.496c6.477,53.431,14.674,120.811,16.484,134.546c3.088,23.437,41.081,38.761,78.04,5.409
				c22.624-20.417,42.206-66.827,53.994-99.758C355.728,305.504,338.919,295.803,322.036,285.985z"/>
			<path style="fill:#DFE0CA;" d="M322.036,285.985c16.883,9.818,33.692,19.519,51.093,27.771
				c2.516-7.028,4.675-13.438,6.435-18.855c-16.932-6.723-34.146-12.428-50.523-20.153L322.036,285.985z"/>
			<path style="fill:#B26964;" d="M403.868,255.667c1.803-11.817-18.028-27.86-18.028-27.86s27.944-35.141,23.437-37.29
				c-4.507-2.149-49.578,39.507-49.578,39.507s-9.916-2.203-13.521,2.681c-3.606,4.884-10.817,31.904-10.817,31.904l-6.32,10.138
				c16.377,7.725,33.591,13.43,50.523,20.153c3.464-10.663,5.375-17.464,5.375-17.464S402.065,267.484,403.868,255.667z"/>
			<path style="fill:#D7B259;" d="M44.715,225.769c-1.474,3.357-3.749,9.736-6.464,18.107c7.14-4.318,14.809-6.512,22.109,0.179
				c4.539,5.365,8.058,12.942,11.959,19.923l13.189-60.505C85.508,203.473,53.347,206.103,44.715,225.769z"/>
			<path style="fill:#EAC268;" d="M38.251,243.876C25.06,284.533,1.459,372.255,8.618,389.825
				c8.632,21.188,149.78,42.961,149.78,42.961l24.43-15.496L58.423,327.729l13.896-63.751c-3.901-6.981-7.42-14.558-11.959-19.923
				C53.06,237.363,45.391,239.558,38.251,243.876z"/>
			<path style="fill:#B26964;" d="M162.375,84.944c-2.427,2.58-4.246,5.657-5.369,9.017c-3.396,10.156-11.839,36.238-11.973,44.902
				c-0.168,10.85,6.524,37.48,19.325,42.011c12.801,4.531,27.271,1.647,37.129-7.414c9.858-9.061,36.19-42.423,38.263-53.131
				s-9.46-48.601-40.003-51.896C180.467,66.353,168.158,78.798,162.375,84.944z"/>
			<path style="opacity:0.26;fill:#BF615C;" d="M215.641,135.029c-0.374-0.151-0.746-0.289-1.111-0.414
				c-4.521-1.552-8.988-3.301-13.203-5.557c-9.206-4.927-17.188-12.253-27.08-15.595c-2.981-1.007-6.214-1.631-9.272-0.887
				c-8.842,2.151-8.099,13.196-1.542,17.474c7.401,4.829,15.821,8.716,23.715,12.702c4.926,2.487,10.796,5.839,16.624,6.807
				c2.437,0.963,4.908,1.801,7.414,2.417c4.893,1.204,10.293-1.512,11.875-6.382C224.774,140.321,220.03,136.798,215.641,135.029z"
				/>
			<path style="fill:none;stroke:#0A0200;stroke-miterlimit:10;" d="M214.855,115.818c5.627,1.013,9.649,5.302,13.198,10.454"/>
			<path style="fill:none;stroke:#77312F;stroke-miterlimit:10;" d="M190.517,141.897c0.383-2.81,0.901-5.601,1.552-8.362
				c0.509-2.16,1.104-4.312,2.037-6.326c2.761-5.958,8.694-10.18,15.124-11.337"/>
			<path style="fill:#111010;" d="M179.103,113.098c0,1.983-1.607,3.59-3.59,3.59s-3.59-1.607-3.59-3.59
				c0-1.983,1.607-3.59,3.59-3.59S179.103,111.115,179.103,113.098z"/>
			<path style="fill:#111010;" d="M219.911,134.543c0,1.983-1.607,3.59-3.59,3.59s-3.59-1.607-3.59-3.59s1.607-3.59,3.59-3.59
				S219.911,132.56,219.911,134.543z"/>
			<g>
				<g>
					<path style="fill:#111010;" d="M181.776,115.82c0.346-3.369-1.318-6.427-4.144-8.287c-1.724-1.135-3.766-1.604-5.573-2.579
						c-1.933-1.043-3.79-2.384-5.663-3.53c-0.493-0.302-1.298,0.08-1.234,0.708c0.357,3.507,2.284,5.724,5.644,6.98
						c1.63,0.609,3.218,0.528,4.91,0.739c3.214,0.402,4.923,3.061,5.37,6.062C181.148,116.335,181.738,116.181,181.776,115.82
						L181.776,115.82z"/>
				</g>
			</g>
			<g>
				<g>
					<path style="fill:#111010;" d="M210.01,132.074c3.448-1.694,6.379-0.859,8.936,1.969c1.056,1.168,2.109,2.164,3.514,2.909
						c2.664,1.414,5.38,1.618,7.943-0.053c0.486-0.317,0.577-1.121,0-1.417c-2.246-1.15-4.72-1.693-6.935-2.873
						c-1.705-0.909-3.175-2.152-5.037-2.762c-3.171-1.04-6.332-0.492-8.848,1.675C209.265,131.797,209.671,132.241,210.01,132.074
						L210.01,132.074z"/>
				</g>
			</g>
			<path style="fill:none;stroke:#0A0200;stroke-miterlimit:10;" d="M189.433,101.41c-1.307-2.571-4.076-4.749-7.544-5.933
				c-3.467-1.184-7.592-1.36-11.234-0.48"/>
			<g>
				<g>
					<path style="fill:#B26964;stroke:#A55751;stroke-miterlimit:10;" d="M385.512,226.992c-4.519,4.16-8.614,8.78-12.201,13.765
						c-1.343,1.867-2.645,3.853-3.079,6.111c-0.457,2.38,0.094,4.836,0.824,7.148c1.241,3.931,3.01,7.694,5.243,11.159
						c1.75,2.714,3.862,5.312,6.699,6.857c2.836,1.545,6.523,1.847,9.222,0.073"/>
					<path style="fill:#C3867F;stroke:#A55751;stroke-miterlimit:10;" d="M372.108,255.792c7.243-6.485,14.486-12.97,21.728-19.455"
						/>
					<path style="fill:none;stroke:#A55751;stroke-miterlimit:10;" d="M377.223,266.652c9.404-5.291,19.076-10.811,25.638-19.377"/>
				</g>
			</g>
			<path style="fill:#B26964;stroke:#A55751;stroke-miterlimit:10;" d="M359.028,229.749c9.33,2.067,18.66,4.133,27.99,6.2
				c0.604,0.134,1.25,0.292,1.659,0.755c0.409,0.464,0.188,2.316-0.338,2.64c-8.491,5.241-18.802,6.006-28.615,4.199
				c5.468,7.893,5.221,19.298-0.585,26.945"/>
			
				<line style="fill:none;stroke:#D7B259;stroke-width:2;stroke-miterlimit:10;" x1="239.958" y1="393.959" x2="223.001" y2="260.268"/>
			<polyline style="fill:none;stroke:#D7B259;stroke-width:2;stroke-miterlimit:10;" points="76.707,243.85 58.423,327.729 
				158.425,399.723 			"/>
			<g>
				<g>
					<linearGradient id="SVGID_1_" gradientUnits="userSpaceOnUse" x1="206.3064" y1="295.8773" x2="266.7807" y2="446.0201">
						<stop  offset="0" style="stop-color:#FFFFFF;stop-opacity:0"/>
						<stop  offset="1" style="stop-color:#61C4DB"/>
					</linearGradient>
					<path style="fill:url(#SVGID_1_);" d="M343.72,442.147L75.767,439.18c0,0-66.512-130.421,71.988-213.964
						c138.501-83.543,264.851,48.175,253.538,108.465L343.72,442.147z"/>
					<g>
						<path style="fill:#3A3341;" d="M337.997,442.333H78.92c-1.742,0-3.153-1.412-3.153-3.153l0,0c0-1.741,1.412-3.153,3.153-3.153
							h265.384l0,0C344.304,439.509,341.48,442.333,337.997,442.333z"/>
					</g>
					<g>
						<path style="fill:#3A3341;" d="M192.635,325.923h204.429c3.726,0,6.067,4.295,4.229,7.758L343.72,442.147H123.464
							l58.002-109.273C183.746,328.578,188.012,325.923,192.635,325.923z"/>
					</g>
				</g>
			</g>
			<path style="opacity:0.26;fill:#BF615C;" d="M188.339,156.664c-1.078,0.589-2.413,0.96-3.374,1.136
				c-3.381,0.618-6.89-0.56-9.239-3.063c-2.56-2.729-6.121-9.221-0.58-10.892c1.161-0.35,2.466-0.385,3.545,0.17
				c2.03,1.043,2.566,3.647,2.87,5.91c1.37-0.706,2.868-1.424,4.386-1.16c1.24,0.216,2.299,1.085,2.975,2.147
				c0.844,1.313,1.889,3.179,0.844,4.598C189.434,155.961,188.924,156.345,188.339,156.664z"/>
			<path style="fill:none;stroke:#77312F;stroke-miterlimit:10;" d="M191.688,154.717c-7.789-0.156-15.429-3.944-20.269-10.048"/>
		</g>
		<g>
			<path style="fill:#E8A3A2;" d="M219.851,75.562c0,0-16.927-0.115-34.525,6.225c-18.018,6.491-31.544,21.649-36.306,40.2h0
				c-2.993,11.658-3.361,23.88-0.707,35.62c2.016,8.917,5.793,17.813,12.831,21.785c16.559,9.348,34.721-1.602,38.193-4.273
				c3.472-2.671,17.855-17.335,34.454-42.467l-20.61-60.584l7.255,1.291c0,0,27.243,21.367,26.174,46.74
				c-0.499,11.856-2.357,29.131-4.195,44.174c-1.941,15.883-0.622,31.936,3.21,47.472c1.178,4.775,1.902,10.57,1.519,17.326
				c0,0-36.079,40.224-88.428,38.888c-52.349-1.335-82.807-63.008-82.807-63.008l42.089-11.145c0,0-1.522-59.161,10.129-94.956
				C142.687,54.114,191.273,61.14,219.851,75.562z"/>
			<g>
				
					<ellipse transform="matrix(0.9471 -0.3208 0.3208 0.9471 -24.8673 60.296)" style="fill:none;stroke:#FBBB13;stroke-width:0.75;stroke-miterlimit:10;" cx="170.55" cy="105.614" rx="25.521" ry="25.521"/>
				
					<ellipse transform="matrix(0.2682 -0.9634 0.9634 0.2682 33.0961 316.0905)" style="fill:none;stroke:#FBBB13;stroke-width:0.75;stroke-miterlimit:10;" cx="224.611" cy="136.26" rx="25.521" ry="25.521"/>
				<path style="fill:none;stroke:#FBBB13;stroke-width:0.75;stroke-miterlimit:10;" d="M193.147,117.563
					c3.998,0.718,7.883,2.154,9.364,5.936"/>
			</g>
			<path style="fill:#A55751;" d="M156.486,175.471c0,0,9.372,23.825,20.217,26.89c10.845,3.065,19.477-25.258,19.477-25.258
				S176.545,189.529,156.486,175.471z"/>
			<path style="fill:none;stroke:#A55751;stroke-miterlimit:10;" d="M117.999,193.806c0,0,29.027,21.648,64.723,17.965"/>
			<path style="fill:none;stroke:#A55751;stroke-miterlimit:10;" d="M241.515,196.249c-13.079,16.93-47.195,48.17-109.15,23.83"/>
			<path style="fill:none;stroke:#A55751;stroke-miterlimit:10;" d="M89.273,200.841c0,0,25.689,63.568,119.082,55.513"/>
		</g>
	</g>
</g>
</svg>
