<?xml version="1.0" encoding="UTF-8"?>
<svg xmlns="http://www.w3.org/2000/svg" xmlns:xlink="http://www.w3.org/1999/xlink" width="2000.16" height="2000.16" viewBox="0 0 2000.16 2000.16">
<defs>
<clipPath id="clip-0">
<path clip-rule="nonzero" d="M 734 481 L 850 481 L 850 718 L 734 718 Z M 734 481 "/>
</clipPath>
<clipPath id="clip-1">
<path clip-rule="evenodd" d="M 856.652344 235.179688 C 547.558594 272.699219 589.632812 667.449219 577.144531 790.019531 C 569.097656 869.039062 461.652344 959.070312 470.148438 1053.46875 C 496.277344 1343.828125 416.4375 1631.871094 416.4375 1631.871094 C 484.570312 1663.214844 583.644531 1677.992188 663.726562 1631.871094 C 705.667969 1607.71875 708.976562 1484.929688 732.6875 1489.054688 C 806.933594 1501.96875 760.269531 1618.121094 815.046875 1631.871094 C 871.382812 1646.011719 1048.460938 1670.863281 1128.851562 1630.75 C 1165.25 1612.589844 1173.808594 1640.894531 1219.929688 1654.605469 C 1263.898438 1667.679688 1251.609375 1589.519531 1298.351562 1560.851562 C 1298.351562 1560.851562 1300.261719 1201.652344 1196.71875 957.929688 C 1150.71875 849.648438 1104.910156 828.699219 1106.5 756.398438 C 1109.589844 615.609375 1174.449219 196.601562 856.652344 235.179688 Z M 856.652344 235.179688 "/>
</clipPath>
<clipPath id="clip-2">
<path clip-rule="nonzero" d="M 761 511 L 1079 511 L 1079 791 L 761 791 Z M 761 511 "/>
</clipPath>
<clipPath id="clip-3">
<path clip-rule="evenodd" d="M 856.652344 235.179688 C 547.558594 272.699219 589.632812 667.449219 577.144531 790.019531 C 569.097656 869.039062 461.652344 959.070312 470.148438 1053.46875 C 496.277344 1343.828125 416.4375 1631.871094 416.4375 1631.871094 C 484.570312 1663.214844 583.644531 1677.992188 663.726562 1631.871094 C 705.667969 1607.71875 708.976562 1484.929688 732.6875 1489.054688 C 806.933594 1501.96875 760.269531 1618.121094 815.046875 1631.871094 C 871.382812 1646.011719 1048.460938 1670.863281 1128.851562 1630.75 C 1165.25 1612.589844 1173.808594 1640.894531 1219.929688 1654.605469 C 1263.898438 1667.679688 1251.609375 1589.519531 1298.351562 1560.851562 C 1298.351562 1560.851562 1300.261719 1201.652344 1196.71875 957.929688 C 1150.71875 849.648438 1104.910156 828.699219 1106.5 756.398438 C 1109.589844 615.609375 1174.449219 196.601562 856.652344 235.179688 Z M 856.652344 235.179688 "/>
</clipPath>
<clipPath id="clip-4">
<path clip-rule="nonzero" d="M 646 837 L 1203 837 L 1203 1032 L 646 1032 Z M 646 837 "/>
</clipPath>
<clipPath id="clip-5">
<path clip-rule="evenodd" d="M 856.652344 235.179688 C 547.558594 272.699219 589.632812 667.449219 577.144531 790.019531 C 569.097656 869.039062 461.652344 959.070312 470.148438 1053.46875 C 496.277344 1343.828125 416.4375 1631.871094 416.4375 1631.871094 C 484.570312 1663.214844 583.644531 1677.992188 663.726562 1631.871094 C 705.667969 1607.71875 708.976562 1484.929688 732.6875 1489.054688 C 806.933594 1501.96875 760.269531 1618.121094 815.046875 1631.871094 C 871.382812 1646.011719 1048.460938 1670.863281 1128.851562 1630.75 C 1165.25 1612.589844 1173.808594 1640.894531 1219.929688 1654.605469 C 1263.898438 1667.679688 1251.609375 1589.519531 1298.351562 1560.851562 C 1298.351562 1560.851562 1300.261719 1201.652344 1196.71875 957.929688 C 1150.71875 849.648438 1104.910156 828.699219 1106.5 756.398438 C 1109.589844 615.609375 1174.449219 196.601562 856.652344 235.179688 Z M 856.652344 235.179688 "/>
</clipPath>
<clipPath id="clip-6">
<path clip-rule="nonzero" d="M 634 1013 L 1210 1013 L 1210 1203 L 634 1203 Z M 634 1013 "/>
</clipPath>
<clipPath id="clip-7">
<path clip-rule="evenodd" d="M 856.652344 235.179688 C 547.558594 272.699219 589.632812 667.449219 577.144531 790.019531 C 569.097656 869.039062 461.652344 959.070312 470.148438 1053.46875 C 496.277344 1343.828125 416.4375 1631.871094 416.4375 1631.871094 C 484.570312 1663.214844 583.644531 1677.992188 663.726562 1631.871094 C 705.667969 1607.71875 708.976562 1484.929688 732.6875 1489.054688 C 806.933594 1501.96875 760.269531 1618.121094 815.046875 1631.871094 C 871.382812 1646.011719 1048.460938 1670.863281 1128.851562 1630.75 C 1165.25 1612.589844 1173.808594 1640.894531 1219.929688 1654.605469 C 1263.898438 1667.679688 1251.609375 1589.519531 1298.351562 1560.851562 C 1298.351562 1560.851562 1300.261719 1201.652344 1196.71875 957.929688 C 1150.71875 849.648438 1104.910156 828.699219 1106.5 756.398438 C 1109.589844 615.609375 1174.449219 196.601562 856.652344 235.179688 Z M 856.652344 235.179688 "/>
</clipPath>
<clipPath id="clip-8">
<path clip-rule="nonzero" d="M 1408 1348 L 1483 1348 L 1483 1420 L 1408 1420 Z M 1408 1348 "/>
</clipPath>
<clipPath id="clip-9">
<path clip-rule="evenodd" d="M 1364.539062 1406.546875 C 1391.589844 1398.589844 1427.121094 1368.734375 1446.039062 1349.058594 C 1454.460938 1340.289062 1462.808594 1331.460938 1471.320312 1322.769531 C 1474.058594 1319.96875 1478.300781 1315.046875 1482.671875 1314.921875 C 1492.5 1314.648438 1484.671875 1338.6875 1482.808594 1342.632812 C 1481.738281 1344.886719 1480.671875 1347.121094 1479.441406 1349.289062 C 1479.25 1349.617188 1476.859375 1353.359375 1477.769531 1353.019531 C 1482.589844 1351.238281 1486.238281 1343 1489.078125 1339.167969 C 1497.578125 1327.695312 1505.421875 1315.214844 1515.261719 1304.863281 C 1518.75 1301.195312 1525.738281 1292.414062 1531.738281 1294.03125 C 1537.019531 1295.460938 1535.808594 1303.679688 1535.171875 1307.601562 C 1533.070312 1320.5 1527.691406 1332.390625 1521.671875 1343.878906 C 1519.929688 1347.199219 1518.269531 1350.582031 1516.378906 1353.820312 C 1515.710938 1354.957031 1515.019531 1356.082031 1514.308594 1357.1875 C 1513.820312 1357.945312 1511.929688 1359.777344 1512.738281 1359.390625 C 1518.171875 1356.804688 1523.089844 1345.519531 1526.230469 1340.871094 C 1537.210938 1324.609375 1547.679688 1307.980469 1557.699219 1291.105469 C 1559.25 1288.507812 1570.769531 1266.113281 1576.011719 1274.648438 C 1579.789062 1280.816406 1578.089844 1291.308594 1576.988281 1297.945312 C 1573.46875 1319.167969 1562.820312 1338.230469 1553.558594 1357.3125 C 1553.191406 1358.078125 1554.328125 1355.785156 1554.800781 1355.070312 C 1555.839844 1353.453125 1557.058594 1351.953125 1558.179688 1350.386719 C 1559.019531 1349.214844 1571.761719 1329.289062 1572.660156 1338.1875 C 1574.261719 1353.957031 1563.359375 1371.820312 1556.910156 1385.476562 C 1535.949219 1429.824219 1489.03125 1482.808594 1445.601562 1504.804688 C 1414.078125 1520.769531 1373.578125 1515.351562 1361.179688 1478.257812 C 1357.75 1468.003906 1356.910156 1457.226562 1357.589844 1446.5 Z M 1364.539062 1406.546875 "/>
</clipPath>
<clipPath id="clip-10">
<path clip-rule="nonzero" d="M 1451 1298 L 1545 1298 L 1545 1418 L 1451 1418 Z M 1451 1298 "/>
</clipPath>
<clipPath id="clip-11">
<path clip-rule="evenodd" d="M 1364.539062 1406.546875 C 1391.589844 1398.589844 1427.121094 1368.734375 1446.039062 1349.058594 C 1454.460938 1340.289062 1462.808594 1331.460938 1471.320312 1322.769531 C 1474.058594 1319.96875 1478.300781 1315.046875 1482.671875 1314.921875 C 1492.5 1314.648438 1484.671875 1338.6875 1482.808594 1342.632812 C 1481.738281 1344.886719 1480.671875 1347.121094 1479.441406 1349.289062 C 1479.25 1349.617188 1476.859375 1353.359375 1477.769531 1353.019531 C 1482.589844 1351.238281 1486.238281 1343 1489.078125 1339.167969 C 1497.578125 1327.695312 1505.421875 1315.214844 1515.261719 1304.863281 C 1518.75 1301.195312 1525.738281 1292.414062 1531.738281 1294.03125 C 1537.019531 1295.460938 1535.808594 1303.679688 1535.171875 1307.601562 C 1533.070312 1320.5 1527.691406 1332.390625 1521.671875 1343.878906 C 1519.929688 1347.199219 1518.269531 1350.582031 1516.378906 1353.820312 C 1515.710938 1354.957031 1515.019531 1356.082031 1514.308594 1357.1875 C 1513.820312 1357.945312 1511.929688 1359.777344 1512.738281 1359.390625 C 1518.171875 1356.804688 1523.089844 1345.519531 1526.230469 1340.871094 C 1537.210938 1324.609375 1547.679688 1307.980469 1557.699219 1291.105469 C 1559.25 1288.507812 1570.769531 1266.113281 1576.011719 1274.648438 C 1579.789062 1280.816406 1578.089844 1291.308594 1576.988281 1297.945312 C 1573.46875 1319.167969 1562.820312 1338.230469 1553.558594 1357.3125 C 1553.191406 1358.078125 1554.328125 1355.785156 1554.800781 1355.070312 C 1555.839844 1353.453125 1557.058594 1351.953125 1558.179688 1350.386719 C 1559.019531 1349.214844 1571.761719 1329.289062 1572.660156 1338.1875 C 1574.261719 1353.957031 1563.359375 1371.820312 1556.910156 1385.476562 C 1535.949219 1429.824219 1489.03125 1482.808594 1445.601562 1504.804688 C 1414.078125 1520.769531 1373.578125 1515.351562 1361.179688 1478.257812 C 1357.75 1468.003906 1356.910156 1457.226562 1357.589844 1446.5 Z M 1364.539062 1406.546875 "/>
</clipPath>
<clipPath id="clip-12">
<path clip-rule="nonzero" d="M 1484 1295 L 1579 1295 L 1579 1430 L 1484 1430 Z M 1484 1295 "/>
</clipPath>
<clipPath id="clip-13">
<path clip-rule="evenodd" d="M 1364.539062 1406.546875 C 1391.589844 1398.589844 1427.121094 1368.734375 1446.039062 1349.058594 C 1454.460938 1340.289062 1462.808594 1331.460938 1471.320312 1322.769531 C 1474.058594 1319.96875 1478.300781 1315.046875 1482.671875 1314.921875 C 1492.5 1314.648438 1484.671875 1338.6875 1482.808594 1342.632812 C 1481.738281 1344.886719 1480.671875 1347.121094 1479.441406 1349.289062 C 1479.25 1349.617188 1476.859375 1353.359375 1477.769531 1353.019531 C 1482.589844 1351.238281 1486.238281 1343 1489.078125 1339.167969 C 1497.578125 1327.695312 1505.421875 1315.214844 1515.261719 1304.863281 C 1518.75 1301.195312 1525.738281 1292.414062 1531.738281 1294.03125 C 1537.019531 1295.460938 1535.808594 1303.679688 1535.171875 1307.601562 C 1533.070312 1320.5 1527.691406 1332.390625 1521.671875 1343.878906 C 1519.929688 1347.199219 1518.269531 1350.582031 1516.378906 1353.820312 C 1515.710938 1354.957031 1515.019531 1356.082031 1514.308594 1357.1875 C 1513.820312 1357.945312 1511.929688 1359.777344 1512.738281 1359.390625 C 1518.171875 1356.804688 1523.089844 1345.519531 1526.230469 1340.871094 C 1537.210938 1324.609375 1547.679688 1307.980469 1557.699219 1291.105469 C 1559.25 1288.507812 1570.769531 1266.113281 1576.011719 1274.648438 C 1579.789062 1280.816406 1578.089844 1291.308594 1576.988281 1297.945312 C 1573.46875 1319.167969 1562.820312 1338.230469 1553.558594 1357.3125 C 1553.191406 1358.078125 1554.328125 1355.785156 1554.800781 1355.070312 C 1555.839844 1353.453125 1557.058594 1351.953125 1558.179688 1350.386719 C 1559.019531 1349.214844 1571.761719 1329.289062 1572.660156 1338.1875 C 1574.261719 1353.957031 1563.359375 1371.820312 1556.910156 1385.476562 C 1535.949219 1429.824219 1489.03125 1482.808594 1445.601562 1504.804688 C 1414.078125 1520.769531 1373.578125 1515.351562 1361.179688 1478.257812 C 1357.75 1468.003906 1356.910156 1457.226562 1357.589844 1446.5 Z M 1364.539062 1406.546875 "/>
</clipPath>
<clipPath id="clip-14">
<path clip-rule="nonzero" d="M 829 347 L 1063 347 L 1063 441 L 829 441 Z M 829 347 "/>
</clipPath>
<clipPath id="clip-15">
<path clip-rule="evenodd" d="M 1072.539062 463.070312 C 1073.050781 470.410156 1063.269531 522.210938 1068.601562 544.351562 C 1075.988281 575.050781 1086.578125 612.148438 1076.5 656.191406 C 1069.300781 687.660156 1017.429688 743.171875 984.054688 753.78125 C 910.378906 777.199219 803.910156 636.550781 803.886719 621.269531 C 803.722656 524.050781 870.789062 429.808594 903.238281 389.699219 C 910.101562 381.21875 935.488281 349.441406 947.613281 347.578125 C 980.347656 342.578125 1051.851562 433.621094 1072.539062 463.070312 Z M 1072.539062 463.070312 "/>
</clipPath>
</defs>
<path fill-rule="evenodd" fill="#991b1b" fill-opacity="1" d="M 856.652344 235.179688 C 547.558594 272.699219 589.632812 667.449219 577.144531 790.019531 C 569.097656 869.039062 461.652344 959.070312 470.148438 1053.46875 C 496.277344 1343.828125 416.4375 1631.871094 416.4375 1631.871094 C 484.570312 1663.214844 583.644531 1677.992188 663.726562 1631.871094 C 705.667969 1607.71875 708.976562 1484.929688 732.6875 1489.054688 C 806.933594 1501.96875 760.269531 1618.121094 815.046875 1631.871094 C 871.382812 1646.011719 1048.460938 1670.863281 1128.851562 1630.75 C 1165.25 1612.589844 1173.808594 1640.894531 1219.929688 1654.605469 C 1263.898438 1667.679688 1251.609375 1589.519531 1298.351562 1560.851562 C 1298.351562 1560.851562 1300.261719 1201.652344 1196.71875 957.929688 C 1150.71875 849.648438 1104.910156 828.699219 1106.5 756.398438 C 1109.589844 615.609375 1174.449219 196.601562 856.652344 235.179688 "/>
<g clip-path="url(#clip-0)">
<g clip-path="url(#clip-1)">
<path fill-rule="evenodd" fill="#450a0a" fill-opacity="1" d="M 806.769531 638.148438 C 796.65625 626.949219 790.511719 613.320312 784.394531 600.351562 C 773.367188 576.980469 766.277344 553.800781 757.554688 530.058594 C 753.03125 517.75 747.902344 505.488281 742.773438 493.289062 C 742.578125 492.820312 736.894531 481.148438 736.585938 481.21875 C 733.492188 481.949219 735.40625 490.738281 735.632812 492.808594 C 737.144531 506.691406 741.074219 521.089844 744.023438 535.101562 C 753.070312 578.101562 757.09375 617.738281 793.625 658.351562 C 803.15625 668.941406 832.605469 711.550781 843.292969 717.601562 C 845.894531 719.070312 847.613281 690.851562 849.84375 689.230469 L 806.769531 638.148438 "/>
</g>
</g>
<g clip-path="url(#clip-2)">
<g clip-path="url(#clip-3)">
<path fill-rule="evenodd" fill="#450a0a" fill-opacity="1" d="M 761.898438 595.730469 C 756.925781 650.101562 903.441406 801.339844 964.164062 790.199219 C 1065.070312 771.691406 1113.898438 622.410156 1050.550781 511.539062 L 834.164062 639.269531 L 761.898438 595.730469 "/>
</g>
</g>
<g clip-path="url(#clip-4)">
<g clip-path="url(#clip-5)">
<path fill-rule="evenodd" fill="#450a0a" fill-opacity="1" d="M 646.144531 837.300781 C 653.542969 872.121094 683.890625 906.050781 709.636719 932.289062 C 818.445312 1043.160156 981.664062 1056.800781 1128.070312 994.839844 C 1146.011719 987.25 1193.019531 970.429688 1202.46875 953.421875 C 1205.230469 948.460938 1190.410156 957.039062 1184.558594 959.238281 C 1174.140625 963.171875 1163.679688 967.050781 1153.070312 970.621094 C 1120.46875 981.570312 1085.988281 987.839844 1051.359375 992.089844 C 945.589844 1005.101562 834.085938 986.328125 747.617188 933.820312 C 706.460938 908.820312 646.144531 837.300781 646.144531 837.300781 "/>
</g>
</g>
<g clip-path="url(#clip-6)">
<g clip-path="url(#clip-7)">
<path fill-rule="evenodd" fill="#450a0a" fill-opacity="1" d="M 634.496094 1091.773438 C 662.363281 1124.480469 710.519531 1148.277344 749.8125 1165.871094 C 915.898438 1240.238281 1072.238281 1197.027344 1167.390625 1083.050781 C 1179.050781 1069.085938 1211.46875 1035.613281 1209.710938 1015.0625 C 1209.199219 1009.070312 1200.96875 1022.949219 1197.011719 1027.222656 C 1189.941406 1034.851562 1182.808594 1042.4375 1175.351562 1049.757812 C 1152.429688 1072.257812 1124.960938 1090.660156 1096.140625 1107.074219 C 1008.101562 1157.226562 895.550781 1177.167969 785.195312 1154.148438 C 732.671875 1143.191406 634.496094 1091.773438 634.496094 1091.773438 "/>
</g>
</g>
<path fill-rule="evenodd" fill="rgb(59.375%, 56.639099%, 22.288513%)" fill-opacity="1" d="M 1329.28125 1461.269531 L 1585.230469 1263.480469 L 1724.710938 1096.304688 L 1713.550781 1072.628906 L 1564.5 1236.117188 L 1301.621094 1451.257812 L 1329.28125 1461.269531 "/>
<path fill-rule="evenodd" fill="rgb(59.375%, 56.639099%, 22.288513%)" fill-opacity="1" d="M 1564.5 1236.117188 L 1399.539062 1048.964844 L 1129.820312 1246.300781 L 1303.488281 1451.742188 L 1564.5 1236.117188 "/>
<path fill-rule="evenodd" fill="rgb(100%, 80.859375%, 74.804688%)" fill-opacity="1" d="M 1440.308594 1049.976562 C 1423.769531 1040.921875 1399.539062 1048.964844 1399.539062 1048.964844 L 1564.070312 1236.933594 L 1563.78125 1208.222656 C 1514.179688 1138.71875 1473.910156 1068.363281 1440.308594 1049.976562 "/>
<path fill-rule="evenodd" fill="rgb(100%, 80.859375%, 74.804688%)" fill-opacity="1" d="M 1713.109375 1072.394531 C 1713.109375 1072.394531 1688.511719 1069.402344 1680.691406 1076.515625 C 1655.789062 1099.167969 1563.738281 1208.3125 1563.738281 1208.3125 L 1564.070312 1236.933594 L 1713.109375 1072.394531 "/>
<path fill-rule="evenodd" fill="rgb(100%, 80.859375%, 74.804688%)" fill-opacity="1" d="M 1078.710938 1023.898438 C 1073.421875 1028.609375 1196.519531 1103.789062 1215.691406 1057.566406 C 1223.820312 1037.941406 1263.371094 1019.253906 1285.230469 1008.441406 C 1296.71875 1002.757812 1312.308594 994.328125 1314.671875 982.289062 C 1316.578125 972.589844 1305.570312 968.800781 1301.988281 960.78125 C 1297.960938 951.738281 1302.851562 947.269531 1296.558594 937.941406 C 1290.949219 929.640625 1287.789062 931.148438 1281.179688 925.730469 C 1278.980469 923.921875 1279.390625 908.589844 1275.128906 903.019531 C 1270.230469 896.609375 1256.199219 895.820312 1252.941406 889.148438 C 1250.308594 883.78125 1259.171875 875.089844 1261.929688 871.148438 C 1273.21875 855.058594 1282.410156 842.128906 1293.199219 825.660156 C 1298.761719 817.179688 1312.890625 798.289062 1300.128906 795.898438 C 1286.21875 793.289062 1271.710938 807.859375 1264.488281 814.980469 C 1246.628906 832.578125 1226.441406 852.199219 1213.128906 872.378906 C 1208.980469 878.679688 1202.101562 885.871094 1193.660156 887.550781 C 1187.429688 888.789062 1186.921875 886.871094 1184.191406 885.351562 C 1162.671875 873.390625 1134.800781 919.039062 1135.28125 957.71875 C 1135.699219 991.101562 1090.191406 1013.660156 1078.710938 1023.898438 "/>
<path fill-rule="evenodd" fill="rgb(100%, 80.859375%, 74.804688%)" fill-opacity="1" d="M 1364.539062 1406.546875 C 1391.589844 1398.589844 1427.121094 1368.734375 1446.039062 1349.058594 C 1454.460938 1340.289062 1462.808594 1331.460938 1471.320312 1322.769531 C 1474.058594 1319.96875 1478.300781 1315.046875 1482.671875 1314.921875 C 1492.5 1314.648438 1484.671875 1338.6875 1482.808594 1342.632812 C 1481.738281 1344.886719 1480.671875 1347.121094 1479.441406 1349.289062 C 1479.25 1349.617188 1476.859375 1353.359375 1477.769531 1353.019531 C 1482.589844 1351.238281 1486.238281 1343 1489.078125 1339.167969 C 1497.578125 1327.695312 1505.421875 1315.214844 1515.261719 1304.863281 C 1518.75 1301.195312 1525.738281 1292.414062 1531.738281 1294.03125 C 1537.019531 1295.460938 1535.808594 1303.679688 1535.171875 1307.601562 C 1533.070312 1320.5 1527.691406 1332.390625 1521.671875 1343.878906 C 1519.929688 1347.199219 1518.269531 1350.582031 1516.378906 1353.820312 C 1515.710938 1354.957031 1515.019531 1356.082031 1514.308594 1357.1875 C 1513.820312 1357.945312 1511.929688 1359.777344 1512.738281 1359.390625 C 1518.171875 1356.804688 1523.089844 1345.519531 1526.230469 1340.871094 C 1537.210938 1324.609375 1547.679688 1307.980469 1557.699219 1291.105469 C 1559.25 1288.507812 1570.769531 1266.113281 1576.011719 1274.648438 C 1579.789062 1280.816406 1578.089844 1291.308594 1576.988281 1297.945312 C 1573.46875 1319.167969 1562.820312 1338.230469 1553.558594 1357.3125 C 1553.191406 1358.078125 1554.328125 1355.785156 1554.800781 1355.070312 C 1555.839844 1353.453125 1557.058594 1351.953125 1558.179688 1350.386719 C 1559.019531 1349.214844 1571.761719 1329.289062 1572.660156 1338.1875 C 1574.261719 1353.957031 1563.359375 1371.820312 1556.910156 1385.476562 C 1535.949219 1429.824219 1489.03125 1482.808594 1445.601562 1504.804688 C 1414.078125 1520.769531 1373.578125 1515.351562 1361.179688 1478.257812 C 1357.75 1468.003906 1356.910156 1457.226562 1357.589844 1446.5 L 1364.539062 1406.546875 "/>
<g clip-path="url(#clip-8)">
<g clip-path="url(#clip-9)">
<path fill-rule="evenodd" fill="rgb(87.304688%, 58.201599%, 47.705078%)" fill-opacity="1" d="M 1478.339844 1348.839844 C 1475.449219 1351.007812 1472.601562 1353.90625 1469.839844 1357.15625 C 1464.058594 1363.949219 1458.589844 1372.285156 1453.53125 1378.085938 C 1446.941406 1385.695312 1439.980469 1392.769531 1432.578125 1399.320312 C 1425.128906 1405.914062 1417.25 1411.976562 1408.808594 1417.433594 C 1408.339844 1417.726562 1408.199219 1418.339844 1408.488281 1418.808594 C 1408.78125 1419.277344 1409.398438 1419.421875 1409.859375 1419.132812 C 1418.621094 1413.941406 1426.859375 1408.152344 1434.640625 1401.746094 C 1442.398438 1395.363281 1449.691406 1388.371094 1456.621094 1380.851562 C 1461.820312 1375.15625 1467.480469 1366.9375 1473.410156 1360.261719 C 1475.988281 1357.359375 1478.609375 1354.757812 1481.28125 1352.839844 C 1482.378906 1352.027344 1482.621094 1350.472656 1481.808594 1349.371094 C 1481 1348.265625 1479.441406 1348.027344 1478.339844 1348.839844 "/>
</g>
</g>
<g clip-path="url(#clip-10)">
<g clip-path="url(#clip-11)">
<path fill-rule="evenodd" fill="rgb(87.304688%, 58.201599%, 47.705078%)" fill-opacity="1" d="M 1539.53125 1299.917969 C 1535.5 1310.296875 1531.980469 1320.648438 1527.828125 1330.808594 C 1525.109375 1337.464844 1522.121094 1344.039062 1518.511719 1350.476562 C 1510.699219 1364.492188 1500.839844 1376.714844 1489.519531 1387.464844 C 1478.140625 1398.277344 1465.300781 1407.613281 1451.519531 1415.710938 C 1451.039062 1415.984375 1450.878906 1416.59375 1451.148438 1417.070312 C 1451.421875 1417.550781 1452.03125 1417.714844 1452.511719 1417.441406 C 1466.671875 1409.605469 1479.941406 1400.511719 1491.710938 1389.832031 C 1503.550781 1379.089844 1513.871094 1366.746094 1522.160156 1352.558594 C 1525.949219 1346.019531 1529.128906 1339.332031 1532.011719 1332.550781 C 1536.308594 1322.425781 1539.96875 1312.09375 1544.140625 1301.742188 C 1544.648438 1300.472656 1544.019531 1299.027344 1542.75 1298.523438 C 1541.480469 1298.019531 1540.03125 1298.644531 1539.53125 1299.917969 "/>
</g>
</g>
<g clip-path="url(#clip-12)">
<g clip-path="url(#clip-13)">
<path fill-rule="evenodd" fill="rgb(87.304688%, 58.201599%, 47.705078%)" fill-opacity="1" d="M 1581.398438 1296.4375 C 1580.089844 1298.003906 1579.050781 1299.921875 1578.191406 1302.019531 C 1576.480469 1306.152344 1575.460938 1311.011719 1573.929688 1314.644531 C 1571.28125 1320.910156 1568.371094 1327.140625 1565.21875 1333.246094 C 1562.070312 1339.355469 1558.691406 1345.347656 1555.101562 1351.121094 C 1547.839844 1362.851562 1539.199219 1373.75 1529.839844 1384.09375 C 1515.761719 1399.648438 1500.039062 1413.929688 1484.710938 1427.664062 C 1484.289062 1428.027344 1484.25 1428.65625 1484.609375 1429.074219 C 1484.980469 1429.488281 1485.609375 1429.527344 1486.019531 1429.164062 C 1501.738281 1415.726562 1517.910156 1401.773438 1532.378906 1386.4375 C 1542.109375 1376.113281 1551.058594 1365.160156 1558.660156 1353.367188 C 1562.390625 1347.542969 1565.910156 1341.5 1569.191406 1335.328125 C 1572.46875 1329.15625 1575.511719 1322.851562 1578.28125 1316.515625 C 1579.859375 1312.894531 1580.941406 1308.035156 1582.699219 1303.914062 C 1583.378906 1302.308594 1584.179688 1300.824219 1585.191406 1299.636719 C 1586.070312 1298.589844 1585.941406 1297.019531 1584.890625 1296.136719 C 1583.839844 1295.257812 1582.28125 1295.390625 1581.398438 1296.4375 "/>
</g>
</g>
<path fill-rule="evenodd" fill="rgb(19.993591%, 5.099487%, 0%)" fill-opacity="1" d="M 1399.378906 1596.757812 C 1282.660156 1713.878906 1168.621094 1668.570312 1136.078125 1639.636719 C 1103.550781 1610.699219 1190.550781 1429.828125 1204.160156 1423.15625 C 1308.050781 1372.210938 1290.941406 1427.984375 1318.019531 1413.777344 C 1343.980469 1400.164062 1375.96875 1402.957031 1375.96875 1402.957031 C 1379.089844 1481.769531 1418.660156 1492.765625 1463.511719 1500.117188 C 1477.738281 1520.449219 1455.488281 1512.273438 1419.351562 1553.238281 C 1407.519531 1566.660156 1411.828125 1584.261719 1399.378906 1596.757812 "/>
<path fill-rule="evenodd" fill="rgb(19.993591%, 5.099487%, 0%)" fill-opacity="1" d="M 951.828125 1439.527344 C 914.800781 1475.84375 861.292969 1533.773438 834.679688 1544.359375 C 735.734375 1583.722656 647.144531 1550.910156 666.371094 1464.207031 C 674.417969 1427.921875 701.726562 1357.546875 720.304688 1323.933594 C 732.398438 1302.050781 771.996094 1263.027344 787.269531 1242.144531 C 799.746094 1225.09375 817.875 1211.148438 830.4375 1194.078125 C 850.054688 1167.421875 884.640625 1149.710938 901.96875 1122.640625 C 914.574219 1102.949219 947.492188 1070.96875 993.429688 1040.292969 C 1010.289062 1029.03125 1036.871094 1057.28125 1082.800781 1005.953125 C 1113.210938 971.96875 1231.949219 1053.898438 1235.839844 1062.707031 C 1236.929688 1065.164062 1222.398438 1096.84375 1197.871094 1118.761719 C 1185.730469 1129.613281 1211.308594 1160.761719 1191.808594 1187.875 C 1161.160156 1230.496094 1111.238281 1265.265625 1087.730469 1296.207031 C 1037.640625 1362.136719 994.007812 1398.167969 951.828125 1439.527344 "/>
<path fill-rule="evenodd" fill="#fed7aa" fill-opacity="1" d="M 1072.539062 463.070312 C 1073.050781 470.410156 1063.269531 522.210938 1068.601562 544.351562 C 1075.988281 575.050781 1086.578125 612.148438 1076.5 656.191406 C 1069.300781 687.660156 1017.429688 743.171875 984.054688 753.78125 C 910.378906 777.199219 803.910156 636.550781 803.886719 621.269531 C 803.722656 524.050781 870.789062 429.808594 903.238281 389.699219 C 910.101562 381.21875 935.488281 349.441406 947.613281 347.578125 C 980.347656 342.578125 1051.851562 433.621094 1072.539062 463.070312 "/>
<g clip-path="url(#clip-14)">
<g clip-path="url(#clip-15)">
<path fill-rule="evenodd" fill="#450a0a" fill-opacity="1" d="M 847.152344 440.410156 C 881.367188 408.261719 939.390625 401.519531 984.617188 401.21875 C 1004.628906 401.078125 1044.210938 410.371094 1057.71875 391.050781 C 1074.089844 367.621094 1044.519531 333.820312 1025.191406 322.308594 C 1010.828125 313.769531 993.828125 309.691406 977.09375 308.890625 C 910.347656 305.71875 852.746094 353.589844 829.019531 410.558594 L 847.152344 440.410156 "/>
</g>
</g>
</svg>
