<?xml version="1.0" encoding="utf-8"?>
<!-- Generator: Adobe Illustrator 27.5.0, SVG Export Plug-In . SVG Version: 6.00 Build 0)  -->
<svg version="1.1" xmlns="http://www.w3.org/2000/svg" xmlns:xlink="http://www.w3.org/1999/xlink" x="0px" y="0px"
	 viewBox="0 0 500 500" style="enable-background:new 0 0 500 500;" xml:space="preserve">
<g id="BACKGROUND">
	<rect style="fill:#B8E0DC;" width="500" height="500"/>
</g>
<g id="OBJECTS">
	<g>
		<g>
			<path style="fill:#9BCCC6;" d="M192.807,108.342c66.384,6.093,114.156,64.763,182.505,76.384S475.623,347.538,426.507,380.4
				c-48.302,32.318-337.404,64.603-387.318,2.792C-10.725,321.38,52.092,95.426,192.807,108.342z"/>
			<g>
				<path style="fill:#E5A87A;" d="M157.887,367.479c-41.778,0-81.902-18.211-102.22-46.397
					c-16.988-23.565-20.473-53.429-10.133-86.513c0.603-1.928,1.475-3.757,2.558-5.463c7.239-11.402,37.592-53.968,91.162-60.97
					c18.184-2.376,37.769-2.926,58.506-3.508c46.909-1.316,100.077-2.809,145.944-27.724c13.671-7.426,27.696-11.192,41.685-11.192
					c23.539,0,44.913,10.656,60.184,30.007c20.551,26.039,26.815,64.085,17.187,104.381
					c-16.12,67.463-108.976,77.507-183.587,85.577c-32.062,3.468-62.346,6.744-79.627,14.149
					C187.863,364.833,173.458,367.479,157.887,367.479z"/>
				<g>
					<path style="fill:#0D5060;" d="M460.657,245.871c-0.654,4.288-1.519,8.663-2.577,13.115
						c-5.731,23.971-21.932,40.345-43.826,51.874c-33.778,17.788-81.065,24.038-124.323,28.816c0,0-0.01,0-0.019,0
						c-37.691,4.154-72.315,7.192-92.257,15.73c-33.374,14.307-89.363,7.673-123.612-21.547
						c-12.182-10.375-21.615-23.624-26.297-39.797c-4.923-16.961-4.625-37.143,3.202-60.633c0,0,0.385-0.702,1.144-1.942
						c3.596-5.856,15.673-23.845,36.701-38.528c13.375-9.336,30.355-17.346,51.085-20.057c35.307-4.615,77.084-2.279,119.064-6.855
						c29.663-3.231,59.421-9.904,87.055-24.922c40.605-22.057,81.517-8.125,102.333,27.124c5.452,9.25,9.529,19.961,11.855,31.874
						C462.878,213.901,463.224,229.285,460.657,245.871z"/>
					<path style="fill:#0E5769;" d="M460.657,245.871c-31.451,2.356-90.449,7.365-145.294,15.307
						c-79.661,11.538-96.295,14.288-136.054,0c-26.586-9.557-88.478-22.307-127.217-29.692c3.596-5.856,15.673-23.845,36.701-38.528
						c34.153,4.413,83.959,14.346,125.477,36.682c70.882,38.133,144.005-7.605,206.888-21.826
						c16.596-3.75,29.307-6.163,39.028-7.692C462.878,213.901,463.224,229.285,460.657,245.871z"/>
					<path style="fill:#0E5769;" d="M448.33,168.25c-18.27,6.3-43.48,13.9-79.12,14.65c-34.28,0.72-76.96-8.12-110.27-16.85
						c29.66-3.23,59.42-9.91,87.06-24.93c20.38-11.07,40.84-13.07,58.79-7.86c0.36,0.1,0.72,0.21,1.07,0.32
						C423.22,138.92,438.17,151.05,448.33,168.25z"/>
					<path style="fill:#0E5769;" d="M414.254,310.86c-33.778,17.788-81.065,24.038-124.323,28.816c0,0-0.01,0-0.019,0
						c-28.038-4.231-58.335-7.442-85.257-7.346c-50.143,0.183-97.622,3.019-130.611,1.529
						c-12.182-10.375-21.615-23.624-26.297-39.797c20.124,9.644,57.056,18.153,124.785,16.615
						C319.767,307.331,384.024,293.505,414.254,310.86z"/>
				</g>
			</g>
			<polygon style="fill:#9BCCC6;" points="238.966,95.426 234.907,92.43 230.137,94.075 231.732,89.288 228.693,85.26 
				233.739,85.298 236.63,81.163 238.154,85.974 242.98,87.446 238.875,90.381 			"/>
			<polygon style="fill:#B8E0DC;" points="200.643,150.982 196.584,147.985 191.814,149.631 193.409,144.844 190.37,140.816 
				195.416,140.854 198.307,136.719 199.831,141.529 204.657,143.002 200.552,145.937 			"/>
			<polygon style="fill:#9BCCC6;" points="58.944,162.312 54.014,161.235 50.333,164.686 49.833,159.665 45.414,157.23 
				50.035,155.203 50.985,150.247 54.34,154.016 59.347,153.388 56.799,157.744 			"/>
			<polygon style="fill:#E5A87A;" points="396.088,171.012 393.818,169.337 391.152,170.257 392.044,167.581 390.344,165.328 
				393.166,165.35 394.782,163.038 395.634,165.727 398.332,166.551 396.037,168.192 			"/>
			<polygon style="fill:#E5A87A;" points="288.97,239.064 286.7,237.388 284.033,238.309 284.925,235.632 283.226,233.38 
				286.047,233.401 287.663,231.089 288.515,233.779 291.214,234.602 288.919,236.243 			"/>
			<polygon style="fill:#E5A87A;" points="247.97,203.573 244.805,201.237 241.086,202.52 242.33,198.788 239.961,195.648 
				243.894,195.677 246.149,192.454 247.336,196.204 251.099,197.352 247.899,199.64 			"/>
			<polygon style="fill:#E5A87A;" points="413.767,274.878 411.497,273.203 408.83,274.123 409.722,271.446 408.023,269.194 
				410.844,269.215 412.461,266.904 413.312,269.593 416.01,270.416 413.716,272.057 			"/>
			<path style="fill:#E5A87A;" d="M71.574,264.208c0,0.65-0.527,1.177-1.177,1.177c-0.65,0-1.177-0.527-1.177-1.177
				c0-0.65,0.527-1.177,1.177-1.177C71.047,263.031,71.574,263.558,71.574,264.208z"/>
			<circle style="fill:#E5A87A;" cx="422.688" cy="219.822" r="2.165"/>
			<path style="fill:#E5A87A;" d="M287.307,280.915c0,1.195-0.969,2.165-2.165,2.165c-1.195,0-2.165-0.969-2.165-2.165
				c0-1.196,0.969-2.165,2.165-2.165C286.338,278.75,287.307,279.719,287.307,280.915z"/>
			<circle style="fill:#CAEDE8;" cx="287.307" cy="87.077" r="22.581"/>
		</g>
		<g>
			<g>
				<g>
					<path style="fill:#1C737C;" d="M104.711,181.604c0-48.721,55.7-20.484,72.56-63.754c16.86,43.27,72.56,15.033,72.56,63.754
						H104.711z"/>
					<path style="fill:#338589;" d="M183.902,114.208c0-3.216-2.869-5.823-6.409-5.823c-3.539,0-6.409,2.607-6.409,5.823
						c0,3.216,2.869,5.823,6.409,5.823C181.033,120.031,183.902,117.424,183.902,114.208z"/>
					<path style="fill:#1C737C;" d="M198.512,95.074c-9.151,4.784-20.837,1.921-26.102-6.395c-5.256-8.302-2.123-18.9,6.994-23.694
						c-3.685,0.181-7.38,1.124-10.797,2.91c-11.647,6.089-15.657,19.604-8.956,30.187c6.7,10.583,21.574,14.227,33.22,8.138
						c6.937-3.626,11.163-9.887,12.032-16.594C203.317,91.8,201.169,93.684,198.512,95.074z"/>
					<rect x="104.711" y="181.027" style="fill:#338589;" width="145.121" height="12.813"/>
					<rect x="88.491" y="193.972" style="fill:#1C737C;" width="177.56" height="187.17"/>
					<path style="fill:#0E5769;" d="M140.459,381.142c0,0,0.802-59.784,0-105.681c-0.61-34.867,15.423-16.544,36.812-45.818
						c21.389,29.274,37.422,10.951,36.812,45.818c-0.802,45.897,0,105.681,0,105.681H140.459z"/>
					<g>
						<path style="fill:#338589;" d="M243.475,383.192c-1.132,0-2.05-0.918-2.05-2.05V211.915H113.118v169.227
							c0,1.132-0.918,2.05-2.05,2.05c-1.132,0-2.05-0.918-2.05-2.05V209.865c0-1.132,0.918-2.05,2.05-2.05h132.407
							c1.132,0,2.05,0.918,2.05,2.05v171.277C245.525,382.274,244.607,383.192,243.475,383.192z"/>
					</g>
				</g>
				<path style="fill:#80BCB3;" d="M88.491,381.142H60.563c-13.003,0-19.138,16.115-9.374,24.702
					c18.708,16.454,55.498,34.752,126.082,32.905c126.008-3.297,157.877-18.741,221.061-20.497
					c5.887-0.164,11.274-0.601,16.204-1.26c21.149-2.826,19.215-33.982-2.122-34.098L88.491,381.142z"/>
			</g>
			<g>
				<rect x="83.123" y="355.082" style="fill:#338589;" width="38.469" height="43.426"/>
				<path style="fill:#E5A87A;" d="M95.613,395.013c0,0,0.147-13.629,0-26.86c-0.112-10.051,2.826-1.699,6.745-10.138
					c3.919,8.439,6.857,0.087,6.745,10.138c-0.147,13.231,0,26.86,0,26.86H95.613z"/>
				<path style="fill:#E5A87A;" d="M114.397,395.013c0,0,0.059-13.629,0-26.86c-0.044-10.051,1.123-1.699,2.681-10.138
					c1.558,8.439,2.725,0.087,2.681,10.138c-0.059,13.231,0,26.86,0,26.86H114.397z"/>
				<path style="fill:#E5A87A;" d="M84.956,395.013c0,0,0.059-13.629,0-26.86c-0.044-10.051,1.123-1.699,2.681-10.138
					c1.558,8.439,2.726,0.087,2.681,10.138c-0.059,13.231,0,26.86,0,26.86H84.956z"/>
				<path style="fill:#80BCB3;" d="M82.301,349.173c0-13.009,14.765-5.469,19.234-17.023c4.47,11.554,19.234,4.014,19.234,17.023
					H82.301z"/>
				<path style="fill:#338589;" d="M98.663,331.437c0,1.586,1.286,2.872,2.872,2.872c1.586,0,2.872-1.286,2.872-2.872
					c0-1.586-1.286-2.872-2.872-2.872C99.949,328.565,98.663,329.85,98.663,331.437z"/>
				<path style="fill:#5EA594;" d="M122.766,355.928H80.881c-2.1,0-3.801-1.702-3.801-3.801l0,0c0-2.1,1.702-3.801,3.801-3.801
					h41.885c2.099,0,3.801,1.702,3.801,3.801l0,0C126.567,354.227,124.865,355.928,122.766,355.928z"/>
				<path style="fill:#5EA594;" d="M122.766,404.975H80.881c-2.1,0-3.801-1.702-3.801-3.801l0,0c0-2.099,1.702-3.801,3.801-3.801
					h41.885c2.099,0,3.801,1.702,3.801,3.801l0,0C126.567,403.273,124.865,404.975,122.766,404.975z"/>
			</g>
			<g>
				<rect x="386.913" y="174.495" style="fill:#338589;" width="38.468" height="43.426"/>
				<path style="fill:#E5A87A;" d="M399.403,214.427c0,0,0.147-13.63,0-26.86c-0.112-10.051,2.826-1.699,6.745-10.138
					c3.919,8.439,6.857,0.087,6.745,10.138c-0.147,13.231,0,26.86,0,26.86H399.403z"/>
				<path style="fill:#E5A87A;" d="M418.187,214.427c0,0,0.058-13.63,0-26.86c-0.045-10.051,1.123-1.699,2.681-10.138
					c1.558,8.439,2.725,0.087,2.681,10.138c-0.059,13.231,0,26.86,0,26.86H418.187z"/>
				<path style="fill:#E5A87A;" d="M388.746,214.427c0,0,0.059-13.63,0-26.86c-0.044-10.051,1.123-1.699,2.681-10.138
					c1.558,8.439,2.726,0.087,2.681,10.138c-0.058,13.231,0,26.86,0,26.86H388.746z"/>
				<g>
					<path style="fill:#80BCB3;" d="M405.86,133.58v18.94h-1.07v-19.26C405.15,133.36,405.51,133.47,405.86,133.58z"/>
				</g>
				<path style="fill:#80BCB3;" d="M419.98,222.564c0,9.911-11.249,4.167-14.655,12.969c-3.405-8.803-14.655-3.058-14.655-12.969
					H419.98z"/>
				<path style="fill:#80BCB3;" d="M386.091,168.586c0-13.009,14.765-5.469,19.234-17.023c4.469,11.554,19.234,4.014,19.234,17.023
					H386.091z"/>
				<path style="fill:#338589;" d="M404.023,235.895c0,0.719,0.583,1.302,1.302,1.302c0.719,0,1.302-0.583,1.302-1.302
					c0-0.719-0.583-1.302-1.302-1.302C404.606,234.593,404.023,235.176,404.023,235.895z"/>
				<path style="fill:#338589;" d="M402.453,150.85c0,1.586,1.286,2.872,2.872,2.872c1.586,0,2.872-1.286,2.872-2.872
					c0-1.586-1.286-2.872-2.872-2.872C403.739,147.978,402.453,149.264,402.453,150.85z"/>
				<path style="fill:#5EA594;" d="M426.556,175.342h-41.885c-2.099,0-3.802-1.702-3.802-3.801l0,0c0-2.099,1.702-3.801,3.802-3.801
					h41.885c2.099,0,3.801,1.702,3.801,3.801l0,0C430.358,173.64,428.656,175.342,426.556,175.342z"/>
				<path style="fill:#5EA594;" d="M426.556,224.389h-41.885c-2.099,0-3.802-1.702-3.802-3.801l0,0c0-2.099,1.702-3.801,3.802-3.801
					h41.885c2.099,0,3.801,1.702,3.801,3.801l0,0C430.358,222.687,428.656,224.389,426.556,224.389z"/>
			</g>
		</g>
	</g>
	<g>
		<g>
			<g>
				<g>
					<polygon style="fill:#0D5060;" points="181.389,393.968 413.502,393.968 437.301,420.611 158.799,420.611 					"/>
					<ellipse style="fill:#1C737C;" cx="301.269" cy="406.043" rx="90.035" ry="9.001"/>
					<polygon style="fill:#1C737C;" points="189.42,393.968 168.157,420.611 158.799,420.611 181.389,393.968 					"/>
					<g>
						
							<line style="fill:none;stroke:#1C737C;stroke-width:0.9054;stroke-linecap:round;stroke-linejoin:round;stroke-miterlimit:10;" x1="165.508" y1="419.239" x2="156.229" y2="418.889"/>
						
							<line style="fill:none;stroke:#1C737C;stroke-width:0.9054;stroke-linecap:round;stroke-linejoin:round;stroke-miterlimit:10;" x1="167.023" y1="417.031" x2="157.745" y2="416.68"/>
						
							<line style="fill:none;stroke:#1C737C;stroke-width:0.9054;stroke-linecap:round;stroke-linejoin:round;stroke-miterlimit:10;" x1="168.538" y1="414.823" x2="159.26" y2="414.472"/>
						
							<line style="fill:none;stroke:#1C737C;stroke-width:0.9054;stroke-linecap:round;stroke-linejoin:round;stroke-miterlimit:10;" x1="170.451" y1="412.614" x2="161.172" y2="412.264"/>
						
							<line style="fill:none;stroke:#1C737C;stroke-width:0.9054;stroke-linecap:round;stroke-linejoin:round;stroke-miterlimit:10;" x1="172.257" y1="410.406" x2="162.978" y2="410.056"/>
						
							<line style="fill:none;stroke:#1C737C;stroke-width:0.9054;stroke-linecap:round;stroke-linejoin:round;stroke-miterlimit:10;" x1="173.925" y1="408.198" x2="164.647" y2="407.848"/>
						
							<line style="fill:none;stroke:#1C737C;stroke-width:0.9054;stroke-linecap:round;stroke-linejoin:round;stroke-miterlimit:10;" x1="175.977" y1="405.99" x2="166.699" y2="405.639"/>
						
							<line style="fill:none;stroke:#1C737C;stroke-width:0.9054;stroke-linecap:round;stroke-linejoin:round;stroke-miterlimit:10;" x1="177.957" y1="403.782" x2="168.678" y2="403.431"/>
						
							<line style="fill:none;stroke:#1C737C;stroke-width:0.9054;stroke-linecap:round;stroke-linejoin:round;stroke-miterlimit:10;" x1="179.838" y1="401.573" x2="170.56" y2="401.223"/>
						
							<line style="fill:none;stroke:#1C737C;stroke-width:0.9054;stroke-linecap:round;stroke-linejoin:round;stroke-miterlimit:10;" x1="181.204" y1="399.365" x2="171.926" y2="399.015"/>
						
							<line style="fill:none;stroke:#1C737C;stroke-width:0.9054;stroke-linecap:round;stroke-linejoin:round;stroke-miterlimit:10;" x1="182.618" y1="397.157" x2="173.34" y2="396.806"/>
						
							<line style="fill:none;stroke:#1C737C;stroke-width:0.9054;stroke-linecap:round;stroke-linejoin:round;stroke-miterlimit:10;" x1="184.879" y1="394.949" x2="175.6" y2="394.598"/>
					</g>
					<polygon style="fill:#1C737C;" points="410.015,393.968 431.278,420.611 440.636,420.611 418.046,393.968 					"/>
					<g>
						
							<line style="fill:none;stroke:#1C737C;stroke-width:0.9054;stroke-linecap:round;stroke-linejoin:round;stroke-miterlimit:10;" x1="433.927" y1="419.239" x2="443.206" y2="418.889"/>
						
							<line style="fill:none;stroke:#1C737C;stroke-width:0.9054;stroke-linecap:round;stroke-linejoin:round;stroke-miterlimit:10;" x1="432.412" y1="417.031" x2="441.69" y2="416.68"/>
						
							<line style="fill:none;stroke:#1C737C;stroke-width:0.9054;stroke-linecap:round;stroke-linejoin:round;stroke-miterlimit:10;" x1="430.897" y1="414.823" x2="440.175" y2="414.472"/>
						
							<line style="fill:none;stroke:#1C737C;stroke-width:0.9054;stroke-linecap:round;stroke-linejoin:round;stroke-miterlimit:10;" x1="428.984" y1="412.614" x2="438.263" y2="412.264"/>
						
							<line style="fill:none;stroke:#1C737C;stroke-width:0.9054;stroke-linecap:round;stroke-linejoin:round;stroke-miterlimit:10;" x1="427.179" y1="410.406" x2="436.457" y2="410.056"/>
						
							<line style="fill:none;stroke:#1C737C;stroke-width:0.9054;stroke-linecap:round;stroke-linejoin:round;stroke-miterlimit:10;" x1="425.51" y1="408.198" x2="434.788" y2="407.848"/>
						
							<line style="fill:none;stroke:#1C737C;stroke-width:0.9054;stroke-linecap:round;stroke-linejoin:round;stroke-miterlimit:10;" x1="423.458" y1="405.99" x2="432.736" y2="405.639"/>
						
							<line style="fill:none;stroke:#1C737C;stroke-width:0.9054;stroke-linecap:round;stroke-linejoin:round;stroke-miterlimit:10;" x1="421.478" y1="403.782" x2="430.757" y2="403.431"/>
						
							<line style="fill:none;stroke:#1C737C;stroke-width:0.9054;stroke-linecap:round;stroke-linejoin:round;stroke-miterlimit:10;" x1="419.597" y1="401.573" x2="428.875" y2="401.223"/>
						
							<line style="fill:none;stroke:#1C737C;stroke-width:0.9054;stroke-linecap:round;stroke-linejoin:round;stroke-miterlimit:10;" x1="418.231" y1="399.365" x2="427.509" y2="399.015"/>
						
							<line style="fill:none;stroke:#1C737C;stroke-width:0.9054;stroke-linecap:round;stroke-linejoin:round;stroke-miterlimit:10;" x1="416.817" y1="397.157" x2="426.095" y2="396.806"/>
						
							<line style="fill:none;stroke:#1C737C;stroke-width:0.9054;stroke-linecap:round;stroke-linejoin:round;stroke-miterlimit:10;" x1="414.556" y1="394.949" x2="423.835" y2="394.598"/>
					</g>
				</g>
			</g>
			<g>
				<g>
					<path style="fill:#FFFFFF;" d="M307.324,260.558c0,0-9.696,22.912-18.531,43.562s-13.396,27.682-26.719,33.363
						c-13.323,5.681-25.642,9.05-28.443,10.558c-2.801,1.508-6.033,10.203-6.033,10.203s68.737-12.358,74.986-27.441
						C308.833,315.72,307.324,260.558,307.324,260.558z"/>
					<path style="fill:#FFFFFF;" d="M291.576,333.337l85.046-1.818l-10.157-88.182c-0.914-13.331-16.987-45.109-30.318-44.196
						l-1.448,0.101c-19.9,1.363-26.93,11.118-28.835,38.178C305.862,237.421,293.883,296.706,291.576,333.337z"/>
					<path style="fill:#EDC7A6;" d="M323.971,213.248l1.98-0.137c6.557-0.45,12.87-6.39,12.42-12.947l-8.008-26.86l-22.29,9.667
						l5.443,21.164C313.887,209.537,318.567,213.617,323.971,213.248z"/>
					<path style="fill:#E5BC99;" d="M322.064,184.052c0,0,1.518,11.81-9.489,16.425l-1.888-7.263L322.064,184.052z"/>
					<path style="fill:#EDC7A6;" d="M285.612,167.192c5.083,13.281,19.97,19.928,33.252,14.847
						c13.282-5.083,19.931-19.971,14.847-33.252c-5.083-13.282-19.97-19.928-33.252-14.847
						C287.177,139.023,280.531,153.911,285.612,167.192z"/>
					<path style="fill:#EDC7A6;" d="M314.327,195.257L314.327,195.257c6.308-2.413,9.463-9.481,7.049-15.786l-8.81-23.029
						l-27.1,10.369l7.183,18.768C295.962,194.238,305.667,198.572,314.327,195.257z"/>
					<path style="fill:#EDC7A6;" d="M288.369,172.297l-2.291,9.747c-0.261,1.547,1.3,2.727,2.83,2.14l6.529-1.179L288.369,172.297z"
						/>
					<path style="fill:#FFFFFF;" d="M313.321,219.282l1.034-11.296c0,0,9.776-6.571,21.645-16.234l8.621,10.592
						C344.621,202.344,333.483,226.303,313.321,219.282z"/>
					<path style="fill:#FFFFFF;" d="M365.655,233.522l-60.625,9.241c0,0,0.01-20.041,0.865-23.771
						c0.091-0.402,0.181-0.794,0.251-1.166c0.664-3.077,0.784-5.169-0.251-7.612c-0.06-0.141-0.111-0.302-0.131-0.462
						c-0.573-2.956,3.429-9.1,5.742-13.384c2.454-4.515,3.007-21.046-7.682-34.42c-10.689-13.384-19.196-9.975-19.196-9.975
						c7.341-32.097,44.687-25.209,52.591-10.488c7.049,13.143,13.213,39.87,21.539,60.273
						C367.093,222.149,365.655,233.522,365.655,233.522z"/>
					<path style="fill:#FFFFFF;" d="M383.845,384.758c-0.161,8.618-2.021,16.34-7.501,19.266H236.371
						c-10.086,0-17.326-5.732-20.765-13.183c-4.847-10.458-2.182-24.284,10.659-30.287c0.432-0.191,0.855-0.382,1.287-0.563
						l69.615-29.121h18.472l60.193-6.174l3.439,27.341C379.27,352.037,384.137,369.765,383.845,384.758z"/>
					<path style="fill:#FFFFFF;" d="M325.188,239.691c0,0-23.073,63.966-33.613,79.155c-10.539,15.189-24.435,21.97-38.819,25.044
						c-14.384,3.074-19.257,9.538-21.776,10.831c-2.52,1.293-4.715,5.833-4.715,5.833s5.535,3.533,23.258,3.806
						c17.723,0.273,72.965-10.434,88.87-25.766s5.819-94.56,3.321-98.903C339.215,235.347,325.188,239.691,325.188,239.691z"/>
				</g>
				<path style="opacity:0.51;fill:#D1C3BE;" d="M365.656,233.523c0,0-13.214-1.243-30.238,4.61
					c-17.023,5.853-25.757,9.813-25.757,9.813L365.656,233.523z"/>
				<path style="opacity:0.51;fill:#D1C3BE;" d="M376.625,389.212c2.775-1.629,5.159-3.107,7.22-4.455
					c-0.161,8.618-2.021,16.34-7.501,19.266H236.371c-10.086,0-17.326-5.732-20.765-13.183c6.094,3.469,21.569,6.969,66.588,2.252
					C356.323,385.341,353.829,402.576,376.625,389.212z"/>
				<path style="fill:#D1C3BE;" d="M395.51,374.994c0.412-1.669,0.654-2.645,0.654-2.645S396.807,373.043,395.51,374.994z"/>
				<path style="opacity:0.51;fill:#D1C3BE;" d="M306.146,217.826c0.664-3.077,0.784-5.169-0.251-7.612
					c-0.06-0.141-0.111-0.302-0.131-0.462c4.404-1.8,15.425-6.365,21.036-9.271C333.155,197.192,314.16,214.065,306.146,217.826z"/>
				<path style="opacity:0.51;fill:#D1C3BE;" d="M284.627,329.007c0,0,15.945-14.652,22.553-32.465
					c6.608-17.813,2.994-10.983-1.417-3.816C301.353,299.893,284.627,329.007,284.627,329.007z"/>
				<path style="opacity:0.51;fill:#D1C3BE;" d="M223.863,365.495c0,0,7.47,3.448,17.741,2.442
					c10.271-1.006,10.989,0.224,18.172,0.184c7.183-0.04,13.934-2.195,14.221-2.626c0.287-0.431-24.945,1.108-29.208,1.057
					C240.527,366.5,223.863,365.495,223.863,365.495z"/>
				<path style="opacity:0.51;fill:#D1C3BE;" d="M314.219,185.505c0,0,1.939-15.379-0.898-27.516
					c-2.837-12.137-11.312-12.999-11.599-12.281c-0.287,0.718,8.332,4.597,10.199,15.514
					C313.788,172.141,314.219,185.505,314.219,185.505z"/>
				<path style="opacity:0.51;fill:#D1C3BE;" d="M361.193,374.994c-13.503-0.88-29.682-11.661-35.521-16.749
					c-2.554-2.225-4.707-3.755-6.322-4.772c1.892-1.193,3.655-2.504,5.21-3.942c12.38-11.448,40.068-70.025,40.068-70.025
					s-21.42,28.61-31.29,46.135c-9.87,17.525-25.266,24.339-25.266,24.339c-4.703,0.69-21.357,14.38-21.357,14.38
					s16.764-2.226,29.701-9.181c3.448,1.926,8.106,5.131,12.886,10.24c9.481,10.132,20.973,14.44,32.752,14.872
					c11.779,0.431,16.951,1.679,18.675,2.061C382.454,382.733,374.696,375.874,361.193,374.994z"/>
			</g>
			<path style="fill:#FFFFFF;" d="M241.604,345.825c0,0-23.314,2.109-29.189,2.41c-5.875,0.301-2.184,3.013,0,3.389
				c2.184,0.377,7.156,0,8.587,0c1.431,0,0,2.787-0.979,5.8s-0.23,5.563,2.71,6.736c2.939,1.173,9.568-3.196,9.568-3.196
				L241.604,345.825z"/>
		</g>
		<g>
			<path style="fill:#FFFFFF;" d="M251.157,435.458c-1.012,0.305-2.079-0.267-2.385-1.279c-0.305-1.012,0.267-2.079,1.279-2.385
				c1.012-0.306,2.08,0.267,2.385,1.279C252.742,434.084,252.169,435.152,251.157,435.458z"/>
			<path style="fill:#FFFFFF;" d="M249.769,438.8c-1.012,0.305-2.08-0.267-2.385-1.279c-0.305-1.012,0.267-2.08,1.279-2.385
				c1.012-0.305,2.079,0.267,2.385,1.279C251.354,437.427,250.781,438.495,249.769,438.8z"/>
			<path style="fill:#FFFFFF;" d="M246.849,440.881c-1.012,0.306-2.079-0.267-2.385-1.279c-0.306-1.012,0.267-2.08,1.279-2.385
				c1.012-0.305,2.08,0.267,2.385,1.279C248.434,439.508,247.861,440.576,246.849,440.881z"/>
			<path style="fill:#FFFFFF;" d="M243.185,441.987c-1.012,0.306-2.08-0.267-2.385-1.279c-0.305-1.012,0.267-2.08,1.279-2.385
				c1.012-0.305,2.08,0.267,2.385,1.279C244.77,440.614,244.197,441.682,243.185,441.987z"/>
			<path style="fill:#FFFFFF;" d="M239.356,442.544c-1.012,0.305-2.08-0.267-2.385-1.279c-0.305-1.012,0.267-2.08,1.279-2.385
				c1.012-0.306,2.08,0.267,2.385,1.279C240.94,441.17,240.367,442.238,239.356,442.544z"/>
			<path style="fill:#FFFFFF;" d="M235.855,442.701c-1.012,0.305-2.079-0.267-2.385-1.279c-0.305-1.012,0.267-2.079,1.279-2.385
				c1.012-0.305,2.08,0.267,2.385,1.279C237.439,441.328,236.867,442.395,235.855,442.701z"/>
			<path style="fill:#FFFFFF;" d="M232.345,442.661c-1.012,0.306-2.079-0.267-2.385-1.279c-0.305-1.012,0.267-2.08,1.279-2.385
				c1.012-0.306,2.08,0.267,2.385,1.279C233.929,441.288,233.356,442.356,232.345,442.661z"/>
			<path style="fill:#FFFFFF;" d="M228.615,442.888c-1.012,0.305-2.08-0.267-2.385-1.279c-0.305-1.012,0.267-2.08,1.279-2.385
				c1.012-0.305,2.08,0.267,2.385,1.279C230.199,441.514,229.627,442.582,228.615,442.888z"/>
			<path style="fill:#FFFFFF;" d="M225.151,442.834c-1.012,0.306-2.08-0.267-2.385-1.279c-0.305-1.012,0.267-2.079,1.279-2.385
				c1.012-0.305,2.079,0.267,2.385,1.279C226.735,441.461,226.162,442.529,225.151,442.834z"/>
			<path style="fill:#FFFFFF;" d="M221.833,442.936c-1.012,0.305-2.08-0.267-2.385-1.279c-0.305-1.012,0.267-2.08,1.279-2.385
				c1.012-0.305,2.08,0.267,2.385,1.279C223.418,441.563,222.845,442.63,221.833,442.936z"/>
			<path style="fill:#FFFFFF;" d="M218.323,442.896c-1.012,0.306-2.08-0.267-2.385-1.279c-0.305-1.012,0.267-2.08,1.279-2.385
				c1.012-0.306,2.08,0.267,2.385,1.279C219.907,441.523,219.335,442.591,218.323,442.896z"/>
			<path style="fill:#FFFFFF;" d="M214.51,442.798c-1.012,0.306-2.08-0.267-2.385-1.279c-0.305-1.012,0.267-2.08,1.279-2.385
				c1.012-0.305,2.08,0.267,2.385,1.279C216.095,441.424,215.522,442.492,214.51,442.798z"/>
			<path style="fill:#FFFFFF;" d="M210.913,442.634c-1.012,0.306-2.08-0.267-2.385-1.279c-0.305-1.012,0.267-2.08,1.279-2.385
				c1.012-0.305,2.079,0.267,2.385,1.279C212.497,441.261,211.925,442.329,210.913,442.634z"/>
			<path style="fill:#FFFFFF;" d="M207.246,442.242c-1.012,0.305-2.08-0.267-2.385-1.279c-0.305-1.012,0.267-2.079,1.279-2.385
				c1.012-0.305,2.08,0.267,2.385,1.279C208.831,440.869,208.258,441.937,207.246,442.242z"/>
			<path style="fill:#FFFFFF;" d="M203.857,443.265c-1.012,0.306-2.08-0.267-2.385-1.279c-0.305-1.012,0.267-2.079,1.279-2.385
				c1.012-0.306,2.08,0.267,2.385,1.279C205.441,441.892,204.869,442.96,203.857,443.265z"/>
			<path style="fill:#FFFFFF;" d="M200.19,442.374c-1.012,0.305-2.079-0.267-2.385-1.279c-0.305-1.012,0.267-2.08,1.279-2.385
				c1.012-0.305,2.08,0.267,2.385,1.279C201.774,441,201.201,442.068,200.19,442.374z"/>
			<path style="fill:#FFFFFF;" d="M197.678,439.683c-1.012,0.305-2.08-0.267-2.385-1.279c-0.305-1.012,0.267-2.08,1.279-2.385
				c1.012-0.306,2.08,0.267,2.385,1.279C199.263,438.31,198.69,439.378,197.678,439.683z"/>
			<path style="fill:#FFFFFF;" d="M194.715,439.221c-0.692,0.209-1.422-0.183-1.631-0.874c-0.209-0.692,0.183-1.422,0.874-1.631
				c0.692-0.209,1.422,0.183,1.631,0.875C195.799,438.282,195.407,439.012,194.715,439.221z"/>
			<path style="fill:#FFFFFF;" d="M198.874,437.024c-1.012,0.305-2.08-0.267-2.385-1.279c-0.305-1.012,0.267-2.08,1.279-2.385
				c1.012-0.305,2.08,0.267,2.385,1.279C200.459,435.65,199.886,436.718,198.874,437.024z"/>
			<path style="fill:#FFFFFF;" d="M201.837,435.579c-1.012,0.306-2.08-0.267-2.385-1.279c-0.305-1.012,0.267-2.08,1.279-2.385
				c1.012-0.305,2.08,0.267,2.385,1.279C203.421,434.206,202.848,435.274,201.837,435.579z"/>
			<path style="fill:#FFFFFF;" d="M205.103,435.143c-1.012,0.305-2.08-0.267-2.385-1.279c-0.306-1.012,0.267-2.08,1.279-2.385
				c1.012-0.305,2.079,0.267,2.385,1.279C206.688,433.77,206.115,434.838,205.103,435.143z"/>
			<path style="fill:#FFFFFF;" d="M208.438,434.436c-1.012,0.305-2.08-0.267-2.385-1.279c-0.306-1.012,0.267-2.08,1.279-2.385
				c1.012-0.305,2.079,0.267,2.385,1.279C210.022,433.063,209.45,434.131,208.438,434.436z"/>
			<path style="fill:#FFFFFF;" d="M211.745,433.638c-1.012,0.305-2.08-0.267-2.385-1.279c-0.306-1.012,0.267-2.08,1.279-2.385
				c1.012-0.306,2.08,0.267,2.385,1.279C213.329,432.264,212.757,433.332,211.745,433.638z"/>
			<path style="fill:#FFFFFF;" d="M215.475,433.461c-1.012,0.306-2.08-0.267-2.385-1.279c-0.305-1.012,0.267-2.079,1.279-2.385
				c1.012-0.305,2.08,0.267,2.385,1.279C217.059,432.088,216.486,433.156,215.475,433.461z"/>
			<path style="fill:#FFFFFF;" d="M218.736,432.677c-1.012,0.306-2.08-0.267-2.385-1.279c-0.305-1.012,0.267-2.08,1.279-2.385
				c1.012-0.305,2.08,0.267,2.385,1.279C220.32,431.303,219.748,432.371,218.736,432.677z"/>
			<path style="fill:#FFFFFF;" d="M222.357,433.208c-1.069,0.323-2.197-0.282-2.519-1.351c-0.323-1.069,0.282-2.197,1.351-2.519
				c1.069-0.323,2.197,0.282,2.519,1.351C224.031,431.757,223.426,432.885,222.357,433.208z"/>
			<path style="fill:#FFFFFF;" d="M225.8,432.131c-1.069,0.323-2.197-0.282-2.519-1.351c-0.323-1.069,0.282-2.197,1.351-2.519
				c1.069-0.323,2.197,0.282,2.519,1.351C227.474,430.681,226.869,431.809,225.8,432.131z"/>
			<path style="fill:#FFFFFF;" d="M229.118,431.186c-1.069,0.323-2.197-0.282-2.519-1.351c-0.323-1.069,0.282-2.197,1.351-2.519
				c1.069-0.323,2.197,0.282,2.519,1.351C230.791,429.735,230.186,430.863,229.118,431.186z"/>
			<path style="fill:#FFFFFF;" d="M232.376,430.866c-1.069,0.323-2.196-0.282-2.519-1.351c-0.323-1.069,0.282-2.197,1.351-2.519
				c1.069-0.323,2.197,0.282,2.519,1.351C234.049,429.415,233.444,430.543,232.376,430.866z"/>
			<path style="fill:#FFFFFF;" d="M235.994,430.866c-1.069,0.323-2.197-0.282-2.519-1.351c-0.323-1.069,0.282-2.197,1.351-2.519
				c1.069-0.323,2.197,0.282,2.519,1.351C237.667,429.415,237.062,430.543,235.994,430.866z"/>
			<path style="fill:#FFFFFF;" d="M239.387,430.109c-1.069,0.323-2.197-0.282-2.519-1.351c-0.323-1.069,0.282-2.197,1.351-2.519
				c1.069-0.323,2.197,0.282,2.519,1.351C241.06,428.659,240.455,429.787,239.387,430.109z"/>
			<path style="fill:#FFFFFF;" d="M243.216,429.629c-1.069,0.323-2.197-0.282-2.519-1.351c-0.323-1.069,0.282-2.197,1.351-2.519
				c1.069-0.323,2.197,0.282,2.519,1.351C244.89,428.178,244.285,429.306,243.216,429.629z"/>
			<path style="fill:#FFFFFF;" d="M246.88,430.109c-1.069,0.323-2.197-0.282-2.519-1.351c-0.323-1.069,0.282-2.197,1.351-2.519
				c1.069-0.323,2.197,0.282,2.519,1.351C248.554,428.659,247.949,429.787,246.88,430.109z"/>
			<path style="fill:#FFFFFF;" d="M249.8,431.186c-1.069,0.323-2.197-0.282-2.519-1.351s0.282-2.197,1.351-2.519
				s2.197,0.282,2.519,1.351C251.474,429.735,250.869,430.863,249.8,431.186z"/>
			<path style="fill:#FFFFFF;" d="M250.816,433.208c-1.069,0.323-2.197-0.282-2.519-1.351c-0.323-1.069,0.282-2.197,1.351-2.519
				c1.069-0.323,2.197,0.282,2.519,1.351C252.49,431.757,251.885,432.885,250.816,433.208z"/>
			<path style="fill:#FFFFFF;" d="M193.317,437.702c0,0-0.384-0.609-1.719-0.48c-1.336,0.128-3.175,0.409-3.175,0.409l0.064,0.955
				l0.797-0.091l-0.728,0.32l0.401,1.328l1.03-0.311l-0.868,0.437l0.398,0.904c0,0,2.184-1.209,2.98-1.549
				c0.797-0.34,1.096-1.005,1.096-1.005L193.317,437.702z"/>
		</g>
	</g>
</g>
</svg>
